<?xml version="1.0" encoding="utf-8" standalone="no"?>
<!DOCTYPE svg PUBLIC "-//W3C//DTD SVG 1.1//EN"
  "http://www.w3.org/Graphics/SVG/1.1/DTD/svg11.dtd">
<svg xmlns:xlink="http://www.w3.org/1999/xlink" width="460.8pt" height="345.6pt" viewBox="0 0 460.8 345.6" xmlns="http://www.w3.org/2000/svg" version="1.1">
 <metadata>
  <rdf:RDF xmlns:dc="http://purl.org/dc/elements/1.1/" xmlns:cc="http://creativecommons.org/ns#" xmlns:rdf="http://www.w3.org/1999/02/22-rdf-syntax-ns#">
   <cc:Work>
    <dc:type rdf:resource="http://purl.org/dc/dcmitype/StillImage"/>
    <dc:date>2023-11-16T13:33:52.198820</dc:date>
    <dc:format>image/svg+xml</dc:format>
    <dc:creator>
     <cc:Agent>
      <dc:title>Matplotlib v3.8.0, https://matplotlib.org/</dc:title>
     </cc:Agent>
    </dc:creator>
   </cc:Work>
  </rdf:RDF>
 </metadata>
 <defs>
  <style type="text/css">*{stroke-linejoin: round; stroke-linecap: butt}</style>
 </defs>
 <g id="figure_1">
  <g id="patch_1">
   <path d="M 0 345.6 
L 460.8 345.6 
L 460.8 0 
L 0 0 
z
" style="fill: #ffffff"/>
  </g>
  <g id="axes_1">
   <g id="patch_2">
    <path d="M 57.6 307.584 
L 414.72 307.584 
L 414.72 41.472 
L 57.6 41.472 
z
" style="fill: #ffffff"/>
   </g>
   <g id="matplotlib.axis_1">
    <g id="xtick_1">
     <g id="line2d_1">
      <defs>
       <path id="maa1c3b1993" d="M 0 0 
L 0 3.5 
" style="stroke: #000000; stroke-width: 0.8"/>
      </defs>
      <g>
       <use xlink:href="#maa1c3b1993" x="73.832727" y="307.584" style="stroke: #000000; stroke-width: 0.8"/>
      </g>
     </g>
     <g id="text_1">
      <!-- 0 -->
      <g transform="translate(70.651477 322.182437) scale(0.1 -0.1)">
       <defs>
        <path id="DejaVuSans-30" d="M 2034 4250 
Q 1547 4250 1301 3770 
Q 1056 3291 1056 2328 
Q 1056 1369 1301 889 
Q 1547 409 2034 409 
Q 2525 409 2770 889 
Q 3016 1369 3016 2328 
Q 3016 3291 2770 3770 
Q 2525 4250 2034 4250 
z
M 2034 4750 
Q 2819 4750 3233 4129 
Q 3647 3509 3647 2328 
Q 3647 1150 3233 529 
Q 2819 -91 2034 -91 
Q 1250 -91 836 529 
Q 422 1150 422 2328 
Q 422 3509 836 4129 
Q 1250 4750 2034 4750 
z
" transform="scale(0.015625)"/>
       </defs>
       <use xlink:href="#DejaVuSans-30"/>
      </g>
     </g>
    </g>
    <g id="xtick_2">
     <g id="line2d_2">
      <g>
       <use xlink:href="#maa1c3b1993" x="126.196364" y="307.584" style="stroke: #000000; stroke-width: 0.8"/>
      </g>
     </g>
     <g id="text_2">
      <!-- 20 -->
      <g transform="translate(119.833864 322.182437) scale(0.1 -0.1)">
       <defs>
        <path id="DejaVuSans-32" d="M 1228 531 
L 3431 531 
L 3431 0 
L 469 0 
L 469 531 
Q 828 903 1448 1529 
Q 2069 2156 2228 2338 
Q 2531 2678 2651 2914 
Q 2772 3150 2772 3378 
Q 2772 3750 2511 3984 
Q 2250 4219 1831 4219 
Q 1534 4219 1204 4116 
Q 875 4013 500 3803 
L 500 4441 
Q 881 4594 1212 4672 
Q 1544 4750 1819 4750 
Q 2544 4750 2975 4387 
Q 3406 4025 3406 3419 
Q 3406 3131 3298 2873 
Q 3191 2616 2906 2266 
Q 2828 2175 2409 1742 
Q 1991 1309 1228 531 
z
" transform="scale(0.015625)"/>
       </defs>
       <use xlink:href="#DejaVuSans-32"/>
       <use xlink:href="#DejaVuSans-30" x="63.623047"/>
      </g>
     </g>
    </g>
    <g id="xtick_3">
     <g id="line2d_3">
      <g>
       <use xlink:href="#maa1c3b1993" x="178.56" y="307.584" style="stroke: #000000; stroke-width: 0.8"/>
      </g>
     </g>
     <g id="text_3">
      <!-- 40 -->
      <g transform="translate(172.1975 322.182437) scale(0.1 -0.1)">
       <defs>
        <path id="DejaVuSans-34" d="M 2419 4116 
L 825 1625 
L 2419 1625 
L 2419 4116 
z
M 2253 4666 
L 3047 4666 
L 3047 1625 
L 3713 1625 
L 3713 1100 
L 3047 1100 
L 3047 0 
L 2419 0 
L 2419 1100 
L 313 1100 
L 313 1709 
L 2253 4666 
z
" transform="scale(0.015625)"/>
       </defs>
       <use xlink:href="#DejaVuSans-34"/>
       <use xlink:href="#DejaVuSans-30" x="63.623047"/>
      </g>
     </g>
    </g>
    <g id="xtick_4">
     <g id="line2d_4">
      <g>
       <use xlink:href="#maa1c3b1993" x="230.923636" y="307.584" style="stroke: #000000; stroke-width: 0.8"/>
      </g>
     </g>
     <g id="text_4">
      <!-- 60 -->
      <g transform="translate(224.561136 322.182437) scale(0.1 -0.1)">
       <defs>
        <path id="DejaVuSans-36" d="M 2113 2584 
Q 1688 2584 1439 2293 
Q 1191 2003 1191 1497 
Q 1191 994 1439 701 
Q 1688 409 2113 409 
Q 2538 409 2786 701 
Q 3034 994 3034 1497 
Q 3034 2003 2786 2293 
Q 2538 2584 2113 2584 
z
M 3366 4563 
L 3366 3988 
Q 3128 4100 2886 4159 
Q 2644 4219 2406 4219 
Q 1781 4219 1451 3797 
Q 1122 3375 1075 2522 
Q 1259 2794 1537 2939 
Q 1816 3084 2150 3084 
Q 2853 3084 3261 2657 
Q 3669 2231 3669 1497 
Q 3669 778 3244 343 
Q 2819 -91 2113 -91 
Q 1303 -91 875 529 
Q 447 1150 447 2328 
Q 447 3434 972 4092 
Q 1497 4750 2381 4750 
Q 2619 4750 2861 4703 
Q 3103 4656 3366 4563 
z
" transform="scale(0.015625)"/>
       </defs>
       <use xlink:href="#DejaVuSans-36"/>
       <use xlink:href="#DejaVuSans-30" x="63.623047"/>
      </g>
     </g>
    </g>
    <g id="xtick_5">
     <g id="line2d_5">
      <g>
       <use xlink:href="#maa1c3b1993" x="283.287273" y="307.584" style="stroke: #000000; stroke-width: 0.8"/>
      </g>
     </g>
     <g id="text_5">
      <!-- 80 -->
      <g transform="translate(276.924773 322.182437) scale(0.1 -0.1)">
       <defs>
        <path id="DejaVuSans-38" d="M 2034 2216 
Q 1584 2216 1326 1975 
Q 1069 1734 1069 1313 
Q 1069 891 1326 650 
Q 1584 409 2034 409 
Q 2484 409 2743 651 
Q 3003 894 3003 1313 
Q 3003 1734 2745 1975 
Q 2488 2216 2034 2216 
z
M 1403 2484 
Q 997 2584 770 2862 
Q 544 3141 544 3541 
Q 544 4100 942 4425 
Q 1341 4750 2034 4750 
Q 2731 4750 3128 4425 
Q 3525 4100 3525 3541 
Q 3525 3141 3298 2862 
Q 3072 2584 2669 2484 
Q 3125 2378 3379 2068 
Q 3634 1759 3634 1313 
Q 3634 634 3220 271 
Q 2806 -91 2034 -91 
Q 1263 -91 848 271 
Q 434 634 434 1313 
Q 434 1759 690 2068 
Q 947 2378 1403 2484 
z
M 1172 3481 
Q 1172 3119 1398 2916 
Q 1625 2713 2034 2713 
Q 2441 2713 2670 2916 
Q 2900 3119 2900 3481 
Q 2900 3844 2670 4047 
Q 2441 4250 2034 4250 
Q 1625 4250 1398 4047 
Q 1172 3844 1172 3481 
z
" transform="scale(0.015625)"/>
       </defs>
       <use xlink:href="#DejaVuSans-38"/>
       <use xlink:href="#DejaVuSans-30" x="63.623047"/>
      </g>
     </g>
    </g>
    <g id="xtick_6">
     <g id="line2d_6">
      <g>
       <use xlink:href="#maa1c3b1993" x="335.650909" y="307.584" style="stroke: #000000; stroke-width: 0.8"/>
      </g>
     </g>
     <g id="text_6">
      <!-- 100 -->
      <g transform="translate(326.107159 322.182437) scale(0.1 -0.1)">
       <defs>
        <path id="DejaVuSans-31" d="M 794 531 
L 1825 531 
L 1825 4091 
L 703 3866 
L 703 4441 
L 1819 4666 
L 2450 4666 
L 2450 531 
L 3481 531 
L 3481 0 
L 794 0 
L 794 531 
z
" transform="scale(0.015625)"/>
       </defs>
       <use xlink:href="#DejaVuSans-31"/>
       <use xlink:href="#DejaVuSans-30" x="63.623047"/>
       <use xlink:href="#DejaVuSans-30" x="127.246094"/>
      </g>
     </g>
    </g>
    <g id="xtick_7">
     <g id="line2d_7">
      <g>
       <use xlink:href="#maa1c3b1993" x="388.014545" y="307.584" style="stroke: #000000; stroke-width: 0.8"/>
      </g>
     </g>
     <g id="text_7">
      <!-- 120 -->
      <g transform="translate(378.470795 322.182437) scale(0.1 -0.1)">
       <use xlink:href="#DejaVuSans-31"/>
       <use xlink:href="#DejaVuSans-32" x="63.623047"/>
       <use xlink:href="#DejaVuSans-30" x="127.246094"/>
      </g>
     </g>
    </g>
   </g>
   <g id="matplotlib.axis_2">
    <g id="ytick_1">
     <g id="line2d_8">
      <defs>
       <path id="m99a823ddd1" d="M 0 0 
L -3.5 0 
" style="stroke: #000000; stroke-width: 0.8"/>
      </defs>
      <g>
       <use xlink:href="#m99a823ddd1" x="57.6" y="288.575897" style="stroke: #000000; stroke-width: 0.8"/>
      </g>
     </g>
     <g id="text_8">
      <!-- −100 -->
      <g transform="translate(23.132812 292.375116) scale(0.1 -0.1)">
       <defs>
        <path id="DejaVuSans-2212" d="M 678 2272 
L 4684 2272 
L 4684 1741 
L 678 1741 
L 678 2272 
z
" transform="scale(0.015625)"/>
       </defs>
       <use xlink:href="#DejaVuSans-2212"/>
       <use xlink:href="#DejaVuSans-31" x="83.789062"/>
       <use xlink:href="#DejaVuSans-30" x="147.412109"/>
       <use xlink:href="#DejaVuSans-30" x="211.035156"/>
      </g>
     </g>
    </g>
    <g id="ytick_2">
     <g id="line2d_9">
      <g>
       <use xlink:href="#m99a823ddd1" x="57.6" y="231.55029" style="stroke: #000000; stroke-width: 0.8"/>
      </g>
     </g>
     <g id="text_9">
      <!-- −50 -->
      <g transform="translate(29.495313 235.349509) scale(0.1 -0.1)">
       <defs>
        <path id="DejaVuSans-35" d="M 691 4666 
L 3169 4666 
L 3169 4134 
L 1269 4134 
L 1269 2991 
Q 1406 3038 1543 3061 
Q 1681 3084 1819 3084 
Q 2600 3084 3056 2656 
Q 3513 2228 3513 1497 
Q 3513 744 3044 326 
Q 2575 -91 1722 -91 
Q 1428 -91 1123 -41 
Q 819 9 494 109 
L 494 744 
Q 775 591 1075 516 
Q 1375 441 1709 441 
Q 2250 441 2565 725 
Q 2881 1009 2881 1497 
Q 2881 1984 2565 2268 
Q 2250 2553 1709 2553 
Q 1456 2553 1204 2497 
Q 953 2441 691 2322 
L 691 4666 
z
" transform="scale(0.015625)"/>
       </defs>
       <use xlink:href="#DejaVuSans-2212"/>
       <use xlink:href="#DejaVuSans-35" x="83.789062"/>
       <use xlink:href="#DejaVuSans-30" x="147.412109"/>
      </g>
     </g>
    </g>
    <g id="ytick_3">
     <g id="line2d_10">
      <g>
       <use xlink:href="#m99a823ddd1" x="57.6" y="174.524684" style="stroke: #000000; stroke-width: 0.8"/>
      </g>
     </g>
     <g id="text_10">
      <!-- 0 -->
      <g transform="translate(44.2375 178.323902) scale(0.1 -0.1)">
       <use xlink:href="#DejaVuSans-30"/>
      </g>
     </g>
    </g>
    <g id="ytick_4">
     <g id="line2d_11">
      <g>
       <use xlink:href="#m99a823ddd1" x="57.6" y="117.499077" style="stroke: #000000; stroke-width: 0.8"/>
      </g>
     </g>
     <g id="text_11">
      <!-- 50 -->
      <g transform="translate(37.875 121.298296) scale(0.1 -0.1)">
       <use xlink:href="#DejaVuSans-35"/>
       <use xlink:href="#DejaVuSans-30" x="63.623047"/>
      </g>
     </g>
    </g>
    <g id="ytick_5">
     <g id="line2d_12">
      <g>
       <use xlink:href="#m99a823ddd1" x="57.6" y="60.47347" style="stroke: #000000; stroke-width: 0.8"/>
      </g>
     </g>
     <g id="text_12">
      <!-- 100 -->
      <g transform="translate(31.5125 64.272689) scale(0.1 -0.1)">
       <use xlink:href="#DejaVuSans-31"/>
       <use xlink:href="#DejaVuSans-30" x="63.623047"/>
       <use xlink:href="#DejaVuSans-30" x="127.246094"/>
      </g>
     </g>
    </g>
   </g>
   <g id="line2d_13">
    <path d="M 73.832727 174.524684 
L 76.450909 161.455377 
L 79.069091 148.386071 
L 81.687273 135.316765 
L 84.305455 122.247458 
L 86.923636 109.178152 
L 89.541818 96.108846 
L 92.16 83.039539 
L 94.778182 275.262417 
L 97.396364 262.193111 
L 100.014545 249.123804 
L 102.632727 236.054498 
L 105.250909 222.985192 
L 107.869091 209.915885 
L 110.487273 196.846579 
L 113.105455 183.777273 
L 115.723636 170.707966 
L 118.341818 157.63866 
L 120.96 144.569353 
L 123.578182 131.500047 
L 126.196364 118.430741 
L 128.814545 105.361434 
L 131.432727 92.292128 
L 134.050909 79.222822 
L 136.669091 271.4457 
L 139.287273 258.376393 
L 141.905455 245.307087 
L 144.523636 232.23778 
L 147.141818 219.168474 
L 149.76 206.099168 
L 152.378182 193.029861 
L 154.996364 179.960555 
L 157.614545 166.891249 
L 160.232727 153.821942 
L 162.850909 140.752636 
L 165.469091 127.68333 
L 168.087273 114.614023 
L 170.705455 101.544717 
L 173.323636 88.475411 
L 175.941818 75.406104 
L 178.56 267.628982 
L 181.178182 254.559676 
L 183.796364 241.490369 
L 186.414545 228.421063 
L 189.032727 215.351757 
L 191.650909 202.28245 
L 194.269091 189.213144 
L 196.887273 176.143838 
L 199.505455 163.074531 
L 202.123636 150.005225 
L 204.741818 136.935918 
L 207.36 123.866612 
L 209.978182 110.797306 
L 212.596364 97.727999 
L 215.214545 84.658693 
L 217.832727 276.881571 
L 220.450909 263.812264 
L 223.069091 250.742958 
L 225.687273 237.673652 
L 228.305455 224.604345 
L 230.923636 211.535039 
L 233.541818 198.465733 
L 236.16 185.396426 
L 238.778182 172.32712 
L 241.396364 159.257814 
L 244.014545 146.188507 
L 246.632727 133.119201 
L 249.250909 120.049895 
L 251.869091 106.980588 
L 254.487273 93.911282 
L 257.105455 80.841975 
L 259.723636 273.064853 
L 262.341818 259.995547 
L 264.96 246.926241 
L 267.578182 233.856934 
L 270.196364 220.787628 
L 272.814545 207.718322 
L 275.432727 194.649015 
L 278.050909 181.579709 
L 280.669091 168.510402 
L 283.287273 155.441096 
L 285.905455 142.37179 
L 288.523636 129.302483 
L 291.141818 116.233177 
L 293.76 103.163871 
L 296.378182 90.094564 
L 298.996364 77.025258 
L 301.614545 269.248136 
L 304.232727 256.178829 
L 306.850909 243.109523 
L 309.469091 230.040217 
L 312.087273 216.97091 
L 314.705455 203.901604 
L 317.323636 190.832298 
L 319.941818 177.762991 
L 322.56 164.693685 
L 325.178182 151.624379 
L 327.796364 138.555072 
L 330.414545 125.485766 
L 333.032727 112.41646 
L 335.650909 99.347153 
L 338.269091 86.277847 
L 340.887273 73.20854 
L 343.505455 265.431418 
L 346.123636 252.362112 
L 348.741818 239.292806 
L 351.36 226.223499 
L 353.978182 213.154193 
L 356.596364 200.084887 
L 359.214545 187.01558 
L 361.832727 173.946274 
L 364.450909 160.876967 
L 367.069091 147.807661 
L 369.687273 134.738355 
L 372.305455 121.669048 
L 374.923636 108.599742 
L 377.541818 95.530436 
L 380.16 82.461129 
L 382.778182 274.684007 
L 385.396364 261.614701 
L 388.014545 248.545394 
L 390.632727 235.476088 
L 393.250909 222.406782 
L 395.869091 209.337475 
L 398.487273 196.268169 
" clip-path="url(#pf2a43b6f13)" style="fill: none; stroke: #1f77b4; stroke-width: 1.5; stroke-linecap: square"/>
   </g>
   <g id="line2d_14">
    <path d="M 73.832727 174.524684 
L 76.450909 174.524684 
L 79.069091 174.524684 
L 81.687273 174.524684 
L 84.305455 174.524684 
L 86.923636 174.524684 
L 89.541818 174.524684 
L 92.16 174.524684 
L 94.778182 174.524684 
L 97.396364 174.524684 
L 100.014545 174.524684 
L 102.632727 174.524684 
L 105.250909 174.524684 
L 107.869091 174.524684 
L 110.487273 174.524684 
L 113.105455 174.524684 
L 115.723636 174.524684 
L 118.341818 174.524684 
L 120.96 174.524684 
L 123.578182 174.524684 
L 126.196364 174.524684 
L 128.814545 174.524684 
L 131.432727 174.524684 
L 134.050909 174.524684 
L 136.669091 174.524684 
L 139.287273 174.524684 
L 141.905455 174.524684 
L 144.523636 174.524684 
L 147.141818 174.524684 
L 149.76 174.524684 
L 152.378182 174.524684 
L 154.996364 174.524684 
L 157.614545 174.524684 
L 160.232727 174.524684 
L 162.850909 174.524684 
L 165.469091 174.524684 
L 168.087273 174.524684 
L 170.705455 174.524684 
L 173.323636 174.524684 
L 175.941818 174.524684 
L 178.56 174.524684 
L 181.178182 174.524684 
L 183.796364 174.524684 
L 186.414545 174.524684 
L 189.032727 174.524684 
L 191.650909 174.524684 
L 194.269091 174.524684 
L 196.887273 174.524684 
L 199.505455 174.524684 
L 202.123636 174.524684 
L 204.741818 174.524684 
L 207.36 174.524684 
L 209.978182 174.524684 
L 212.596364 174.524684 
L 215.214545 174.524684 
L 217.832727 174.524684 
L 220.450909 174.524684 
L 223.069091 174.524684 
L 225.687273 174.524684 
L 228.305455 174.524684 
L 230.923636 174.524684 
L 233.541818 174.524684 
L 236.16 174.524684 
L 238.778182 174.524684 
L 241.396364 174.524684 
L 244.014545 174.524684 
L 246.632727 174.524684 
L 249.250909 174.524684 
L 251.869091 174.524684 
L 254.487273 174.524684 
L 257.105455 174.524684 
L 259.723636 174.524684 
L 262.341818 174.524684 
L 264.96 174.524684 
L 267.578182 174.524684 
L 270.196364 174.524684 
L 272.814545 174.524684 
L 275.432727 174.524684 
L 278.050909 174.524684 
L 280.669091 174.524684 
L 283.287273 174.524684 
L 285.905455 174.524684 
L 288.523636 174.524684 
L 291.141818 174.524684 
L 293.76 174.524684 
L 296.378182 174.524684 
L 298.996364 174.524684 
L 301.614545 174.524684 
L 304.232727 174.524684 
L 306.850909 174.524684 
L 309.469091 174.524684 
L 312.087273 174.524684 
L 314.705455 174.524684 
L 317.323636 174.524684 
L 319.941818 174.524684 
L 322.56 174.524684 
L 325.178182 174.524684 
L 327.796364 174.524684 
L 330.414545 174.524684 
L 333.032727 174.524684 
L 335.650909 174.524684 
L 338.269091 174.524684 
L 340.887273 174.524684 
L 343.505455 174.524684 
L 346.123636 174.524684 
L 348.741818 174.524684 
L 351.36 174.524684 
L 353.978182 174.524684 
L 356.596364 174.524684 
L 359.214545 174.524684 
L 361.832727 174.524684 
L 364.450909 174.524684 
L 367.069091 174.524684 
L 369.687273 174.524684 
L 372.305455 174.524684 
L 374.923636 174.524684 
L 377.541818 174.524684 
L 380.16 174.524684 
L 382.778182 174.524684 
L 385.396364 174.524684 
L 388.014545 174.524684 
L 390.632727 174.524684 
L 393.250909 174.524684 
L 395.869091 174.524684 
L 398.487273 174.524684 
" clip-path="url(#pf2a43b6f13)" style="fill: none; stroke: #ff7f0e; stroke-width: 1.5; stroke-linecap: square"/>
   </g>
   <g id="line2d_15">
    <path d="M 73.832727 88.986274 
L 76.450909 73.697488 
L 79.069091 62.428365 
L 81.687273 55.628168 
L 84.305455 53.568 
L 86.923636 56.329993 
L 89.541818 63.804036 
L 92.16 75.692161 
L 94.778182 91.520428 
L 97.396364 110.657812 
L 100.014545 132.341366 
L 102.632727 155.706637 
L 105.250909 179.822123 
L 107.869091 203.726418 
L 110.487273 226.466531 
L 113.105455 247.135887 
L 115.723636 264.910463 
L 118.341818 279.081644 
L 120.96 289.084468 
L 123.578182 294.520155 
L 126.196364 295.172002 
L 128.814545 291.014021 
L 131.432727 282.211977 
L 134.050909 269.116781 
L 136.669091 252.250497 
L 139.287273 232.285529 
L 141.905455 210.017819 
L 144.523636 186.33511 
L 147.141818 162.181556 
L 149.76 138.520084 
L 152.378182 116.294001 
L 154.996364 96.389393 
L 157.614545 79.599791 
L 160.232727 66.594546 
L 162.850909 57.892134 
L 165.469091 53.839494 
L 168.087273 54.598192 
L 170.705455 60.137981 
L 173.323636 70.238006 
L 175.941818 84.495613 
L 178.56 102.342394 
L 181.178182 123.066855 
L 183.796364 145.842778 
L 186.414545 169.762157 
L 189.032727 193.871404 
L 191.650909 217.209358 
L 194.269091 238.845608 
L 196.887273 257.917587 
L 199.505455 273.664953 
L 202.123636 285.45991 
L 204.741818 292.832229 
L 207.36 295.488 
L 209.978182 293.321345 
L 212.596364 286.418642 
L 215.214545 275.05508 
L 217.832727 259.683689 
L 220.450909 240.917277 
L 223.069091 219.504001 
L 225.687273 196.297542 
L 228.305455 172.223068 
L 230.923636 148.240352 
L 233.541818 125.305509 
L 236.16 104.33288 
L 238.778182 86.158576 
L 241.396364 71.50715 
L 244.014545 60.962708 
L 246.632727 54.945624 
L 249.250909 53.69578 
L 251.869091 57.263002 
L 254.487273 65.505078 
L 257.105455 78.093421 
L 259.723636 94.526175 
L 262.341818 114.148216 
L 264.96 136.177277 
L 267.578182 159.735128 
L 270.196364 183.882592 
L 272.814545 207.656986 
L 275.432727 230.110499 
L 278.050909 250.347981 
L 280.669091 267.562628 
L 283.287273 281.068145 
L 285.905455 290.326111 
L 288.523636 294.967439 
L 291.141818 294.807095 
L 293.76 289.851471 
L 296.378182 280.298131 
L 298.996364 266.527938 
L 301.614545 249.089866 
L 304.232727 228.679115 
L 306.850909 206.109397 
L 309.469091 182.280497 
L 312.087273 158.142398 
L 314.705455 134.657408 
L 317.323636 112.7618 
L 319.941818 93.328484 
L 322.56 77.132204 
L 325.178182 64.818655 
L 327.796364 56.878739 
L 330.414545 53.628996 
L 333.032727 55.198982 
L 335.650909 61.526108 
L 338.269091 72.35813 
L 340.887273 87.26321 
L 343.505455 105.64713 
L 346.123636 126.77698 
L 348.741818 149.810381 
L 351.36 173.829063 
L 353.978182 197.875477 
L 356.596364 220.990969 
L 359.214545 242.253996 
L 361.832727 260.81687 
L 364.450909 275.939546 
L 367.069091 287.019132 
L 369.687273 293.61392 
L 372.305455 295.460995 
L 374.923636 292.486721 
L 377.541818 284.809673 
L 380.16 272.735911 
L 382.778182 256.746776 
L 385.396364 237.479707 
L 388.014545 215.702819 
L 390.632727 192.284289 
L 393.250909 168.15774 
L 395.869091 144.28502 
L 398.487273 121.617861 
" clip-path="url(#pf2a43b6f13)" style="fill: none; stroke: #2ca02c; stroke-width: 1.5; stroke-linecap: square"/>
   </g>
   <g id="line2d_16">
    <path d="M 73.832727 88.986274 
L 76.450909 73.697488 
L 79.069091 62.428365 
L 81.687273 55.628168 
L 84.305455 53.568 
L 86.923636 56.329993 
L 89.541818 63.804036 
L 92.16 75.692161 
L 94.778182 91.520428 
L 97.396364 110.657812 
L 100.014545 132.341366 
L 102.632727 155.706637 
L 105.250909 179.822123 
L 107.869091 203.726418 
L 110.487273 226.466531 
L 113.105455 247.135887 
L 115.723636 264.910463 
L 118.341818 279.081644 
L 120.96 289.084468 
L 123.578182 294.520155 
L 126.196364 295.172002 
L 128.814545 291.014021 
L 131.432727 282.211977 
L 134.050909 269.116781 
L 136.669091 252.250497 
L 139.287273 232.285529 
L 141.905455 210.017819 
L 144.523636 186.33511 
L 147.141818 162.181556 
L 149.76 138.520084 
L 152.378182 116.294001 
L 154.996364 96.389393 
L 157.614545 79.599791 
L 160.232727 66.594546 
L 162.850909 57.892134 
L 165.469091 53.839494 
L 168.087273 54.598192 
L 170.705455 60.137981 
L 173.323636 70.238006 
L 175.941818 84.495613 
L 178.56 102.342394 
L 181.178182 123.066855 
L 183.796364 145.842778 
L 186.414545 169.762157 
L 189.032727 193.871404 
L 191.650909 217.209358 
L 194.269091 238.845608 
L 196.887273 257.917587 
L 199.505455 273.664953 
L 202.123636 285.45991 
L 204.741818 292.832229 
L 207.36 295.488 
L 209.978182 293.321345 
L 212.596364 286.418642 
L 215.214545 275.05508 
L 217.832727 259.683689 
L 220.450909 240.917277 
L 223.069091 219.504001 
L 225.687273 196.297542 
L 228.305455 172.223068 
L 230.923636 148.240352 
L 233.541818 125.305509 
L 236.16 104.33288 
L 238.778182 86.158576 
L 241.396364 71.50715 
L 244.014545 60.962708 
L 246.632727 54.945624 
L 249.250909 53.69578 
L 251.869091 57.263002 
L 254.487273 65.505078 
L 257.105455 78.093421 
L 259.723636 94.526175 
L 262.341818 114.148216 
L 264.96 136.177277 
L 267.578182 159.735128 
L 270.196364 183.882592 
L 272.814545 207.656986 
L 275.432727 230.110499 
L 278.050909 250.347981 
L 280.669091 267.562628 
L 283.287273 281.068145 
L 285.905455 290.326111 
L 288.523636 294.967439 
L 291.141818 294.807095 
L 293.76 289.851471 
L 296.378182 280.298131 
L 298.996364 266.527938 
L 301.614545 249.089866 
L 304.232727 228.679115 
L 306.850909 206.109397 
L 309.469091 182.280497 
L 312.087273 158.142398 
L 314.705455 134.657408 
L 317.323636 112.7618 
L 319.941818 93.328484 
L 322.56 77.132204 
L 325.178182 64.818655 
L 327.796364 56.878739 
L 330.414545 53.628996 
L 333.032727 55.198982 
L 335.650909 61.526108 
L 338.269091 72.35813 
L 340.887273 87.26321 
L 343.505455 105.64713 
L 346.123636 126.77698 
L 348.741818 149.810381 
L 351.36 173.829063 
L 353.978182 197.875477 
L 356.596364 220.990969 
L 359.214545 242.253996 
L 361.832727 260.81687 
L 364.450909 275.939546 
L 367.069091 287.019132 
L 369.687273 293.61392 
L 372.305455 295.460995 
L 374.923636 292.486721 
L 377.541818 284.809673 
L 380.16 272.735911 
L 382.778182 256.746776 
L 385.396364 237.479707 
L 388.014545 215.702819 
L 390.632727 192.284289 
L 393.250909 168.15774 
L 395.869091 144.28502 
L 398.487273 121.617861 
" clip-path="url(#pf2a43b6f13)" style="fill: none; stroke: #d62728; stroke-width: 1.5; stroke-linecap: square"/>
   </g>
   <g id="line2d_17">
    <path d="M 73.832727 174.524684 
L 76.450909 161.455377 
L 79.069091 148.386071 
L 81.687273 135.316765 
L 84.305455 122.247458 
L 86.923636 109.178152 
L 89.541818 96.108846 
L 92.16 83.039539 
L 94.778182 275.262417 
L 97.396364 262.193111 
L 100.014545 249.123804 
L 102.632727 236.054498 
L 105.250909 222.985192 
L 107.869091 209.915885 
L 110.487273 196.846579 
L 113.105455 183.777273 
L 115.723636 170.707966 
L 118.341818 157.63866 
L 120.96 144.569353 
L 123.578182 131.500047 
L 126.196364 118.430741 
L 128.814545 105.361434 
L 131.432727 92.292128 
L 134.050909 79.222822 
L 136.669091 271.4457 
L 139.287273 258.376393 
L 141.905455 245.307087 
L 144.523636 232.23778 
L 147.141818 219.168474 
L 149.76 206.099168 
L 152.378182 193.029861 
L 154.996364 179.960555 
L 157.614545 166.891249 
L 160.232727 153.821942 
L 162.850909 140.752636 
L 165.469091 127.68333 
L 168.087273 114.614023 
L 170.705455 101.544717 
L 173.323636 88.475411 
L 175.941818 75.406104 
L 178.56 267.628982 
L 181.178182 254.559676 
L 183.796364 241.490369 
L 186.414545 228.421063 
L 189.032727 215.351757 
L 191.650909 202.28245 
L 194.269091 189.213144 
L 196.887273 176.143838 
L 199.505455 163.074531 
L 202.123636 150.005225 
L 204.741818 136.935918 
L 207.36 123.866612 
L 209.978182 110.797306 
L 212.596364 97.727999 
L 215.214545 84.658693 
L 217.832727 276.881571 
L 220.450909 263.812264 
L 223.069091 250.742958 
L 225.687273 237.673652 
L 228.305455 224.604345 
L 230.923636 211.535039 
L 233.541818 198.465733 
L 236.16 185.396426 
L 238.778182 172.32712 
L 241.396364 159.257814 
L 244.014545 146.188507 
L 246.632727 133.119201 
L 249.250909 120.049895 
L 251.869091 106.980588 
L 254.487273 93.911282 
L 257.105455 80.841975 
L 259.723636 273.064853 
L 262.341818 259.995547 
L 264.96 246.926241 
L 267.578182 233.856934 
L 270.196364 220.787628 
L 272.814545 207.718322 
L 275.432727 194.649015 
L 278.050909 181.579709 
L 280.669091 168.510402 
L 283.287273 155.441096 
L 285.905455 142.37179 
L 288.523636 129.302483 
L 291.141818 116.233177 
L 293.76 103.163871 
L 296.378182 90.094564 
L 298.996364 77.025258 
L 301.614545 269.248136 
L 304.232727 256.178829 
L 306.850909 243.109523 
L 309.469091 230.040217 
L 312.087273 216.97091 
L 314.705455 203.901604 
L 317.323636 190.832298 
L 319.941818 177.762991 
L 322.56 164.693685 
L 325.178182 151.624379 
L 327.796364 138.555072 
L 330.414545 125.485766 
L 333.032727 112.41646 
L 335.650909 99.347153 
L 338.269091 86.277847 
L 340.887273 73.20854 
L 343.505455 265.431418 
L 346.123636 252.362112 
L 348.741818 239.292806 
L 351.36 226.223499 
L 353.978182 213.154193 
L 356.596364 200.084887 
L 359.214545 187.01558 
L 361.832727 173.946274 
L 364.450909 160.876967 
L 367.069091 147.807661 
L 369.687273 134.738355 
L 372.305455 121.669048 
L 374.923636 108.599742 
L 377.541818 95.530436 
L 380.16 82.461129 
L 382.778182 274.684007 
L 385.396364 261.614701 
L 388.014545 248.545394 
L 390.632727 235.476088 
L 393.250909 222.406782 
L 395.869091 209.337475 
L 398.487273 196.268169 
" clip-path="url(#pf2a43b6f13)" style="fill: none; stroke: #9467bd; stroke-width: 1.5; stroke-linecap: square"/>
   </g>
   <g id="patch_3">
    <path d="M 57.6 307.584 
L 57.6 41.472 
" style="fill: none; stroke: #000000; stroke-width: 0.8; stroke-linejoin: miter; stroke-linecap: square"/>
   </g>
   <g id="patch_4">
    <path d="M 414.72 307.584 
L 414.72 41.472 
" style="fill: none; stroke: #000000; stroke-width: 0.8; stroke-linejoin: miter; stroke-linecap: square"/>
   </g>
   <g id="patch_5">
    <path d="M 57.6 307.584 
L 414.72 307.584 
" style="fill: none; stroke: #000000; stroke-width: 0.8; stroke-linejoin: miter; stroke-linecap: square"/>
   </g>
   <g id="patch_6">
    <path d="M 57.6 41.472 
L 414.72 41.472 
" style="fill: none; stroke: #000000; stroke-width: 0.8; stroke-linejoin: miter; stroke-linecap: square"/>
   </g>
   <g id="text_13">
    <!-- opóżnienie 10/5pi -->
    <g transform="translate(182.680313 35.472) scale(0.12 -0.12)">
     <defs>
      <path id="DejaVuSans-6f" d="M 1959 3097 
Q 1497 3097 1228 2736 
Q 959 2375 959 1747 
Q 959 1119 1226 758 
Q 1494 397 1959 397 
Q 2419 397 2687 759 
Q 2956 1122 2956 1747 
Q 2956 2369 2687 2733 
Q 2419 3097 1959 3097 
z
M 1959 3584 
Q 2709 3584 3137 3096 
Q 3566 2609 3566 1747 
Q 3566 888 3137 398 
Q 2709 -91 1959 -91 
Q 1206 -91 779 398 
Q 353 888 353 1747 
Q 353 2609 779 3096 
Q 1206 3584 1959 3584 
z
" transform="scale(0.015625)"/>
      <path id="DejaVuSans-70" d="M 1159 525 
L 1159 -1331 
L 581 -1331 
L 581 3500 
L 1159 3500 
L 1159 2969 
Q 1341 3281 1617 3432 
Q 1894 3584 2278 3584 
Q 2916 3584 3314 3078 
Q 3713 2572 3713 1747 
Q 3713 922 3314 415 
Q 2916 -91 2278 -91 
Q 1894 -91 1617 61 
Q 1341 213 1159 525 
z
M 3116 1747 
Q 3116 2381 2855 2742 
Q 2594 3103 2138 3103 
Q 1681 3103 1420 2742 
Q 1159 2381 1159 1747 
Q 1159 1113 1420 752 
Q 1681 391 2138 391 
Q 2594 391 2855 752 
Q 3116 1113 3116 1747 
z
" transform="scale(0.015625)"/>
      <path id="DejaVuSans-f3" d="M 1959 3097 
Q 1497 3097 1228 2736 
Q 959 2375 959 1747 
Q 959 1119 1226 758 
Q 1494 397 1959 397 
Q 2419 397 2687 759 
Q 2956 1122 2956 1747 
Q 2956 2369 2687 2733 
Q 2419 3097 1959 3097 
z
M 1959 3584 
Q 2709 3584 3137 3096 
Q 3566 2609 3566 1747 
Q 3566 888 3137 398 
Q 2709 -91 1959 -91 
Q 1206 -91 779 398 
Q 353 888 353 1747 
Q 353 2609 779 3096 
Q 1206 3584 1959 3584 
z
M 2394 5119 
L 3016 5119 
L 1998 3944 
L 1519 3944 
L 2394 5119 
z
" transform="scale(0.015625)"/>
      <path id="DejaVuSans-17c" d="M 1378 4863 
L 1953 4863 
L 1953 4134 
L 1378 4134 
L 1378 4863 
z
M 1672 3584 
L 1672 3584 
z
M 353 3500 
L 3084 3500 
L 3084 2975 
L 922 459 
L 3084 459 
L 3084 0 
L 275 0 
L 275 525 
L 2438 3041 
L 353 3041 
L 353 3500 
z
" transform="scale(0.015625)"/>
      <path id="DejaVuSans-6e" d="M 3513 2113 
L 3513 0 
L 2938 0 
L 2938 2094 
Q 2938 2591 2744 2837 
Q 2550 3084 2163 3084 
Q 1697 3084 1428 2787 
Q 1159 2491 1159 1978 
L 1159 0 
L 581 0 
L 581 3500 
L 1159 3500 
L 1159 2956 
Q 1366 3272 1645 3428 
Q 1925 3584 2291 3584 
Q 2894 3584 3203 3211 
Q 3513 2838 3513 2113 
z
" transform="scale(0.015625)"/>
      <path id="DejaVuSans-69" d="M 603 3500 
L 1178 3500 
L 1178 0 
L 603 0 
L 603 3500 
z
M 603 4863 
L 1178 4863 
L 1178 4134 
L 603 4134 
L 603 4863 
z
" transform="scale(0.015625)"/>
      <path id="DejaVuSans-65" d="M 3597 1894 
L 3597 1613 
L 953 1613 
Q 991 1019 1311 708 
Q 1631 397 2203 397 
Q 2534 397 2845 478 
Q 3156 559 3463 722 
L 3463 178 
Q 3153 47 2828 -22 
Q 2503 -91 2169 -91 
Q 1331 -91 842 396 
Q 353 884 353 1716 
Q 353 2575 817 3079 
Q 1281 3584 2069 3584 
Q 2775 3584 3186 3129 
Q 3597 2675 3597 1894 
z
M 3022 2063 
Q 3016 2534 2758 2815 
Q 2500 3097 2075 3097 
Q 1594 3097 1305 2825 
Q 1016 2553 972 2059 
L 3022 2063 
z
" transform="scale(0.015625)"/>
      <path id="DejaVuSans-20" transform="scale(0.015625)"/>
      <path id="DejaVuSans-2f" d="M 1625 4666 
L 2156 4666 
L 531 -594 
L 0 -594 
L 1625 4666 
z
" transform="scale(0.015625)"/>
     </defs>
     <use xlink:href="#DejaVuSans-6f"/>
     <use xlink:href="#DejaVuSans-70" x="61.181641"/>
     <use xlink:href="#DejaVuSans-f3" x="124.658203"/>
     <use xlink:href="#DejaVuSans-17c" x="185.839844"/>
     <use xlink:href="#DejaVuSans-6e" x="238.330078"/>
     <use xlink:href="#DejaVuSans-69" x="301.708984"/>
     <use xlink:href="#DejaVuSans-65" x="329.492188"/>
     <use xlink:href="#DejaVuSans-6e" x="391.015625"/>
     <use xlink:href="#DejaVuSans-69" x="454.394531"/>
     <use xlink:href="#DejaVuSans-65" x="482.177734"/>
     <use xlink:href="#DejaVuSans-20" x="543.701172"/>
     <use xlink:href="#DejaVuSans-31" x="575.488281"/>
     <use xlink:href="#DejaVuSans-30" x="639.111328"/>
     <use xlink:href="#DejaVuSans-2f" x="702.734375"/>
     <use xlink:href="#DejaVuSans-35" x="736.425781"/>
     <use xlink:href="#DejaVuSans-70" x="800.048828"/>
     <use xlink:href="#DejaVuSans-69" x="863.525391"/>
    </g>
   </g>
  </g>
 </g>
 <defs>
  <clipPath id="pf2a43b6f13">
   <rect x="57.6" y="41.472" width="357.12" height="266.112"/>
  </clipPath>
 </defs>
</svg>
