<?xml version="1.0" encoding="utf-8" standalone="no"?>
<!DOCTYPE svg PUBLIC "-//W3C//DTD SVG 1.1//EN"
  "http://www.w3.org/Graphics/SVG/1.1/DTD/svg11.dtd">
<svg xmlns:xlink="http://www.w3.org/1999/xlink" width="460.8pt" height="345.6pt" viewBox="0 0 460.8 345.6" xmlns="http://www.w3.org/2000/svg" version="1.1">
 <metadata>
  <rdf:RDF xmlns:dc="http://purl.org/dc/elements/1.1/" xmlns:cc="http://creativecommons.org/ns#" xmlns:rdf="http://www.w3.org/1999/02/22-rdf-syntax-ns#">
   <cc:Work>
    <dc:type rdf:resource="http://purl.org/dc/dcmitype/StillImage"/>
    <dc:date>2023-11-19T21:42:15.582173</dc:date>
    <dc:format>image/svg+xml</dc:format>
    <dc:creator>
     <cc:Agent>
      <dc:title>Matplotlib v3.8.0, https://matplotlib.org/</dc:title>
     </cc:Agent>
    </dc:creator>
   </cc:Work>
  </rdf:RDF>
 </metadata>
 <defs>
  <style type="text/css">*{stroke-linejoin: round; stroke-linecap: butt}</style>
 </defs>
 <g id="figure_1">
  <g id="patch_1">
   <path d="M 0 345.6 
L 460.8 345.6 
L 460.8 0 
L 0 0 
z
" style="fill: #ffffff"/>
  </g>
  <g id="axes_1">
   <g id="patch_2">
    <path d="M 57.6 307.584 
L 414.72 307.584 
L 414.72 41.472 
L 57.6 41.472 
z
" style="fill: #ffffff"/>
   </g>
   <g id="matplotlib.axis_1">
    <g id="xtick_1">
     <g id="line2d_1">
      <path d="M 73.832727 307.584 
L 73.832727 41.472 
" clip-path="url(#pdb2af15631)" style="fill: none; stroke: #b0b0b0; stroke-width: 0.8; stroke-linecap: square"/>
     </g>
     <g id="line2d_2">
      <defs>
       <path id="m846d740812" d="M 0 0 
L 0 3.5 
" style="stroke: #000000; stroke-width: 0.8"/>
      </defs>
      <g>
       <use xlink:href="#m846d740812" x="73.832727" y="307.584" style="stroke: #000000; stroke-width: 0.8"/>
      </g>
     </g>
     <g id="text_1">
      <!-- 0 -->
      <g transform="translate(70.651477 322.182437) scale(0.1 -0.1)">
       <defs>
        <path id="DejaVuSans-30" d="M 2034 4250 
Q 1547 4250 1301 3770 
Q 1056 3291 1056 2328 
Q 1056 1369 1301 889 
Q 1547 409 2034 409 
Q 2525 409 2770 889 
Q 3016 1369 3016 2328 
Q 3016 3291 2770 3770 
Q 2525 4250 2034 4250 
z
M 2034 4750 
Q 2819 4750 3233 4129 
Q 3647 3509 3647 2328 
Q 3647 1150 3233 529 
Q 2819 -91 2034 -91 
Q 1250 -91 836 529 
Q 422 1150 422 2328 
Q 422 3509 836 4129 
Q 1250 4750 2034 4750 
z
" transform="scale(0.015625)"/>
       </defs>
       <use xlink:href="#DejaVuSans-30"/>
      </g>
     </g>
    </g>
    <g id="xtick_2">
     <g id="line2d_3">
      <path d="M 142.037464 307.584 
L 142.037464 41.472 
" clip-path="url(#pdb2af15631)" style="fill: none; stroke: #b0b0b0; stroke-width: 0.8; stroke-linecap: square"/>
     </g>
     <g id="line2d_4">
      <g>
       <use xlink:href="#m846d740812" x="142.037464" y="307.584" style="stroke: #000000; stroke-width: 0.8"/>
      </g>
     </g>
     <g id="text_2">
      <!-- 50 -->
      <g transform="translate(135.674964 322.182437) scale(0.1 -0.1)">
       <defs>
        <path id="DejaVuSans-35" d="M 691 4666 
L 3169 4666 
L 3169 4134 
L 1269 4134 
L 1269 2991 
Q 1406 3038 1543 3061 
Q 1681 3084 1819 3084 
Q 2600 3084 3056 2656 
Q 3513 2228 3513 1497 
Q 3513 744 3044 326 
Q 2575 -91 1722 -91 
Q 1428 -91 1123 -41 
Q 819 9 494 109 
L 494 744 
Q 775 591 1075 516 
Q 1375 441 1709 441 
Q 2250 441 2565 725 
Q 2881 1009 2881 1497 
Q 2881 1984 2565 2268 
Q 2250 2553 1709 2553 
Q 1456 2553 1204 2497 
Q 953 2441 691 2322 
L 691 4666 
z
" transform="scale(0.015625)"/>
       </defs>
       <use xlink:href="#DejaVuSans-35"/>
       <use xlink:href="#DejaVuSans-30" x="63.623047"/>
      </g>
     </g>
    </g>
    <g id="xtick_3">
     <g id="line2d_5">
      <path d="M 210.2422 307.584 
L 210.2422 41.472 
" clip-path="url(#pdb2af15631)" style="fill: none; stroke: #b0b0b0; stroke-width: 0.8; stroke-linecap: square"/>
     </g>
     <g id="line2d_6">
      <g>
       <use xlink:href="#m846d740812" x="210.2422" y="307.584" style="stroke: #000000; stroke-width: 0.8"/>
      </g>
     </g>
     <g id="text_3">
      <!-- 100 -->
      <g transform="translate(200.69845 322.182437) scale(0.1 -0.1)">
       <defs>
        <path id="DejaVuSans-31" d="M 794 531 
L 1825 531 
L 1825 4091 
L 703 3866 
L 703 4441 
L 1819 4666 
L 2450 4666 
L 2450 531 
L 3481 531 
L 3481 0 
L 794 0 
L 794 531 
z
" transform="scale(0.015625)"/>
       </defs>
       <use xlink:href="#DejaVuSans-31"/>
       <use xlink:href="#DejaVuSans-30" x="63.623047"/>
       <use xlink:href="#DejaVuSans-30" x="127.246094"/>
      </g>
     </g>
    </g>
    <g id="xtick_4">
     <g id="line2d_7">
      <path d="M 278.446937 307.584 
L 278.446937 41.472 
" clip-path="url(#pdb2af15631)" style="fill: none; stroke: #b0b0b0; stroke-width: 0.8; stroke-linecap: square"/>
     </g>
     <g id="line2d_8">
      <g>
       <use xlink:href="#m846d740812" x="278.446937" y="307.584" style="stroke: #000000; stroke-width: 0.8"/>
      </g>
     </g>
     <g id="text_4">
      <!-- 150 -->
      <g transform="translate(268.903187 322.182437) scale(0.1 -0.1)">
       <use xlink:href="#DejaVuSans-31"/>
       <use xlink:href="#DejaVuSans-35" x="63.623047"/>
       <use xlink:href="#DejaVuSans-30" x="127.246094"/>
      </g>
     </g>
    </g>
    <g id="xtick_5">
     <g id="line2d_9">
      <path d="M 346.651673 307.584 
L 346.651673 41.472 
" clip-path="url(#pdb2af15631)" style="fill: none; stroke: #b0b0b0; stroke-width: 0.8; stroke-linecap: square"/>
     </g>
     <g id="line2d_10">
      <g>
       <use xlink:href="#m846d740812" x="346.651673" y="307.584" style="stroke: #000000; stroke-width: 0.8"/>
      </g>
     </g>
     <g id="text_5">
      <!-- 200 -->
      <g transform="translate(337.107923 322.182437) scale(0.1 -0.1)">
       <defs>
        <path id="DejaVuSans-32" d="M 1228 531 
L 3431 531 
L 3431 0 
L 469 0 
L 469 531 
Q 828 903 1448 1529 
Q 2069 2156 2228 2338 
Q 2531 2678 2651 2914 
Q 2772 3150 2772 3378 
Q 2772 3750 2511 3984 
Q 2250 4219 1831 4219 
Q 1534 4219 1204 4116 
Q 875 4013 500 3803 
L 500 4441 
Q 881 4594 1212 4672 
Q 1544 4750 1819 4750 
Q 2544 4750 2975 4387 
Q 3406 4025 3406 3419 
Q 3406 3131 3298 2873 
Q 3191 2616 2906 2266 
Q 2828 2175 2409 1742 
Q 1991 1309 1228 531 
z
" transform="scale(0.015625)"/>
       </defs>
       <use xlink:href="#DejaVuSans-32"/>
       <use xlink:href="#DejaVuSans-30" x="63.623047"/>
       <use xlink:href="#DejaVuSans-30" x="127.246094"/>
      </g>
     </g>
    </g>
   </g>
   <g id="matplotlib.axis_2">
    <g id="ytick_1">
     <g id="line2d_11">
      <path d="M 57.6 301.292559 
L 414.72 301.292559 
" clip-path="url(#pdb2af15631)" style="fill: none; stroke: #b0b0b0; stroke-width: 0.8; stroke-linecap: square"/>
     </g>
     <g id="line2d_12">
      <defs>
       <path id="m5bcc125298" d="M 0 0 
L -3.5 0 
" style="stroke: #000000; stroke-width: 0.8"/>
      </defs>
      <g>
       <use xlink:href="#m5bcc125298" x="57.6" y="301.292559" style="stroke: #000000; stroke-width: 0.8"/>
      </g>
     </g>
     <g id="text_6">
      <!-- −150 -->
      <g transform="translate(23.132812 305.091778) scale(0.1 -0.1)">
       <defs>
        <path id="DejaVuSans-2212" d="M 678 2272 
L 4684 2272 
L 4684 1741 
L 678 1741 
L 678 2272 
z
" transform="scale(0.015625)"/>
       </defs>
       <use xlink:href="#DejaVuSans-2212"/>
       <use xlink:href="#DejaVuSans-31" x="83.789062"/>
       <use xlink:href="#DejaVuSans-35" x="147.412109"/>
       <use xlink:href="#DejaVuSans-30" x="211.035156"/>
      </g>
     </g>
    </g>
    <g id="ytick_2">
     <g id="line2d_13">
      <path d="M 57.6 252.921234 
L 414.72 252.921234 
" clip-path="url(#pdb2af15631)" style="fill: none; stroke: #b0b0b0; stroke-width: 0.8; stroke-linecap: square"/>
     </g>
     <g id="line2d_14">
      <g>
       <use xlink:href="#m5bcc125298" x="57.6" y="252.921234" style="stroke: #000000; stroke-width: 0.8"/>
      </g>
     </g>
     <g id="text_7">
      <!-- −100 -->
      <g transform="translate(23.132812 256.720453) scale(0.1 -0.1)">
       <use xlink:href="#DejaVuSans-2212"/>
       <use xlink:href="#DejaVuSans-31" x="83.789062"/>
       <use xlink:href="#DejaVuSans-30" x="147.412109"/>
       <use xlink:href="#DejaVuSans-30" x="211.035156"/>
      </g>
     </g>
    </g>
    <g id="ytick_3">
     <g id="line2d_15">
      <path d="M 57.6 204.549909 
L 414.72 204.549909 
" clip-path="url(#pdb2af15631)" style="fill: none; stroke: #b0b0b0; stroke-width: 0.8; stroke-linecap: square"/>
     </g>
     <g id="line2d_16">
      <g>
       <use xlink:href="#m5bcc125298" x="57.6" y="204.549909" style="stroke: #000000; stroke-width: 0.8"/>
      </g>
     </g>
     <g id="text_8">
      <!-- −50 -->
      <g transform="translate(29.495313 208.349128) scale(0.1 -0.1)">
       <use xlink:href="#DejaVuSans-2212"/>
       <use xlink:href="#DejaVuSans-35" x="83.789062"/>
       <use xlink:href="#DejaVuSans-30" x="147.412109"/>
      </g>
     </g>
    </g>
    <g id="ytick_4">
     <g id="line2d_17">
      <path d="M 57.6 156.178584 
L 414.72 156.178584 
" clip-path="url(#pdb2af15631)" style="fill: none; stroke: #b0b0b0; stroke-width: 0.8; stroke-linecap: square"/>
     </g>
     <g id="line2d_18">
      <g>
       <use xlink:href="#m5bcc125298" x="57.6" y="156.178584" style="stroke: #000000; stroke-width: 0.8"/>
      </g>
     </g>
     <g id="text_9">
      <!-- 0 -->
      <g transform="translate(44.2375 159.977802) scale(0.1 -0.1)">
       <use xlink:href="#DejaVuSans-30"/>
      </g>
     </g>
    </g>
    <g id="ytick_5">
     <g id="line2d_19">
      <path d="M 57.6 107.807259 
L 414.72 107.807259 
" clip-path="url(#pdb2af15631)" style="fill: none; stroke: #b0b0b0; stroke-width: 0.8; stroke-linecap: square"/>
     </g>
     <g id="line2d_20">
      <g>
       <use xlink:href="#m5bcc125298" x="57.6" y="107.807259" style="stroke: #000000; stroke-width: 0.8"/>
      </g>
     </g>
     <g id="text_10">
      <!-- 50 -->
      <g transform="translate(37.875 111.606477) scale(0.1 -0.1)">
       <use xlink:href="#DejaVuSans-35"/>
       <use xlink:href="#DejaVuSans-30" x="63.623047"/>
      </g>
     </g>
    </g>
    <g id="ytick_6">
     <g id="line2d_21">
      <path d="M 57.6 59.435933 
L 414.72 59.435933 
" clip-path="url(#pdb2af15631)" style="fill: none; stroke: #b0b0b0; stroke-width: 0.8; stroke-linecap: square"/>
     </g>
     <g id="line2d_22">
      <g>
       <use xlink:href="#m5bcc125298" x="57.6" y="59.435933" style="stroke: #000000; stroke-width: 0.8"/>
      </g>
     </g>
     <g id="text_11">
      <!-- 100 -->
      <g transform="translate(31.5125 63.235152) scale(0.1 -0.1)">
       <use xlink:href="#DejaVuSans-31"/>
       <use xlink:href="#DejaVuSans-30" x="63.623047"/>
       <use xlink:href="#DejaVuSans-30" x="127.246094"/>
      </g>
     </g>
    </g>
   </g>
   <g id="line2d_23">
    <path d="M 73.832727 121.35123 
L 79.289106 121.35123 
L 80.653201 295.488 
L 87.473675 295.488 
L 88.837769 121.35123 
L 122.940138 121.35123 
L 124.304232 295.488 
L 131.124706 295.488 
L 132.488801 121.35123 
L 165.227074 121.35123 
L 166.591169 295.488 
L 173.411642 295.488 
L 174.775737 121.35123 
L 207.514011 121.35123 
L 208.878105 295.488 
L 217.062674 295.488 
L 218.426769 121.35123 
L 251.165042 121.35123 
L 252.529137 295.488 
L 259.34961 295.488 
L 260.713705 121.35123 
L 293.451979 121.35123 
L 294.816073 295.488 
L 303.000642 295.488 
L 304.364736 121.35123 
L 337.10301 121.35123 
L 338.467105 295.488 
L 345.287578 295.488 
L 346.651673 121.35123 
L 379.389947 121.35123 
L 380.754041 295.488 
L 387.574515 295.488 
L 388.93861 121.35123 
L 398.487273 121.35123 
L 398.487273 121.35123 
" clip-path="url(#pdb2af15631)" style="fill: none; stroke: #1f77b4; stroke-width: 1.5; stroke-linecap: square"/>
   </g>
   <g id="line2d_24">
    <path d="M 73.832727 58.603694 
L 75.196822 62.261048 
L 76.560917 66.856795 
L 77.925011 72.345016 
L 79.289106 78.670874 
L 80.653201 85.771163 
L 83.38139 102.004233 
L 86.10958 120.397062 
L 90.201864 150.415441 
L 95.658243 190.765938 
L 98.386432 209.269173 
L 101.114622 225.655853 
L 102.478717 232.847297 
L 103.842811 239.272694 
L 105.206906 244.867841 
L 106.571001 249.576834 
L 107.935095 253.352623 
L 109.29919 256.157482 
L 110.663285 257.963384 
L 112.02738 258.752286 
L 113.391474 258.516305 
L 114.755569 257.2578 
L 116.119664 254.989345 
L 117.483759 251.733605 
L 118.847853 247.523111 
L 120.211948 242.399933 
L 121.576043 236.415259 
L 122.940138 229.628887 
L 124.304232 222.108624 
L 127.032422 205.173567 
L 129.760611 186.285234 
L 135.21699 145.708665 
L 139.309274 116.010907 
L 142.037464 98.05275 
L 144.765653 82.411887 
L 146.129748 75.659618 
L 147.493843 69.711869 
L 148.857937 64.628066 
L 150.222032 60.459006 
L 151.586127 57.246344 
L 152.950222 55.022181 
L 154.314316 53.808738 
L 155.678411 53.618142 
L 157.042506 54.452295 
L 158.4066 56.302864 
L 159.770695 59.151358 
L 161.13479 62.969316 
L 162.498885 67.718591 
L 163.862979 73.351728 
L 165.227074 79.812444 
L 166.591169 87.036185 
L 169.319358 103.477131 
L 172.047548 122.019117 
L 176.139832 152.138825 
L 181.596211 192.385375 
L 184.3244 210.73808 
L 187.05259 226.915669 
L 188.416684 233.98313 
L 189.780779 240.273194 
L 191.144874 245.723013 
L 192.508969 250.278133 
L 193.873063 253.893041 
L 195.237158 256.531619 
L 196.601253 258.167503 
L 197.965348 258.784347 
L 199.329442 258.375988 
L 200.693537 256.946506 
L 202.057632 254.510185 
L 203.421727 251.091367 
L 204.785821 246.724212 
L 206.149916 241.452354 
L 207.514011 235.32847 
L 208.878105 228.413745 
L 210.2422 220.777271 
L 212.97039 203.650727 
L 215.698579 184.631619 
L 221.154958 143.993858 
L 225.247242 114.428976 
L 227.975432 96.639181 
L 229.339526 88.593463 
L 230.703621 81.223034 
L 232.067716 74.601535 
L 233.431811 68.795128 
L 234.795905 63.861827 
L 236.16 59.850924 
L 237.524095 56.802496 
L 238.888189 54.747001 
L 240.252284 53.704976 
L 241.616379 53.686834 
L 242.980474 54.692756 
L 244.344568 56.71269 
L 245.708663 59.726455 
L 247.072758 63.703938 
L 248.436853 68.605396 
L 249.800947 74.381857 
L 251.165042 80.975604 
L 252.529137 88.320754 
L 255.257326 104.964929 
L 257.985516 123.65083 
L 262.0778 153.86335 
L 266.170084 184.282683 
L 268.898273 203.328622 
L 271.626463 220.494837 
L 272.990558 228.155486 
L 274.354652 235.096966 
L 275.718747 241.249919 
L 277.082842 246.552868 
L 278.446937 250.952827 
L 279.811031 254.405833 
L 281.175126 256.877384 
L 282.539221 258.342787 
L 283.903316 258.787399 
L 285.26741 258.206777 
L 286.631505 256.606723 
L 287.9956 254.003225 
L 289.359694 250.422295 
L 290.723789 245.899713 
L 292.087884 240.480667 
L 293.451979 234.219302 
L 294.816073 227.178181 
L 297.544263 211.045165 
L 300.272452 192.724792 
L 304.364736 162.757365 
L 309.821115 122.361618 
L 312.549305 103.788917 
L 315.277494 87.304827 
L 316.641589 80.055372 
L 318.005684 73.566516 
L 319.369778 67.903092 
L 320.733873 63.121687 
L 322.097968 59.270077 
L 323.462063 56.386744 
L 324.826157 54.500498 
L 326.190252 53.630186 
L 327.554347 53.784503 
L 328.918442 54.961909 
L 330.282536 57.150638 
L 331.646631 60.328821 
L 333.010726 64.464704 
L 334.37482 69.516961 
L 335.738915 75.435113 
L 337.10301 82.160027 
L 338.467105 89.624509 
L 341.195294 106.467207 
L 343.923484 125.29174 
L 348.015768 155.588531 
L 352.108052 185.93803 
L 354.836241 204.854321 
L 357.564431 221.830064 
L 358.928526 229.374953 
L 360.29262 236.188489 
L 361.656715 242.202592 
L 363.02081 247.357172 
L 364.384905 251.600726 
L 365.748999 254.890853 
L 367.113094 257.194679 
L 368.477189 258.489187 
L 369.841283 258.76144 
L 371.205378 258.00872 
L 372.569473 256.238546 
L 373.933568 253.468606 
L 375.297662 249.726577 
L 376.661757 245.049847 
L 378.025852 239.485145 
L 379.389947 233.088071 
L 380.754041 225.922543 
L 383.482231 209.579469 
L 386.21042 191.107471 
L 390.302704 161.034692 
L 395.759083 120.737493 
L 398.487273 102.31285 
L 398.487273 102.31285 
" clip-path="url(#pdb2af15631)" style="fill: none; stroke: #ff7f0e; stroke-width: 1.5; stroke-linecap: square"/>
   </g>
   <g id="line2d_25">
    <path d="M 73.832727 58.575627 
L 75.196822 55.901973 
L 76.560917 54.23025 
L 77.925011 53.57716 
L 79.289106 53.949231 
L 80.653201 55.342743 
L 82.017296 57.743773 
L 83.38139 61.128332 
L 84.745485 65.462601 
L 86.10958 70.703274 
L 87.473675 76.797989 
L 88.837769 83.685848 
L 90.201864 91.29803 
L 92.930053 108.384655 
L 95.658243 127.376672 
L 101.114622 168.002503 
L 105.206906 197.596059 
L 107.935095 215.421725 
L 109.29919 223.489916 
L 110.663285 230.885554 
L 112.02738 237.534745 
L 113.391474 243.371052 
L 114.755569 248.33616 
L 116.119664 252.380461 
L 117.483759 255.463544 
L 118.847853 257.554605 
L 120.211948 258.63275 
L 121.576043 258.687207 
L 122.940138 257.717431 
L 124.304232 255.733113 
L 125.668327 252.754079 
L 127.032422 248.810095 
L 128.396516 243.940567 
L 129.760611 238.19415 
L 131.124706 231.628261 
L 132.488801 224.308504 
L 135.21699 207.706733 
L 137.94518 189.050697 
L 142.037464 158.857011 
L 146.129748 128.424069 
L 148.857937 109.351516 
L 151.586127 92.145811 
L 152.950222 84.461062 
L 154.314316 77.492891 
L 155.678411 71.310921 
L 157.042506 65.976921 
L 158.4066 61.544186 
L 159.770695 58.057006 
L 161.13479 55.550225 
L 162.498885 54.04889 
L 163.862979 53.568 
L 165.227074 54.112361 
L 166.591169 55.676535 
L 167.955264 58.244891 
L 169.319358 61.791769 
L 170.683453 66.281729 
L 172.047548 71.669908 
L 173.411642 77.90247 
L 174.775737 84.917141 
L 177.503927 101.005343 
L 180.232116 119.293127 
L 184.3244 149.23729 
L 189.780779 189.652333 
L 192.508969 208.255541 
L 195.237158 224.782606 
L 196.601253 232.057705 
L 197.965348 238.574645 
L 199.329442 244.268311 
L 200.693537 249.081813 
L 202.057632 252.967057 
L 203.421727 255.885222 
L 204.785821 257.807152 
L 206.149916 258.713643 
L 207.514011 258.595637 
L 208.878105 257.454314 
L 210.2422 255.301077 
L 211.606295 252.157441 
L 212.97039 248.054816 
L 214.334484 243.034194 
L 215.698579 237.14574 
L 217.062674 230.448288 
L 218.426769 223.008758 
L 221.154958 206.207469 
L 223.883147 187.411685 
L 227.975432 157.131928 
L 232.067716 126.76701 
L 234.795905 107.822974 
L 237.524095 90.806724 
L 238.888189 83.237281 
L 240.252284 76.396644 
L 241.616379 70.353161 
L 242.980474 65.167218 
L 244.344568 60.890629 
L 245.708663 57.566127 
L 247.072758 55.226928 
L 248.436853 53.896404 
L 249.800947 53.58785 
L 251.165042 54.304349 
L 252.529137 56.038742 
L 253.893231 58.773698 
L 255.257326 62.481892 
L 256.621421 67.126273 
L 257.985516 72.660434 
L 259.34961 79.029082 
L 260.713705 86.168582 
L 263.441895 102.467807 
L 266.170084 120.908311 
L 270.262368 150.959612 
L 275.718747 191.278509 
L 278.446937 209.734763 
L 281.175126 226.0559 
L 282.539221 233.208403 
L 283.903316 239.59125 
L 285.26741 245.140664 
L 286.631505 249.801199 
L 287.9956 253.526288 
L 289.359694 256.278711 
L 290.723789 258.030966 
L 292.087884 258.765546 
L 293.451979 258.475111 
L 294.816073 257.162563 
L 296.180168 254.841016 
L 297.544263 251.533667 
L 298.908358 247.273561 
L 300.272452 242.103265 
L 301.636547 236.074437 
L 303.000642 229.247317 
L 304.364736 221.690118 
L 307.092926 204.69406 
L 309.821115 185.763844 
L 315.277494 145.166707 
L 319.369778 115.510012 
L 322.097968 97.604485 
L 324.826157 82.034123 
L 326.190252 75.322953 
L 327.554347 69.419666 
L 328.918442 64.383245 
L 330.282536 60.264014 
L 331.646631 57.103128 
L 333.010726 54.932172 
L 334.37482 53.772837 
L 335.738915 53.636706 
L 337.10301 54.525139 
L 338.467105 56.429261 
L 339.831199 59.330044 
L 341.195294 63.198506 
L 342.559389 67.995994 
L 343.923484 73.674574 
L 345.287578 80.177506 
L 346.651673 87.439816 
L 349.379862 103.945456 
L 352.108052 122.533466 
L 356.200336 152.683409 
L 361.656715 192.894762 
L 364.384905 211.198842 
L 367.113094 227.309438 
L 368.477189 234.337323 
L 369.841283 240.584271 
L 371.205378 245.987866 
L 372.569473 250.494116 
L 373.933568 254.057996 
L 375.297662 256.643898 
L 376.661757 258.225984 
L 378.025852 258.788445 
L 379.389947 258.325663 
L 380.754041 256.842261 
L 382.118136 254.353061 
L 383.482231 250.882933 
L 384.846325 246.466552 
L 386.21042 241.148042 
L 387.574515 234.980546 
L 388.93861 228.025687 
L 390.302704 220.352956 
L 393.030894 203.166935 
L 395.759083 184.107637 
L 398.487273 163.934896 
L 398.487273 163.934896 
" clip-path="url(#pdb2af15631)" style="fill: none; stroke: #2ca02c; stroke-width: 1.5; stroke-linecap: square"/>
   </g>
   <g id="patch_3">
    <path d="M 57.6 307.584 
L 57.6 41.472 
" style="fill: none; stroke: #000000; stroke-width: 0.8; stroke-linejoin: miter; stroke-linecap: square"/>
   </g>
   <g id="patch_4">
    <path d="M 414.72 307.584 
L 414.72 41.472 
" style="fill: none; stroke: #000000; stroke-width: 0.8; stroke-linejoin: miter; stroke-linecap: square"/>
   </g>
   <g id="patch_5">
    <path d="M 57.6 307.584 
L 414.72 307.584 
" style="fill: none; stroke: #000000; stroke-width: 0.8; stroke-linejoin: miter; stroke-linecap: square"/>
   </g>
   <g id="patch_6">
    <path d="M 57.6 41.472 
L 414.72 41.472 
" style="fill: none; stroke: #000000; stroke-width: 0.8; stroke-linejoin: miter; stroke-linecap: square"/>
   </g>
   <g id="text_12">
    <!-- faza=0.2pi wynik=36.0 -->
    <g transform="translate(165.803438 35.472) scale(0.12 -0.12)">
     <defs>
      <path id="DejaVuSans-66" d="M 2375 4863 
L 2375 4384 
L 1825 4384 
Q 1516 4384 1395 4259 
Q 1275 4134 1275 3809 
L 1275 3500 
L 2222 3500 
L 2222 3053 
L 1275 3053 
L 1275 0 
L 697 0 
L 697 3053 
L 147 3053 
L 147 3500 
L 697 3500 
L 697 3744 
Q 697 4328 969 4595 
Q 1241 4863 1831 4863 
L 2375 4863 
z
" transform="scale(0.015625)"/>
      <path id="DejaVuSans-61" d="M 2194 1759 
Q 1497 1759 1228 1600 
Q 959 1441 959 1056 
Q 959 750 1161 570 
Q 1363 391 1709 391 
Q 2188 391 2477 730 
Q 2766 1069 2766 1631 
L 2766 1759 
L 2194 1759 
z
M 3341 1997 
L 3341 0 
L 2766 0 
L 2766 531 
Q 2569 213 2275 61 
Q 1981 -91 1556 -91 
Q 1019 -91 701 211 
Q 384 513 384 1019 
Q 384 1609 779 1909 
Q 1175 2209 1959 2209 
L 2766 2209 
L 2766 2266 
Q 2766 2663 2505 2880 
Q 2244 3097 1772 3097 
Q 1472 3097 1187 3025 
Q 903 2953 641 2809 
L 641 3341 
Q 956 3463 1253 3523 
Q 1550 3584 1831 3584 
Q 2591 3584 2966 3190 
Q 3341 2797 3341 1997 
z
" transform="scale(0.015625)"/>
      <path id="DejaVuSans-7a" d="M 353 3500 
L 3084 3500 
L 3084 2975 
L 922 459 
L 3084 459 
L 3084 0 
L 275 0 
L 275 525 
L 2438 3041 
L 353 3041 
L 353 3500 
z
" transform="scale(0.015625)"/>
      <path id="DejaVuSans-3d" d="M 678 2906 
L 4684 2906 
L 4684 2381 
L 678 2381 
L 678 2906 
z
M 678 1631 
L 4684 1631 
L 4684 1100 
L 678 1100 
L 678 1631 
z
" transform="scale(0.015625)"/>
      <path id="DejaVuSans-2e" d="M 684 794 
L 1344 794 
L 1344 0 
L 684 0 
L 684 794 
z
" transform="scale(0.015625)"/>
      <path id="DejaVuSans-70" d="M 1159 525 
L 1159 -1331 
L 581 -1331 
L 581 3500 
L 1159 3500 
L 1159 2969 
Q 1341 3281 1617 3432 
Q 1894 3584 2278 3584 
Q 2916 3584 3314 3078 
Q 3713 2572 3713 1747 
Q 3713 922 3314 415 
Q 2916 -91 2278 -91 
Q 1894 -91 1617 61 
Q 1341 213 1159 525 
z
M 3116 1747 
Q 3116 2381 2855 2742 
Q 2594 3103 2138 3103 
Q 1681 3103 1420 2742 
Q 1159 2381 1159 1747 
Q 1159 1113 1420 752 
Q 1681 391 2138 391 
Q 2594 391 2855 752 
Q 3116 1113 3116 1747 
z
" transform="scale(0.015625)"/>
      <path id="DejaVuSans-69" d="M 603 3500 
L 1178 3500 
L 1178 0 
L 603 0 
L 603 3500 
z
M 603 4863 
L 1178 4863 
L 1178 4134 
L 603 4134 
L 603 4863 
z
" transform="scale(0.015625)"/>
      <path id="DejaVuSans-20" transform="scale(0.015625)"/>
      <path id="DejaVuSans-77" d="M 269 3500 
L 844 3500 
L 1563 769 
L 2278 3500 
L 2956 3500 
L 3675 769 
L 4391 3500 
L 4966 3500 
L 4050 0 
L 3372 0 
L 2619 2869 
L 1863 0 
L 1184 0 
L 269 3500 
z
" transform="scale(0.015625)"/>
      <path id="DejaVuSans-79" d="M 2059 -325 
Q 1816 -950 1584 -1140 
Q 1353 -1331 966 -1331 
L 506 -1331 
L 506 -850 
L 844 -850 
Q 1081 -850 1212 -737 
Q 1344 -625 1503 -206 
L 1606 56 
L 191 3500 
L 800 3500 
L 1894 763 
L 2988 3500 
L 3597 3500 
L 2059 -325 
z
" transform="scale(0.015625)"/>
      <path id="DejaVuSans-6e" d="M 3513 2113 
L 3513 0 
L 2938 0 
L 2938 2094 
Q 2938 2591 2744 2837 
Q 2550 3084 2163 3084 
Q 1697 3084 1428 2787 
Q 1159 2491 1159 1978 
L 1159 0 
L 581 0 
L 581 3500 
L 1159 3500 
L 1159 2956 
Q 1366 3272 1645 3428 
Q 1925 3584 2291 3584 
Q 2894 3584 3203 3211 
Q 3513 2838 3513 2113 
z
" transform="scale(0.015625)"/>
      <path id="DejaVuSans-6b" d="M 581 4863 
L 1159 4863 
L 1159 1991 
L 2875 3500 
L 3609 3500 
L 1753 1863 
L 3688 0 
L 2938 0 
L 1159 1709 
L 1159 0 
L 581 0 
L 581 4863 
z
" transform="scale(0.015625)"/>
      <path id="DejaVuSans-33" d="M 2597 2516 
Q 3050 2419 3304 2112 
Q 3559 1806 3559 1356 
Q 3559 666 3084 287 
Q 2609 -91 1734 -91 
Q 1441 -91 1130 -33 
Q 819 25 488 141 
L 488 750 
Q 750 597 1062 519 
Q 1375 441 1716 441 
Q 2309 441 2620 675 
Q 2931 909 2931 1356 
Q 2931 1769 2642 2001 
Q 2353 2234 1838 2234 
L 1294 2234 
L 1294 2753 
L 1863 2753 
Q 2328 2753 2575 2939 
Q 2822 3125 2822 3475 
Q 2822 3834 2567 4026 
Q 2313 4219 1838 4219 
Q 1578 4219 1281 4162 
Q 984 4106 628 3988 
L 628 4550 
Q 988 4650 1302 4700 
Q 1616 4750 1894 4750 
Q 2613 4750 3031 4423 
Q 3450 4097 3450 3541 
Q 3450 3153 3228 2886 
Q 3006 2619 2597 2516 
z
" transform="scale(0.015625)"/>
      <path id="DejaVuSans-36" d="M 2113 2584 
Q 1688 2584 1439 2293 
Q 1191 2003 1191 1497 
Q 1191 994 1439 701 
Q 1688 409 2113 409 
Q 2538 409 2786 701 
Q 3034 994 3034 1497 
Q 3034 2003 2786 2293 
Q 2538 2584 2113 2584 
z
M 3366 4563 
L 3366 3988 
Q 3128 4100 2886 4159 
Q 2644 4219 2406 4219 
Q 1781 4219 1451 3797 
Q 1122 3375 1075 2522 
Q 1259 2794 1537 2939 
Q 1816 3084 2150 3084 
Q 2853 3084 3261 2657 
Q 3669 2231 3669 1497 
Q 3669 778 3244 343 
Q 2819 -91 2113 -91 
Q 1303 -91 875 529 
Q 447 1150 447 2328 
Q 447 3434 972 4092 
Q 1497 4750 2381 4750 
Q 2619 4750 2861 4703 
Q 3103 4656 3366 4563 
z
" transform="scale(0.015625)"/>
     </defs>
     <use xlink:href="#DejaVuSans-66"/>
     <use xlink:href="#DejaVuSans-61" x="35.205078"/>
     <use xlink:href="#DejaVuSans-7a" x="96.484375"/>
     <use xlink:href="#DejaVuSans-61" x="148.974609"/>
     <use xlink:href="#DejaVuSans-3d" x="210.253906"/>
     <use xlink:href="#DejaVuSans-30" x="294.042969"/>
     <use xlink:href="#DejaVuSans-2e" x="357.666016"/>
     <use xlink:href="#DejaVuSans-32" x="389.453125"/>
     <use xlink:href="#DejaVuSans-70" x="453.076172"/>
     <use xlink:href="#DejaVuSans-69" x="516.552734"/>
     <use xlink:href="#DejaVuSans-20" x="544.335938"/>
     <use xlink:href="#DejaVuSans-77" x="576.123047"/>
     <use xlink:href="#DejaVuSans-79" x="657.910156"/>
     <use xlink:href="#DejaVuSans-6e" x="717.089844"/>
     <use xlink:href="#DejaVuSans-69" x="780.46875"/>
     <use xlink:href="#DejaVuSans-6b" x="808.251953"/>
     <use xlink:href="#DejaVuSans-3d" x="866.162109"/>
     <use xlink:href="#DejaVuSans-33" x="949.951172"/>
     <use xlink:href="#DejaVuSans-36" x="1013.574219"/>
     <use xlink:href="#DejaVuSans-2e" x="1077.197266"/>
     <use xlink:href="#DejaVuSans-30" x="1108.984375"/>
    </g>
   </g>
  </g>
 </g>
 <defs>
  <clipPath id="pdb2af15631">
   <rect x="57.6" y="41.472" width="357.12" height="266.112"/>
  </clipPath>
 </defs>
</svg>
