<?xml version="1.0" encoding="utf-8" standalone="no"?>
<!DOCTYPE svg PUBLIC "-//W3C//DTD SVG 1.1//EN"
  "http://www.w3.org/Graphics/SVG/1.1/DTD/svg11.dtd">
<svg xmlns:xlink="http://www.w3.org/1999/xlink" width="460.8pt" height="345.6pt" viewBox="0 0 460.8 345.6" xmlns="http://www.w3.org/2000/svg" version="1.1">
 <metadata>
  <rdf:RDF xmlns:dc="http://purl.org/dc/elements/1.1/" xmlns:cc="http://creativecommons.org/ns#" xmlns:rdf="http://www.w3.org/1999/02/22-rdf-syntax-ns#">
   <cc:Work>
    <dc:type rdf:resource="http://purl.org/dc/dcmitype/StillImage"/>
    <dc:date>2023-11-17T11:09:00.868023</dc:date>
    <dc:format>image/svg+xml</dc:format>
    <dc:creator>
     <cc:Agent>
      <dc:title>Matplotlib v3.8.0, https://matplotlib.org/</dc:title>
     </cc:Agent>
    </dc:creator>
   </cc:Work>
  </rdf:RDF>
 </metadata>
 <defs>
  <style type="text/css">*{stroke-linejoin: round; stroke-linecap: butt}</style>
 </defs>
 <g id="figure_1">
  <g id="patch_1">
   <path d="M 0 345.6 
L 460.8 345.6 
L 460.8 0 
L 0 0 
z
" style="fill: #ffffff"/>
  </g>
  <g id="axes_1">
   <g id="patch_2">
    <path d="M 57.6 307.584 
L 414.72 307.584 
L 414.72 41.472 
L 57.6 41.472 
z
" style="fill: #ffffff"/>
   </g>
   <g id="matplotlib.axis_1">
    <g id="xtick_1">
     <g id="line2d_1">
      <defs>
       <path id="maaa8c95873" d="M 0 0 
L 0 3.5 
" style="stroke: #000000; stroke-width: 0.8"/>
      </defs>
      <g>
       <use xlink:href="#maaa8c95873" x="73.832727" y="307.584" style="stroke: #000000; stroke-width: 0.8"/>
      </g>
     </g>
     <g id="text_1">
      <!-- 0 -->
      <g transform="translate(70.651477 322.182437) scale(0.1 -0.1)">
       <defs>
        <path id="DejaVuSans-30" d="M 2034 4250 
Q 1547 4250 1301 3770 
Q 1056 3291 1056 2328 
Q 1056 1369 1301 889 
Q 1547 409 2034 409 
Q 2525 409 2770 889 
Q 3016 1369 3016 2328 
Q 3016 3291 2770 3770 
Q 2525 4250 2034 4250 
z
M 2034 4750 
Q 2819 4750 3233 4129 
Q 3647 3509 3647 2328 
Q 3647 1150 3233 529 
Q 2819 -91 2034 -91 
Q 1250 -91 836 529 
Q 422 1150 422 2328 
Q 422 3509 836 4129 
Q 1250 4750 2034 4750 
z
" transform="scale(0.015625)"/>
       </defs>
       <use xlink:href="#DejaVuSans-30"/>
      </g>
     </g>
    </g>
    <g id="xtick_2">
     <g id="line2d_2">
      <g>
       <use xlink:href="#maaa8c95873" x="126.196364" y="307.584" style="stroke: #000000; stroke-width: 0.8"/>
      </g>
     </g>
     <g id="text_2">
      <!-- 20 -->
      <g transform="translate(119.833864 322.182437) scale(0.1 -0.1)">
       <defs>
        <path id="DejaVuSans-32" d="M 1228 531 
L 3431 531 
L 3431 0 
L 469 0 
L 469 531 
Q 828 903 1448 1529 
Q 2069 2156 2228 2338 
Q 2531 2678 2651 2914 
Q 2772 3150 2772 3378 
Q 2772 3750 2511 3984 
Q 2250 4219 1831 4219 
Q 1534 4219 1204 4116 
Q 875 4013 500 3803 
L 500 4441 
Q 881 4594 1212 4672 
Q 1544 4750 1819 4750 
Q 2544 4750 2975 4387 
Q 3406 4025 3406 3419 
Q 3406 3131 3298 2873 
Q 3191 2616 2906 2266 
Q 2828 2175 2409 1742 
Q 1991 1309 1228 531 
z
" transform="scale(0.015625)"/>
       </defs>
       <use xlink:href="#DejaVuSans-32"/>
       <use xlink:href="#DejaVuSans-30" x="63.623047"/>
      </g>
     </g>
    </g>
    <g id="xtick_3">
     <g id="line2d_3">
      <g>
       <use xlink:href="#maaa8c95873" x="178.56" y="307.584" style="stroke: #000000; stroke-width: 0.8"/>
      </g>
     </g>
     <g id="text_3">
      <!-- 40 -->
      <g transform="translate(172.1975 322.182437) scale(0.1 -0.1)">
       <defs>
        <path id="DejaVuSans-34" d="M 2419 4116 
L 825 1625 
L 2419 1625 
L 2419 4116 
z
M 2253 4666 
L 3047 4666 
L 3047 1625 
L 3713 1625 
L 3713 1100 
L 3047 1100 
L 3047 0 
L 2419 0 
L 2419 1100 
L 313 1100 
L 313 1709 
L 2253 4666 
z
" transform="scale(0.015625)"/>
       </defs>
       <use xlink:href="#DejaVuSans-34"/>
       <use xlink:href="#DejaVuSans-30" x="63.623047"/>
      </g>
     </g>
    </g>
    <g id="xtick_4">
     <g id="line2d_4">
      <g>
       <use xlink:href="#maaa8c95873" x="230.923636" y="307.584" style="stroke: #000000; stroke-width: 0.8"/>
      </g>
     </g>
     <g id="text_4">
      <!-- 60 -->
      <g transform="translate(224.561136 322.182437) scale(0.1 -0.1)">
       <defs>
        <path id="DejaVuSans-36" d="M 2113 2584 
Q 1688 2584 1439 2293 
Q 1191 2003 1191 1497 
Q 1191 994 1439 701 
Q 1688 409 2113 409 
Q 2538 409 2786 701 
Q 3034 994 3034 1497 
Q 3034 2003 2786 2293 
Q 2538 2584 2113 2584 
z
M 3366 4563 
L 3366 3988 
Q 3128 4100 2886 4159 
Q 2644 4219 2406 4219 
Q 1781 4219 1451 3797 
Q 1122 3375 1075 2522 
Q 1259 2794 1537 2939 
Q 1816 3084 2150 3084 
Q 2853 3084 3261 2657 
Q 3669 2231 3669 1497 
Q 3669 778 3244 343 
Q 2819 -91 2113 -91 
Q 1303 -91 875 529 
Q 447 1150 447 2328 
Q 447 3434 972 4092 
Q 1497 4750 2381 4750 
Q 2619 4750 2861 4703 
Q 3103 4656 3366 4563 
z
" transform="scale(0.015625)"/>
       </defs>
       <use xlink:href="#DejaVuSans-36"/>
       <use xlink:href="#DejaVuSans-30" x="63.623047"/>
      </g>
     </g>
    </g>
    <g id="xtick_5">
     <g id="line2d_5">
      <g>
       <use xlink:href="#maaa8c95873" x="283.287273" y="307.584" style="stroke: #000000; stroke-width: 0.8"/>
      </g>
     </g>
     <g id="text_5">
      <!-- 80 -->
      <g transform="translate(276.924773 322.182437) scale(0.1 -0.1)">
       <defs>
        <path id="DejaVuSans-38" d="M 2034 2216 
Q 1584 2216 1326 1975 
Q 1069 1734 1069 1313 
Q 1069 891 1326 650 
Q 1584 409 2034 409 
Q 2484 409 2743 651 
Q 3003 894 3003 1313 
Q 3003 1734 2745 1975 
Q 2488 2216 2034 2216 
z
M 1403 2484 
Q 997 2584 770 2862 
Q 544 3141 544 3541 
Q 544 4100 942 4425 
Q 1341 4750 2034 4750 
Q 2731 4750 3128 4425 
Q 3525 4100 3525 3541 
Q 3525 3141 3298 2862 
Q 3072 2584 2669 2484 
Q 3125 2378 3379 2068 
Q 3634 1759 3634 1313 
Q 3634 634 3220 271 
Q 2806 -91 2034 -91 
Q 1263 -91 848 271 
Q 434 634 434 1313 
Q 434 1759 690 2068 
Q 947 2378 1403 2484 
z
M 1172 3481 
Q 1172 3119 1398 2916 
Q 1625 2713 2034 2713 
Q 2441 2713 2670 2916 
Q 2900 3119 2900 3481 
Q 2900 3844 2670 4047 
Q 2441 4250 2034 4250 
Q 1625 4250 1398 4047 
Q 1172 3844 1172 3481 
z
" transform="scale(0.015625)"/>
       </defs>
       <use xlink:href="#DejaVuSans-38"/>
       <use xlink:href="#DejaVuSans-30" x="63.623047"/>
      </g>
     </g>
    </g>
    <g id="xtick_6">
     <g id="line2d_6">
      <g>
       <use xlink:href="#maaa8c95873" x="335.650909" y="307.584" style="stroke: #000000; stroke-width: 0.8"/>
      </g>
     </g>
     <g id="text_6">
      <!-- 100 -->
      <g transform="translate(326.107159 322.182437) scale(0.1 -0.1)">
       <defs>
        <path id="DejaVuSans-31" d="M 794 531 
L 1825 531 
L 1825 4091 
L 703 3866 
L 703 4441 
L 1819 4666 
L 2450 4666 
L 2450 531 
L 3481 531 
L 3481 0 
L 794 0 
L 794 531 
z
" transform="scale(0.015625)"/>
       </defs>
       <use xlink:href="#DejaVuSans-31"/>
       <use xlink:href="#DejaVuSans-30" x="63.623047"/>
       <use xlink:href="#DejaVuSans-30" x="127.246094"/>
      </g>
     </g>
    </g>
    <g id="xtick_7">
     <g id="line2d_7">
      <g>
       <use xlink:href="#maaa8c95873" x="388.014545" y="307.584" style="stroke: #000000; stroke-width: 0.8"/>
      </g>
     </g>
     <g id="text_7">
      <!-- 120 -->
      <g transform="translate(378.470795 322.182437) scale(0.1 -0.1)">
       <use xlink:href="#DejaVuSans-31"/>
       <use xlink:href="#DejaVuSans-32" x="63.623047"/>
       <use xlink:href="#DejaVuSans-30" x="127.246094"/>
      </g>
     </g>
    </g>
   </g>
   <g id="matplotlib.axis_2">
    <g id="ytick_1">
     <g id="line2d_8">
      <defs>
       <path id="me1fd92f5cd" d="M 0 0 
L -3.5 0 
" style="stroke: #000000; stroke-width: 0.8"/>
      </defs>
      <g>
       <use xlink:href="#me1fd92f5cd" x="57.6" y="301.292779" style="stroke: #000000; stroke-width: 0.8"/>
      </g>
     </g>
     <g id="text_8">
      <!-- −150 -->
      <g transform="translate(23.132812 305.091998) scale(0.1 -0.1)">
       <defs>
        <path id="DejaVuSans-2212" d="M 678 2272 
L 4684 2272 
L 4684 1741 
L 678 1741 
L 678 2272 
z
" transform="scale(0.015625)"/>
        <path id="DejaVuSans-35" d="M 691 4666 
L 3169 4666 
L 3169 4134 
L 1269 4134 
L 1269 2991 
Q 1406 3038 1543 3061 
Q 1681 3084 1819 3084 
Q 2600 3084 3056 2656 
Q 3513 2228 3513 1497 
Q 3513 744 3044 326 
Q 2575 -91 1722 -91 
Q 1428 -91 1123 -41 
Q 819 9 494 109 
L 494 744 
Q 775 591 1075 516 
Q 1375 441 1709 441 
Q 2250 441 2565 725 
Q 2881 1009 2881 1497 
Q 2881 1984 2565 2268 
Q 2250 2553 1709 2553 
Q 1456 2553 1204 2497 
Q 953 2441 691 2322 
L 691 4666 
z
" transform="scale(0.015625)"/>
       </defs>
       <use xlink:href="#DejaVuSans-2212"/>
       <use xlink:href="#DejaVuSans-31" x="83.789062"/>
       <use xlink:href="#DejaVuSans-35" x="147.412109"/>
       <use xlink:href="#DejaVuSans-30" x="211.035156"/>
      </g>
     </g>
    </g>
    <g id="ytick_2">
     <g id="line2d_9">
      <g>
       <use xlink:href="#me1fd92f5cd" x="57.6" y="252.919622" style="stroke: #000000; stroke-width: 0.8"/>
      </g>
     </g>
     <g id="text_9">
      <!-- −100 -->
      <g transform="translate(23.132812 256.718841) scale(0.1 -0.1)">
       <use xlink:href="#DejaVuSans-2212"/>
       <use xlink:href="#DejaVuSans-31" x="83.789062"/>
       <use xlink:href="#DejaVuSans-30" x="147.412109"/>
       <use xlink:href="#DejaVuSans-30" x="211.035156"/>
      </g>
     </g>
    </g>
    <g id="ytick_3">
     <g id="line2d_10">
      <g>
       <use xlink:href="#me1fd92f5cd" x="57.6" y="204.546465" style="stroke: #000000; stroke-width: 0.8"/>
      </g>
     </g>
     <g id="text_10">
      <!-- −50 -->
      <g transform="translate(29.495313 208.345684) scale(0.1 -0.1)">
       <use xlink:href="#DejaVuSans-2212"/>
       <use xlink:href="#DejaVuSans-35" x="83.789062"/>
       <use xlink:href="#DejaVuSans-30" x="147.412109"/>
      </g>
     </g>
    </g>
    <g id="ytick_4">
     <g id="line2d_11">
      <g>
       <use xlink:href="#me1fd92f5cd" x="57.6" y="156.173308" style="stroke: #000000; stroke-width: 0.8"/>
      </g>
     </g>
     <g id="text_11">
      <!-- 0 -->
      <g transform="translate(44.2375 159.972527) scale(0.1 -0.1)">
       <use xlink:href="#DejaVuSans-30"/>
      </g>
     </g>
    </g>
    <g id="ytick_5">
     <g id="line2d_12">
      <g>
       <use xlink:href="#me1fd92f5cd" x="57.6" y="107.800152" style="stroke: #000000; stroke-width: 0.8"/>
      </g>
     </g>
     <g id="text_12">
      <!-- 50 -->
      <g transform="translate(37.875 111.59937) scale(0.1 -0.1)">
       <use xlink:href="#DejaVuSans-35"/>
       <use xlink:href="#DejaVuSans-30" x="63.623047"/>
      </g>
     </g>
    </g>
    <g id="ytick_6">
     <g id="line2d_13">
      <g>
       <use xlink:href="#me1fd92f5cd" x="57.6" y="59.426995" style="stroke: #000000; stroke-width: 0.8"/>
      </g>
     </g>
     <g id="text_13">
      <!-- 100 -->
      <g transform="translate(31.5125 63.226214) scale(0.1 -0.1)">
       <use xlink:href="#DejaVuSans-31"/>
       <use xlink:href="#DejaVuSans-30" x="63.623047"/>
       <use xlink:href="#DejaVuSans-30" x="127.246094"/>
      </g>
     </g>
    </g>
   </g>
   <g id="line2d_14">
    <path d="M 73.832727 156.173308 
L 76.450909 145.086997 
L 79.069091 134.000687 
L 81.687273 122.914376 
L 84.305455 111.828065 
L 86.923636 100.741754 
L 89.541818 89.655443 
L 92.16 78.569132 
L 94.778182 241.626186 
L 97.396364 230.539875 
L 100.014545 219.453564 
L 102.632727 208.367253 
L 105.250909 197.280942 
L 107.869091 186.194631 
L 110.487273 175.10832 
L 113.105455 164.022009 
L 115.723636 152.935698 
L 118.341818 141.849387 
L 120.96 130.763077 
L 123.578182 119.676766 
L 126.196364 108.590455 
L 128.814545 97.504144 
L 131.432727 86.417833 
L 134.050909 75.331522 
L 136.669091 238.388576 
L 139.287273 227.302265 
L 141.905455 216.215954 
L 144.523636 205.129643 
L 147.141818 194.043332 
L 149.76 182.957021 
L 152.378182 171.87071 
L 154.996364 160.784399 
L 157.614545 149.698088 
L 160.232727 138.611777 
L 162.850909 127.525467 
L 165.469091 116.439156 
L 168.087273 105.352845 
L 170.705455 94.266534 
L 173.323636 83.180223 
L 175.941818 72.093912 
L 178.56 235.150966 
L 181.178182 224.064655 
L 183.796364 212.978344 
L 186.414545 201.892033 
L 189.032727 190.805722 
L 191.650909 179.719411 
L 194.269091 168.6331 
L 196.887273 157.546789 
L 199.505455 146.460478 
L 202.123636 135.374167 
L 204.741818 124.287857 
L 207.36 113.201546 
L 209.978182 102.115235 
L 212.596364 91.028924 
L 215.214545 79.942613 
L 217.832727 242.999667 
L 220.450909 231.913356 
L 223.069091 220.827045 
L 225.687273 209.740734 
L 228.305455 198.654423 
L 230.923636 187.568112 
L 233.541818 176.481801 
L 236.16 165.39549 
L 238.778182 154.309179 
L 241.396364 143.222868 
L 244.014545 132.136557 
L 246.632727 121.050247 
L 249.250909 109.963936 
L 251.869091 98.877625 
L 254.487273 87.791314 
L 257.105455 76.705003 
L 259.723636 239.762057 
L 262.341818 228.675746 
L 264.96 217.589435 
L 267.578182 206.503124 
L 270.196364 195.416813 
L 272.814545 184.330502 
L 275.432727 173.244191 
L 278.050909 162.15788 
L 280.669091 151.071569 
L 283.287273 139.985258 
L 285.905455 128.898947 
L 288.523636 117.812637 
L 291.141818 106.726326 
L 293.76 95.640015 
L 296.378182 84.553704 
L 298.996364 73.467393 
L 301.614545 236.524447 
L 304.232727 225.438136 
L 306.850909 214.351825 
L 309.469091 203.265514 
L 312.087273 192.179203 
L 314.705455 181.092892 
L 317.323636 170.006581 
L 319.941818 158.92027 
L 322.56 147.833959 
L 325.178182 136.747648 
L 327.796364 125.661337 
L 330.414545 114.575027 
L 333.032727 103.488716 
L 335.650909 92.402405 
L 338.269091 81.316094 
L 340.887273 70.229783 
L 343.505455 233.286837 
L 346.123636 222.200526 
L 348.741818 211.114215 
L 351.36 200.027904 
L 353.978182 188.941593 
L 356.596364 177.855282 
L 359.214545 166.768971 
L 361.832727 155.68266 
L 364.450909 144.596349 
L 367.069091 133.510038 
L 369.687273 122.423727 
L 372.305455 111.337417 
L 374.923636 100.251106 
L 377.541818 89.164795 
L 380.16 78.078484 
L 382.778182 241.135537 
L 385.396364 230.049226 
L 388.014545 218.962916 
L 390.632727 207.876605 
L 393.250909 196.790294 
L 395.869091 185.703983 
L 398.487273 174.617672 
" clip-path="url(#pe503484c57)" style="fill: none; stroke: #1f77b4; stroke-width: 1.5; stroke-linecap: square"/>
   </g>
   <g id="line2d_15">
    <path d="M 73.832727 121.344635 
L 76.450909 121.344635 
L 79.069091 121.344635 
L 81.687273 121.344635 
L 84.305455 121.344635 
L 86.923636 121.344635 
L 89.541818 121.344635 
L 92.16 121.344635 
L 94.778182 295.488 
L 97.396364 295.488 
L 100.014545 295.488 
L 102.632727 121.344635 
L 105.250909 121.344635 
L 107.869091 121.344635 
L 110.487273 121.344635 
L 113.105455 121.344635 
L 115.723636 121.344635 
L 118.341818 121.344635 
L 120.96 121.344635 
L 123.578182 121.344635 
L 126.196364 121.344635 
L 128.814545 121.344635 
L 131.432727 121.344635 
L 134.050909 121.344635 
L 136.669091 295.488 
L 139.287273 295.488 
L 141.905455 295.488 
L 144.523636 121.344635 
L 147.141818 121.344635 
L 149.76 121.344635 
L 152.378182 121.344635 
L 154.996364 121.344635 
L 157.614545 121.344635 
L 160.232727 121.344635 
L 162.850909 121.344635 
L 165.469091 121.344635 
L 168.087273 121.344635 
L 170.705455 121.344635 
L 173.323636 121.344635 
L 175.941818 121.344635 
L 178.56 295.488 
L 181.178182 295.488 
L 183.796364 295.488 
L 186.414545 121.344635 
L 189.032727 121.344635 
L 191.650909 121.344635 
L 194.269091 121.344635 
L 196.887273 121.344635 
L 199.505455 121.344635 
L 202.123636 121.344635 
L 204.741818 121.344635 
L 207.36 121.344635 
L 209.978182 121.344635 
L 212.596364 121.344635 
L 215.214545 121.344635 
L 217.832727 295.488 
L 220.450909 295.488 
L 223.069091 295.488 
L 225.687273 295.488 
L 228.305455 121.344635 
L 230.923636 121.344635 
L 233.541818 121.344635 
L 236.16 121.344635 
L 238.778182 121.344635 
L 241.396364 121.344635 
L 244.014545 121.344635 
L 246.632727 121.344635 
L 249.250909 121.344635 
L 251.869091 121.344635 
L 254.487273 121.344635 
L 257.105455 121.344635 
L 259.723636 295.488 
L 262.341818 295.488 
L 264.96 295.488 
L 267.578182 121.344635 
L 270.196364 121.344635 
L 272.814545 121.344635 
L 275.432727 121.344635 
L 278.050909 121.344635 
L 280.669091 121.344635 
L 283.287273 121.344635 
L 285.905455 121.344635 
L 288.523636 121.344635 
L 291.141818 121.344635 
L 293.76 121.344635 
L 296.378182 121.344635 
L 298.996364 121.344635 
L 301.614545 295.488 
L 304.232727 295.488 
L 306.850909 295.488 
L 309.469091 121.344635 
L 312.087273 121.344635 
L 314.705455 121.344635 
L 317.323636 121.344635 
L 319.941818 121.344635 
L 322.56 121.344635 
L 325.178182 121.344635 
L 327.796364 121.344635 
L 330.414545 121.344635 
L 333.032727 121.344635 
L 335.650909 121.344635 
L 338.269091 121.344635 
L 340.887273 121.344635 
L 343.505455 295.488 
L 346.123636 295.488 
L 348.741818 295.488 
L 351.36 121.344635 
L 353.978182 121.344635 
L 356.596364 121.344635 
L 359.214545 121.344635 
L 361.832727 121.344635 
L 364.450909 121.344635 
L 367.069091 121.344635 
L 369.687273 121.344635 
L 372.305455 121.344635 
L 374.923636 121.344635 
L 377.541818 121.344635 
L 380.16 121.344635 
L 382.778182 295.488 
L 385.396364 295.488 
L 388.014545 295.488 
L 390.632727 121.344635 
L 393.250909 121.344635 
L 395.869091 121.344635 
L 398.487273 121.344635 
" clip-path="url(#pe503484c57)" style="fill: none; stroke: #ff7f0e; stroke-width: 1.5; stroke-linecap: square"/>
   </g>
   <g id="line2d_16">
    <path d="M 73.832727 140.120792 
L 76.450909 120.305319 
L 79.069091 101.919789 
L 81.687273 85.697176 
L 84.305455 72.284224 
L 86.923636 62.215665 
L 89.541818 55.892901 
L 92.16 53.568 
L 94.778182 55.333649 
L 97.396364 61.119457 
L 100.014545 70.694762 
L 102.632727 83.677827 
L 105.250909 99.551058 
L 107.869091 117.68164 
L 110.487273 137.346763 
L 113.105455 157.762441 
L 115.723636 178.114765 
L 118.341818 197.592352 
L 120.96 215.418693 
L 123.578182 230.883108 
L 126.196364 243.369078 
L 128.814545 252.378828 
L 131.432727 257.553168 
L 134.050909 258.685813 
L 136.669091 255.731608 
L 139.287273 248.808327 
L 141.905455 238.191981 
L 144.523636 224.305809 
L 147.141818 207.703409 
L 149.76 189.046666 
L 152.378182 169.079367 
L 154.996364 148.597544 
L 157.614545 128.417742 
L 160.232727 109.344468 
L 162.850909 92.138111 
L 165.469091 77.484636 
L 168.087273 65.96823 
L 170.705455 58.048016 
L 173.323636 54.039747 
L 175.941818 54.103221 
L 178.56 58.235908 
L 181.178182 66.273049 
L 183.796364 77.89423 
L 186.414545 92.636151 
L 189.032727 109.911098 
L 191.650909 129.030374 
L 194.269091 149.231752 
L 196.887273 169.709869 
L 199.505455 189.648325 
L 202.123636 208.252238 
L 204.741818 224.779929 
L 207.36 238.57249 
L 209.978182 249.080056 
L 212.596364 255.883723 
L 215.214545 258.71225 
L 217.832727 257.452873 
L 220.450909 252.1558 
L 223.069091 243.032208 
L 225.687273 230.445825 
L 228.305455 214.898432 
L 230.923636 197.009853 
L 233.541818 177.49325 
L 236.16 157.126688 
L 238.778182 136.722118 
L 241.396364 117.093006 
L 244.014545 99.021902 
L 246.632727 83.229244 
L 249.250909 70.344636 
L 251.869091 60.881746 
L 254.487273 55.21783 
L 257.105455 53.57869 
L 259.723636 56.029674 
L 262.341818 62.473069 
L 264.96 72.651997 
L 267.578182 86.160655 
L 270.196364 102.460497 
L 272.814545 120.9017 
L 275.432727 140.74907 
L 278.050909 161.211356 
L 280.669091 181.472791 
L 283.287273 200.725615 
L 285.905455 218.20228 
L 288.523636 233.206045 
L 291.141818 245.138758 
L 293.76 253.524699 
L 296.378182 258.029548 
L 298.996364 258.473709 
L 301.614545 254.839477 
L 304.232727 247.271736 
L 306.850909 236.072188 
L 309.469091 221.687323 
L 312.087273 204.690622 
L 314.705455 185.759689 
L 317.323636 165.64924 
L 319.941818 145.161015 
L 322.56 125.111816 
L 325.178182 106.30094 
L 327.796364 89.478319 
L 330.414545 75.314616 
L 333.032727 64.374494 
L 335.650909 57.094101 
L 338.269091 53.763684 
L 340.887273 54.516015 
L 343.505455 59.321101 
L 346.123636 67.98738 
L 348.741818 80.169353 
L 351.36 95.381364 
L 353.978182 113.016958 
L 356.596364 132.373059 
L 359.214545 152.678001 
L 361.832727 173.122291 
L 364.450909 192.890877 
L 367.069091 211.19565 
L 369.687273 227.306856 
L 372.305455 240.582192 
L 374.923636 250.492412 
L 377.541818 256.642427 
L 380.16 258.787056 
L 382.778182 256.840798 
L 385.396364 250.881244 
L 388.014545 241.145985 
L 390.632727 228.023133 
L 393.250909 212.035855 
L 395.869091 193.821514 
L 398.487273 174.106257 
" clip-path="url(#pe503484c57)" style="fill: none; stroke: #2ca02c; stroke-width: 1.5; stroke-linecap: square"/>
   </g>
   <g id="line2d_17">
    <path d="M 73.832727 83.613573 
L 76.450909 70.644543 
L 79.069091 61.085275 
L 81.687273 55.316866 
L 84.305455 53.569286 
L 86.923636 55.912204 
L 89.541818 62.252216 
L 92.16 72.336566 
L 94.778182 85.763222 
L 97.396364 101.996906 
L 100.014545 120.390432 
L 102.632727 140.210509 
L 105.250909 160.666972 
L 107.869091 180.944286 
L 110.487273 200.23406 
L 113.105455 217.767271 
L 115.723636 232.844925 
L 118.341818 244.865924 
L 120.96 253.351028 
L 123.578182 257.961963 
L 126.196364 258.514905 
L 128.814545 254.987811 
L 131.432727 247.521295 
L 134.050909 236.413022 
L 136.669091 222.105846 
L 139.287273 205.170147 
L 141.905455 186.281099 
L 144.523636 166.191748 
L 147.141818 145.702994 
L 149.76 125.631658 
L 152.378182 106.777921 
L 154.996364 89.893423 
L 157.614545 75.651294 
L 160.232727 64.619324 
L 162.850909 57.237323 
L 165.469091 53.799587 
L 168.087273 54.443168 
L 170.705455 59.142409 
L 173.323636 67.709966 
L 175.941818 79.804277 
L 178.56 94.94318 
L 181.178182 112.523135 
L 183.796364 131.843285 
L 186.414545 152.133396 
L 189.032727 172.584566 
L 191.650909 192.381471 
L 194.269091 210.73487 
L 196.887273 226.913073 
L 199.505455 240.271104 
L 202.123636 250.276421 
L 204.741818 256.530144 
L 207.36 258.782957 
L 209.978182 256.945047 
L 212.596364 251.089686 
L 215.214545 241.450308 
L 217.832727 228.411206 
L 220.450909 212.492206 
L 223.069091 194.32795 
L 225.687273 174.642588 
L 228.305455 154.220915 
L 230.923636 133.877077 
L 233.541818 114.42212 
L 236.16 96.631651 
L 238.778182 81.21492 
L 241.396364 68.786543 
L 244.014545 59.842001 
L 246.632727 54.737884 
L 249.250909 53.677678 
L 251.869091 56.703648 
L 254.487273 63.695161 
L 257.105455 74.373485 
L 259.723636 88.31291 
L 262.341818 104.957714 
L 264.96 123.644323 
L 267.578182 143.62776 
L 270.196364 164.111349 
L 272.814545 184.278472 
L 275.432727 203.325132 
L 278.050909 220.491997 
L 280.669091 235.094679 
L 283.287273 246.551015 
L 285.905455 254.404277 
L 288.523636 258.34138 
L 291.141818 258.205365 
L 293.76 254.001654 
L 296.378182 245.897835 
L 298.996364 234.216982 
L 301.614545 219.424775 
L 304.232727 202.110931 
L 306.850909 182.965699 
L 309.469091 162.752339 
L 312.087273 142.276693 
L 314.705455 122.355062 
L 317.323636 103.781658 
L 319.941818 87.296944 
L 322.56 73.558112 
L 325.178182 63.112888 
L 327.796364 56.37769 
L 330.414545 53.621027 
L 333.032727 54.952801 
L 335.650909 60.319916 
L 338.269091 69.508404 
L 340.887273 82.151948 
L 343.505455 97.746491 
L 346.123636 115.670326 
L 348.741818 135.208887 
L 351.36 155.583233 
L 353.978182 175.981104 
L 356.596364 195.589301 
L 359.214545 213.626106 
L 361.832727 229.37245 
L 364.450909 242.200575 
L 367.069091 251.599064 
L 369.687273 257.193229 
L 372.305455 258.760049 
L 374.923636 256.23706 
L 377.541818 249.724844 
L 380.16 239.483024 
L 382.778182 225.919908 
L 385.396364 209.576216 
L 388.014545 191.103518 
L 390.632727 171.238263 
L 393.250909 150.772416 
L 395.869091 130.521885 
L 398.487273 111.293996 
" clip-path="url(#pe503484c57)" style="fill: none; stroke: #d62728; stroke-width: 1.5; stroke-linecap: square"/>
   </g>
   <g id="line2d_18">
    <path d="M 73.832727 191.001981 
L 76.450909 179.91567 
L 79.069091 168.829359 
L 81.687273 157.743049 
L 84.305455 146.656738 
L 86.923636 135.570427 
L 89.541818 124.484116 
L 92.16 113.397805 
L 94.778182 102.311494 
L 97.396364 91.225183 
L 100.014545 80.138872 
L 102.632727 243.195926 
L 105.250909 232.109615 
L 107.869091 221.023304 
L 110.487273 209.936993 
L 113.105455 198.850682 
L 115.723636 187.764371 
L 118.341818 176.67806 
L 120.96 165.591749 
L 123.578182 154.505439 
L 126.196364 143.419128 
L 128.814545 132.332817 
L 131.432727 121.246506 
L 134.050909 110.160195 
L 136.669091 99.073884 
L 139.287273 87.987573 
L 141.905455 76.901262 
L 144.523636 239.958316 
L 147.141818 228.872005 
L 149.76 217.785694 
L 152.378182 206.699383 
L 154.996364 195.613072 
L 157.614545 184.526761 
L 160.232727 173.44045 
L 162.850909 162.354139 
L 165.469091 151.267829 
L 168.087273 140.181518 
L 170.705455 129.095207 
L 173.323636 118.008896 
L 175.941818 106.922585 
L 178.56 95.836274 
L 181.178182 84.749963 
L 183.796364 73.663652 
L 186.414545 236.720706 
L 189.032727 225.634395 
L 191.650909 214.548084 
L 194.269091 203.461773 
L 196.887273 192.375462 
L 199.505455 181.289151 
L 202.123636 170.20284 
L 204.741818 159.116529 
L 207.36 148.030219 
L 209.978182 136.943908 
L 212.596364 125.857597 
L 215.214545 114.771286 
L 217.832727 103.684975 
L 220.450909 92.598664 
L 223.069091 81.512353 
L 225.687273 70.426042 
L 228.305455 233.483096 
L 230.923636 222.396785 
L 233.541818 211.310474 
L 236.16 200.224163 
L 238.778182 189.137852 
L 241.396364 178.051541 
L 244.014545 166.96523 
L 246.632727 155.878919 
L 249.250909 144.792609 
L 251.869091 133.706298 
L 254.487273 122.619987 
L 257.105455 111.533676 
L 259.723636 100.447365 
L 262.341818 89.361054 
L 264.96 78.274743 
L 267.578182 241.331797 
L 270.196364 230.245486 
L 272.814545 219.159175 
L 275.432727 208.072864 
L 278.050909 196.986553 
L 280.669091 185.900242 
L 283.287273 174.813931 
L 285.905455 163.72762 
L 288.523636 152.641309 
L 291.141818 141.554999 
L 293.76 130.468688 
L 296.378182 119.382377 
L 298.996364 108.296066 
L 301.614545 97.209755 
L 304.232727 86.123444 
L 306.850909 75.037133 
L 309.469091 238.094187 
L 312.087273 227.007876 
L 314.705455 215.921565 
L 317.323636 204.835254 
L 319.941818 193.748943 
L 322.56 182.662632 
L 325.178182 171.576321 
L 327.796364 160.49001 
L 330.414545 149.403699 
L 333.032727 138.317389 
L 335.650909 127.231078 
L 338.269091 116.144767 
L 340.887273 105.058456 
L 343.505455 93.972145 
L 346.123636 82.885834 
L 348.741818 71.799523 
L 351.36 234.856577 
L 353.978182 223.770266 
L 356.596364 212.683955 
L 359.214545 201.597644 
L 361.832727 190.511333 
L 364.450909 179.425022 
L 367.069091 168.338711 
L 369.687273 157.2524 
L 372.305455 146.166089 
L 374.923636 135.079779 
L 377.541818 123.993468 
L 380.16 112.907157 
L 382.778182 101.820846 
L 385.396364 90.734535 
L 388.014545 79.648224 
L 390.632727 242.705278 
L 393.250909 231.618967 
L 395.869091 220.532656 
L 398.487273 209.446345 
" clip-path="url(#pe503484c57)" style="fill: none; stroke: #9467bd; stroke-width: 1.5; stroke-linecap: square"/>
   </g>
   <g id="patch_3">
    <path d="M 57.6 307.584 
L 57.6 41.472 
" style="fill: none; stroke: #000000; stroke-width: 0.8; stroke-linejoin: miter; stroke-linecap: square"/>
   </g>
   <g id="patch_4">
    <path d="M 414.72 307.584 
L 414.72 41.472 
" style="fill: none; stroke: #000000; stroke-width: 0.8; stroke-linejoin: miter; stroke-linecap: square"/>
   </g>
   <g id="patch_5">
    <path d="M 57.6 307.584 
L 414.72 307.584 
" style="fill: none; stroke: #000000; stroke-width: 0.8; stroke-linejoin: miter; stroke-linecap: square"/>
   </g>
   <g id="patch_6">
    <path d="M 57.6 41.472 
L 414.72 41.472 
" style="fill: none; stroke: #000000; stroke-width: 0.8; stroke-linejoin: miter; stroke-linecap: square"/>
   </g>
   <g id="text_14">
    <!-- faza=0.2pi dodatnie=12.666666666666666  -->
    <g transform="translate(101.37375 22.034625) scale(0.12 -0.12)">
     <defs>
      <path id="DejaVuSans-66" d="M 2375 4863 
L 2375 4384 
L 1825 4384 
Q 1516 4384 1395 4259 
Q 1275 4134 1275 3809 
L 1275 3500 
L 2222 3500 
L 2222 3053 
L 1275 3053 
L 1275 0 
L 697 0 
L 697 3053 
L 147 3053 
L 147 3500 
L 697 3500 
L 697 3744 
Q 697 4328 969 4595 
Q 1241 4863 1831 4863 
L 2375 4863 
z
" transform="scale(0.015625)"/>
      <path id="DejaVuSans-61" d="M 2194 1759 
Q 1497 1759 1228 1600 
Q 959 1441 959 1056 
Q 959 750 1161 570 
Q 1363 391 1709 391 
Q 2188 391 2477 730 
Q 2766 1069 2766 1631 
L 2766 1759 
L 2194 1759 
z
M 3341 1997 
L 3341 0 
L 2766 0 
L 2766 531 
Q 2569 213 2275 61 
Q 1981 -91 1556 -91 
Q 1019 -91 701 211 
Q 384 513 384 1019 
Q 384 1609 779 1909 
Q 1175 2209 1959 2209 
L 2766 2209 
L 2766 2266 
Q 2766 2663 2505 2880 
Q 2244 3097 1772 3097 
Q 1472 3097 1187 3025 
Q 903 2953 641 2809 
L 641 3341 
Q 956 3463 1253 3523 
Q 1550 3584 1831 3584 
Q 2591 3584 2966 3190 
Q 3341 2797 3341 1997 
z
" transform="scale(0.015625)"/>
      <path id="DejaVuSans-7a" d="M 353 3500 
L 3084 3500 
L 3084 2975 
L 922 459 
L 3084 459 
L 3084 0 
L 275 0 
L 275 525 
L 2438 3041 
L 353 3041 
L 353 3500 
z
" transform="scale(0.015625)"/>
      <path id="DejaVuSans-3d" d="M 678 2906 
L 4684 2906 
L 4684 2381 
L 678 2381 
L 678 2906 
z
M 678 1631 
L 4684 1631 
L 4684 1100 
L 678 1100 
L 678 1631 
z
" transform="scale(0.015625)"/>
      <path id="DejaVuSans-2e" d="M 684 794 
L 1344 794 
L 1344 0 
L 684 0 
L 684 794 
z
" transform="scale(0.015625)"/>
      <path id="DejaVuSans-70" d="M 1159 525 
L 1159 -1331 
L 581 -1331 
L 581 3500 
L 1159 3500 
L 1159 2969 
Q 1341 3281 1617 3432 
Q 1894 3584 2278 3584 
Q 2916 3584 3314 3078 
Q 3713 2572 3713 1747 
Q 3713 922 3314 415 
Q 2916 -91 2278 -91 
Q 1894 -91 1617 61 
Q 1341 213 1159 525 
z
M 3116 1747 
Q 3116 2381 2855 2742 
Q 2594 3103 2138 3103 
Q 1681 3103 1420 2742 
Q 1159 2381 1159 1747 
Q 1159 1113 1420 752 
Q 1681 391 2138 391 
Q 2594 391 2855 752 
Q 3116 1113 3116 1747 
z
" transform="scale(0.015625)"/>
      <path id="DejaVuSans-69" d="M 603 3500 
L 1178 3500 
L 1178 0 
L 603 0 
L 603 3500 
z
M 603 4863 
L 1178 4863 
L 1178 4134 
L 603 4134 
L 603 4863 
z
" transform="scale(0.015625)"/>
      <path id="DejaVuSans-20" transform="scale(0.015625)"/>
      <path id="DejaVuSans-64" d="M 2906 2969 
L 2906 4863 
L 3481 4863 
L 3481 0 
L 2906 0 
L 2906 525 
Q 2725 213 2448 61 
Q 2172 -91 1784 -91 
Q 1150 -91 751 415 
Q 353 922 353 1747 
Q 353 2572 751 3078 
Q 1150 3584 1784 3584 
Q 2172 3584 2448 3432 
Q 2725 3281 2906 2969 
z
M 947 1747 
Q 947 1113 1208 752 
Q 1469 391 1925 391 
Q 2381 391 2643 752 
Q 2906 1113 2906 1747 
Q 2906 2381 2643 2742 
Q 2381 3103 1925 3103 
Q 1469 3103 1208 2742 
Q 947 2381 947 1747 
z
" transform="scale(0.015625)"/>
      <path id="DejaVuSans-6f" d="M 1959 3097 
Q 1497 3097 1228 2736 
Q 959 2375 959 1747 
Q 959 1119 1226 758 
Q 1494 397 1959 397 
Q 2419 397 2687 759 
Q 2956 1122 2956 1747 
Q 2956 2369 2687 2733 
Q 2419 3097 1959 3097 
z
M 1959 3584 
Q 2709 3584 3137 3096 
Q 3566 2609 3566 1747 
Q 3566 888 3137 398 
Q 2709 -91 1959 -91 
Q 1206 -91 779 398 
Q 353 888 353 1747 
Q 353 2609 779 3096 
Q 1206 3584 1959 3584 
z
" transform="scale(0.015625)"/>
      <path id="DejaVuSans-74" d="M 1172 4494 
L 1172 3500 
L 2356 3500 
L 2356 3053 
L 1172 3053 
L 1172 1153 
Q 1172 725 1289 603 
Q 1406 481 1766 481 
L 2356 481 
L 2356 0 
L 1766 0 
Q 1100 0 847 248 
Q 594 497 594 1153 
L 594 3053 
L 172 3053 
L 172 3500 
L 594 3500 
L 594 4494 
L 1172 4494 
z
" transform="scale(0.015625)"/>
      <path id="DejaVuSans-6e" d="M 3513 2113 
L 3513 0 
L 2938 0 
L 2938 2094 
Q 2938 2591 2744 2837 
Q 2550 3084 2163 3084 
Q 1697 3084 1428 2787 
Q 1159 2491 1159 1978 
L 1159 0 
L 581 0 
L 581 3500 
L 1159 3500 
L 1159 2956 
Q 1366 3272 1645 3428 
Q 1925 3584 2291 3584 
Q 2894 3584 3203 3211 
Q 3513 2838 3513 2113 
z
" transform="scale(0.015625)"/>
      <path id="DejaVuSans-65" d="M 3597 1894 
L 3597 1613 
L 953 1613 
Q 991 1019 1311 708 
Q 1631 397 2203 397 
Q 2534 397 2845 478 
Q 3156 559 3463 722 
L 3463 178 
Q 3153 47 2828 -22 
Q 2503 -91 2169 -91 
Q 1331 -91 842 396 
Q 353 884 353 1716 
Q 353 2575 817 3079 
Q 1281 3584 2069 3584 
Q 2775 3584 3186 3129 
Q 3597 2675 3597 1894 
z
M 3022 2063 
Q 3016 2534 2758 2815 
Q 2500 3097 2075 3097 
Q 1594 3097 1305 2825 
Q 1016 2553 972 2059 
L 3022 2063 
z
" transform="scale(0.015625)"/>
     </defs>
     <use xlink:href="#DejaVuSans-66"/>
     <use xlink:href="#DejaVuSans-61" x="35.205078"/>
     <use xlink:href="#DejaVuSans-7a" x="96.484375"/>
     <use xlink:href="#DejaVuSans-61" x="148.974609"/>
     <use xlink:href="#DejaVuSans-3d" x="210.253906"/>
     <use xlink:href="#DejaVuSans-30" x="294.042969"/>
     <use xlink:href="#DejaVuSans-2e" x="357.666016"/>
     <use xlink:href="#DejaVuSans-32" x="389.453125"/>
     <use xlink:href="#DejaVuSans-70" x="453.076172"/>
     <use xlink:href="#DejaVuSans-69" x="516.552734"/>
     <use xlink:href="#DejaVuSans-20" x="544.335938"/>
     <use xlink:href="#DejaVuSans-64" x="576.123047"/>
     <use xlink:href="#DejaVuSans-6f" x="639.599609"/>
     <use xlink:href="#DejaVuSans-64" x="700.78125"/>
     <use xlink:href="#DejaVuSans-61" x="764.257812"/>
     <use xlink:href="#DejaVuSans-74" x="825.537109"/>
     <use xlink:href="#DejaVuSans-6e" x="864.746094"/>
     <use xlink:href="#DejaVuSans-69" x="928.125"/>
     <use xlink:href="#DejaVuSans-65" x="955.908203"/>
     <use xlink:href="#DejaVuSans-3d" x="1017.431641"/>
     <use xlink:href="#DejaVuSans-31" x="1101.220703"/>
     <use xlink:href="#DejaVuSans-32" x="1164.84375"/>
     <use xlink:href="#DejaVuSans-2e" x="1228.466797"/>
     <use xlink:href="#DejaVuSans-36" x="1260.253906"/>
     <use xlink:href="#DejaVuSans-36" x="1323.876953"/>
     <use xlink:href="#DejaVuSans-36" x="1387.5"/>
     <use xlink:href="#DejaVuSans-36" x="1451.123047"/>
     <use xlink:href="#DejaVuSans-36" x="1514.746094"/>
     <use xlink:href="#DejaVuSans-36" x="1578.369141"/>
     <use xlink:href="#DejaVuSans-36" x="1641.992188"/>
     <use xlink:href="#DejaVuSans-36" x="1705.615234"/>
     <use xlink:href="#DejaVuSans-36" x="1769.238281"/>
     <use xlink:href="#DejaVuSans-36" x="1832.861328"/>
     <use xlink:href="#DejaVuSans-36" x="1896.484375"/>
     <use xlink:href="#DejaVuSans-36" x="1960.107422"/>
     <use xlink:href="#DejaVuSans-36" x="2023.730469"/>
     <use xlink:href="#DejaVuSans-36" x="2087.353516"/>
     <use xlink:href="#DejaVuSans-36" x="2150.976562"/>
     <use xlink:href="#DejaVuSans-20" x="2214.599609"/>
    </g>
    <!-- ujemne=3.142857142857143 wynik=36.0 -->
    <g transform="translate(107.949375 35.472) scale(0.12 -0.12)">
     <defs>
      <path id="DejaVuSans-75" d="M 544 1381 
L 544 3500 
L 1119 3500 
L 1119 1403 
Q 1119 906 1312 657 
Q 1506 409 1894 409 
Q 2359 409 2629 706 
Q 2900 1003 2900 1516 
L 2900 3500 
L 3475 3500 
L 3475 0 
L 2900 0 
L 2900 538 
Q 2691 219 2414 64 
Q 2138 -91 1772 -91 
Q 1169 -91 856 284 
Q 544 659 544 1381 
z
M 1991 3584 
L 1991 3584 
z
" transform="scale(0.015625)"/>
      <path id="DejaVuSans-6a" d="M 603 3500 
L 1178 3500 
L 1178 -63 
Q 1178 -731 923 -1031 
Q 669 -1331 103 -1331 
L -116 -1331 
L -116 -844 
L 38 -844 
Q 366 -844 484 -692 
Q 603 -541 603 -63 
L 603 3500 
z
M 603 4863 
L 1178 4863 
L 1178 4134 
L 603 4134 
L 603 4863 
z
" transform="scale(0.015625)"/>
      <path id="DejaVuSans-6d" d="M 3328 2828 
Q 3544 3216 3844 3400 
Q 4144 3584 4550 3584 
Q 5097 3584 5394 3201 
Q 5691 2819 5691 2113 
L 5691 0 
L 5113 0 
L 5113 2094 
Q 5113 2597 4934 2840 
Q 4756 3084 4391 3084 
Q 3944 3084 3684 2787 
Q 3425 2491 3425 1978 
L 3425 0 
L 2847 0 
L 2847 2094 
Q 2847 2600 2669 2842 
Q 2491 3084 2119 3084 
Q 1678 3084 1418 2786 
Q 1159 2488 1159 1978 
L 1159 0 
L 581 0 
L 581 3500 
L 1159 3500 
L 1159 2956 
Q 1356 3278 1631 3431 
Q 1906 3584 2284 3584 
Q 2666 3584 2933 3390 
Q 3200 3197 3328 2828 
z
" transform="scale(0.015625)"/>
      <path id="DejaVuSans-33" d="M 2597 2516 
Q 3050 2419 3304 2112 
Q 3559 1806 3559 1356 
Q 3559 666 3084 287 
Q 2609 -91 1734 -91 
Q 1441 -91 1130 -33 
Q 819 25 488 141 
L 488 750 
Q 750 597 1062 519 
Q 1375 441 1716 441 
Q 2309 441 2620 675 
Q 2931 909 2931 1356 
Q 2931 1769 2642 2001 
Q 2353 2234 1838 2234 
L 1294 2234 
L 1294 2753 
L 1863 2753 
Q 2328 2753 2575 2939 
Q 2822 3125 2822 3475 
Q 2822 3834 2567 4026 
Q 2313 4219 1838 4219 
Q 1578 4219 1281 4162 
Q 984 4106 628 3988 
L 628 4550 
Q 988 4650 1302 4700 
Q 1616 4750 1894 4750 
Q 2613 4750 3031 4423 
Q 3450 4097 3450 3541 
Q 3450 3153 3228 2886 
Q 3006 2619 2597 2516 
z
" transform="scale(0.015625)"/>
      <path id="DejaVuSans-37" d="M 525 4666 
L 3525 4666 
L 3525 4397 
L 1831 0 
L 1172 0 
L 2766 4134 
L 525 4134 
L 525 4666 
z
" transform="scale(0.015625)"/>
      <path id="DejaVuSans-77" d="M 269 3500 
L 844 3500 
L 1563 769 
L 2278 3500 
L 2956 3500 
L 3675 769 
L 4391 3500 
L 4966 3500 
L 4050 0 
L 3372 0 
L 2619 2869 
L 1863 0 
L 1184 0 
L 269 3500 
z
" transform="scale(0.015625)"/>
      <path id="DejaVuSans-79" d="M 2059 -325 
Q 1816 -950 1584 -1140 
Q 1353 -1331 966 -1331 
L 506 -1331 
L 506 -850 
L 844 -850 
Q 1081 -850 1212 -737 
Q 1344 -625 1503 -206 
L 1606 56 
L 191 3500 
L 800 3500 
L 1894 763 
L 2988 3500 
L 3597 3500 
L 2059 -325 
z
" transform="scale(0.015625)"/>
      <path id="DejaVuSans-6b" d="M 581 4863 
L 1159 4863 
L 1159 1991 
L 2875 3500 
L 3609 3500 
L 1753 1863 
L 3688 0 
L 2938 0 
L 1159 1709 
L 1159 0 
L 581 0 
L 581 4863 
z
" transform="scale(0.015625)"/>
     </defs>
     <use xlink:href="#DejaVuSans-75"/>
     <use xlink:href="#DejaVuSans-6a" x="63.378906"/>
     <use xlink:href="#DejaVuSans-65" x="91.162109"/>
     <use xlink:href="#DejaVuSans-6d" x="152.685547"/>
     <use xlink:href="#DejaVuSans-6e" x="250.097656"/>
     <use xlink:href="#DejaVuSans-65" x="313.476562"/>
     <use xlink:href="#DejaVuSans-3d" x="375"/>
     <use xlink:href="#DejaVuSans-33" x="458.789062"/>
     <use xlink:href="#DejaVuSans-2e" x="522.412109"/>
     <use xlink:href="#DejaVuSans-31" x="554.199219"/>
     <use xlink:href="#DejaVuSans-34" x="617.822266"/>
     <use xlink:href="#DejaVuSans-32" x="681.445312"/>
     <use xlink:href="#DejaVuSans-38" x="745.068359"/>
     <use xlink:href="#DejaVuSans-35" x="808.691406"/>
     <use xlink:href="#DejaVuSans-37" x="872.314453"/>
     <use xlink:href="#DejaVuSans-31" x="935.9375"/>
     <use xlink:href="#DejaVuSans-34" x="999.560547"/>
     <use xlink:href="#DejaVuSans-32" x="1063.183594"/>
     <use xlink:href="#DejaVuSans-38" x="1126.806641"/>
     <use xlink:href="#DejaVuSans-35" x="1190.429688"/>
     <use xlink:href="#DejaVuSans-37" x="1254.052734"/>
     <use xlink:href="#DejaVuSans-31" x="1317.675781"/>
     <use xlink:href="#DejaVuSans-34" x="1381.298828"/>
     <use xlink:href="#DejaVuSans-33" x="1444.921875"/>
     <use xlink:href="#DejaVuSans-20" x="1508.544922"/>
     <use xlink:href="#DejaVuSans-77" x="1540.332031"/>
     <use xlink:href="#DejaVuSans-79" x="1622.119141"/>
     <use xlink:href="#DejaVuSans-6e" x="1681.298828"/>
     <use xlink:href="#DejaVuSans-69" x="1744.677734"/>
     <use xlink:href="#DejaVuSans-6b" x="1772.460938"/>
     <use xlink:href="#DejaVuSans-3d" x="1830.371094"/>
     <use xlink:href="#DejaVuSans-33" x="1914.160156"/>
     <use xlink:href="#DejaVuSans-36" x="1977.783203"/>
     <use xlink:href="#DejaVuSans-2e" x="2041.40625"/>
     <use xlink:href="#DejaVuSans-30" x="2073.193359"/>
    </g>
   </g>
  </g>
 </g>
 <defs>
  <clipPath id="pe503484c57">
   <rect x="57.6" y="41.472" width="357.12" height="266.112"/>
  </clipPath>
 </defs>
</svg>
