<?xml version="1.0" encoding="utf-8" standalone="no"?>
<!DOCTYPE svg PUBLIC "-//W3C//DTD SVG 1.1//EN"
  "http://www.w3.org/Graphics/SVG/1.1/DTD/svg11.dtd">
<svg xmlns:xlink="http://www.w3.org/1999/xlink" width="460.8pt" height="345.6pt" viewBox="0 0 460.8 345.6" xmlns="http://www.w3.org/2000/svg" version="1.1">
 <metadata>
  <rdf:RDF xmlns:dc="http://purl.org/dc/elements/1.1/" xmlns:cc="http://creativecommons.org/ns#" xmlns:rdf="http://www.w3.org/1999/02/22-rdf-syntax-ns#">
   <cc:Work>
    <dc:type rdf:resource="http://purl.org/dc/dcmitype/StillImage"/>
    <dc:date>2023-11-19T21:42:48.882930</dc:date>
    <dc:format>image/svg+xml</dc:format>
    <dc:creator>
     <cc:Agent>
      <dc:title>Matplotlib v3.8.0, https://matplotlib.org/</dc:title>
     </cc:Agent>
    </dc:creator>
   </cc:Work>
  </rdf:RDF>
 </metadata>
 <defs>
  <style type="text/css">*{stroke-linejoin: round; stroke-linecap: butt}</style>
 </defs>
 <g id="figure_1">
  <g id="patch_1">
   <path d="M 0 345.6 
L 460.8 345.6 
L 460.8 0 
L 0 0 
z
" style="fill: #ffffff"/>
  </g>
  <g id="axes_1">
   <g id="patch_2">
    <path d="M 57.6 307.584 
L 414.72 307.584 
L 414.72 41.472 
L 57.6 41.472 
z
" style="fill: #ffffff"/>
   </g>
   <g id="matplotlib.axis_1">
    <g id="xtick_1">
     <g id="line2d_1">
      <path d="M 73.832727 307.584 
L 73.832727 41.472 
" clip-path="url(#p97589fb0ad)" style="fill: none; stroke: #b0b0b0; stroke-width: 0.8; stroke-linecap: square"/>
     </g>
     <g id="line2d_2">
      <defs>
       <path id="m1fcef203b3" d="M 0 0 
L 0 3.5 
" style="stroke: #000000; stroke-width: 0.8"/>
      </defs>
      <g>
       <use xlink:href="#m1fcef203b3" x="73.832727" y="307.584" style="stroke: #000000; stroke-width: 0.8"/>
      </g>
     </g>
     <g id="text_1">
      <!-- 0 -->
      <g transform="translate(70.651477 322.182437) scale(0.1 -0.1)">
       <defs>
        <path id="DejaVuSans-30" d="M 2034 4250 
Q 1547 4250 1301 3770 
Q 1056 3291 1056 2328 
Q 1056 1369 1301 889 
Q 1547 409 2034 409 
Q 2525 409 2770 889 
Q 3016 1369 3016 2328 
Q 3016 3291 2770 3770 
Q 2525 4250 2034 4250 
z
M 2034 4750 
Q 2819 4750 3233 4129 
Q 3647 3509 3647 2328 
Q 3647 1150 3233 529 
Q 2819 -91 2034 -91 
Q 1250 -91 836 529 
Q 422 1150 422 2328 
Q 422 3509 836 4129 
Q 1250 4750 2034 4750 
z
" transform="scale(0.015625)"/>
       </defs>
       <use xlink:href="#DejaVuSans-30"/>
      </g>
     </g>
    </g>
    <g id="xtick_2">
     <g id="line2d_3">
      <path d="M 142.908162 307.584 
L 142.908162 41.472 
" clip-path="url(#p97589fb0ad)" style="fill: none; stroke: #b0b0b0; stroke-width: 0.8; stroke-linecap: square"/>
     </g>
     <g id="line2d_4">
      <g>
       <use xlink:href="#m1fcef203b3" x="142.908162" y="307.584" style="stroke: #000000; stroke-width: 0.8"/>
      </g>
     </g>
     <g id="text_2">
      <!-- 50 -->
      <g transform="translate(136.545662 322.182437) scale(0.1 -0.1)">
       <defs>
        <path id="DejaVuSans-35" d="M 691 4666 
L 3169 4666 
L 3169 4134 
L 1269 4134 
L 1269 2991 
Q 1406 3038 1543 3061 
Q 1681 3084 1819 3084 
Q 2600 3084 3056 2656 
Q 3513 2228 3513 1497 
Q 3513 744 3044 326 
Q 2575 -91 1722 -91 
Q 1428 -91 1123 -41 
Q 819 9 494 109 
L 494 744 
Q 775 591 1075 516 
Q 1375 441 1709 441 
Q 2250 441 2565 725 
Q 2881 1009 2881 1497 
Q 2881 1984 2565 2268 
Q 2250 2553 1709 2553 
Q 1456 2553 1204 2497 
Q 953 2441 691 2322 
L 691 4666 
z
" transform="scale(0.015625)"/>
       </defs>
       <use xlink:href="#DejaVuSans-35"/>
       <use xlink:href="#DejaVuSans-30" x="63.623047"/>
      </g>
     </g>
    </g>
    <g id="xtick_3">
     <g id="line2d_5">
      <path d="M 211.983598 307.584 
L 211.983598 41.472 
" clip-path="url(#p97589fb0ad)" style="fill: none; stroke: #b0b0b0; stroke-width: 0.8; stroke-linecap: square"/>
     </g>
     <g id="line2d_6">
      <g>
       <use xlink:href="#m1fcef203b3" x="211.983598" y="307.584" style="stroke: #000000; stroke-width: 0.8"/>
      </g>
     </g>
     <g id="text_3">
      <!-- 100 -->
      <g transform="translate(202.439848 322.182437) scale(0.1 -0.1)">
       <defs>
        <path id="DejaVuSans-31" d="M 794 531 
L 1825 531 
L 1825 4091 
L 703 3866 
L 703 4441 
L 1819 4666 
L 2450 4666 
L 2450 531 
L 3481 531 
L 3481 0 
L 794 0 
L 794 531 
z
" transform="scale(0.015625)"/>
       </defs>
       <use xlink:href="#DejaVuSans-31"/>
       <use xlink:href="#DejaVuSans-30" x="63.623047"/>
       <use xlink:href="#DejaVuSans-30" x="127.246094"/>
      </g>
     </g>
    </g>
    <g id="xtick_4">
     <g id="line2d_7">
      <path d="M 281.059033 307.584 
L 281.059033 41.472 
" clip-path="url(#p97589fb0ad)" style="fill: none; stroke: #b0b0b0; stroke-width: 0.8; stroke-linecap: square"/>
     </g>
     <g id="line2d_8">
      <g>
       <use xlink:href="#m1fcef203b3" x="281.059033" y="307.584" style="stroke: #000000; stroke-width: 0.8"/>
      </g>
     </g>
     <g id="text_4">
      <!-- 150 -->
      <g transform="translate(271.515283 322.182437) scale(0.1 -0.1)">
       <use xlink:href="#DejaVuSans-31"/>
       <use xlink:href="#DejaVuSans-35" x="63.623047"/>
       <use xlink:href="#DejaVuSans-30" x="127.246094"/>
      </g>
     </g>
    </g>
    <g id="xtick_5">
     <g id="line2d_9">
      <path d="M 350.134468 307.584 
L 350.134468 41.472 
" clip-path="url(#p97589fb0ad)" style="fill: none; stroke: #b0b0b0; stroke-width: 0.8; stroke-linecap: square"/>
     </g>
     <g id="line2d_10">
      <g>
       <use xlink:href="#m1fcef203b3" x="350.134468" y="307.584" style="stroke: #000000; stroke-width: 0.8"/>
      </g>
     </g>
     <g id="text_5">
      <!-- 200 -->
      <g transform="translate(340.590718 322.182437) scale(0.1 -0.1)">
       <defs>
        <path id="DejaVuSans-32" d="M 1228 531 
L 3431 531 
L 3431 0 
L 469 0 
L 469 531 
Q 828 903 1448 1529 
Q 2069 2156 2228 2338 
Q 2531 2678 2651 2914 
Q 2772 3150 2772 3378 
Q 2772 3750 2511 3984 
Q 2250 4219 1831 4219 
Q 1534 4219 1204 4116 
Q 875 4013 500 3803 
L 500 4441 
Q 881 4594 1212 4672 
Q 1544 4750 1819 4750 
Q 2544 4750 2975 4387 
Q 3406 4025 3406 3419 
Q 3406 3131 3298 2873 
Q 3191 2616 2906 2266 
Q 2828 2175 2409 1742 
Q 1991 1309 1228 531 
z
" transform="scale(0.015625)"/>
       </defs>
       <use xlink:href="#DejaVuSans-32"/>
       <use xlink:href="#DejaVuSans-30" x="63.623047"/>
       <use xlink:href="#DejaVuSans-30" x="127.246094"/>
      </g>
     </g>
    </g>
   </g>
   <g id="matplotlib.axis_2">
    <g id="ytick_1">
     <g id="line2d_11">
      <path d="M 57.6 286.446892 
L 414.72 286.446892 
" clip-path="url(#p97589fb0ad)" style="fill: none; stroke: #b0b0b0; stroke-width: 0.8; stroke-linecap: square"/>
     </g>
     <g id="line2d_12">
      <defs>
       <path id="md0df9a706f" d="M 0 0 
L -3.5 0 
" style="stroke: #000000; stroke-width: 0.8"/>
      </defs>
      <g>
       <use xlink:href="#md0df9a706f" x="57.6" y="286.446892" style="stroke: #000000; stroke-width: 0.8"/>
      </g>
     </g>
     <g id="text_6">
      <!-- −100 -->
      <g transform="translate(23.132812 290.246111) scale(0.1 -0.1)">
       <defs>
        <path id="DejaVuSans-2212" d="M 678 2272 
L 4684 2272 
L 4684 1741 
L 678 1741 
L 678 2272 
z
" transform="scale(0.015625)"/>
       </defs>
       <use xlink:href="#DejaVuSans-2212"/>
       <use xlink:href="#DejaVuSans-31" x="83.789062"/>
       <use xlink:href="#DejaVuSans-30" x="147.412109"/>
       <use xlink:href="#DejaVuSans-30" x="211.035156"/>
      </g>
     </g>
    </g>
    <g id="ytick_2">
     <g id="line2d_13">
      <path d="M 57.6 229.93997 
L 414.72 229.93997 
" clip-path="url(#p97589fb0ad)" style="fill: none; stroke: #b0b0b0; stroke-width: 0.8; stroke-linecap: square"/>
     </g>
     <g id="line2d_14">
      <g>
       <use xlink:href="#md0df9a706f" x="57.6" y="229.93997" style="stroke: #000000; stroke-width: 0.8"/>
      </g>
     </g>
     <g id="text_7">
      <!-- −50 -->
      <g transform="translate(29.495313 233.739189) scale(0.1 -0.1)">
       <use xlink:href="#DejaVuSans-2212"/>
       <use xlink:href="#DejaVuSans-35" x="83.789062"/>
       <use xlink:href="#DejaVuSans-30" x="147.412109"/>
      </g>
     </g>
    </g>
    <g id="ytick_3">
     <g id="line2d_15">
      <path d="M 57.6 173.433048 
L 414.72 173.433048 
" clip-path="url(#p97589fb0ad)" style="fill: none; stroke: #b0b0b0; stroke-width: 0.8; stroke-linecap: square"/>
     </g>
     <g id="line2d_16">
      <g>
       <use xlink:href="#md0df9a706f" x="57.6" y="173.433048" style="stroke: #000000; stroke-width: 0.8"/>
      </g>
     </g>
     <g id="text_8">
      <!-- 0 -->
      <g transform="translate(44.2375 177.232267) scale(0.1 -0.1)">
       <use xlink:href="#DejaVuSans-30"/>
      </g>
     </g>
    </g>
    <g id="ytick_4">
     <g id="line2d_17">
      <path d="M 57.6 116.926126 
L 414.72 116.926126 
" clip-path="url(#p97589fb0ad)" style="fill: none; stroke: #b0b0b0; stroke-width: 0.8; stroke-linecap: square"/>
     </g>
     <g id="line2d_18">
      <g>
       <use xlink:href="#md0df9a706f" x="57.6" y="116.926126" style="stroke: #000000; stroke-width: 0.8"/>
      </g>
     </g>
     <g id="text_9">
      <!-- 50 -->
      <g transform="translate(37.875 120.725345) scale(0.1 -0.1)">
       <use xlink:href="#DejaVuSans-35"/>
       <use xlink:href="#DejaVuSans-30" x="63.623047"/>
      </g>
     </g>
    </g>
    <g id="ytick_5">
     <g id="line2d_19">
      <path d="M 57.6 60.419204 
L 414.72 60.419204 
" clip-path="url(#p97589fb0ad)" style="fill: none; stroke: #b0b0b0; stroke-width: 0.8; stroke-linecap: square"/>
     </g>
     <g id="line2d_20">
      <g>
       <use xlink:href="#md0df9a706f" x="57.6" y="60.419204" style="stroke: #000000; stroke-width: 0.8"/>
      </g>
     </g>
     <g id="text_10">
      <!-- 100 -->
      <g transform="translate(31.5125 64.218423) scale(0.1 -0.1)">
       <use xlink:href="#DejaVuSans-31"/>
       <use xlink:href="#DejaVuSans-30" x="63.623047"/>
       <use xlink:href="#DejaVuSans-30" x="127.246094"/>
      </g>
     </g>
    </g>
   </g>
   <g id="line2d_21">
    <path d="M 73.832727 92.063081 
L 75.214236 92.063081 
L 76.595745 295.488 
L 93.173849 295.488 
L 94.555358 92.063081 
L 119.422515 92.063081 
L 120.804023 295.488 
L 136.000619 295.488 
L 137.382128 92.063081 
L 162.249284 92.063081 
L 163.630793 295.488 
L 180.208897 295.488 
L 181.590406 92.063081 
L 205.076054 92.063081 
L 206.457563 295.488 
L 223.035667 295.488 
L 224.417176 92.063081 
L 249.284333 92.063081 
L 250.665841 295.488 
L 265.862437 295.488 
L 267.243946 92.063081 
L 292.111103 92.063081 
L 293.492611 295.488 
L 310.070716 295.488 
L 311.452224 92.063081 
L 336.319381 92.063081 
L 337.70089 295.488 
L 352.897485 295.488 
L 354.278994 92.063081 
L 379.146151 92.063081 
L 380.52766 295.488 
L 397.105764 295.488 
L 398.487273 92.063081 
L 398.487273 92.063081 
" clip-path="url(#p97589fb0ad)" style="fill: none; stroke: #1f77b4; stroke-width: 1.5; stroke-linecap: square"/>
   </g>
   <g id="line2d_22">
    <path d="M 73.832727 75.499472 
L 75.214236 82.889279 
L 76.595745 91.18377 
L 79.358762 110.147087 
L 82.121779 131.633415 
L 86.266306 166.7006 
L 91.79234 213.837667 
L 94.555358 235.45297 
L 97.318375 254.595734 
L 98.699884 262.996711 
L 100.081393 270.502797 
L 101.462901 277.038995 
L 102.84441 282.539997 
L 104.225919 286.950838 
L 105.607427 290.227446 
L 106.988936 292.337084 
L 108.370445 293.258672 
L 109.751954 292.983001 
L 111.133462 291.512828 
L 112.514971 288.86284 
L 113.89648 285.059515 
L 115.277988 280.140856 
L 116.659497 274.156008 
L 118.041006 267.16477 
L 119.422515 259.236995 
L 120.804023 250.451895 
L 123.567041 230.668522 
L 126.330058 208.603351 
L 131.856093 161.20219 
L 136.000619 126.509551 
L 138.763636 105.531003 
L 141.526654 87.259495 
L 142.908162 79.371559 
L 144.289671 72.423455 
L 145.67118 66.484605 
L 147.052689 61.614348 
L 148.434197 57.861347 
L 149.815706 55.2631 
L 151.197215 53.845569 
L 152.578723 53.622916 
L 153.960232 54.597366 
L 155.341741 56.759183 
L 156.72325 60.086766 
L 158.104758 64.546869 
L 159.486267 70.094926 
L 160.867776 76.675503 
L 162.249284 84.22285 
L 163.630793 92.661555 
L 166.39381 111.867712 
L 169.156828 133.528285 
L 173.301354 168.71384 
L 178.827389 215.729478 
L 181.590406 237.168933 
L 184.353424 256.067439 
L 185.734932 264.32358 
L 187.116441 271.671573 
L 188.49795 278.037999 
L 189.879458 283.359247 
L 191.260967 287.582149 
L 192.642476 290.66451 
L 194.023985 292.575534 
L 195.405493 293.296125 
L 196.787002 292.819084 
L 198.168511 291.149178 
L 199.550019 288.30309 
L 200.931528 284.309259 
L 202.313037 279.20759 
L 203.694545 273.049056 
L 205.076054 265.895193 
L 206.457563 257.817478 
L 207.839072 248.896621 
L 210.602089 228.889555 
L 213.365106 206.671614 
L 218.891141 159.198967 
L 223.035667 124.661554 
L 225.798685 103.879684 
L 227.180193 94.480753 
L 228.561702 85.870688 
L 229.943211 78.135516 
L 231.32472 71.352526 
L 232.706228 65.589491 
L 234.087737 60.903993 
L 235.469246 57.342848 
L 236.850754 54.941638 
L 238.232263 53.724355 
L 239.613772 53.703161 
L 240.99528 54.878269 
L 242.376789 57.237937 
L 243.758298 60.758589 
L 245.139807 65.405046 
L 246.521315 71.130884 
L 247.902824 77.878891 
L 249.284333 85.581643 
L 250.665841 94.162178 
L 253.428859 113.605744 
L 256.191876 135.434436 
L 260.336402 170.728415 
L 264.480928 206.263991 
L 267.243946 228.513275 
L 270.006963 248.566684 
L 271.388472 257.515781 
L 272.769981 265.624752 
L 274.151489 272.812574 
L 275.532998 279.007428 
L 276.914507 284.147418 
L 278.296015 288.181187 
L 279.677524 291.06843 
L 281.059033 292.780299 
L 282.440542 293.29969 
L 283.82205 292.621413 
L 285.203559 290.752246 
L 286.585068 287.710864 
L 287.966576 283.527655 
L 289.348085 278.244418 
L 290.729594 271.91394 
L 292.111103 264.599474 
L 293.492611 256.374103 
L 294.87412 247.320012 
L 297.637137 227.09491 
L 300.400155 204.730479 
L 310.070716 122.827347 
L 312.833733 102.248031 
L 314.215242 92.975381 
L 315.59675 84.506637 
L 316.978259 76.926417 
L 318.359768 70.310458 
L 319.741277 64.724867 
L 321.122785 60.225452 
L 322.504294 56.85717 
L 323.885803 54.653675 
L 325.267311 53.636985 
L 326.64882 53.817257 
L 328.030329 55.192691 
L 329.411838 57.749544 
L 330.793346 61.462267 
L 332.174855 66.293766 
L 333.556364 72.195765 
L 334.937872 79.109294 
L 336.319381 86.965274 
L 337.70089 95.685212 
L 340.463907 115.360691 
L 343.226925 137.351331 
L 347.371451 172.743754 
L 351.515977 208.19775 
L 354.278994 230.295582 
L 357.042012 250.126483 
L 358.42352 258.940351 
L 359.805029 266.899859 
L 361.186538 273.925477 
L 362.568046 279.947009 
L 363.949555 284.904287 
L 365.331064 288.747783 
L 366.712573 291.439091 
L 368.094081 292.951322 
L 369.47559 293.269366 
L 370.857099 292.390045 
L 372.238607 290.322145 
L 373.620116 287.086328 
L 375.001625 282.714925 
L 376.383133 277.251613 
L 377.764642 270.750981 
L 379.146151 263.27798 
L 380.52766 254.907278 
L 383.290677 235.815455 
L 386.053694 214.236642 
L 390.198221 179.105908 
L 395.724255 132.031103 
L 398.487273 110.50761 
L 398.487273 110.50761 
" clip-path="url(#p97589fb0ad)" style="fill: none; stroke: #ff7f0e; stroke-width: 1.5; stroke-linecap: square"/>
   </g>
   <g id="line2d_23">
    <path d="M 73.832727 77.432296 
L 75.214236 70.745765 
L 76.595745 65.085252 
L 77.977253 60.507314 
L 79.358762 57.057693 
L 80.740271 54.770856 
L 82.121779 53.669652 
L 83.503288 53.765084 
L 84.884797 55.056199 
L 86.266306 57.530097 
L 87.647814 61.162058 
L 89.029323 65.915794 
L 90.410832 71.743807 
L 91.79234 78.587866 
L 93.173849 86.379585 
L 94.555358 95.041115 
L 97.318375 114.619603 
L 100.081393 136.542798 
L 104.225919 171.894982 
L 108.370445 207.384556 
L 111.133462 229.546933 
L 113.89648 249.472225 
L 115.277988 258.343349 
L 116.659497 266.366076 
L 118.041006 273.460248 
L 119.422515 279.55498 
L 120.804023 284.589378 
L 122.185532 288.513138 
L 123.567041 291.287056 
L 124.948549 292.883416 
L 126.330058 293.286267 
L 127.711567 292.491584 
L 129.093075 290.507308 
L 130.474584 287.353264 
L 131.856093 283.060968 
L 133.237602 277.673305 
L 134.61911 271.244109 
L 136.000619 263.837616 
L 137.382128 255.527831 
L 140.145145 236.538693 
L 142.908162 215.033733 
L 147.052689 179.953619 
L 152.578723 132.828709 
L 155.341741 111.231633 
L 158.104758 92.114331 
L 159.486267 83.728491 
L 160.867776 76.23895 
L 162.249284 69.72054 
L 163.630793 64.238391 
L 165.012302 59.847279 
L 166.39381 56.591078 
L 167.775319 54.502324 
L 169.156828 53.601886 
L 170.538337 53.898762 
L 171.919845 55.389984 
L 173.301354 58.060654 
L 174.682863 61.884087 
L 176.064371 66.82208 
L 177.44588 72.825295 
L 178.827389 79.833749 
L 180.208897 87.777416 
L 181.590406 96.576926 
L 184.353424 116.384115 
L 187.116441 138.465664 
L 192.642476 185.874983 
L 196.787002 220.551741 
L 199.550019 241.509861 
L 200.931528 251.019526 
L 202.313037 259.753973 
L 203.694545 267.62593 
L 205.076054 274.556742 
L 206.457563 280.47716 
L 207.839072 285.328029 
L 209.22058 289.06088 
L 210.602089 291.638416 
L 211.983598 293.034883 
L 213.365106 293.236328 
L 214.746615 292.240738 
L 216.128124 290.058061 
L 217.509632 286.710106 
L 218.891141 282.230323 
L 220.27265 276.663474 
L 221.654159 270.065181 
L 223.035667 262.501372 
L 224.417176 254.047621 
L 227.180193 234.816212 
L 229.943211 213.137651 
L 234.087737 177.940211 
L 239.613772 130.938132 
L 242.376789 109.517544 
L 245.139807 90.645066 
L 246.521315 82.40431 
L 247.902824 75.073083 
L 249.284333 68.724637 
L 250.665841 63.422402 
L 252.04735 59.219357 
L 253.428859 56.157498 
L 254.810368 54.267417 
L 256.191876 53.568 
L 257.573385 54.066235 
L 258.954894 55.757143 
L 260.336402 58.623831 
L 261.717911 62.637654 
L 263.09942 67.758508 
L 264.480928 73.935227 
L 265.862437 81.106095 
L 267.243946 89.199464 
L 268.625455 98.134467 
L 271.388472 118.164756 
L 274.151489 140.398417 
L 285.203559 233.07669 
L 287.966576 252.544891 
L 289.348085 261.140192 
L 290.729594 268.859152 
L 292.111103 275.624646 
L 293.492611 281.369076 
L 294.87412 286.035044 
L 296.255629 289.575931 
L 297.637137 291.956356 
L 299.018646 293.152535 
L 300.400155 293.152517 
L 301.781663 291.956302 
L 303.163172 289.575841 
L 304.544681 286.03492 
L 305.92619 281.368919 
L 307.307698 275.624457 
L 308.689207 268.858933 
L 310.070716 261.139946 
L 311.452224 252.544619 
L 314.215242 233.076377 
L 316.978259 211.230343 
L 321.122785 175.925529 
L 325.267311 140.398069 
L 328.030329 118.164435 
L 330.793346 98.134186 
L 332.174855 89.199207 
L 333.556364 81.105865 
L 334.937872 73.935025 
L 336.319381 67.758337 
L 337.70089 62.637516 
L 339.082398 58.623727 
L 340.463907 55.757075 
L 341.845416 54.066202 
L 343.226925 53.568003 
L 344.608433 54.267456 
L 345.989942 56.157573 
L 347.371451 59.219467 
L 348.752959 63.422545 
L 350.134468 68.724812 
L 351.515977 75.07329 
L 352.897485 82.404545 
L 354.278994 90.645327 
L 357.042012 109.51785 
L 359.805029 130.93847 
L 363.949555 165.959557 
L 369.47559 213.137991 
L 372.238607 234.816523 
L 375.001625 254.047889 
L 376.383133 262.501614 
L 377.764642 270.065395 
L 379.146151 276.663658 
L 380.52766 282.230475 
L 381.909168 286.710224 
L 383.290677 290.058145 
L 384.672186 292.240786 
L 386.053694 293.23634 
L 387.435203 293.034859 
L 388.816712 291.638356 
L 390.198221 289.060785 
L 391.579729 285.327899 
L 392.961238 280.476998 
L 394.342747 274.556548 
L 395.724255 267.625706 
L 397.105764 259.753722 
L 398.487273 251.019251 
L 398.487273 251.019251 
" clip-path="url(#p97589fb0ad)" style="fill: none; stroke: #2ca02c; stroke-width: 1.5; stroke-linecap: square"/>
   </g>
   <g id="patch_3">
    <path d="M 57.6 307.584 
L 57.6 41.472 
" style="fill: none; stroke: #000000; stroke-width: 0.8; stroke-linejoin: miter; stroke-linecap: square"/>
   </g>
   <g id="patch_4">
    <path d="M 414.72 307.584 
L 414.72 41.472 
" style="fill: none; stroke: #000000; stroke-width: 0.8; stroke-linejoin: miter; stroke-linecap: square"/>
   </g>
   <g id="patch_5">
    <path d="M 57.6 307.584 
L 414.72 307.584 
" style="fill: none; stroke: #000000; stroke-width: 0.8; stroke-linejoin: miter; stroke-linecap: square"/>
   </g>
   <g id="patch_6">
    <path d="M 57.6 41.472 
L 414.72 41.472 
" style="fill: none; stroke: #000000; stroke-width: 0.8; stroke-linejoin: miter; stroke-linecap: square"/>
   </g>
   <g id="text_11">
    <!-- faza=0.4pi wynik=72.0 -->
    <g transform="translate(165.803438 35.472) scale(0.12 -0.12)">
     <defs>
      <path id="DejaVuSans-66" d="M 2375 4863 
L 2375 4384 
L 1825 4384 
Q 1516 4384 1395 4259 
Q 1275 4134 1275 3809 
L 1275 3500 
L 2222 3500 
L 2222 3053 
L 1275 3053 
L 1275 0 
L 697 0 
L 697 3053 
L 147 3053 
L 147 3500 
L 697 3500 
L 697 3744 
Q 697 4328 969 4595 
Q 1241 4863 1831 4863 
L 2375 4863 
z
" transform="scale(0.015625)"/>
      <path id="DejaVuSans-61" d="M 2194 1759 
Q 1497 1759 1228 1600 
Q 959 1441 959 1056 
Q 959 750 1161 570 
Q 1363 391 1709 391 
Q 2188 391 2477 730 
Q 2766 1069 2766 1631 
L 2766 1759 
L 2194 1759 
z
M 3341 1997 
L 3341 0 
L 2766 0 
L 2766 531 
Q 2569 213 2275 61 
Q 1981 -91 1556 -91 
Q 1019 -91 701 211 
Q 384 513 384 1019 
Q 384 1609 779 1909 
Q 1175 2209 1959 2209 
L 2766 2209 
L 2766 2266 
Q 2766 2663 2505 2880 
Q 2244 3097 1772 3097 
Q 1472 3097 1187 3025 
Q 903 2953 641 2809 
L 641 3341 
Q 956 3463 1253 3523 
Q 1550 3584 1831 3584 
Q 2591 3584 2966 3190 
Q 3341 2797 3341 1997 
z
" transform="scale(0.015625)"/>
      <path id="DejaVuSans-7a" d="M 353 3500 
L 3084 3500 
L 3084 2975 
L 922 459 
L 3084 459 
L 3084 0 
L 275 0 
L 275 525 
L 2438 3041 
L 353 3041 
L 353 3500 
z
" transform="scale(0.015625)"/>
      <path id="DejaVuSans-3d" d="M 678 2906 
L 4684 2906 
L 4684 2381 
L 678 2381 
L 678 2906 
z
M 678 1631 
L 4684 1631 
L 4684 1100 
L 678 1100 
L 678 1631 
z
" transform="scale(0.015625)"/>
      <path id="DejaVuSans-2e" d="M 684 794 
L 1344 794 
L 1344 0 
L 684 0 
L 684 794 
z
" transform="scale(0.015625)"/>
      <path id="DejaVuSans-34" d="M 2419 4116 
L 825 1625 
L 2419 1625 
L 2419 4116 
z
M 2253 4666 
L 3047 4666 
L 3047 1625 
L 3713 1625 
L 3713 1100 
L 3047 1100 
L 3047 0 
L 2419 0 
L 2419 1100 
L 313 1100 
L 313 1709 
L 2253 4666 
z
" transform="scale(0.015625)"/>
      <path id="DejaVuSans-70" d="M 1159 525 
L 1159 -1331 
L 581 -1331 
L 581 3500 
L 1159 3500 
L 1159 2969 
Q 1341 3281 1617 3432 
Q 1894 3584 2278 3584 
Q 2916 3584 3314 3078 
Q 3713 2572 3713 1747 
Q 3713 922 3314 415 
Q 2916 -91 2278 -91 
Q 1894 -91 1617 61 
Q 1341 213 1159 525 
z
M 3116 1747 
Q 3116 2381 2855 2742 
Q 2594 3103 2138 3103 
Q 1681 3103 1420 2742 
Q 1159 2381 1159 1747 
Q 1159 1113 1420 752 
Q 1681 391 2138 391 
Q 2594 391 2855 752 
Q 3116 1113 3116 1747 
z
" transform="scale(0.015625)"/>
      <path id="DejaVuSans-69" d="M 603 3500 
L 1178 3500 
L 1178 0 
L 603 0 
L 603 3500 
z
M 603 4863 
L 1178 4863 
L 1178 4134 
L 603 4134 
L 603 4863 
z
" transform="scale(0.015625)"/>
      <path id="DejaVuSans-20" transform="scale(0.015625)"/>
      <path id="DejaVuSans-77" d="M 269 3500 
L 844 3500 
L 1563 769 
L 2278 3500 
L 2956 3500 
L 3675 769 
L 4391 3500 
L 4966 3500 
L 4050 0 
L 3372 0 
L 2619 2869 
L 1863 0 
L 1184 0 
L 269 3500 
z
" transform="scale(0.015625)"/>
      <path id="DejaVuSans-79" d="M 2059 -325 
Q 1816 -950 1584 -1140 
Q 1353 -1331 966 -1331 
L 506 -1331 
L 506 -850 
L 844 -850 
Q 1081 -850 1212 -737 
Q 1344 -625 1503 -206 
L 1606 56 
L 191 3500 
L 800 3500 
L 1894 763 
L 2988 3500 
L 3597 3500 
L 2059 -325 
z
" transform="scale(0.015625)"/>
      <path id="DejaVuSans-6e" d="M 3513 2113 
L 3513 0 
L 2938 0 
L 2938 2094 
Q 2938 2591 2744 2837 
Q 2550 3084 2163 3084 
Q 1697 3084 1428 2787 
Q 1159 2491 1159 1978 
L 1159 0 
L 581 0 
L 581 3500 
L 1159 3500 
L 1159 2956 
Q 1366 3272 1645 3428 
Q 1925 3584 2291 3584 
Q 2894 3584 3203 3211 
Q 3513 2838 3513 2113 
z
" transform="scale(0.015625)"/>
      <path id="DejaVuSans-6b" d="M 581 4863 
L 1159 4863 
L 1159 1991 
L 2875 3500 
L 3609 3500 
L 1753 1863 
L 3688 0 
L 2938 0 
L 1159 1709 
L 1159 0 
L 581 0 
L 581 4863 
z
" transform="scale(0.015625)"/>
      <path id="DejaVuSans-37" d="M 525 4666 
L 3525 4666 
L 3525 4397 
L 1831 0 
L 1172 0 
L 2766 4134 
L 525 4134 
L 525 4666 
z
" transform="scale(0.015625)"/>
     </defs>
     <use xlink:href="#DejaVuSans-66"/>
     <use xlink:href="#DejaVuSans-61" x="35.205078"/>
     <use xlink:href="#DejaVuSans-7a" x="96.484375"/>
     <use xlink:href="#DejaVuSans-61" x="148.974609"/>
     <use xlink:href="#DejaVuSans-3d" x="210.253906"/>
     <use xlink:href="#DejaVuSans-30" x="294.042969"/>
     <use xlink:href="#DejaVuSans-2e" x="357.666016"/>
     <use xlink:href="#DejaVuSans-34" x="389.453125"/>
     <use xlink:href="#DejaVuSans-70" x="453.076172"/>
     <use xlink:href="#DejaVuSans-69" x="516.552734"/>
     <use xlink:href="#DejaVuSans-20" x="544.335938"/>
     <use xlink:href="#DejaVuSans-77" x="576.123047"/>
     <use xlink:href="#DejaVuSans-79" x="657.910156"/>
     <use xlink:href="#DejaVuSans-6e" x="717.089844"/>
     <use xlink:href="#DejaVuSans-69" x="780.46875"/>
     <use xlink:href="#DejaVuSans-6b" x="808.251953"/>
     <use xlink:href="#DejaVuSans-3d" x="866.162109"/>
     <use xlink:href="#DejaVuSans-37" x="949.951172"/>
     <use xlink:href="#DejaVuSans-32" x="1013.574219"/>
     <use xlink:href="#DejaVuSans-2e" x="1077.197266"/>
     <use xlink:href="#DejaVuSans-30" x="1108.984375"/>
    </g>
   </g>
  </g>
 </g>
 <defs>
  <clipPath id="p97589fb0ad">
   <rect x="57.6" y="41.472" width="357.12" height="266.112"/>
  </clipPath>
 </defs>
</svg>
