<?xml version="1.0" encoding="utf-8" standalone="no"?>
<!DOCTYPE svg PUBLIC "-//W3C//DTD SVG 1.1//EN"
  "http://www.w3.org/Graphics/SVG/1.1/DTD/svg11.dtd">
<svg xmlns:xlink="http://www.w3.org/1999/xlink" width="460.8pt" height="345.6pt" viewBox="0 0 460.8 345.6" xmlns="http://www.w3.org/2000/svg" version="1.1">
 <metadata>
  <rdf:RDF xmlns:dc="http://purl.org/dc/elements/1.1/" xmlns:cc="http://creativecommons.org/ns#" xmlns:rdf="http://www.w3.org/1999/02/22-rdf-syntax-ns#">
   <cc:Work>
    <dc:type rdf:resource="http://purl.org/dc/dcmitype/StillImage"/>
    <dc:date>2023-11-17T11:09:47.604251</dc:date>
    <dc:format>image/svg+xml</dc:format>
    <dc:creator>
     <cc:Agent>
      <dc:title>Matplotlib v3.8.0, https://matplotlib.org/</dc:title>
     </cc:Agent>
    </dc:creator>
   </cc:Work>
  </rdf:RDF>
 </metadata>
 <defs>
  <style type="text/css">*{stroke-linejoin: round; stroke-linecap: butt}</style>
 </defs>
 <g id="figure_1">
  <g id="patch_1">
   <path d="M 0 345.6 
L 460.8 345.6 
L 460.8 0 
L 0 0 
z
" style="fill: #ffffff"/>
  </g>
  <g id="axes_1">
   <g id="patch_2">
    <path d="M 57.6 307.584 
L 414.72 307.584 
L 414.72 41.472 
L 57.6 41.472 
z
" style="fill: #ffffff"/>
   </g>
   <g id="matplotlib.axis_1">
    <g id="xtick_1">
     <g id="line2d_1">
      <defs>
       <path id="mb68aa14ebf" d="M 0 0 
L 0 3.5 
" style="stroke: #000000; stroke-width: 0.8"/>
      </defs>
      <g>
       <use xlink:href="#mb68aa14ebf" x="73.832727" y="307.584" style="stroke: #000000; stroke-width: 0.8"/>
      </g>
     </g>
     <g id="text_1">
      <!-- 0 -->
      <g transform="translate(70.651477 322.182437) scale(0.1 -0.1)">
       <defs>
        <path id="DejaVuSans-30" d="M 2034 4250 
Q 1547 4250 1301 3770 
Q 1056 3291 1056 2328 
Q 1056 1369 1301 889 
Q 1547 409 2034 409 
Q 2525 409 2770 889 
Q 3016 1369 3016 2328 
Q 3016 3291 2770 3770 
Q 2525 4250 2034 4250 
z
M 2034 4750 
Q 2819 4750 3233 4129 
Q 3647 3509 3647 2328 
Q 3647 1150 3233 529 
Q 2819 -91 2034 -91 
Q 1250 -91 836 529 
Q 422 1150 422 2328 
Q 422 3509 836 4129 
Q 1250 4750 2034 4750 
z
" transform="scale(0.015625)"/>
       </defs>
       <use xlink:href="#DejaVuSans-30"/>
      </g>
     </g>
    </g>
    <g id="xtick_2">
     <g id="line2d_2">
      <g>
       <use xlink:href="#mb68aa14ebf" x="126.196364" y="307.584" style="stroke: #000000; stroke-width: 0.8"/>
      </g>
     </g>
     <g id="text_2">
      <!-- 20 -->
      <g transform="translate(119.833864 322.182437) scale(0.1 -0.1)">
       <defs>
        <path id="DejaVuSans-32" d="M 1228 531 
L 3431 531 
L 3431 0 
L 469 0 
L 469 531 
Q 828 903 1448 1529 
Q 2069 2156 2228 2338 
Q 2531 2678 2651 2914 
Q 2772 3150 2772 3378 
Q 2772 3750 2511 3984 
Q 2250 4219 1831 4219 
Q 1534 4219 1204 4116 
Q 875 4013 500 3803 
L 500 4441 
Q 881 4594 1212 4672 
Q 1544 4750 1819 4750 
Q 2544 4750 2975 4387 
Q 3406 4025 3406 3419 
Q 3406 3131 3298 2873 
Q 3191 2616 2906 2266 
Q 2828 2175 2409 1742 
Q 1991 1309 1228 531 
z
" transform="scale(0.015625)"/>
       </defs>
       <use xlink:href="#DejaVuSans-32"/>
       <use xlink:href="#DejaVuSans-30" x="63.623047"/>
      </g>
     </g>
    </g>
    <g id="xtick_3">
     <g id="line2d_3">
      <g>
       <use xlink:href="#mb68aa14ebf" x="178.56" y="307.584" style="stroke: #000000; stroke-width: 0.8"/>
      </g>
     </g>
     <g id="text_3">
      <!-- 40 -->
      <g transform="translate(172.1975 322.182437) scale(0.1 -0.1)">
       <defs>
        <path id="DejaVuSans-34" d="M 2419 4116 
L 825 1625 
L 2419 1625 
L 2419 4116 
z
M 2253 4666 
L 3047 4666 
L 3047 1625 
L 3713 1625 
L 3713 1100 
L 3047 1100 
L 3047 0 
L 2419 0 
L 2419 1100 
L 313 1100 
L 313 1709 
L 2253 4666 
z
" transform="scale(0.015625)"/>
       </defs>
       <use xlink:href="#DejaVuSans-34"/>
       <use xlink:href="#DejaVuSans-30" x="63.623047"/>
      </g>
     </g>
    </g>
    <g id="xtick_4">
     <g id="line2d_4">
      <g>
       <use xlink:href="#mb68aa14ebf" x="230.923636" y="307.584" style="stroke: #000000; stroke-width: 0.8"/>
      </g>
     </g>
     <g id="text_4">
      <!-- 60 -->
      <g transform="translate(224.561136 322.182437) scale(0.1 -0.1)">
       <defs>
        <path id="DejaVuSans-36" d="M 2113 2584 
Q 1688 2584 1439 2293 
Q 1191 2003 1191 1497 
Q 1191 994 1439 701 
Q 1688 409 2113 409 
Q 2538 409 2786 701 
Q 3034 994 3034 1497 
Q 3034 2003 2786 2293 
Q 2538 2584 2113 2584 
z
M 3366 4563 
L 3366 3988 
Q 3128 4100 2886 4159 
Q 2644 4219 2406 4219 
Q 1781 4219 1451 3797 
Q 1122 3375 1075 2522 
Q 1259 2794 1537 2939 
Q 1816 3084 2150 3084 
Q 2853 3084 3261 2657 
Q 3669 2231 3669 1497 
Q 3669 778 3244 343 
Q 2819 -91 2113 -91 
Q 1303 -91 875 529 
Q 447 1150 447 2328 
Q 447 3434 972 4092 
Q 1497 4750 2381 4750 
Q 2619 4750 2861 4703 
Q 3103 4656 3366 4563 
z
" transform="scale(0.015625)"/>
       </defs>
       <use xlink:href="#DejaVuSans-36"/>
       <use xlink:href="#DejaVuSans-30" x="63.623047"/>
      </g>
     </g>
    </g>
    <g id="xtick_5">
     <g id="line2d_5">
      <g>
       <use xlink:href="#mb68aa14ebf" x="283.287273" y="307.584" style="stroke: #000000; stroke-width: 0.8"/>
      </g>
     </g>
     <g id="text_5">
      <!-- 80 -->
      <g transform="translate(276.924773 322.182437) scale(0.1 -0.1)">
       <defs>
        <path id="DejaVuSans-38" d="M 2034 2216 
Q 1584 2216 1326 1975 
Q 1069 1734 1069 1313 
Q 1069 891 1326 650 
Q 1584 409 2034 409 
Q 2484 409 2743 651 
Q 3003 894 3003 1313 
Q 3003 1734 2745 1975 
Q 2488 2216 2034 2216 
z
M 1403 2484 
Q 997 2584 770 2862 
Q 544 3141 544 3541 
Q 544 4100 942 4425 
Q 1341 4750 2034 4750 
Q 2731 4750 3128 4425 
Q 3525 4100 3525 3541 
Q 3525 3141 3298 2862 
Q 3072 2584 2669 2484 
Q 3125 2378 3379 2068 
Q 3634 1759 3634 1313 
Q 3634 634 3220 271 
Q 2806 -91 2034 -91 
Q 1263 -91 848 271 
Q 434 634 434 1313 
Q 434 1759 690 2068 
Q 947 2378 1403 2484 
z
M 1172 3481 
Q 1172 3119 1398 2916 
Q 1625 2713 2034 2713 
Q 2441 2713 2670 2916 
Q 2900 3119 2900 3481 
Q 2900 3844 2670 4047 
Q 2441 4250 2034 4250 
Q 1625 4250 1398 4047 
Q 1172 3844 1172 3481 
z
" transform="scale(0.015625)"/>
       </defs>
       <use xlink:href="#DejaVuSans-38"/>
       <use xlink:href="#DejaVuSans-30" x="63.623047"/>
      </g>
     </g>
    </g>
    <g id="xtick_6">
     <g id="line2d_6">
      <g>
       <use xlink:href="#mb68aa14ebf" x="335.650909" y="307.584" style="stroke: #000000; stroke-width: 0.8"/>
      </g>
     </g>
     <g id="text_6">
      <!-- 100 -->
      <g transform="translate(326.107159 322.182437) scale(0.1 -0.1)">
       <defs>
        <path id="DejaVuSans-31" d="M 794 531 
L 1825 531 
L 1825 4091 
L 703 3866 
L 703 4441 
L 1819 4666 
L 2450 4666 
L 2450 531 
L 3481 531 
L 3481 0 
L 794 0 
L 794 531 
z
" transform="scale(0.015625)"/>
       </defs>
       <use xlink:href="#DejaVuSans-31"/>
       <use xlink:href="#DejaVuSans-30" x="63.623047"/>
       <use xlink:href="#DejaVuSans-30" x="127.246094"/>
      </g>
     </g>
    </g>
    <g id="xtick_7">
     <g id="line2d_7">
      <g>
       <use xlink:href="#mb68aa14ebf" x="388.014545" y="307.584" style="stroke: #000000; stroke-width: 0.8"/>
      </g>
     </g>
     <g id="text_7">
      <!-- 120 -->
      <g transform="translate(378.470795 322.182437) scale(0.1 -0.1)">
       <use xlink:href="#DejaVuSans-31"/>
       <use xlink:href="#DejaVuSans-32" x="63.623047"/>
       <use xlink:href="#DejaVuSans-30" x="127.246094"/>
      </g>
     </g>
    </g>
   </g>
   <g id="matplotlib.axis_2">
    <g id="ytick_1">
     <g id="line2d_8">
      <defs>
       <path id="mb7986673b7" d="M 0 0 
L -3.5 0 
" style="stroke: #000000; stroke-width: 0.8"/>
      </defs>
      <g>
       <use xlink:href="#mb7986673b7" x="57.6" y="286.446892" style="stroke: #000000; stroke-width: 0.8"/>
      </g>
     </g>
     <g id="text_8">
      <!-- −100 -->
      <g transform="translate(23.132812 290.246111) scale(0.1 -0.1)">
       <defs>
        <path id="DejaVuSans-2212" d="M 678 2272 
L 4684 2272 
L 4684 1741 
L 678 1741 
L 678 2272 
z
" transform="scale(0.015625)"/>
       </defs>
       <use xlink:href="#DejaVuSans-2212"/>
       <use xlink:href="#DejaVuSans-31" x="83.789062"/>
       <use xlink:href="#DejaVuSans-30" x="147.412109"/>
       <use xlink:href="#DejaVuSans-30" x="211.035156"/>
      </g>
     </g>
    </g>
    <g id="ytick_2">
     <g id="line2d_9">
      <g>
       <use xlink:href="#mb7986673b7" x="57.6" y="229.93997" style="stroke: #000000; stroke-width: 0.8"/>
      </g>
     </g>
     <g id="text_9">
      <!-- −50 -->
      <g transform="translate(29.495313 233.739189) scale(0.1 -0.1)">
       <defs>
        <path id="DejaVuSans-35" d="M 691 4666 
L 3169 4666 
L 3169 4134 
L 1269 4134 
L 1269 2991 
Q 1406 3038 1543 3061 
Q 1681 3084 1819 3084 
Q 2600 3084 3056 2656 
Q 3513 2228 3513 1497 
Q 3513 744 3044 326 
Q 2575 -91 1722 -91 
Q 1428 -91 1123 -41 
Q 819 9 494 109 
L 494 744 
Q 775 591 1075 516 
Q 1375 441 1709 441 
Q 2250 441 2565 725 
Q 2881 1009 2881 1497 
Q 2881 1984 2565 2268 
Q 2250 2553 1709 2553 
Q 1456 2553 1204 2497 
Q 953 2441 691 2322 
L 691 4666 
z
" transform="scale(0.015625)"/>
       </defs>
       <use xlink:href="#DejaVuSans-2212"/>
       <use xlink:href="#DejaVuSans-35" x="83.789062"/>
       <use xlink:href="#DejaVuSans-30" x="147.412109"/>
      </g>
     </g>
    </g>
    <g id="ytick_3">
     <g id="line2d_10">
      <g>
       <use xlink:href="#mb7986673b7" x="57.6" y="173.433048" style="stroke: #000000; stroke-width: 0.8"/>
      </g>
     </g>
     <g id="text_10">
      <!-- 0 -->
      <g transform="translate(44.2375 177.232267) scale(0.1 -0.1)">
       <use xlink:href="#DejaVuSans-30"/>
      </g>
     </g>
    </g>
    <g id="ytick_4">
     <g id="line2d_11">
      <g>
       <use xlink:href="#mb7986673b7" x="57.6" y="116.926126" style="stroke: #000000; stroke-width: 0.8"/>
      </g>
     </g>
     <g id="text_11">
      <!-- 50 -->
      <g transform="translate(37.875 120.725345) scale(0.1 -0.1)">
       <use xlink:href="#DejaVuSans-35"/>
       <use xlink:href="#DejaVuSans-30" x="63.623047"/>
      </g>
     </g>
    </g>
    <g id="ytick_5">
     <g id="line2d_12">
      <g>
       <use xlink:href="#mb7986673b7" x="57.6" y="60.419204" style="stroke: #000000; stroke-width: 0.8"/>
      </g>
     </g>
     <g id="text_12">
      <!-- 100 -->
      <g transform="translate(31.5125 64.218423) scale(0.1 -0.1)">
       <use xlink:href="#DejaVuSans-31"/>
       <use xlink:href="#DejaVuSans-30" x="63.623047"/>
       <use xlink:href="#DejaVuSans-30" x="127.246094"/>
      </g>
     </g>
    </g>
   </g>
   <g id="line2d_13">
    <path d="M 73.832727 173.433048 
L 76.450909 160.482616 
L 79.069091 147.532183 
L 81.687273 134.581751 
L 84.305455 121.631318 
L 86.923636 108.680885 
L 89.541818 95.730453 
L 92.16 82.78002 
L 94.778182 273.254507 
L 97.396364 260.304074 
L 100.014545 247.353642 
L 102.632727 234.403209 
L 105.250909 221.452777 
L 107.869091 208.502344 
L 110.487273 195.551912 
L 113.105455 182.601479 
L 115.723636 169.651046 
L 118.341818 156.700614 
L 120.96 143.750181 
L 123.578182 130.799749 
L 126.196364 117.849316 
L 128.814545 104.898883 
L 131.432727 91.948451 
L 134.050909 78.998018 
L 136.669091 269.472505 
L 139.287273 256.522072 
L 141.905455 243.57164 
L 144.523636 230.621207 
L 147.141818 217.670775 
L 149.76 204.720342 
L 152.378182 191.76991 
L 154.996364 178.819477 
L 157.614545 165.869044 
L 160.232727 152.918612 
L 162.850909 139.968179 
L 165.469091 127.017747 
L 168.087273 114.067314 
L 170.705455 101.116881 
L 173.323636 88.166449 
L 175.941818 75.216016 
L 178.56 265.690503 
L 181.178182 252.74007 
L 183.796364 239.789638 
L 186.414545 226.839205 
L 189.032727 213.888773 
L 191.650909 200.93834 
L 194.269091 187.987908 
L 196.887273 175.037475 
L 199.505455 162.087042 
L 202.123636 149.13661 
L 204.741818 136.186177 
L 207.36 123.235745 
L 209.978182 110.285312 
L 212.596364 97.334879 
L 215.214545 84.384447 
L 217.832727 274.858934 
L 220.450909 261.908501 
L 223.069091 248.958068 
L 225.687273 236.007636 
L 228.305455 223.057203 
L 230.923636 210.106771 
L 233.541818 197.156338 
L 236.16 184.205906 
L 238.778182 171.255473 
L 241.396364 158.30504 
L 244.014545 145.354608 
L 246.632727 132.404175 
L 249.250909 119.453743 
L 251.869091 106.50331 
L 254.487273 93.552877 
L 257.105455 80.602445 
L 259.723636 271.076932 
L 262.341818 258.126499 
L 264.96 245.176066 
L 267.578182 232.225634 
L 270.196364 219.275201 
L 272.814545 206.324769 
L 275.432727 193.374336 
L 278.050909 180.423904 
L 280.669091 167.473471 
L 283.287273 154.523038 
L 285.905455 141.572606 
L 288.523636 128.622173 
L 291.141818 115.671741 
L 293.76 102.721308 
L 296.378182 89.770875 
L 298.996364 76.820443 
L 301.614545 267.29493 
L 304.232727 254.344497 
L 306.850909 241.394064 
L 309.469091 228.443632 
L 312.087273 215.493199 
L 314.705455 202.542767 
L 317.323636 189.592334 
L 319.941818 176.641902 
L 322.56 163.691469 
L 325.178182 150.741036 
L 327.796364 137.790604 
L 330.414545 124.840171 
L 333.032727 111.889739 
L 335.650909 98.939306 
L 338.269091 85.988873 
L 340.887273 73.038441 
L 343.505455 263.512928 
L 346.123636 250.562495 
L 348.741818 237.612062 
L 351.36 224.66163 
L 353.978182 211.711197 
L 356.596364 198.760765 
L 359.214545 185.810332 
L 361.832727 172.8599 
L 364.450909 159.909467 
L 367.069091 146.959034 
L 369.687273 134.008602 
L 372.305455 121.058169 
L 374.923636 108.107737 
L 377.541818 95.157304 
L 380.16 82.206871 
L 382.778182 272.681358 
L 385.396364 259.730926 
L 388.014545 246.780493 
L 390.632727 233.83006 
L 393.250909 220.879628 
L 395.869091 207.929195 
L 398.487273 194.978763 
" clip-path="url(#pe6e1df16c4)" style="fill: none; stroke: #1f77b4; stroke-width: 1.5; stroke-linecap: square"/>
   </g>
   <g id="line2d_14">
    <path d="M 73.832727 92.063081 
L 76.450909 92.063081 
L 79.069091 92.063081 
L 81.687273 92.063081 
L 84.305455 92.063081 
L 86.923636 92.063081 
L 89.541818 92.063081 
L 92.16 92.063081 
L 94.778182 295.488 
L 97.396364 295.488 
L 100.014545 295.488 
L 102.632727 295.488 
L 105.250909 295.488 
L 107.869091 295.488 
L 110.487273 295.488 
L 113.105455 92.063081 
L 115.723636 92.063081 
L 118.341818 92.063081 
L 120.96 92.063081 
L 123.578182 92.063081 
L 126.196364 92.063081 
L 128.814545 92.063081 
L 131.432727 92.063081 
L 134.050909 92.063081 
L 136.669091 295.488 
L 139.287273 295.488 
L 141.905455 295.488 
L 144.523636 295.488 
L 147.141818 295.488 
L 149.76 295.488 
L 152.378182 92.063081 
L 154.996364 92.063081 
L 157.614545 92.063081 
L 160.232727 92.063081 
L 162.850909 92.063081 
L 165.469091 92.063081 
L 168.087273 92.063081 
L 170.705455 92.063081 
L 173.323636 92.063081 
L 175.941818 92.063081 
L 178.56 295.488 
L 181.178182 295.488 
L 183.796364 295.488 
L 186.414545 295.488 
L 189.032727 295.488 
L 191.650909 295.488 
L 194.269091 92.063081 
L 196.887273 92.063081 
L 199.505455 92.063081 
L 202.123636 92.063081 
L 204.741818 92.063081 
L 207.36 92.063081 
L 209.978182 92.063081 
L 212.596364 92.063081 
L 215.214545 92.063081 
L 217.832727 295.488 
L 220.450909 295.488 
L 223.069091 295.488 
L 225.687273 295.488 
L 228.305455 295.488 
L 230.923636 295.488 
L 233.541818 295.488 
L 236.16 92.063081 
L 238.778182 92.063081 
L 241.396364 92.063081 
L 244.014545 92.063081 
L 246.632727 92.063081 
L 249.250909 92.063081 
L 251.869091 92.063081 
L 254.487273 92.063081 
L 257.105455 92.063081 
L 259.723636 295.488 
L 262.341818 295.488 
L 264.96 295.488 
L 267.578182 295.488 
L 270.196364 295.488 
L 272.814545 295.488 
L 275.432727 92.063081 
L 278.050909 92.063081 
L 280.669091 92.063081 
L 283.287273 92.063081 
L 285.905455 92.063081 
L 288.523636 92.063081 
L 291.141818 92.063081 
L 293.76 92.063081 
L 296.378182 92.063081 
L 298.996364 92.063081 
L 301.614545 295.488 
L 304.232727 295.488 
L 306.850909 295.488 
L 309.469091 295.488 
L 312.087273 295.488 
L 314.705455 295.488 
L 317.323636 92.063081 
L 319.941818 92.063081 
L 322.56 92.063081 
L 325.178182 92.063081 
L 327.796364 92.063081 
L 330.414545 92.063081 
L 333.032727 92.063081 
L 335.650909 92.063081 
L 338.269091 92.063081 
L 340.887273 92.063081 
L 343.505455 295.488 
L 346.123636 295.488 
L 348.741818 295.488 
L 351.36 295.488 
L 353.978182 295.488 
L 356.596364 295.488 
L 359.214545 92.063081 
L 361.832727 92.063081 
L 364.450909 92.063081 
L 367.069091 92.063081 
L 369.687273 92.063081 
L 372.305455 92.063081 
L 374.923636 92.063081 
L 377.541818 92.063081 
L 380.16 92.063081 
L 382.778182 295.488 
L 385.396364 295.488 
L 388.014545 295.488 
L 390.632727 295.488 
L 393.250909 295.488 
L 395.869091 295.488 
L 398.487273 295.488 
" clip-path="url(#pe6e1df16c4)" style="fill: none; stroke: #ff7f0e; stroke-width: 1.5; stroke-linecap: square"/>
   </g>
   <g id="line2d_15">
    <path d="M 73.832727 227.852564 
L 76.450909 205.549056 
L 79.069091 181.965183 
L 81.687273 158.041161 
L 84.305455 134.730765 
L 86.923636 112.963307 
L 89.541818 93.606587 
L 92.16 77.432296 
L 94.778182 65.085252 
L 97.396364 57.057693 
L 100.014545 53.669652 
L 102.632727 55.056199 
L 105.250909 61.162058 
L 107.869091 71.743807 
L 110.487273 86.379585 
L 113.105455 104.485911 
L 115.723636 125.34094 
L 118.341818 148.113251 
L 120.96 171.894982 
L 123.578182 195.73803 
L 126.196364 218.69185 
L 128.814545 239.841344 
L 131.432727 258.343349 
L 134.050909 273.460248 
L 136.669091 284.589378 
L 139.287273 291.287056 
L 141.905455 293.286267 
L 144.523636 290.507308 
L 147.141818 283.060968 
L 149.76 271.244109 
L 152.378182 255.527831 
L 154.996364 236.538693 
L 157.614545 215.033733 
L 160.232727 191.870285 
L 162.850909 167.971802 
L 165.469091 144.291041 
L 168.087273 121.772081 
L 170.705455 101.31268 
L 173.323636 83.728491 
L 175.941818 69.72054 
L 178.56 59.847279 
L 181.178182 54.502324 
L 183.796364 53.898762 
L 186.414545 58.060654 
L 189.032727 66.82208 
L 191.650909 79.833749 
L 194.269091 96.576926 
L 196.887273 116.384115 
L 199.505455 138.465664 
L 202.123636 161.941253 
L 204.741818 185.874983 
L 207.36 209.312693 
L 209.978182 231.319994 
L 212.596364 251.019526 
L 215.214545 267.62593 
L 217.832727 280.47716 
L 220.450909 289.06088 
L 223.069091 293.034883 
L 225.687273 292.240738 
L 228.305455 286.710106 
L 230.923636 276.663474 
L 233.541818 262.501372 
L 236.16 244.788396 
L 238.778182 224.230708 
L 241.396364 201.647878 
L 244.014545 177.940211 
L 246.632727 154.052858 
L 249.250909 130.938132 
L 251.869091 109.517544 
L 254.487273 90.645066 
L 257.105455 75.073083 
L 259.723636 63.422402 
L 262.341818 56.157498 
L 264.96 53.568 
L 267.578182 55.757143 
L 270.196364 62.637654 
L 272.814545 73.935227 
L 275.432727 89.199464 
L 278.050909 107.821829 
L 280.669091 129.059905 
L 283.287273 152.066999 
L 285.905455 175.92589 
L 288.523636 199.685399 
L 291.141818 222.39831 
L 293.76 243.15913 
L 296.378182 261.140192 
L 298.996364 275.624646 
L 301.614545 286.035044 
L 304.232727 291.956356 
L 306.850909 293.152517 
L 309.469091 289.575841 
L 312.087273 281.368919 
L 314.705455 268.858933 
L 317.323636 252.544619 
L 319.941818 233.076377 
L 322.56 211.230343 
L 325.178182 187.87745 
L 327.796364 163.948704 
L 330.414545 140.398069 
L 333.032727 118.164435 
L 335.650909 98.134186 
L 338.269091 81.105865 
L 340.887273 67.758337 
L 343.505455 58.623727 
L 346.123636 54.066202 
L 348.741818 54.267456 
L 351.36 59.219467 
L 353.978182 68.724812 
L 356.596364 82.404545 
L 359.214545 99.713297 
L 361.832727 119.961022 
L 364.450909 142.340509 
L 367.069091 165.959557 
L 369.687273 189.876549 
L 372.305455 213.137991 
L 374.923636 234.816523 
L 377.541818 254.047889 
L 380.16 270.065395 
L 382.778182 282.230475 
L 385.396364 290.058145 
L 388.014545 293.23634 
L 390.632727 291.638356 
L 393.250909 285.327899 
L 395.869091 274.556548 
L 398.487273 259.753722 
" clip-path="url(#pe6e1df16c4)" style="fill: none; stroke: #2ca02c; stroke-width: 1.5; stroke-linecap: square"/>
   </g>
   <g id="line2d_16">
    <path d="M 73.832727 88.672665 
L 76.450909 73.522941 
L 79.069091 62.356318 
L 81.687273 55.617973 
L 84.305455 53.576544 
L 86.923636 56.313415 
L 89.541818 63.719476 
L 92.16 75.499472 
L 94.778182 91.18377 
L 97.396364 110.147087 
L 100.014545 131.633415 
L 102.632727 154.786164 
L 105.250909 178.682304 
L 107.869091 202.369174 
L 110.487273 224.902451 
L 113.105455 245.383806 
L 115.723636 262.996711 
L 118.341818 277.038995 
L 120.96 286.950838 
L 123.578182 292.337084 
L 126.196364 292.983001 
L 128.814545 288.86284 
L 131.432727 280.140856 
L 134.050909 267.16477 
L 136.669091 250.451895 
L 139.287273 230.668522 
L 141.905455 208.603351 
L 144.523636 185.136051 
L 147.141818 161.20219 
L 149.76 137.755934 
L 152.378182 115.732012 
L 154.996364 96.008448 
L 157.614545 79.371559 
L 160.232727 66.484605 
L 162.850909 57.861347 
L 165.469091 53.845569 
L 168.087273 54.597366 
L 170.705455 60.086766 
L 173.323636 70.094926 
L 175.941818 84.22285 
L 178.56 101.907303 
L 181.178182 122.443262 
L 183.796364 145.012023 
L 186.414545 168.71384 
L 189.032727 192.603798 
L 191.650909 215.729478 
L 194.269091 237.168933 
L 196.887273 256.067439 
L 199.505455 271.671573 
L 202.123636 283.359247 
L 204.741818 290.66451 
L 207.36 293.296125 
L 209.978182 291.149178 
L 212.596364 284.309259 
L 215.214545 273.049056 
L 217.832727 257.817478 
L 220.450909 239.221758 
L 223.069091 218.00325 
L 225.687273 195.007869 
L 228.305455 171.152367 
L 230.923636 147.38779 
L 233.541818 124.661554 
L 236.16 103.879684 
L 238.778182 85.870688 
L 241.396364 71.352526 
L 244.014545 60.903993 
L 246.632727 54.941638 
L 249.250909 53.703161 
L 251.869091 57.237937 
L 254.487273 65.405046 
L 257.105455 77.878891 
L 259.723636 94.162178 
L 262.341818 113.605744 
L 264.96 135.434436 
L 267.578182 158.778013 
L 270.196364 182.70584 
L 272.814545 206.263991 
L 275.432727 228.513275 
L 278.050909 248.566684 
L 280.669091 265.624752 
L 283.287273 279.007428 
L 285.905455 288.181187 
L 288.523636 292.780299 
L 291.141818 292.621413 
L 293.76 287.710864 
L 296.378182 278.244418 
L 298.996364 264.599474 
L 301.614545 247.320012 
L 304.232727 227.09491 
L 306.850909 204.730479 
L 309.469091 181.118318 
L 312.087273 157.19977 
L 314.705455 133.928391 
L 317.323636 112.231938 
L 319.941818 92.975381 
L 322.56 76.926417 
L 325.178182 64.724867 
L 327.796364 56.85717 
L 330.414545 53.636985 
L 333.032727 55.192691 
L 335.650909 61.462267 
L 338.269091 72.195765 
L 340.887273 86.965274 
L 343.505455 105.18198 
L 346.123636 126.119641 
L 348.741818 148.943538 
L 351.36 172.743754 
L 353.978182 196.571451 
L 356.596364 219.476692 
L 359.214545 240.546319 
L 361.832727 258.940351 
L 364.450909 273.925477 
L 367.069091 284.904287 
L 369.687273 291.439091 
L 372.305455 293.269366 
L 374.923636 290.322145 
L 377.541818 282.714925 
L 380.16 270.750981 
L 382.778182 254.907278 
L 385.396364 235.815455 
L 388.014545 214.236642 
L 390.632727 191.031119 
L 393.250909 167.124016 
L 395.869091 143.468434 
L 398.487273 121.007447 
" clip-path="url(#pe6e1df16c4)" style="fill: none; stroke: #d62728; stroke-width: 1.5; stroke-linecap: square"/>
   </g>
   <g id="line2d_17">
    <path d="M 73.832727 254.803016 
L 76.450909 241.852584 
L 79.069091 228.902151 
L 81.687273 215.951718 
L 84.305455 203.001286 
L 86.923636 190.050853 
L 89.541818 177.100421 
L 92.16 164.149988 
L 94.778182 151.199555 
L 97.396364 138.249123 
L 100.014545 125.29869 
L 102.632727 112.348258 
L 105.250909 99.397825 
L 107.869091 86.447393 
L 110.487273 73.49696 
L 113.105455 263.971447 
L 115.723636 251.021014 
L 118.341818 238.070582 
L 120.96 225.120149 
L 123.578182 212.169716 
L 126.196364 199.219284 
L 128.814545 186.268851 
L 131.432727 173.318419 
L 134.050909 160.367986 
L 136.669091 147.417553 
L 139.287273 134.467121 
L 141.905455 121.516688 
L 144.523636 108.566256 
L 147.141818 95.615823 
L 149.76 82.665391 
L 152.378182 273.139877 
L 154.996364 260.189445 
L 157.614545 247.239012 
L 160.232727 234.28858 
L 162.850909 221.338147 
L 165.469091 208.387714 
L 168.087273 195.437282 
L 170.705455 182.486849 
L 173.323636 169.536417 
L 175.941818 156.585984 
L 178.56 143.635551 
L 181.178182 130.685119 
L 183.796364 117.734686 
L 186.414545 104.784254 
L 189.032727 91.833821 
L 191.650909 78.883389 
L 194.269091 269.357875 
L 196.887273 256.407443 
L 199.505455 243.45701 
L 202.123636 230.506578 
L 204.741818 217.556145 
L 207.36 204.605712 
L 209.978182 191.65528 
L 212.596364 178.704847 
L 215.214545 165.754415 
L 217.832727 152.803982 
L 220.450909 139.853549 
L 223.069091 126.903117 
L 225.687273 113.952684 
L 228.305455 101.002252 
L 230.923636 88.051819 
L 233.541818 75.101387 
L 236.16 265.575873 
L 238.778182 252.625441 
L 241.396364 239.675008 
L 244.014545 226.724576 
L 246.632727 213.774143 
L 249.250909 200.82371 
L 251.869091 187.873278 
L 254.487273 174.922845 
L 257.105455 161.972413 
L 259.723636 149.02198 
L 262.341818 136.071547 
L 264.96 123.121115 
L 267.578182 110.170682 
L 270.196364 97.22025 
L 272.814545 84.269817 
L 275.432727 274.744304 
L 278.050909 261.793871 
L 280.669091 248.843439 
L 283.287273 235.893006 
L 285.905455 222.942574 
L 288.523636 209.992141 
L 291.141818 197.041708 
L 293.76 184.091276 
L 296.378182 171.140843 
L 298.996364 158.190411 
L 301.614545 145.239978 
L 304.232727 132.289545 
L 306.850909 119.339113 
L 309.469091 106.38868 
L 312.087273 93.438248 
L 314.705455 80.487815 
L 317.323636 270.962302 
L 319.941818 258.011869 
L 322.56 245.061437 
L 325.178182 232.111004 
L 327.796364 219.160571 
L 330.414545 206.210139 
L 333.032727 193.259706 
L 335.650909 180.309274 
L 338.269091 167.358841 
L 340.887273 154.408409 
L 343.505455 141.457976 
L 346.123636 128.507543 
L 348.741818 115.557111 
L 351.36 102.606678 
L 353.978182 89.656246 
L 356.596364 76.705813 
L 359.214545 267.1803 
L 361.832727 254.229867 
L 364.450909 241.279435 
L 367.069091 228.329002 
L 369.687273 215.378569 
L 372.305455 202.428137 
L 374.923636 189.477704 
L 377.541818 176.527272 
L 380.16 163.576839 
L 382.778182 150.626407 
L 385.396364 137.675974 
L 388.014545 124.725541 
L 390.632727 111.775109 
L 393.250909 98.824676 
L 395.869091 85.874244 
L 398.487273 72.923811 
" clip-path="url(#pe6e1df16c4)" style="fill: none; stroke: #9467bd; stroke-width: 1.5; stroke-linecap: square"/>
   </g>
   <g id="patch_3">
    <path d="M 57.6 307.584 
L 57.6 41.472 
" style="fill: none; stroke: #000000; stroke-width: 0.8; stroke-linejoin: miter; stroke-linecap: square"/>
   </g>
   <g id="patch_4">
    <path d="M 414.72 307.584 
L 414.72 41.472 
" style="fill: none; stroke: #000000; stroke-width: 0.8; stroke-linejoin: miter; stroke-linecap: square"/>
   </g>
   <g id="patch_5">
    <path d="M 57.6 307.584 
L 414.72 307.584 
" style="fill: none; stroke: #000000; stroke-width: 0.8; stroke-linejoin: miter; stroke-linecap: square"/>
   </g>
   <g id="patch_6">
    <path d="M 57.6 41.472 
L 414.72 41.472 
" style="fill: none; stroke: #000000; stroke-width: 0.8; stroke-linejoin: miter; stroke-linecap: square"/>
   </g>
   <g id="text_13">
    <!-- faza=0.4pi dodatnie=9.5  -->
    <g transform="translate(158.63625 22.034625) scale(0.12 -0.12)">
     <defs>
      <path id="DejaVuSans-66" d="M 2375 4863 
L 2375 4384 
L 1825 4384 
Q 1516 4384 1395 4259 
Q 1275 4134 1275 3809 
L 1275 3500 
L 2222 3500 
L 2222 3053 
L 1275 3053 
L 1275 0 
L 697 0 
L 697 3053 
L 147 3053 
L 147 3500 
L 697 3500 
L 697 3744 
Q 697 4328 969 4595 
Q 1241 4863 1831 4863 
L 2375 4863 
z
" transform="scale(0.015625)"/>
      <path id="DejaVuSans-61" d="M 2194 1759 
Q 1497 1759 1228 1600 
Q 959 1441 959 1056 
Q 959 750 1161 570 
Q 1363 391 1709 391 
Q 2188 391 2477 730 
Q 2766 1069 2766 1631 
L 2766 1759 
L 2194 1759 
z
M 3341 1997 
L 3341 0 
L 2766 0 
L 2766 531 
Q 2569 213 2275 61 
Q 1981 -91 1556 -91 
Q 1019 -91 701 211 
Q 384 513 384 1019 
Q 384 1609 779 1909 
Q 1175 2209 1959 2209 
L 2766 2209 
L 2766 2266 
Q 2766 2663 2505 2880 
Q 2244 3097 1772 3097 
Q 1472 3097 1187 3025 
Q 903 2953 641 2809 
L 641 3341 
Q 956 3463 1253 3523 
Q 1550 3584 1831 3584 
Q 2591 3584 2966 3190 
Q 3341 2797 3341 1997 
z
" transform="scale(0.015625)"/>
      <path id="DejaVuSans-7a" d="M 353 3500 
L 3084 3500 
L 3084 2975 
L 922 459 
L 3084 459 
L 3084 0 
L 275 0 
L 275 525 
L 2438 3041 
L 353 3041 
L 353 3500 
z
" transform="scale(0.015625)"/>
      <path id="DejaVuSans-3d" d="M 678 2906 
L 4684 2906 
L 4684 2381 
L 678 2381 
L 678 2906 
z
M 678 1631 
L 4684 1631 
L 4684 1100 
L 678 1100 
L 678 1631 
z
" transform="scale(0.015625)"/>
      <path id="DejaVuSans-2e" d="M 684 794 
L 1344 794 
L 1344 0 
L 684 0 
L 684 794 
z
" transform="scale(0.015625)"/>
      <path id="DejaVuSans-70" d="M 1159 525 
L 1159 -1331 
L 581 -1331 
L 581 3500 
L 1159 3500 
L 1159 2969 
Q 1341 3281 1617 3432 
Q 1894 3584 2278 3584 
Q 2916 3584 3314 3078 
Q 3713 2572 3713 1747 
Q 3713 922 3314 415 
Q 2916 -91 2278 -91 
Q 1894 -91 1617 61 
Q 1341 213 1159 525 
z
M 3116 1747 
Q 3116 2381 2855 2742 
Q 2594 3103 2138 3103 
Q 1681 3103 1420 2742 
Q 1159 2381 1159 1747 
Q 1159 1113 1420 752 
Q 1681 391 2138 391 
Q 2594 391 2855 752 
Q 3116 1113 3116 1747 
z
" transform="scale(0.015625)"/>
      <path id="DejaVuSans-69" d="M 603 3500 
L 1178 3500 
L 1178 0 
L 603 0 
L 603 3500 
z
M 603 4863 
L 1178 4863 
L 1178 4134 
L 603 4134 
L 603 4863 
z
" transform="scale(0.015625)"/>
      <path id="DejaVuSans-20" transform="scale(0.015625)"/>
      <path id="DejaVuSans-64" d="M 2906 2969 
L 2906 4863 
L 3481 4863 
L 3481 0 
L 2906 0 
L 2906 525 
Q 2725 213 2448 61 
Q 2172 -91 1784 -91 
Q 1150 -91 751 415 
Q 353 922 353 1747 
Q 353 2572 751 3078 
Q 1150 3584 1784 3584 
Q 2172 3584 2448 3432 
Q 2725 3281 2906 2969 
z
M 947 1747 
Q 947 1113 1208 752 
Q 1469 391 1925 391 
Q 2381 391 2643 752 
Q 2906 1113 2906 1747 
Q 2906 2381 2643 2742 
Q 2381 3103 1925 3103 
Q 1469 3103 1208 2742 
Q 947 2381 947 1747 
z
" transform="scale(0.015625)"/>
      <path id="DejaVuSans-6f" d="M 1959 3097 
Q 1497 3097 1228 2736 
Q 959 2375 959 1747 
Q 959 1119 1226 758 
Q 1494 397 1959 397 
Q 2419 397 2687 759 
Q 2956 1122 2956 1747 
Q 2956 2369 2687 2733 
Q 2419 3097 1959 3097 
z
M 1959 3584 
Q 2709 3584 3137 3096 
Q 3566 2609 3566 1747 
Q 3566 888 3137 398 
Q 2709 -91 1959 -91 
Q 1206 -91 779 398 
Q 353 888 353 1747 
Q 353 2609 779 3096 
Q 1206 3584 1959 3584 
z
" transform="scale(0.015625)"/>
      <path id="DejaVuSans-74" d="M 1172 4494 
L 1172 3500 
L 2356 3500 
L 2356 3053 
L 1172 3053 
L 1172 1153 
Q 1172 725 1289 603 
Q 1406 481 1766 481 
L 2356 481 
L 2356 0 
L 1766 0 
Q 1100 0 847 248 
Q 594 497 594 1153 
L 594 3053 
L 172 3053 
L 172 3500 
L 594 3500 
L 594 4494 
L 1172 4494 
z
" transform="scale(0.015625)"/>
      <path id="DejaVuSans-6e" d="M 3513 2113 
L 3513 0 
L 2938 0 
L 2938 2094 
Q 2938 2591 2744 2837 
Q 2550 3084 2163 3084 
Q 1697 3084 1428 2787 
Q 1159 2491 1159 1978 
L 1159 0 
L 581 0 
L 581 3500 
L 1159 3500 
L 1159 2956 
Q 1366 3272 1645 3428 
Q 1925 3584 2291 3584 
Q 2894 3584 3203 3211 
Q 3513 2838 3513 2113 
z
" transform="scale(0.015625)"/>
      <path id="DejaVuSans-65" d="M 3597 1894 
L 3597 1613 
L 953 1613 
Q 991 1019 1311 708 
Q 1631 397 2203 397 
Q 2534 397 2845 478 
Q 3156 559 3463 722 
L 3463 178 
Q 3153 47 2828 -22 
Q 2503 -91 2169 -91 
Q 1331 -91 842 396 
Q 353 884 353 1716 
Q 353 2575 817 3079 
Q 1281 3584 2069 3584 
Q 2775 3584 3186 3129 
Q 3597 2675 3597 1894 
z
M 3022 2063 
Q 3016 2534 2758 2815 
Q 2500 3097 2075 3097 
Q 1594 3097 1305 2825 
Q 1016 2553 972 2059 
L 3022 2063 
z
" transform="scale(0.015625)"/>
      <path id="DejaVuSans-39" d="M 703 97 
L 703 672 
Q 941 559 1184 500 
Q 1428 441 1663 441 
Q 2288 441 2617 861 
Q 2947 1281 2994 2138 
Q 2813 1869 2534 1725 
Q 2256 1581 1919 1581 
Q 1219 1581 811 2004 
Q 403 2428 403 3163 
Q 403 3881 828 4315 
Q 1253 4750 1959 4750 
Q 2769 4750 3195 4129 
Q 3622 3509 3622 2328 
Q 3622 1225 3098 567 
Q 2575 -91 1691 -91 
Q 1453 -91 1209 -44 
Q 966 3 703 97 
z
M 1959 2075 
Q 2384 2075 2632 2365 
Q 2881 2656 2881 3163 
Q 2881 3666 2632 3958 
Q 2384 4250 1959 4250 
Q 1534 4250 1286 3958 
Q 1038 3666 1038 3163 
Q 1038 2656 1286 2365 
Q 1534 2075 1959 2075 
z
" transform="scale(0.015625)"/>
     </defs>
     <use xlink:href="#DejaVuSans-66"/>
     <use xlink:href="#DejaVuSans-61" x="35.205078"/>
     <use xlink:href="#DejaVuSans-7a" x="96.484375"/>
     <use xlink:href="#DejaVuSans-61" x="148.974609"/>
     <use xlink:href="#DejaVuSans-3d" x="210.253906"/>
     <use xlink:href="#DejaVuSans-30" x="294.042969"/>
     <use xlink:href="#DejaVuSans-2e" x="357.666016"/>
     <use xlink:href="#DejaVuSans-34" x="389.453125"/>
     <use xlink:href="#DejaVuSans-70" x="453.076172"/>
     <use xlink:href="#DejaVuSans-69" x="516.552734"/>
     <use xlink:href="#DejaVuSans-20" x="544.335938"/>
     <use xlink:href="#DejaVuSans-64" x="576.123047"/>
     <use xlink:href="#DejaVuSans-6f" x="639.599609"/>
     <use xlink:href="#DejaVuSans-64" x="700.78125"/>
     <use xlink:href="#DejaVuSans-61" x="764.257812"/>
     <use xlink:href="#DejaVuSans-74" x="825.537109"/>
     <use xlink:href="#DejaVuSans-6e" x="864.746094"/>
     <use xlink:href="#DejaVuSans-69" x="928.125"/>
     <use xlink:href="#DejaVuSans-65" x="955.908203"/>
     <use xlink:href="#DejaVuSans-3d" x="1017.431641"/>
     <use xlink:href="#DejaVuSans-39" x="1101.220703"/>
     <use xlink:href="#DejaVuSans-2e" x="1164.84375"/>
     <use xlink:href="#DejaVuSans-35" x="1196.630859"/>
     <use xlink:href="#DejaVuSans-20" x="1260.253906"/>
    </g>
    <!-- ujemne=6.285714285714286 wynik=72.0 -->
    <g transform="translate(107.949375 35.472) scale(0.12 -0.12)">
     <defs>
      <path id="DejaVuSans-75" d="M 544 1381 
L 544 3500 
L 1119 3500 
L 1119 1403 
Q 1119 906 1312 657 
Q 1506 409 1894 409 
Q 2359 409 2629 706 
Q 2900 1003 2900 1516 
L 2900 3500 
L 3475 3500 
L 3475 0 
L 2900 0 
L 2900 538 
Q 2691 219 2414 64 
Q 2138 -91 1772 -91 
Q 1169 -91 856 284 
Q 544 659 544 1381 
z
M 1991 3584 
L 1991 3584 
z
" transform="scale(0.015625)"/>
      <path id="DejaVuSans-6a" d="M 603 3500 
L 1178 3500 
L 1178 -63 
Q 1178 -731 923 -1031 
Q 669 -1331 103 -1331 
L -116 -1331 
L -116 -844 
L 38 -844 
Q 366 -844 484 -692 
Q 603 -541 603 -63 
L 603 3500 
z
M 603 4863 
L 1178 4863 
L 1178 4134 
L 603 4134 
L 603 4863 
z
" transform="scale(0.015625)"/>
      <path id="DejaVuSans-6d" d="M 3328 2828 
Q 3544 3216 3844 3400 
Q 4144 3584 4550 3584 
Q 5097 3584 5394 3201 
Q 5691 2819 5691 2113 
L 5691 0 
L 5113 0 
L 5113 2094 
Q 5113 2597 4934 2840 
Q 4756 3084 4391 3084 
Q 3944 3084 3684 2787 
Q 3425 2491 3425 1978 
L 3425 0 
L 2847 0 
L 2847 2094 
Q 2847 2600 2669 2842 
Q 2491 3084 2119 3084 
Q 1678 3084 1418 2786 
Q 1159 2488 1159 1978 
L 1159 0 
L 581 0 
L 581 3500 
L 1159 3500 
L 1159 2956 
Q 1356 3278 1631 3431 
Q 1906 3584 2284 3584 
Q 2666 3584 2933 3390 
Q 3200 3197 3328 2828 
z
" transform="scale(0.015625)"/>
      <path id="DejaVuSans-37" d="M 525 4666 
L 3525 4666 
L 3525 4397 
L 1831 0 
L 1172 0 
L 2766 4134 
L 525 4134 
L 525 4666 
z
" transform="scale(0.015625)"/>
      <path id="DejaVuSans-77" d="M 269 3500 
L 844 3500 
L 1563 769 
L 2278 3500 
L 2956 3500 
L 3675 769 
L 4391 3500 
L 4966 3500 
L 4050 0 
L 3372 0 
L 2619 2869 
L 1863 0 
L 1184 0 
L 269 3500 
z
" transform="scale(0.015625)"/>
      <path id="DejaVuSans-79" d="M 2059 -325 
Q 1816 -950 1584 -1140 
Q 1353 -1331 966 -1331 
L 506 -1331 
L 506 -850 
L 844 -850 
Q 1081 -850 1212 -737 
Q 1344 -625 1503 -206 
L 1606 56 
L 191 3500 
L 800 3500 
L 1894 763 
L 2988 3500 
L 3597 3500 
L 2059 -325 
z
" transform="scale(0.015625)"/>
      <path id="DejaVuSans-6b" d="M 581 4863 
L 1159 4863 
L 1159 1991 
L 2875 3500 
L 3609 3500 
L 1753 1863 
L 3688 0 
L 2938 0 
L 1159 1709 
L 1159 0 
L 581 0 
L 581 4863 
z
" transform="scale(0.015625)"/>
     </defs>
     <use xlink:href="#DejaVuSans-75"/>
     <use xlink:href="#DejaVuSans-6a" x="63.378906"/>
     <use xlink:href="#DejaVuSans-65" x="91.162109"/>
     <use xlink:href="#DejaVuSans-6d" x="152.685547"/>
     <use xlink:href="#DejaVuSans-6e" x="250.097656"/>
     <use xlink:href="#DejaVuSans-65" x="313.476562"/>
     <use xlink:href="#DejaVuSans-3d" x="375"/>
     <use xlink:href="#DejaVuSans-36" x="458.789062"/>
     <use xlink:href="#DejaVuSans-2e" x="522.412109"/>
     <use xlink:href="#DejaVuSans-32" x="554.199219"/>
     <use xlink:href="#DejaVuSans-38" x="617.822266"/>
     <use xlink:href="#DejaVuSans-35" x="681.445312"/>
     <use xlink:href="#DejaVuSans-37" x="745.068359"/>
     <use xlink:href="#DejaVuSans-31" x="808.691406"/>
     <use xlink:href="#DejaVuSans-34" x="872.314453"/>
     <use xlink:href="#DejaVuSans-32" x="935.9375"/>
     <use xlink:href="#DejaVuSans-38" x="999.560547"/>
     <use xlink:href="#DejaVuSans-35" x="1063.183594"/>
     <use xlink:href="#DejaVuSans-37" x="1126.806641"/>
     <use xlink:href="#DejaVuSans-31" x="1190.429688"/>
     <use xlink:href="#DejaVuSans-34" x="1254.052734"/>
     <use xlink:href="#DejaVuSans-32" x="1317.675781"/>
     <use xlink:href="#DejaVuSans-38" x="1381.298828"/>
     <use xlink:href="#DejaVuSans-36" x="1444.921875"/>
     <use xlink:href="#DejaVuSans-20" x="1508.544922"/>
     <use xlink:href="#DejaVuSans-77" x="1540.332031"/>
     <use xlink:href="#DejaVuSans-79" x="1622.119141"/>
     <use xlink:href="#DejaVuSans-6e" x="1681.298828"/>
     <use xlink:href="#DejaVuSans-69" x="1744.677734"/>
     <use xlink:href="#DejaVuSans-6b" x="1772.460938"/>
     <use xlink:href="#DejaVuSans-3d" x="1830.371094"/>
     <use xlink:href="#DejaVuSans-37" x="1914.160156"/>
     <use xlink:href="#DejaVuSans-32" x="1977.783203"/>
     <use xlink:href="#DejaVuSans-2e" x="2041.40625"/>
     <use xlink:href="#DejaVuSans-30" x="2073.193359"/>
    </g>
   </g>
  </g>
 </g>
 <defs>
  <clipPath id="pe6e1df16c4">
   <rect x="57.6" y="41.472" width="357.12" height="266.112"/>
  </clipPath>
 </defs>
</svg>
