<?xml version="1.0" encoding="utf-8" standalone="no"?>
<!DOCTYPE svg PUBLIC "-//W3C//DTD SVG 1.1//EN"
  "http://www.w3.org/Graphics/SVG/1.1/DTD/svg11.dtd">
<svg xmlns:xlink="http://www.w3.org/1999/xlink" width="460.8pt" height="345.6pt" viewBox="0 0 460.8 345.6" xmlns="http://www.w3.org/2000/svg" version="1.1">
 <metadata>
  <rdf:RDF xmlns:dc="http://purl.org/dc/elements/1.1/" xmlns:cc="http://creativecommons.org/ns#" xmlns:rdf="http://www.w3.org/1999/02/22-rdf-syntax-ns#">
   <cc:Work>
    <dc:type rdf:resource="http://purl.org/dc/dcmitype/StillImage"/>
    <dc:date>2023-11-19T21:43:09.748126</dc:date>
    <dc:format>image/svg+xml</dc:format>
    <dc:creator>
     <cc:Agent>
      <dc:title>Matplotlib v3.8.0, https://matplotlib.org/</dc:title>
     </cc:Agent>
    </dc:creator>
   </cc:Work>
  </rdf:RDF>
 </metadata>
 <defs>
  <style type="text/css">*{stroke-linejoin: round; stroke-linecap: butt}</style>
 </defs>
 <g id="figure_1">
  <g id="patch_1">
   <path d="M 0 345.6 
L 460.8 345.6 
L 460.8 0 
L 0 0 
z
" style="fill: #ffffff"/>
  </g>
  <g id="axes_1">
   <g id="patch_2">
    <path d="M 57.6 307.584 
L 414.72 307.584 
L 414.72 41.472 
L 57.6 41.472 
z
" style="fill: #ffffff"/>
   </g>
   <g id="matplotlib.axis_1">
    <g id="xtick_1">
     <g id="line2d_1">
      <path d="M 73.832727 307.584 
L 73.832727 41.472 
" clip-path="url(#pf131a5d78a)" style="fill: none; stroke: #b0b0b0; stroke-width: 0.8; stroke-linecap: square"/>
     </g>
     <g id="line2d_2">
      <defs>
       <path id="mdbecba5851" d="M 0 0 
L 0 3.5 
" style="stroke: #000000; stroke-width: 0.8"/>
      </defs>
      <g>
       <use xlink:href="#mdbecba5851" x="73.832727" y="307.584" style="stroke: #000000; stroke-width: 0.8"/>
      </g>
     </g>
     <g id="text_1">
      <!-- 0 -->
      <g transform="translate(70.651477 322.182437) scale(0.1 -0.1)">
       <defs>
        <path id="DejaVuSans-30" d="M 2034 4250 
Q 1547 4250 1301 3770 
Q 1056 3291 1056 2328 
Q 1056 1369 1301 889 
Q 1547 409 2034 409 
Q 2525 409 2770 889 
Q 3016 1369 3016 2328 
Q 3016 3291 2770 3770 
Q 2525 4250 2034 4250 
z
M 2034 4750 
Q 2819 4750 3233 4129 
Q 3647 3509 3647 2328 
Q 3647 1150 3233 529 
Q 2819 -91 2034 -91 
Q 1250 -91 836 529 
Q 422 1150 422 2328 
Q 422 3509 836 4129 
Q 1250 4750 2034 4750 
z
" transform="scale(0.015625)"/>
       </defs>
       <use xlink:href="#DejaVuSans-30"/>
      </g>
     </g>
    </g>
    <g id="xtick_2">
     <g id="line2d_3">
      <path d="M 143.801379 307.584 
L 143.801379 41.472 
" clip-path="url(#pf131a5d78a)" style="fill: none; stroke: #b0b0b0; stroke-width: 0.8; stroke-linecap: square"/>
     </g>
     <g id="line2d_4">
      <g>
       <use xlink:href="#mdbecba5851" x="143.801379" y="307.584" style="stroke: #000000; stroke-width: 0.8"/>
      </g>
     </g>
     <g id="text_2">
      <!-- 50 -->
      <g transform="translate(137.438879 322.182437) scale(0.1 -0.1)">
       <defs>
        <path id="DejaVuSans-35" d="M 691 4666 
L 3169 4666 
L 3169 4134 
L 1269 4134 
L 1269 2991 
Q 1406 3038 1543 3061 
Q 1681 3084 1819 3084 
Q 2600 3084 3056 2656 
Q 3513 2228 3513 1497 
Q 3513 744 3044 326 
Q 2575 -91 1722 -91 
Q 1428 -91 1123 -41 
Q 819 9 494 109 
L 494 744 
Q 775 591 1075 516 
Q 1375 441 1709 441 
Q 2250 441 2565 725 
Q 2881 1009 2881 1497 
Q 2881 1984 2565 2268 
Q 2250 2553 1709 2553 
Q 1456 2553 1204 2497 
Q 953 2441 691 2322 
L 691 4666 
z
" transform="scale(0.015625)"/>
       </defs>
       <use xlink:href="#DejaVuSans-35"/>
       <use xlink:href="#DejaVuSans-30" x="63.623047"/>
      </g>
     </g>
    </g>
    <g id="xtick_3">
     <g id="line2d_5">
      <path d="M 213.770031 307.584 
L 213.770031 41.472 
" clip-path="url(#pf131a5d78a)" style="fill: none; stroke: #b0b0b0; stroke-width: 0.8; stroke-linecap: square"/>
     </g>
     <g id="line2d_6">
      <g>
       <use xlink:href="#mdbecba5851" x="213.770031" y="307.584" style="stroke: #000000; stroke-width: 0.8"/>
      </g>
     </g>
     <g id="text_3">
      <!-- 100 -->
      <g transform="translate(204.226281 322.182437) scale(0.1 -0.1)">
       <defs>
        <path id="DejaVuSans-31" d="M 794 531 
L 1825 531 
L 1825 4091 
L 703 3866 
L 703 4441 
L 1819 4666 
L 2450 4666 
L 2450 531 
L 3481 531 
L 3481 0 
L 794 0 
L 794 531 
z
" transform="scale(0.015625)"/>
       </defs>
       <use xlink:href="#DejaVuSans-31"/>
       <use xlink:href="#DejaVuSans-30" x="63.623047"/>
       <use xlink:href="#DejaVuSans-30" x="127.246094"/>
      </g>
     </g>
    </g>
    <g id="xtick_4">
     <g id="line2d_7">
      <path d="M 283.738683 307.584 
L 283.738683 41.472 
" clip-path="url(#pf131a5d78a)" style="fill: none; stroke: #b0b0b0; stroke-width: 0.8; stroke-linecap: square"/>
     </g>
     <g id="line2d_8">
      <g>
       <use xlink:href="#mdbecba5851" x="283.738683" y="307.584" style="stroke: #000000; stroke-width: 0.8"/>
      </g>
     </g>
     <g id="text_4">
      <!-- 150 -->
      <g transform="translate(274.194933 322.182437) scale(0.1 -0.1)">
       <use xlink:href="#DejaVuSans-31"/>
       <use xlink:href="#DejaVuSans-35" x="63.623047"/>
       <use xlink:href="#DejaVuSans-30" x="127.246094"/>
      </g>
     </g>
    </g>
    <g id="xtick_5">
     <g id="line2d_9">
      <path d="M 353.707335 307.584 
L 353.707335 41.472 
" clip-path="url(#pf131a5d78a)" style="fill: none; stroke: #b0b0b0; stroke-width: 0.8; stroke-linecap: square"/>
     </g>
     <g id="line2d_10">
      <g>
       <use xlink:href="#mdbecba5851" x="353.707335" y="307.584" style="stroke: #000000; stroke-width: 0.8"/>
      </g>
     </g>
     <g id="text_5">
      <!-- 200 -->
      <g transform="translate(344.163585 322.182437) scale(0.1 -0.1)">
       <defs>
        <path id="DejaVuSans-32" d="M 1228 531 
L 3431 531 
L 3431 0 
L 469 0 
L 469 531 
Q 828 903 1448 1529 
Q 2069 2156 2228 2338 
Q 2531 2678 2651 2914 
Q 2772 3150 2772 3378 
Q 2772 3750 2511 3984 
Q 2250 4219 1831 4219 
Q 1534 4219 1204 4116 
Q 875 4013 500 3803 
L 500 4441 
Q 881 4594 1212 4672 
Q 1544 4750 1819 4750 
Q 2544 4750 2975 4387 
Q 3406 4025 3406 3419 
Q 3406 3131 3298 2873 
Q 3191 2616 2906 2266 
Q 2828 2175 2409 1742 
Q 1991 1309 1228 531 
z
" transform="scale(0.015625)"/>
       </defs>
       <use xlink:href="#DejaVuSans-32"/>
       <use xlink:href="#DejaVuSans-30" x="63.623047"/>
       <use xlink:href="#DejaVuSans-30" x="127.246094"/>
      </g>
     </g>
    </g>
   </g>
   <g id="matplotlib.axis_2">
    <g id="ytick_1">
     <g id="line2d_11">
      <path d="M 57.6 288.634061 
L 414.72 288.634061 
" clip-path="url(#pf131a5d78a)" style="fill: none; stroke: #b0b0b0; stroke-width: 0.8; stroke-linecap: square"/>
     </g>
     <g id="line2d_12">
      <defs>
       <path id="m6ecb5032a6" d="M 0 0 
L -3.5 0 
" style="stroke: #000000; stroke-width: 0.8"/>
      </defs>
      <g>
       <use xlink:href="#m6ecb5032a6" x="57.6" y="288.634061" style="stroke: #000000; stroke-width: 0.8"/>
      </g>
     </g>
     <g id="text_6">
      <!-- −100 -->
      <g transform="translate(23.132812 292.43328) scale(0.1 -0.1)">
       <defs>
        <path id="DejaVuSans-2212" d="M 678 2272 
L 4684 2272 
L 4684 1741 
L 678 1741 
L 678 2272 
z
" transform="scale(0.015625)"/>
       </defs>
       <use xlink:href="#DejaVuSans-2212"/>
       <use xlink:href="#DejaVuSans-31" x="83.789062"/>
       <use xlink:href="#DejaVuSans-30" x="147.412109"/>
       <use xlink:href="#DejaVuSans-30" x="211.035156"/>
      </g>
     </g>
    </g>
    <g id="ytick_2">
     <g id="line2d_13">
      <path d="M 57.6 232.127796 
L 414.72 232.127796 
" clip-path="url(#pf131a5d78a)" style="fill: none; stroke: #b0b0b0; stroke-width: 0.8; stroke-linecap: square"/>
     </g>
     <g id="line2d_14">
      <g>
       <use xlink:href="#m6ecb5032a6" x="57.6" y="232.127796" style="stroke: #000000; stroke-width: 0.8"/>
      </g>
     </g>
     <g id="text_7">
      <!-- −50 -->
      <g transform="translate(29.495313 235.927015) scale(0.1 -0.1)">
       <use xlink:href="#DejaVuSans-2212"/>
       <use xlink:href="#DejaVuSans-35" x="83.789062"/>
       <use xlink:href="#DejaVuSans-30" x="147.412109"/>
      </g>
     </g>
    </g>
    <g id="ytick_3">
     <g id="line2d_15">
      <path d="M 57.6 175.621532 
L 414.72 175.621532 
" clip-path="url(#pf131a5d78a)" style="fill: none; stroke: #b0b0b0; stroke-width: 0.8; stroke-linecap: square"/>
     </g>
     <g id="line2d_16">
      <g>
       <use xlink:href="#m6ecb5032a6" x="57.6" y="175.621532" style="stroke: #000000; stroke-width: 0.8"/>
      </g>
     </g>
     <g id="text_8">
      <!-- 0 -->
      <g transform="translate(44.2375 179.42075) scale(0.1 -0.1)">
       <use xlink:href="#DejaVuSans-30"/>
      </g>
     </g>
    </g>
    <g id="ytick_4">
     <g id="line2d_17">
      <path d="M 57.6 119.115267 
L 414.72 119.115267 
" clip-path="url(#pf131a5d78a)" style="fill: none; stroke: #b0b0b0; stroke-width: 0.8; stroke-linecap: square"/>
     </g>
     <g id="line2d_18">
      <g>
       <use xlink:href="#m6ecb5032a6" x="57.6" y="119.115267" style="stroke: #000000; stroke-width: 0.8"/>
      </g>
     </g>
     <g id="text_9">
      <!-- 50 -->
      <g transform="translate(37.875 122.914486) scale(0.1 -0.1)">
       <use xlink:href="#DejaVuSans-35"/>
       <use xlink:href="#DejaVuSans-30" x="63.623047"/>
      </g>
     </g>
    </g>
    <g id="ytick_5">
     <g id="line2d_19">
      <path d="M 57.6 62.609002 
L 414.72 62.609002 
" clip-path="url(#pf131a5d78a)" style="fill: none; stroke: #b0b0b0; stroke-width: 0.8; stroke-linecap: square"/>
     </g>
     <g id="line2d_20">
      <g>
       <use xlink:href="#m6ecb5032a6" x="57.6" y="62.609002" style="stroke: #000000; stroke-width: 0.8"/>
      </g>
     </g>
     <g id="text_10">
      <!-- 100 -->
      <g transform="translate(31.5125 66.408221) scale(0.1 -0.1)">
       <use xlink:href="#DejaVuSans-31"/>
       <use xlink:href="#DejaVuSans-30" x="63.623047"/>
       <use xlink:href="#DejaVuSans-30" x="127.246094"/>
      </g>
     </g>
    </g>
   </g>
   <g id="line2d_21">
    <path d="M 73.832727 256.990553 
L 97.622069 256.990553 
L 99.021442 53.568 
L 115.813918 53.568 
L 117.213292 256.990553 
L 141.002633 256.990553 
L 142.402006 53.568 
L 159.194483 53.568 
L 160.593856 256.990553 
L 185.782571 256.990553 
L 187.181944 53.568 
L 202.575047 53.568 
L 203.97442 256.990553 
L 229.163135 256.990553 
L 230.562508 53.568 
L 247.354984 53.568 
L 248.754357 256.990553 
L 273.943072 256.990553 
L 275.342445 53.568 
L 290.735549 53.568 
L 292.134922 256.990553 
L 317.323636 256.990553 
L 318.723009 53.568 
L 335.515486 53.568 
L 336.914859 256.990553 
L 362.103574 256.990553 
L 363.502947 53.568 
L 378.89605 53.568 
L 380.295423 256.990553 
L 398.487273 256.990553 
L 398.487273 256.990553 
" clip-path="url(#pf131a5d78a)" style="fill: none; stroke: #1f77b4; stroke-width: 1.5; stroke-linecap: square"/>
   </g>
   <g id="line2d_22">
    <path d="M 73.832727 102.489402 
L 76.631473 122.815536 
L 79.430219 145.246878 
L 89.225831 227.090335 
L 92.024577 247.571452 
L 93.42395 256.783273 
L 94.823323 265.184152 
L 96.222696 272.690151 
L 97.622069 279.226273 
L 99.021442 284.727211 
L 100.420815 289.138 
L 101.820188 292.414571 
L 103.219561 294.524184 
L 104.618934 295.445761 
L 106.018307 295.170094 
L 107.41768 293.699937 
L 108.817053 291.04998 
L 110.216426 287.2467 
L 111.615799 282.328098 
L 113.015172 276.34332 
L 114.414545 269.352162 
L 115.813918 261.42448 
L 117.213292 252.639482 
L 120.012038 232.856339 
L 122.810784 210.791425 
L 127.008903 175.356281 
L 131.207022 139.944832 
L 134.005768 117.921166 
L 136.804514 98.197832 
L 138.203887 89.448981 
L 139.60326 81.561137 
L 141.002633 74.613113 
L 142.402006 68.674332 
L 143.801379 63.804132 
L 145.200752 60.051175 
L 146.600125 57.452958 
L 147.999498 56.035443 
L 149.398871 55.812793 
L 150.798245 56.787232 
L 152.197618 58.949023 
L 153.596991 62.276568 
L 154.996364 66.736619 
L 156.395737 72.284611 
L 157.79511 78.865112 
L 159.194483 86.412371 
L 160.593856 94.850978 
L 163.392602 114.056912 
L 166.191348 135.717232 
L 170.389467 170.902378 
L 175.986959 217.917469 
L 178.785705 239.356674 
L 181.584451 258.254961 
L 182.983824 266.511006 
L 184.383197 273.858913 
L 185.782571 280.225265 
L 187.181944 285.546451 
L 188.581317 289.769304 
L 189.98069 292.85163 
L 191.380063 294.762631 
L 192.779436 295.483214 
L 194.178809 295.006179 
L 195.578182 293.336291 
L 196.977555 290.490237 
L 198.376928 286.496453 
L 199.776301 281.394843 
L 201.175674 275.236381 
L 202.575047 268.0826 
L 203.97442 260.004979 
L 205.373793 251.084227 
L 208.172539 231.077393 
L 210.971285 208.85971 
L 216.568777 161.387616 
L 220.766897 126.850605 
L 223.565643 106.068977 
L 224.965016 96.670155 
L 226.364389 88.06019 
L 227.763762 80.325108 
L 229.163135 73.542197 
L 230.562508 67.779229 
L 231.961881 63.093785 
L 233.361254 59.532681 
L 234.760627 57.131499 
L 236.16 55.91423 
L 237.559373 55.893037 
L 238.958746 57.068132 
L 240.358119 59.427772 
L 241.757492 62.948383 
L 243.156865 67.594786 
L 244.556238 73.320557 
L 245.955611 80.068485 
L 247.354984 87.771148 
L 248.754357 96.351583 
L 251.553103 115.794923 
L 254.35185 137.623362 
L 258.549969 172.91693 
L 262.748088 208.452092 
L 265.546834 230.701117 
L 268.34558 250.754293 
L 269.744953 259.703287 
L 271.144326 267.812163 
L 272.543699 274.999901 
L 273.943072 281.194683 
L 275.342445 286.334613 
L 276.741818 290.368335 
L 278.141191 293.255545 
L 279.540564 294.967394 
L 280.939937 295.486779 
L 282.33931 294.80851 
L 283.738683 292.939364 
L 285.138056 289.898018 
L 286.537429 285.714858 
L 287.936803 280.431682 
L 289.336176 274.101278 
L 290.735549 266.786896 
L 292.134922 258.561621 
L 293.534295 249.507636 
L 296.333041 229.282769 
L 299.131787 206.918598 
L 308.927398 125.016419 
L 311.726144 104.437342 
L 313.125517 95.1648 
L 314.52489 86.696155 
L 315.924263 79.116023 
L 317.323636 72.500141 
L 318.723009 66.914615 
L 320.122382 62.415252 
L 321.521755 59.047009 
L 322.921129 56.84354 
L 324.320502 55.826862 
L 325.719875 56.007132 
L 327.119248 57.38255 
L 328.518621 59.939373 
L 329.917994 63.652053 
L 331.317367 68.483496 
L 332.71674 74.385426 
L 334.116113 81.298874 
L 335.515486 89.154763 
L 336.914859 97.874599 
L 339.713605 117.549849 
L 342.512351 139.540234 
L 346.71047 174.932246 
L 350.908589 210.385829 
L 353.707335 232.483403 
L 356.506082 252.314074 
L 357.905455 261.12784 
L 359.304828 269.087255 
L 360.704201 276.112792 
L 362.103574 282.134253 
L 363.502947 287.091474 
L 364.90232 290.934924 
L 366.301693 293.626201 
L 367.701066 295.138415 
L 369.100439 295.456455 
L 370.499812 294.577144 
L 371.899185 292.509268 
L 373.298558 289.273489 
L 374.697931 284.902137 
L 376.097304 279.438889 
L 377.496677 272.938332 
L 378.89605 265.465418 
L 380.295423 257.094814 
L 383.094169 238.003212 
L 385.892915 216.424651 
L 390.091034 181.294325 
L 395.688527 134.220068 
L 398.487273 112.696826 
L 398.487273 112.696826 
" clip-path="url(#pf131a5d78a)" style="fill: none; stroke: #ff7f0e; stroke-width: 1.5; stroke-linecap: square"/>
   </g>
   <g id="line2d_23">
    <path d="M 73.832727 107.895253 
L 75.2321 98.35995 
L 76.631473 89.59662 
L 78.030846 81.692822 
L 79.430219 74.727528 
L 80.829592 68.770334 
L 82.228966 63.880762 
L 83.628339 60.107667 
L 85.027712 57.488748 
L 86.427085 56.050173 
L 87.826458 55.806315 
L 89.225831 56.759611 
L 90.625204 58.900537 
L 92.024577 62.2077 
L 93.42395 66.648056 
L 94.823323 72.17724 
L 96.222696 78.740004 
L 97.622069 86.270777 
L 99.021442 94.694313 
L 101.820188 113.874935 
L 104.618934 135.517198 
L 108.817053 170.69035 
L 114.414545 217.718852 
L 117.213292 239.176857 
L 120.012038 258.101112 
L 121.411411 266.372516 
L 122.810784 273.737166 
L 124.210157 280.121478 
L 125.60953 285.46166 
L 127.008903 289.704356 
L 128.408276 292.807174 
L 129.807649 294.739112 
L 131.207022 295.480867 
L 132.606395 295.025027 
L 134.005768 293.376146 
L 135.405141 290.5507 
L 136.804514 286.57692 
L 138.203887 281.494511 
L 139.60326 275.354253 
L 141.002633 268.2175 
L 142.402006 260.155558 
L 143.801379 251.24898 
L 146.600125 231.265432 
L 149.398871 209.063537 
L 154.996364 161.598337 
L 159.194483 127.044523 
L 161.993229 106.241911 
L 163.392602 96.829948 
L 164.791975 88.205245 
L 166.191348 80.453977 
L 167.590721 73.653591 
L 168.990094 67.872035 
L 170.389467 63.167077 
L 171.78884 59.585726 
L 173.188213 57.163767 
L 174.587586 55.925398 
L 175.986959 55.882994 
L 177.386332 57.036978 
L 178.785705 59.375819 
L 180.185078 62.876149 
L 181.584451 67.502994 
L 182.983824 73.210123 
L 184.383197 79.940513 
L 185.782571 87.626917 
L 187.181944 96.192533 
L 189.98069 115.611137 
L 192.779436 137.422165 
L 196.977555 172.704788 
L 201.175674 208.247955 
L 203.97442 230.51256 
L 206.773166 250.588833 
L 208.172539 259.551917 
L 209.571912 267.676396 
L 210.971285 274.881093 
L 212.370658 281.094022 
L 213.770031 286.253105 
L 215.169404 290.306793 
L 216.568777 293.214584 
L 217.96815 294.947425 
L 219.367524 295.488 
L 220.766897 294.830909 
L 222.16627 292.982718 
L 223.565643 289.961892 
L 224.965016 285.798616 
L 226.364389 280.534486 
L 227.763762 274.222101 
L 229.163135 266.924531 
L 230.562508 258.714692 
L 231.961881 249.674614 
L 234.760627 229.472434 
L 237.559373 207.123389 
L 247.354984 125.208861 
L 250.15373 104.608184 
L 251.553103 95.322223 
L 252.952476 86.838586 
L 254.35185 79.242038 
L 255.751223 72.608483 
L 257.150596 67.0042 
L 258.549969 62.485185 
L 259.949342 59.096592 
L 261.348715 56.872277 
L 262.748088 55.834465 
L 264.147461 55.993527 
L 265.546834 57.347871 
L 266.946207 59.883967 
L 268.34558 63.576475 
L 269.744953 68.3885 
L 271.144326 74.271961 
L 272.543699 81.168074 
L 273.943072 89.007935 
L 275.342445 97.71321 
L 278.141191 117.364305 
L 280.939937 139.337932 
L 285.138056 174.72005 
L 289.336176 210.182695 
L 292.134922 232.296509 
L 294.933668 252.150871 
L 296.333041 260.978992 
L 297.732414 268.954249 
L 299.131787 275.996957 
L 300.53116 282.036747 
L 301.930533 287.013271 
L 303.329906 290.876805 
L 304.729279 293.588747 
L 306.128652 295.122 
L 307.528025 295.461244 
L 308.927398 294.603088 
L 310.326771 292.556108 
L 311.726144 289.340757 
L 313.125517 284.989161 
L 314.52489 279.544799 
L 315.924263 273.062071 
L 317.323636 265.605749 
L 318.723009 257.250334 
L 321.521755 238.184315 
L 324.320502 216.624114 
L 328.518621 181.506279 
L 334.116113 134.419274 
L 336.914859 112.877535 
L 339.713605 93.8372 
L 341.112978 85.497027 
L 342.512351 78.057349 
L 343.911724 71.5925 
L 345.311097 66.167074 
L 346.71047 61.835281 
L 348.109843 58.640403 
L 349.509216 56.614361 
L 350.908589 55.7774 
L 352.307962 56.137881 
L 353.707335 57.692204 
L 355.106708 60.424838 
L 356.506082 64.308479 
L 357.905455 69.304323 
L 359.304828 75.362454 
L 360.704201 82.42234 
L 362.103574 90.413441 
L 363.502947 99.255914 
L 366.301693 119.133945 
L 369.100439 141.263957 
L 374.697931 188.696306 
L 378.89605 223.324365 
L 381.694796 244.220563 
L 383.094169 253.691272 
L 384.493542 262.381934 
L 385.892915 270.205715 
L 387.292288 277.084442 
L 388.691661 282.949385 
L 390.091034 287.741943 
L 391.490408 291.414232 
L 392.889781 293.929558 
L 394.289154 295.26279 
L 395.688527 295.400605 
L 397.0879 294.341628 
L 398.487273 292.096438 
L 398.487273 292.096438 
" clip-path="url(#pf131a5d78a)" style="fill: none; stroke: #2ca02c; stroke-width: 1.5; stroke-linecap: square"/>
   </g>
   <g id="patch_3">
    <path d="M 57.6 307.584 
L 57.6 41.472 
" style="fill: none; stroke: #000000; stroke-width: 0.8; stroke-linejoin: miter; stroke-linecap: square"/>
   </g>
   <g id="patch_4">
    <path d="M 414.72 307.584 
L 414.72 41.472 
" style="fill: none; stroke: #000000; stroke-width: 0.8; stroke-linejoin: miter; stroke-linecap: square"/>
   </g>
   <g id="patch_5">
    <path d="M 57.6 307.584 
L 414.72 307.584 
" style="fill: none; stroke: #000000; stroke-width: 0.8; stroke-linejoin: miter; stroke-linecap: square"/>
   </g>
   <g id="patch_6">
    <path d="M 57.6 41.472 
L 414.72 41.472 
" style="fill: none; stroke: #000000; stroke-width: 0.8; stroke-linejoin: miter; stroke-linecap: square"/>
   </g>
   <g id="text_11">
    <!-- faza=0.6pi wynik=108.0 -->
    <g transform="translate(161.985938 35.472) scale(0.12 -0.12)">
     <defs>
      <path id="DejaVuSans-66" d="M 2375 4863 
L 2375 4384 
L 1825 4384 
Q 1516 4384 1395 4259 
Q 1275 4134 1275 3809 
L 1275 3500 
L 2222 3500 
L 2222 3053 
L 1275 3053 
L 1275 0 
L 697 0 
L 697 3053 
L 147 3053 
L 147 3500 
L 697 3500 
L 697 3744 
Q 697 4328 969 4595 
Q 1241 4863 1831 4863 
L 2375 4863 
z
" transform="scale(0.015625)"/>
      <path id="DejaVuSans-61" d="M 2194 1759 
Q 1497 1759 1228 1600 
Q 959 1441 959 1056 
Q 959 750 1161 570 
Q 1363 391 1709 391 
Q 2188 391 2477 730 
Q 2766 1069 2766 1631 
L 2766 1759 
L 2194 1759 
z
M 3341 1997 
L 3341 0 
L 2766 0 
L 2766 531 
Q 2569 213 2275 61 
Q 1981 -91 1556 -91 
Q 1019 -91 701 211 
Q 384 513 384 1019 
Q 384 1609 779 1909 
Q 1175 2209 1959 2209 
L 2766 2209 
L 2766 2266 
Q 2766 2663 2505 2880 
Q 2244 3097 1772 3097 
Q 1472 3097 1187 3025 
Q 903 2953 641 2809 
L 641 3341 
Q 956 3463 1253 3523 
Q 1550 3584 1831 3584 
Q 2591 3584 2966 3190 
Q 3341 2797 3341 1997 
z
" transform="scale(0.015625)"/>
      <path id="DejaVuSans-7a" d="M 353 3500 
L 3084 3500 
L 3084 2975 
L 922 459 
L 3084 459 
L 3084 0 
L 275 0 
L 275 525 
L 2438 3041 
L 353 3041 
L 353 3500 
z
" transform="scale(0.015625)"/>
      <path id="DejaVuSans-3d" d="M 678 2906 
L 4684 2906 
L 4684 2381 
L 678 2381 
L 678 2906 
z
M 678 1631 
L 4684 1631 
L 4684 1100 
L 678 1100 
L 678 1631 
z
" transform="scale(0.015625)"/>
      <path id="DejaVuSans-2e" d="M 684 794 
L 1344 794 
L 1344 0 
L 684 0 
L 684 794 
z
" transform="scale(0.015625)"/>
      <path id="DejaVuSans-36" d="M 2113 2584 
Q 1688 2584 1439 2293 
Q 1191 2003 1191 1497 
Q 1191 994 1439 701 
Q 1688 409 2113 409 
Q 2538 409 2786 701 
Q 3034 994 3034 1497 
Q 3034 2003 2786 2293 
Q 2538 2584 2113 2584 
z
M 3366 4563 
L 3366 3988 
Q 3128 4100 2886 4159 
Q 2644 4219 2406 4219 
Q 1781 4219 1451 3797 
Q 1122 3375 1075 2522 
Q 1259 2794 1537 2939 
Q 1816 3084 2150 3084 
Q 2853 3084 3261 2657 
Q 3669 2231 3669 1497 
Q 3669 778 3244 343 
Q 2819 -91 2113 -91 
Q 1303 -91 875 529 
Q 447 1150 447 2328 
Q 447 3434 972 4092 
Q 1497 4750 2381 4750 
Q 2619 4750 2861 4703 
Q 3103 4656 3366 4563 
z
" transform="scale(0.015625)"/>
      <path id="DejaVuSans-70" d="M 1159 525 
L 1159 -1331 
L 581 -1331 
L 581 3500 
L 1159 3500 
L 1159 2969 
Q 1341 3281 1617 3432 
Q 1894 3584 2278 3584 
Q 2916 3584 3314 3078 
Q 3713 2572 3713 1747 
Q 3713 922 3314 415 
Q 2916 -91 2278 -91 
Q 1894 -91 1617 61 
Q 1341 213 1159 525 
z
M 3116 1747 
Q 3116 2381 2855 2742 
Q 2594 3103 2138 3103 
Q 1681 3103 1420 2742 
Q 1159 2381 1159 1747 
Q 1159 1113 1420 752 
Q 1681 391 2138 391 
Q 2594 391 2855 752 
Q 3116 1113 3116 1747 
z
" transform="scale(0.015625)"/>
      <path id="DejaVuSans-69" d="M 603 3500 
L 1178 3500 
L 1178 0 
L 603 0 
L 603 3500 
z
M 603 4863 
L 1178 4863 
L 1178 4134 
L 603 4134 
L 603 4863 
z
" transform="scale(0.015625)"/>
      <path id="DejaVuSans-20" transform="scale(0.015625)"/>
      <path id="DejaVuSans-77" d="M 269 3500 
L 844 3500 
L 1563 769 
L 2278 3500 
L 2956 3500 
L 3675 769 
L 4391 3500 
L 4966 3500 
L 4050 0 
L 3372 0 
L 2619 2869 
L 1863 0 
L 1184 0 
L 269 3500 
z
" transform="scale(0.015625)"/>
      <path id="DejaVuSans-79" d="M 2059 -325 
Q 1816 -950 1584 -1140 
Q 1353 -1331 966 -1331 
L 506 -1331 
L 506 -850 
L 844 -850 
Q 1081 -850 1212 -737 
Q 1344 -625 1503 -206 
L 1606 56 
L 191 3500 
L 800 3500 
L 1894 763 
L 2988 3500 
L 3597 3500 
L 2059 -325 
z
" transform="scale(0.015625)"/>
      <path id="DejaVuSans-6e" d="M 3513 2113 
L 3513 0 
L 2938 0 
L 2938 2094 
Q 2938 2591 2744 2837 
Q 2550 3084 2163 3084 
Q 1697 3084 1428 2787 
Q 1159 2491 1159 1978 
L 1159 0 
L 581 0 
L 581 3500 
L 1159 3500 
L 1159 2956 
Q 1366 3272 1645 3428 
Q 1925 3584 2291 3584 
Q 2894 3584 3203 3211 
Q 3513 2838 3513 2113 
z
" transform="scale(0.015625)"/>
      <path id="DejaVuSans-6b" d="M 581 4863 
L 1159 4863 
L 1159 1991 
L 2875 3500 
L 3609 3500 
L 1753 1863 
L 3688 0 
L 2938 0 
L 1159 1709 
L 1159 0 
L 581 0 
L 581 4863 
z
" transform="scale(0.015625)"/>
      <path id="DejaVuSans-38" d="M 2034 2216 
Q 1584 2216 1326 1975 
Q 1069 1734 1069 1313 
Q 1069 891 1326 650 
Q 1584 409 2034 409 
Q 2484 409 2743 651 
Q 3003 894 3003 1313 
Q 3003 1734 2745 1975 
Q 2488 2216 2034 2216 
z
M 1403 2484 
Q 997 2584 770 2862 
Q 544 3141 544 3541 
Q 544 4100 942 4425 
Q 1341 4750 2034 4750 
Q 2731 4750 3128 4425 
Q 3525 4100 3525 3541 
Q 3525 3141 3298 2862 
Q 3072 2584 2669 2484 
Q 3125 2378 3379 2068 
Q 3634 1759 3634 1313 
Q 3634 634 3220 271 
Q 2806 -91 2034 -91 
Q 1263 -91 848 271 
Q 434 634 434 1313 
Q 434 1759 690 2068 
Q 947 2378 1403 2484 
z
M 1172 3481 
Q 1172 3119 1398 2916 
Q 1625 2713 2034 2713 
Q 2441 2713 2670 2916 
Q 2900 3119 2900 3481 
Q 2900 3844 2670 4047 
Q 2441 4250 2034 4250 
Q 1625 4250 1398 4047 
Q 1172 3844 1172 3481 
z
" transform="scale(0.015625)"/>
     </defs>
     <use xlink:href="#DejaVuSans-66"/>
     <use xlink:href="#DejaVuSans-61" x="35.205078"/>
     <use xlink:href="#DejaVuSans-7a" x="96.484375"/>
     <use xlink:href="#DejaVuSans-61" x="148.974609"/>
     <use xlink:href="#DejaVuSans-3d" x="210.253906"/>
     <use xlink:href="#DejaVuSans-30" x="294.042969"/>
     <use xlink:href="#DejaVuSans-2e" x="357.666016"/>
     <use xlink:href="#DejaVuSans-36" x="389.453125"/>
     <use xlink:href="#DejaVuSans-70" x="453.076172"/>
     <use xlink:href="#DejaVuSans-69" x="516.552734"/>
     <use xlink:href="#DejaVuSans-20" x="544.335938"/>
     <use xlink:href="#DejaVuSans-77" x="576.123047"/>
     <use xlink:href="#DejaVuSans-79" x="657.910156"/>
     <use xlink:href="#DejaVuSans-6e" x="717.089844"/>
     <use xlink:href="#DejaVuSans-69" x="780.46875"/>
     <use xlink:href="#DejaVuSans-6b" x="808.251953"/>
     <use xlink:href="#DejaVuSans-3d" x="866.162109"/>
     <use xlink:href="#DejaVuSans-31" x="949.951172"/>
     <use xlink:href="#DejaVuSans-30" x="1013.574219"/>
     <use xlink:href="#DejaVuSans-38" x="1077.197266"/>
     <use xlink:href="#DejaVuSans-2e" x="1140.820312"/>
     <use xlink:href="#DejaVuSans-30" x="1172.607422"/>
    </g>
   </g>
  </g>
 </g>
 <defs>
  <clipPath id="pf131a5d78a">
   <rect x="57.6" y="41.472" width="357.12" height="266.112"/>
  </clipPath>
 </defs>
</svg>
