<?xml version="1.0" encoding="utf-8" standalone="no"?>
<!DOCTYPE svg PUBLIC "-//W3C//DTD SVG 1.1//EN"
  "http://www.w3.org/Graphics/SVG/1.1/DTD/svg11.dtd">
<svg xmlns:xlink="http://www.w3.org/1999/xlink" width="460.8pt" height="345.6pt" viewBox="0 0 460.8 345.6" xmlns="http://www.w3.org/2000/svg" version="1.1">
 <metadata>
  <rdf:RDF xmlns:dc="http://purl.org/dc/elements/1.1/" xmlns:cc="http://creativecommons.org/ns#" xmlns:rdf="http://www.w3.org/1999/02/22-rdf-syntax-ns#">
   <cc:Work>
    <dc:type rdf:resource="http://purl.org/dc/dcmitype/StillImage"/>
    <dc:date>2023-11-17T11:11:17.759898</dc:date>
    <dc:format>image/svg+xml</dc:format>
    <dc:creator>
     <cc:Agent>
      <dc:title>Matplotlib v3.8.0, https://matplotlib.org/</dc:title>
     </cc:Agent>
    </dc:creator>
   </cc:Work>
  </rdf:RDF>
 </metadata>
 <defs>
  <style type="text/css">*{stroke-linejoin: round; stroke-linecap: butt}</style>
 </defs>
 <g id="figure_1">
  <g id="patch_1">
   <path d="M 0 345.6 
L 460.8 345.6 
L 460.8 0 
L 0 0 
z
" style="fill: #ffffff"/>
  </g>
  <g id="axes_1">
   <g id="patch_2">
    <path d="M 57.6 307.584 
L 414.72 307.584 
L 414.72 41.472 
L 57.6 41.472 
z
" style="fill: #ffffff"/>
   </g>
   <g id="matplotlib.axis_1">
    <g id="xtick_1">
     <g id="line2d_1">
      <defs>
       <path id="m467d0999c7" d="M 0 0 
L 0 3.5 
" style="stroke: #000000; stroke-width: 0.8"/>
      </defs>
      <g>
       <use xlink:href="#m467d0999c7" x="73.832727" y="307.584" style="stroke: #000000; stroke-width: 0.8"/>
      </g>
     </g>
     <g id="text_1">
      <!-- 0 -->
      <g transform="translate(70.651477 322.182437) scale(0.1 -0.1)">
       <defs>
        <path id="DejaVuSans-30" d="M 2034 4250 
Q 1547 4250 1301 3770 
Q 1056 3291 1056 2328 
Q 1056 1369 1301 889 
Q 1547 409 2034 409 
Q 2525 409 2770 889 
Q 3016 1369 3016 2328 
Q 3016 3291 2770 3770 
Q 2525 4250 2034 4250 
z
M 2034 4750 
Q 2819 4750 3233 4129 
Q 3647 3509 3647 2328 
Q 3647 1150 3233 529 
Q 2819 -91 2034 -91 
Q 1250 -91 836 529 
Q 422 1150 422 2328 
Q 422 3509 836 4129 
Q 1250 4750 2034 4750 
z
" transform="scale(0.015625)"/>
       </defs>
       <use xlink:href="#DejaVuSans-30"/>
      </g>
     </g>
    </g>
    <g id="xtick_2">
     <g id="line2d_2">
      <g>
       <use xlink:href="#m467d0999c7" x="126.196364" y="307.584" style="stroke: #000000; stroke-width: 0.8"/>
      </g>
     </g>
     <g id="text_2">
      <!-- 20 -->
      <g transform="translate(119.833864 322.182437) scale(0.1 -0.1)">
       <defs>
        <path id="DejaVuSans-32" d="M 1228 531 
L 3431 531 
L 3431 0 
L 469 0 
L 469 531 
Q 828 903 1448 1529 
Q 2069 2156 2228 2338 
Q 2531 2678 2651 2914 
Q 2772 3150 2772 3378 
Q 2772 3750 2511 3984 
Q 2250 4219 1831 4219 
Q 1534 4219 1204 4116 
Q 875 4013 500 3803 
L 500 4441 
Q 881 4594 1212 4672 
Q 1544 4750 1819 4750 
Q 2544 4750 2975 4387 
Q 3406 4025 3406 3419 
Q 3406 3131 3298 2873 
Q 3191 2616 2906 2266 
Q 2828 2175 2409 1742 
Q 1991 1309 1228 531 
z
" transform="scale(0.015625)"/>
       </defs>
       <use xlink:href="#DejaVuSans-32"/>
       <use xlink:href="#DejaVuSans-30" x="63.623047"/>
      </g>
     </g>
    </g>
    <g id="xtick_3">
     <g id="line2d_3">
      <g>
       <use xlink:href="#m467d0999c7" x="178.56" y="307.584" style="stroke: #000000; stroke-width: 0.8"/>
      </g>
     </g>
     <g id="text_3">
      <!-- 40 -->
      <g transform="translate(172.1975 322.182437) scale(0.1 -0.1)">
       <defs>
        <path id="DejaVuSans-34" d="M 2419 4116 
L 825 1625 
L 2419 1625 
L 2419 4116 
z
M 2253 4666 
L 3047 4666 
L 3047 1625 
L 3713 1625 
L 3713 1100 
L 3047 1100 
L 3047 0 
L 2419 0 
L 2419 1100 
L 313 1100 
L 313 1709 
L 2253 4666 
z
" transform="scale(0.015625)"/>
       </defs>
       <use xlink:href="#DejaVuSans-34"/>
       <use xlink:href="#DejaVuSans-30" x="63.623047"/>
      </g>
     </g>
    </g>
    <g id="xtick_4">
     <g id="line2d_4">
      <g>
       <use xlink:href="#m467d0999c7" x="230.923636" y="307.584" style="stroke: #000000; stroke-width: 0.8"/>
      </g>
     </g>
     <g id="text_4">
      <!-- 60 -->
      <g transform="translate(224.561136 322.182437) scale(0.1 -0.1)">
       <defs>
        <path id="DejaVuSans-36" d="M 2113 2584 
Q 1688 2584 1439 2293 
Q 1191 2003 1191 1497 
Q 1191 994 1439 701 
Q 1688 409 2113 409 
Q 2538 409 2786 701 
Q 3034 994 3034 1497 
Q 3034 2003 2786 2293 
Q 2538 2584 2113 2584 
z
M 3366 4563 
L 3366 3988 
Q 3128 4100 2886 4159 
Q 2644 4219 2406 4219 
Q 1781 4219 1451 3797 
Q 1122 3375 1075 2522 
Q 1259 2794 1537 2939 
Q 1816 3084 2150 3084 
Q 2853 3084 3261 2657 
Q 3669 2231 3669 1497 
Q 3669 778 3244 343 
Q 2819 -91 2113 -91 
Q 1303 -91 875 529 
Q 447 1150 447 2328 
Q 447 3434 972 4092 
Q 1497 4750 2381 4750 
Q 2619 4750 2861 4703 
Q 3103 4656 3366 4563 
z
" transform="scale(0.015625)"/>
       </defs>
       <use xlink:href="#DejaVuSans-36"/>
       <use xlink:href="#DejaVuSans-30" x="63.623047"/>
      </g>
     </g>
    </g>
    <g id="xtick_5">
     <g id="line2d_5">
      <g>
       <use xlink:href="#m467d0999c7" x="283.287273" y="307.584" style="stroke: #000000; stroke-width: 0.8"/>
      </g>
     </g>
     <g id="text_5">
      <!-- 80 -->
      <g transform="translate(276.924773 322.182437) scale(0.1 -0.1)">
       <defs>
        <path id="DejaVuSans-38" d="M 2034 2216 
Q 1584 2216 1326 1975 
Q 1069 1734 1069 1313 
Q 1069 891 1326 650 
Q 1584 409 2034 409 
Q 2484 409 2743 651 
Q 3003 894 3003 1313 
Q 3003 1734 2745 1975 
Q 2488 2216 2034 2216 
z
M 1403 2484 
Q 997 2584 770 2862 
Q 544 3141 544 3541 
Q 544 4100 942 4425 
Q 1341 4750 2034 4750 
Q 2731 4750 3128 4425 
Q 3525 4100 3525 3541 
Q 3525 3141 3298 2862 
Q 3072 2584 2669 2484 
Q 3125 2378 3379 2068 
Q 3634 1759 3634 1313 
Q 3634 634 3220 271 
Q 2806 -91 2034 -91 
Q 1263 -91 848 271 
Q 434 634 434 1313 
Q 434 1759 690 2068 
Q 947 2378 1403 2484 
z
M 1172 3481 
Q 1172 3119 1398 2916 
Q 1625 2713 2034 2713 
Q 2441 2713 2670 2916 
Q 2900 3119 2900 3481 
Q 2900 3844 2670 4047 
Q 2441 4250 2034 4250 
Q 1625 4250 1398 4047 
Q 1172 3844 1172 3481 
z
" transform="scale(0.015625)"/>
       </defs>
       <use xlink:href="#DejaVuSans-38"/>
       <use xlink:href="#DejaVuSans-30" x="63.623047"/>
      </g>
     </g>
    </g>
    <g id="xtick_6">
     <g id="line2d_6">
      <g>
       <use xlink:href="#m467d0999c7" x="335.650909" y="307.584" style="stroke: #000000; stroke-width: 0.8"/>
      </g>
     </g>
     <g id="text_6">
      <!-- 100 -->
      <g transform="translate(326.107159 322.182437) scale(0.1 -0.1)">
       <defs>
        <path id="DejaVuSans-31" d="M 794 531 
L 1825 531 
L 1825 4091 
L 703 3866 
L 703 4441 
L 1819 4666 
L 2450 4666 
L 2450 531 
L 3481 531 
L 3481 0 
L 794 0 
L 794 531 
z
" transform="scale(0.015625)"/>
       </defs>
       <use xlink:href="#DejaVuSans-31"/>
       <use xlink:href="#DejaVuSans-30" x="63.623047"/>
       <use xlink:href="#DejaVuSans-30" x="127.246094"/>
      </g>
     </g>
    </g>
    <g id="xtick_7">
     <g id="line2d_7">
      <g>
       <use xlink:href="#m467d0999c7" x="388.014545" y="307.584" style="stroke: #000000; stroke-width: 0.8"/>
      </g>
     </g>
     <g id="text_7">
      <!-- 120 -->
      <g transform="translate(378.470795 322.182437) scale(0.1 -0.1)">
       <use xlink:href="#DejaVuSans-31"/>
       <use xlink:href="#DejaVuSans-32" x="63.623047"/>
       <use xlink:href="#DejaVuSans-30" x="127.246094"/>
      </g>
     </g>
    </g>
   </g>
   <g id="matplotlib.axis_2">
    <g id="ytick_1">
     <g id="line2d_8">
      <defs>
       <path id="m0abbe85964" d="M 0 0 
L -3.5 0 
" style="stroke: #000000; stroke-width: 0.8"/>
      </defs>
      <g>
       <use xlink:href="#m0abbe85964" x="57.6" y="289.62179" style="stroke: #000000; stroke-width: 0.8"/>
      </g>
     </g>
     <g id="text_8">
      <!-- −100 -->
      <g transform="translate(23.132812 293.421009) scale(0.1 -0.1)">
       <defs>
        <path id="DejaVuSans-2212" d="M 678 2272 
L 4684 2272 
L 4684 1741 
L 678 1741 
L 678 2272 
z
" transform="scale(0.015625)"/>
       </defs>
       <use xlink:href="#DejaVuSans-2212"/>
       <use xlink:href="#DejaVuSans-31" x="83.789062"/>
       <use xlink:href="#DejaVuSans-30" x="147.412109"/>
       <use xlink:href="#DejaVuSans-30" x="211.035156"/>
      </g>
     </g>
    </g>
    <g id="ytick_2">
     <g id="line2d_9">
      <g>
       <use xlink:href="#m0abbe85964" x="57.6" y="241.250112" style="stroke: #000000; stroke-width: 0.8"/>
      </g>
     </g>
     <g id="text_9">
      <!-- −50 -->
      <g transform="translate(29.495313 245.049331) scale(0.1 -0.1)">
       <defs>
        <path id="DejaVuSans-35" d="M 691 4666 
L 3169 4666 
L 3169 4134 
L 1269 4134 
L 1269 2991 
Q 1406 3038 1543 3061 
Q 1681 3084 1819 3084 
Q 2600 3084 3056 2656 
Q 3513 2228 3513 1497 
Q 3513 744 3044 326 
Q 2575 -91 1722 -91 
Q 1428 -91 1123 -41 
Q 819 9 494 109 
L 494 744 
Q 775 591 1075 516 
Q 1375 441 1709 441 
Q 2250 441 2565 725 
Q 2881 1009 2881 1497 
Q 2881 1984 2565 2268 
Q 2250 2553 1709 2553 
Q 1456 2553 1204 2497 
Q 953 2441 691 2322 
L 691 4666 
z
" transform="scale(0.015625)"/>
       </defs>
       <use xlink:href="#DejaVuSans-2212"/>
       <use xlink:href="#DejaVuSans-35" x="83.789062"/>
       <use xlink:href="#DejaVuSans-30" x="147.412109"/>
      </g>
     </g>
    </g>
    <g id="ytick_3">
     <g id="line2d_10">
      <g>
       <use xlink:href="#m0abbe85964" x="57.6" y="192.878434" style="stroke: #000000; stroke-width: 0.8"/>
      </g>
     </g>
     <g id="text_10">
      <!-- 0 -->
      <g transform="translate(44.2375 196.677652) scale(0.1 -0.1)">
       <use xlink:href="#DejaVuSans-30"/>
      </g>
     </g>
    </g>
    <g id="ytick_4">
     <g id="line2d_11">
      <g>
       <use xlink:href="#m0abbe85964" x="57.6" y="144.506755" style="stroke: #000000; stroke-width: 0.8"/>
      </g>
     </g>
     <g id="text_11">
      <!-- 50 -->
      <g transform="translate(37.875 148.305974) scale(0.1 -0.1)">
       <use xlink:href="#DejaVuSans-35"/>
       <use xlink:href="#DejaVuSans-30" x="63.623047"/>
      </g>
     </g>
    </g>
    <g id="ytick_5">
     <g id="line2d_12">
      <g>
       <use xlink:href="#m0abbe85964" x="57.6" y="96.135077" style="stroke: #000000; stroke-width: 0.8"/>
      </g>
     </g>
     <g id="text_12">
      <!-- 100 -->
      <g transform="translate(31.5125 99.934296) scale(0.1 -0.1)">
       <use xlink:href="#DejaVuSans-31"/>
       <use xlink:href="#DejaVuSans-30" x="63.623047"/>
       <use xlink:href="#DejaVuSans-30" x="127.246094"/>
      </g>
     </g>
    </g>
    <g id="ytick_6">
     <g id="line2d_13">
      <g>
       <use xlink:href="#m0abbe85964" x="57.6" y="47.763399" style="stroke: #000000; stroke-width: 0.8"/>
      </g>
     </g>
     <g id="text_13">
      <!-- 150 -->
      <g transform="translate(31.5125 51.562617) scale(0.1 -0.1)">
       <use xlink:href="#DejaVuSans-31"/>
       <use xlink:href="#DejaVuSans-35" x="63.623047"/>
       <use xlink:href="#DejaVuSans-30" x="127.246094"/>
      </g>
     </g>
    </g>
   </g>
   <g id="line2d_14">
    <path d="M 73.832727 192.878434 
L 76.450909 181.792462 
L 79.069091 170.70649 
L 81.687273 159.620517 
L 84.305455 148.534545 
L 86.923636 137.448573 
L 89.541818 126.362601 
L 92.16 115.276629 
L 94.778182 278.328699 
L 97.396364 267.242727 
L 100.014545 256.156755 
L 102.632727 245.070783 
L 105.250909 233.984811 
L 107.869091 222.898839 
L 110.487273 211.812867 
L 113.105455 200.726895 
L 115.723636 189.640923 
L 118.341818 178.554951 
L 120.96 167.468978 
L 123.578182 156.383006 
L 126.196364 145.297034 
L 128.814545 134.211062 
L 131.432727 123.12509 
L 134.050909 112.039118 
L 136.669091 275.091188 
L 139.287273 264.005216 
L 141.905455 252.919244 
L 144.523636 241.833272 
L 147.141818 230.7473 
L 149.76 219.661328 
L 152.378182 208.575356 
L 154.996364 197.489384 
L 157.614545 186.403412 
L 160.232727 175.317439 
L 162.850909 164.231467 
L 165.469091 153.145495 
L 168.087273 142.059523 
L 170.705455 130.973551 
L 173.323636 119.887579 
L 175.941818 108.801607 
L 178.56 271.853677 
L 181.178182 260.767705 
L 183.796364 249.681733 
L 186.414545 238.595761 
L 189.032727 227.509789 
L 191.650909 216.423817 
L 194.269091 205.337845 
L 196.887273 194.251873 
L 199.505455 183.165901 
L 202.123636 172.079928 
L 204.741818 160.993956 
L 207.36 149.907984 
L 209.978182 138.822012 
L 212.596364 127.73604 
L 215.214545 116.650068 
L 217.832727 279.702138 
L 220.450909 268.616166 
L 223.069091 257.530194 
L 225.687273 246.444222 
L 228.305455 235.35825 
L 230.923636 224.272278 
L 233.541818 213.186306 
L 236.16 202.100334 
L 238.778182 191.014362 
L 241.396364 179.928389 
L 244.014545 168.842417 
L 246.632727 157.756445 
L 249.250909 146.670473 
L 251.869091 135.584501 
L 254.487273 124.498529 
L 257.105455 113.412557 
L 259.723636 276.464627 
L 262.341818 265.378655 
L 264.96 254.292683 
L 267.578182 243.206711 
L 270.196364 232.120739 
L 272.814545 221.034767 
L 275.432727 209.948795 
L 278.050909 198.862823 
L 280.669091 187.77685 
L 283.287273 176.690878 
L 285.905455 165.604906 
L 288.523636 154.518934 
L 291.141818 143.432962 
L 293.76 132.34699 
L 296.378182 121.261018 
L 298.996364 110.175046 
L 301.614545 273.227116 
L 304.232727 262.141144 
L 306.850909 251.055172 
L 309.469091 239.9692 
L 312.087273 228.883228 
L 314.705455 217.797256 
L 317.323636 206.711284 
L 319.941818 195.625311 
L 322.56 184.539339 
L 325.178182 173.453367 
L 327.796364 162.367395 
L 330.414545 151.281423 
L 333.032727 140.195451 
L 335.650909 129.109479 
L 338.269091 118.023507 
L 340.887273 106.937535 
L 343.505455 269.989605 
L 346.123636 258.903633 
L 348.741818 247.817661 
L 351.36 236.731689 
L 353.978182 225.645717 
L 356.596364 214.559745 
L 359.214545 203.473772 
L 361.832727 192.3878 
L 364.450909 181.301828 
L 367.069091 170.215856 
L 369.687273 159.129884 
L 372.305455 148.043912 
L 374.923636 136.95794 
L 377.541818 125.871968 
L 380.16 114.785996 
L 382.778182 277.838066 
L 385.396364 266.752094 
L 388.014545 255.666122 
L 390.632727 244.58015 
L 393.250909 233.494178 
L 395.869091 222.408206 
L 398.487273 211.322234 
" clip-path="url(#p0e83a25b5e)" style="fill: none; stroke: #1f77b4; stroke-width: 1.5; stroke-linecap: square"/>
   </g>
   <g id="line2d_15">
    <path d="M 73.832727 227.706042 
L 76.450909 227.706042 
L 79.069091 227.706042 
L 81.687273 227.706042 
L 84.305455 227.706042 
L 86.923636 53.568 
L 89.541818 53.568 
L 92.16 53.568 
L 94.778182 227.706042 
L 97.396364 227.706042 
L 100.014545 227.706042 
L 102.632727 227.706042 
L 105.250909 227.706042 
L 107.869091 227.706042 
L 110.487273 227.706042 
L 113.105455 227.706042 
L 115.723636 227.706042 
L 118.341818 227.706042 
L 120.96 227.706042 
L 123.578182 227.706042 
L 126.196364 227.706042 
L 128.814545 53.568 
L 131.432727 53.568 
L 134.050909 53.568 
L 136.669091 227.706042 
L 139.287273 227.706042 
L 141.905455 227.706042 
L 144.523636 227.706042 
L 147.141818 227.706042 
L 149.76 227.706042 
L 152.378182 227.706042 
L 154.996364 227.706042 
L 157.614545 227.706042 
L 160.232727 227.706042 
L 162.850909 227.706042 
L 165.469091 227.706042 
L 168.087273 227.706042 
L 170.705455 53.568 
L 173.323636 53.568 
L 175.941818 53.568 
L 178.56 227.706042 
L 181.178182 227.706042 
L 183.796364 227.706042 
L 186.414545 227.706042 
L 189.032727 227.706042 
L 191.650909 227.706042 
L 194.269091 227.706042 
L 196.887273 227.706042 
L 199.505455 227.706042 
L 202.123636 227.706042 
L 204.741818 227.706042 
L 207.36 227.706042 
L 209.978182 53.568 
L 212.596364 53.568 
L 215.214545 53.568 
L 217.832727 227.706042 
L 220.450909 227.706042 
L 223.069091 227.706042 
L 225.687273 227.706042 
L 228.305455 227.706042 
L 230.923636 227.706042 
L 233.541818 227.706042 
L 236.16 227.706042 
L 238.778182 227.706042 
L 241.396364 227.706042 
L 244.014545 227.706042 
L 246.632727 227.706042 
L 249.250909 227.706042 
L 251.869091 53.568 
L 254.487273 53.568 
L 257.105455 53.568 
L 259.723636 227.706042 
L 262.341818 227.706042 
L 264.96 227.706042 
L 267.578182 227.706042 
L 270.196364 227.706042 
L 272.814545 227.706042 
L 275.432727 227.706042 
L 278.050909 227.706042 
L 280.669091 227.706042 
L 283.287273 227.706042 
L 285.905455 227.706042 
L 288.523636 227.706042 
L 291.141818 227.706042 
L 293.76 53.568 
L 296.378182 53.568 
L 298.996364 53.568 
L 301.614545 227.706042 
L 304.232727 227.706042 
L 306.850909 227.706042 
L 309.469091 227.706042 
L 312.087273 227.706042 
L 314.705455 227.706042 
L 317.323636 227.706042 
L 319.941818 227.706042 
L 322.56 227.706042 
L 325.178182 227.706042 
L 327.796364 227.706042 
L 330.414545 227.706042 
L 333.032727 53.568 
L 335.650909 53.568 
L 338.269091 53.568 
L 340.887273 53.568 
L 343.505455 227.706042 
L 346.123636 227.706042 
L 348.741818 227.706042 
L 351.36 227.706042 
L 353.978182 227.706042 
L 356.596364 227.706042 
L 359.214545 227.706042 
L 361.832727 227.706042 
L 364.450909 227.706042 
L 367.069091 227.706042 
L 369.687273 227.706042 
L 372.305455 227.706042 
L 374.923636 53.568 
L 377.541818 53.568 
L 380.16 53.568 
L 382.778182 227.706042 
L 385.396364 227.706042 
L 388.014545 227.706042 
L 390.632727 227.706042 
L 393.250909 227.706042 
L 395.869091 227.706042 
L 398.487273 227.706042 
" clip-path="url(#p0e83a25b5e)" style="fill: none; stroke: #ff7f0e; stroke-width: 1.5; stroke-linecap: square"/>
   </g>
   <g id="line2d_16">
    <path d="M 73.832727 294.226937 
L 76.450909 295.39576 
L 79.069091 292.47754 
L 81.687273 285.588619 
L 84.305455 275.003635 
L 86.923636 261.144578 
L 89.541818 244.563965 
L 92.16 225.922814 
L 94.778182 205.964287 
L 97.396364 185.484069 
L 100.014545 165.29864 
L 102.632727 146.212731 
L 105.250909 128.987237 
L 107.869091 114.308882 
L 110.487273 102.762848 
L 113.105455 94.809438 
L 115.723636 90.765729 
L 118.341818 90.792931 
L 120.96 94.889961 
L 123.578182 102.893481 
L 126.196364 114.484418 
L 128.814545 129.200676 
L 131.432727 146.455566 
L 134.050909 165.561189 
L 136.669091 185.755864 
L 139.287273 206.234494 
L 141.905455 226.18066 
L 144.523636 244.799171 
L 147.141818 261.347766 
L 149.76 275.166705 
L 152.378182 285.70507 
L 154.996364 292.542731 
L 157.614545 295.40709 
L 160.232727 294.183955 
L 162.850909 288.922089 
L 165.469091 279.831265 
L 168.087273 267.273906 
L 170.705455 251.750635 
L 173.323636 233.880314 
L 175.941818 214.375379 
L 178.56 194.013427 
L 181.178182 173.606227 
L 183.796364 153.96735 
L 186.414545 135.879734 
L 189.032727 120.064476 
L 191.650909 107.152082 
L 194.269091 97.657326 
L 196.887273 91.958736 
L 199.505455 90.283495 
L 202.123636 92.698391 
L 204.741818 99.107149 
L 207.36 109.254272 
L 209.978182 122.735227 
L 212.596364 139.01257 
L 215.214545 157.437375 
L 217.832727 177.275103 
L 220.450909 197.734886 
L 223.069091 218.001059 
L 225.687273 237.265671 
L 228.305455 254.760705 
L 230.923636 269.788687 
L 233.541818 281.750501 
L 236.16 290.169265 
L 238.778182 294.709351 
L 241.396364 295.18976 
L 244.014545 291.591339 
L 246.632727 284.057546 
L 249.250909 272.88873 
L 251.869091 258.530155 
L 254.487273 241.554254 
L 257.105455 222.637801 
L 259.723636 202.534936 
L 262.341818 182.047097 
L 264.96 161.991069 
L 267.578182 143.166423 
L 270.196364 126.323638 
L 272.814545 112.134182 
L 275.432727 101.163745 
L 278.050909 93.849684 
L 280.669091 90.483586 
L 283.287273 91.199647 
L 285.905455 95.969321 
L 288.523636 104.602455 
L 291.141818 116.754874 
L 293.76 131.942099 
L 296.378182 149.558664 
L 298.996364 168.902251 
L 301.614545 189.201692 
L 304.232727 209.647714 
L 306.850909 229.425198 
L 309.469091 247.745677 
L 312.087273 263.878773 
L 314.705455 277.181309 
L 317.323636 287.122955 
L 319.941818 293.30737 
L 322.56 295.488 
L 325.178182 293.57791 
L 327.796364 287.653251 
L 330.414545 277.950218 
L 333.032727 264.855641 
L 335.650909 248.891561 
L 338.269091 230.694414 
L 340.887273 210.989663 
L 343.505455 190.562874 
L 346.123636 170.2284 
L 348.741818 150.796911 
L 351.36 133.043079 
L 353.978182 117.674695 
L 356.596364 105.304446 
L 359.214545 96.425495 
L 361.832727 91.391819 
L 364.450909 90.404094 
L 367.069091 93.501697 
L 369.687273 100.561138 
L 372.305455 111.300977 
L 374.923636 125.293053 
L 377.541818 141.979544 
L 380.16 160.695213 
L 382.778182 180.693926 
L 385.396364 201.178397 
L 388.014545 221.331974 
L 390.632727 240.351198 
L 393.250909 257.477834 
L 395.869091 272.029094 
L 398.487273 283.424868 
" clip-path="url(#p0e83a25b5e)" style="fill: none; stroke: #2ca02c; stroke-width: 1.5; stroke-linecap: square"/>
   </g>
   <g id="line2d_17">
    <path d="M 73.832727 120.320916 
L 76.450909 107.352282 
L 79.069091 97.793306 
L 81.687273 92.025074 
L 84.305455 90.277547 
L 86.923636 92.620394 
L 89.541818 98.960212 
L 92.16 109.044254 
L 94.778182 122.470499 
L 97.396364 138.703687 
L 100.014545 157.096651 
L 102.632727 176.916122 
L 105.250909 197.37196 
L 107.869091 217.648655 
L 110.487273 236.937839 
L 113.105455 254.470514 
L 115.723636 269.547707 
L 118.341818 281.568338 
L 120.96 290.053183 
L 123.578182 294.663977 
L 126.196364 295.216902 
L 128.814545 291.689916 
L 131.432727 284.223628 
L 134.050909 273.115695 
L 136.669091 258.808956 
L 139.287273 241.873775 
L 141.905455 222.985304 
L 144.523636 202.896567 
L 147.141818 182.408439 
L 149.76 162.337717 
L 152.378182 143.484556 
L 154.996364 126.600574 
L 157.614545 112.358881 
L 160.232727 101.327248 
L 162.850909 93.945472 
L 165.469091 90.507841 
L 168.087273 91.151403 
L 170.705455 95.8505 
L 173.323636 104.417795 
L 175.941818 116.511736 
L 178.56 131.650177 
L 181.178182 149.229595 
L 183.796364 168.549154 
L 186.414545 188.838645 
L 189.032727 209.28919 
L 191.650909 229.085489 
L 194.269091 247.438328 
L 196.887273 263.616036 
L 199.505455 276.973659 
L 202.123636 286.97867 
L 204.741818 293.232202 
L 207.36 295.484946 
L 209.978182 293.647092 
L 212.596364 287.79191 
L 215.214545 278.152827 
L 217.832727 265.114123 
L 220.450909 249.19561 
L 223.069091 231.031909 
L 225.687273 211.347149 
L 228.305455 190.9261 
L 230.923636 170.582884 
L 233.541818 151.128522 
L 236.16 133.338596 
L 238.778182 117.922336 
L 241.396364 105.49434 
L 244.014545 96.550071 
L 246.632727 91.44611 
L 249.250909 90.385936 
L 251.869091 93.411814 
L 254.487273 100.403112 
L 257.105455 111.08111 
L 259.723636 125.020109 
L 262.341818 141.664405 
L 264.96 160.350443 
L 267.578182 180.333269 
L 270.196364 200.816231 
L 272.814545 220.982739 
L 275.432727 240.028816 
L 278.050909 257.195157 
L 280.669091 271.797392 
L 283.287273 283.253378 
L 285.905455 291.1064 
L 288.523636 295.043383 
L 291.141818 294.907372 
L 293.76 290.703789 
L 296.378182 282.600218 
L 298.996364 270.919722 
L 301.614545 256.127967 
L 304.232727 238.814652 
L 306.850909 219.670005 
L 309.469091 199.457263 
L 312.087273 178.982243 
L 314.705455 159.061221 
L 317.323636 140.488385 
L 319.941818 124.004174 
L 322.56 110.265763 
L 325.178182 99.820858 
L 327.796364 93.085865 
L 330.414545 90.329287 
L 333.032727 91.66102 
L 335.650909 97.027971 
L 338.269091 106.216178 
L 340.887273 118.859336 
L 343.505455 134.453402 
L 346.123636 152.376689 
L 348.741818 171.914653 
L 351.36 192.288377 
L 353.978182 212.685624 
L 356.596364 232.293221 
L 359.214545 250.329476 
L 361.832727 266.075338 
L 364.450909 278.903071 
L 367.069091 288.301273 
L 369.687273 293.895267 
L 372.305455 295.462039 
L 374.923636 292.939127 
L 377.541818 286.42711 
L 380.16 276.185603 
L 382.778182 262.622902 
L 385.396364 246.279709 
L 388.014545 227.807576 
L 390.632727 207.942928 
L 393.250909 187.477706 
L 395.869091 167.227794 
L 398.487273 148.000493 
" clip-path="url(#p0e83a25b5e)" style="fill: none; stroke: #d62728; stroke-width: 1.5; stroke-linecap: square"/>
   </g>
   <g id="line2d_18">
    <path d="M 73.832727 158.050825 
L 76.450909 146.964853 
L 79.069091 135.878881 
L 81.687273 124.792909 
L 84.305455 113.706937 
L 86.923636 276.759007 
L 89.541818 265.673035 
L 92.16 254.587063 
L 94.778182 243.501091 
L 97.396364 232.415119 
L 100.014545 221.329147 
L 102.632727 210.243175 
L 105.250909 199.157202 
L 107.869091 188.07123 
L 110.487273 176.985258 
L 113.105455 165.899286 
L 115.723636 154.813314 
L 118.341818 143.727342 
L 120.96 132.64137 
L 123.578182 121.555398 
L 126.196364 110.469426 
L 128.814545 273.521496 
L 131.432727 262.435524 
L 134.050909 251.349552 
L 136.669091 240.26358 
L 139.287273 229.177608 
L 141.905455 218.091636 
L 144.523636 207.005663 
L 147.141818 195.919691 
L 149.76 184.833719 
L 152.378182 173.747747 
L 154.996364 162.661775 
L 157.614545 151.575803 
L 160.232727 140.489831 
L 162.850909 129.403859 
L 165.469091 118.317887 
L 168.087273 107.231915 
L 170.705455 270.283985 
L 173.323636 259.198013 
L 175.941818 248.112041 
L 178.56 237.026069 
L 181.178182 225.940097 
L 183.796364 214.854125 
L 186.414545 203.768152 
L 189.032727 192.68218 
L 191.650909 181.596208 
L 194.269091 170.510236 
L 196.887273 159.424264 
L 199.505455 148.338292 
L 202.123636 137.25232 
L 204.741818 126.166348 
L 207.36 115.080376 
L 209.978182 278.132446 
L 212.596364 267.046474 
L 215.214545 255.960502 
L 217.832727 244.87453 
L 220.450909 233.788558 
L 223.069091 222.702586 
L 225.687273 211.616613 
L 228.305455 200.530641 
L 230.923636 189.444669 
L 233.541818 178.358697 
L 236.16 167.272725 
L 238.778182 156.186753 
L 241.396364 145.100781 
L 244.014545 134.014809 
L 246.632727 122.928837 
L 249.250909 111.842865 
L 251.869091 274.894935 
L 254.487273 263.808963 
L 257.105455 252.722991 
L 259.723636 241.637019 
L 262.341818 230.551047 
L 264.96 219.465074 
L 267.578182 208.379102 
L 270.196364 197.29313 
L 272.814545 186.207158 
L 275.432727 175.121186 
L 278.050909 164.035214 
L 280.669091 152.949242 
L 283.287273 141.86327 
L 285.905455 130.777298 
L 288.523636 119.691326 
L 291.141818 108.605354 
L 293.76 271.657424 
L 296.378182 260.571452 
L 298.996364 249.48548 
L 301.614545 238.399508 
L 304.232727 227.313535 
L 306.850909 216.227563 
L 309.469091 205.141591 
L 312.087273 194.055619 
L 314.705455 182.969647 
L 317.323636 171.883675 
L 319.941818 160.797703 
L 322.56 149.711731 
L 325.178182 138.625759 
L 327.796364 127.539787 
L 330.414545 116.453815 
L 333.032727 279.505885 
L 335.650909 268.419913 
L 338.269091 257.333941 
L 340.887273 246.247969 
L 343.505455 235.161997 
L 346.123636 224.076024 
L 348.741818 212.990052 
L 351.36 201.90408 
L 353.978182 190.818108 
L 356.596364 179.732136 
L 359.214545 168.646164 
L 361.832727 157.560192 
L 364.450909 146.47422 
L 367.069091 135.388248 
L 369.687273 124.302276 
L 372.305455 113.216304 
L 374.923636 276.268374 
L 377.541818 265.182402 
L 380.16 254.09643 
L 382.778182 243.010458 
L 385.396364 231.924485 
L 388.014545 220.838513 
L 390.632727 209.752541 
L 393.250909 198.666569 
L 395.869091 187.580597 
L 398.487273 176.494625 
" clip-path="url(#p0e83a25b5e)" style="fill: none; stroke: #9467bd; stroke-width: 1.5; stroke-linecap: square"/>
   </g>
   <g id="patch_3">
    <path d="M 57.6 307.584 
L 57.6 41.472 
" style="fill: none; stroke: #000000; stroke-width: 0.8; stroke-linejoin: miter; stroke-linecap: square"/>
   </g>
   <g id="patch_4">
    <path d="M 414.72 307.584 
L 414.72 41.472 
" style="fill: none; stroke: #000000; stroke-width: 0.8; stroke-linejoin: miter; stroke-linecap: square"/>
   </g>
   <g id="patch_5">
    <path d="M 57.6 307.584 
L 414.72 307.584 
" style="fill: none; stroke: #000000; stroke-width: 0.8; stroke-linejoin: miter; stroke-linecap: square"/>
   </g>
   <g id="patch_6">
    <path d="M 57.6 41.472 
L 414.72 41.472 
" style="fill: none; stroke: #000000; stroke-width: 0.8; stroke-linejoin: miter; stroke-linecap: square"/>
   </g>
   <g id="text_14">
    <!-- faza=0.8pi dodatnie=3.1666666666666665  -->
    <g transform="translate(101.37375 22.034625) scale(0.12 -0.12)">
     <defs>
      <path id="DejaVuSans-66" d="M 2375 4863 
L 2375 4384 
L 1825 4384 
Q 1516 4384 1395 4259 
Q 1275 4134 1275 3809 
L 1275 3500 
L 2222 3500 
L 2222 3053 
L 1275 3053 
L 1275 0 
L 697 0 
L 697 3053 
L 147 3053 
L 147 3500 
L 697 3500 
L 697 3744 
Q 697 4328 969 4595 
Q 1241 4863 1831 4863 
L 2375 4863 
z
" transform="scale(0.015625)"/>
      <path id="DejaVuSans-61" d="M 2194 1759 
Q 1497 1759 1228 1600 
Q 959 1441 959 1056 
Q 959 750 1161 570 
Q 1363 391 1709 391 
Q 2188 391 2477 730 
Q 2766 1069 2766 1631 
L 2766 1759 
L 2194 1759 
z
M 3341 1997 
L 3341 0 
L 2766 0 
L 2766 531 
Q 2569 213 2275 61 
Q 1981 -91 1556 -91 
Q 1019 -91 701 211 
Q 384 513 384 1019 
Q 384 1609 779 1909 
Q 1175 2209 1959 2209 
L 2766 2209 
L 2766 2266 
Q 2766 2663 2505 2880 
Q 2244 3097 1772 3097 
Q 1472 3097 1187 3025 
Q 903 2953 641 2809 
L 641 3341 
Q 956 3463 1253 3523 
Q 1550 3584 1831 3584 
Q 2591 3584 2966 3190 
Q 3341 2797 3341 1997 
z
" transform="scale(0.015625)"/>
      <path id="DejaVuSans-7a" d="M 353 3500 
L 3084 3500 
L 3084 2975 
L 922 459 
L 3084 459 
L 3084 0 
L 275 0 
L 275 525 
L 2438 3041 
L 353 3041 
L 353 3500 
z
" transform="scale(0.015625)"/>
      <path id="DejaVuSans-3d" d="M 678 2906 
L 4684 2906 
L 4684 2381 
L 678 2381 
L 678 2906 
z
M 678 1631 
L 4684 1631 
L 4684 1100 
L 678 1100 
L 678 1631 
z
" transform="scale(0.015625)"/>
      <path id="DejaVuSans-2e" d="M 684 794 
L 1344 794 
L 1344 0 
L 684 0 
L 684 794 
z
" transform="scale(0.015625)"/>
      <path id="DejaVuSans-70" d="M 1159 525 
L 1159 -1331 
L 581 -1331 
L 581 3500 
L 1159 3500 
L 1159 2969 
Q 1341 3281 1617 3432 
Q 1894 3584 2278 3584 
Q 2916 3584 3314 3078 
Q 3713 2572 3713 1747 
Q 3713 922 3314 415 
Q 2916 -91 2278 -91 
Q 1894 -91 1617 61 
Q 1341 213 1159 525 
z
M 3116 1747 
Q 3116 2381 2855 2742 
Q 2594 3103 2138 3103 
Q 1681 3103 1420 2742 
Q 1159 2381 1159 1747 
Q 1159 1113 1420 752 
Q 1681 391 2138 391 
Q 2594 391 2855 752 
Q 3116 1113 3116 1747 
z
" transform="scale(0.015625)"/>
      <path id="DejaVuSans-69" d="M 603 3500 
L 1178 3500 
L 1178 0 
L 603 0 
L 603 3500 
z
M 603 4863 
L 1178 4863 
L 1178 4134 
L 603 4134 
L 603 4863 
z
" transform="scale(0.015625)"/>
      <path id="DejaVuSans-20" transform="scale(0.015625)"/>
      <path id="DejaVuSans-64" d="M 2906 2969 
L 2906 4863 
L 3481 4863 
L 3481 0 
L 2906 0 
L 2906 525 
Q 2725 213 2448 61 
Q 2172 -91 1784 -91 
Q 1150 -91 751 415 
Q 353 922 353 1747 
Q 353 2572 751 3078 
Q 1150 3584 1784 3584 
Q 2172 3584 2448 3432 
Q 2725 3281 2906 2969 
z
M 947 1747 
Q 947 1113 1208 752 
Q 1469 391 1925 391 
Q 2381 391 2643 752 
Q 2906 1113 2906 1747 
Q 2906 2381 2643 2742 
Q 2381 3103 1925 3103 
Q 1469 3103 1208 2742 
Q 947 2381 947 1747 
z
" transform="scale(0.015625)"/>
      <path id="DejaVuSans-6f" d="M 1959 3097 
Q 1497 3097 1228 2736 
Q 959 2375 959 1747 
Q 959 1119 1226 758 
Q 1494 397 1959 397 
Q 2419 397 2687 759 
Q 2956 1122 2956 1747 
Q 2956 2369 2687 2733 
Q 2419 3097 1959 3097 
z
M 1959 3584 
Q 2709 3584 3137 3096 
Q 3566 2609 3566 1747 
Q 3566 888 3137 398 
Q 2709 -91 1959 -91 
Q 1206 -91 779 398 
Q 353 888 353 1747 
Q 353 2609 779 3096 
Q 1206 3584 1959 3584 
z
" transform="scale(0.015625)"/>
      <path id="DejaVuSans-74" d="M 1172 4494 
L 1172 3500 
L 2356 3500 
L 2356 3053 
L 1172 3053 
L 1172 1153 
Q 1172 725 1289 603 
Q 1406 481 1766 481 
L 2356 481 
L 2356 0 
L 1766 0 
Q 1100 0 847 248 
Q 594 497 594 1153 
L 594 3053 
L 172 3053 
L 172 3500 
L 594 3500 
L 594 4494 
L 1172 4494 
z
" transform="scale(0.015625)"/>
      <path id="DejaVuSans-6e" d="M 3513 2113 
L 3513 0 
L 2938 0 
L 2938 2094 
Q 2938 2591 2744 2837 
Q 2550 3084 2163 3084 
Q 1697 3084 1428 2787 
Q 1159 2491 1159 1978 
L 1159 0 
L 581 0 
L 581 3500 
L 1159 3500 
L 1159 2956 
Q 1366 3272 1645 3428 
Q 1925 3584 2291 3584 
Q 2894 3584 3203 3211 
Q 3513 2838 3513 2113 
z
" transform="scale(0.015625)"/>
      <path id="DejaVuSans-65" d="M 3597 1894 
L 3597 1613 
L 953 1613 
Q 991 1019 1311 708 
Q 1631 397 2203 397 
Q 2534 397 2845 478 
Q 3156 559 3463 722 
L 3463 178 
Q 3153 47 2828 -22 
Q 2503 -91 2169 -91 
Q 1331 -91 842 396 
Q 353 884 353 1716 
Q 353 2575 817 3079 
Q 1281 3584 2069 3584 
Q 2775 3584 3186 3129 
Q 3597 2675 3597 1894 
z
M 3022 2063 
Q 3016 2534 2758 2815 
Q 2500 3097 2075 3097 
Q 1594 3097 1305 2825 
Q 1016 2553 972 2059 
L 3022 2063 
z
" transform="scale(0.015625)"/>
      <path id="DejaVuSans-33" d="M 2597 2516 
Q 3050 2419 3304 2112 
Q 3559 1806 3559 1356 
Q 3559 666 3084 287 
Q 2609 -91 1734 -91 
Q 1441 -91 1130 -33 
Q 819 25 488 141 
L 488 750 
Q 750 597 1062 519 
Q 1375 441 1716 441 
Q 2309 441 2620 675 
Q 2931 909 2931 1356 
Q 2931 1769 2642 2001 
Q 2353 2234 1838 2234 
L 1294 2234 
L 1294 2753 
L 1863 2753 
Q 2328 2753 2575 2939 
Q 2822 3125 2822 3475 
Q 2822 3834 2567 4026 
Q 2313 4219 1838 4219 
Q 1578 4219 1281 4162 
Q 984 4106 628 3988 
L 628 4550 
Q 988 4650 1302 4700 
Q 1616 4750 1894 4750 
Q 2613 4750 3031 4423 
Q 3450 4097 3450 3541 
Q 3450 3153 3228 2886 
Q 3006 2619 2597 2516 
z
" transform="scale(0.015625)"/>
     </defs>
     <use xlink:href="#DejaVuSans-66"/>
     <use xlink:href="#DejaVuSans-61" x="35.205078"/>
     <use xlink:href="#DejaVuSans-7a" x="96.484375"/>
     <use xlink:href="#DejaVuSans-61" x="148.974609"/>
     <use xlink:href="#DejaVuSans-3d" x="210.253906"/>
     <use xlink:href="#DejaVuSans-30" x="294.042969"/>
     <use xlink:href="#DejaVuSans-2e" x="357.666016"/>
     <use xlink:href="#DejaVuSans-38" x="389.453125"/>
     <use xlink:href="#DejaVuSans-70" x="453.076172"/>
     <use xlink:href="#DejaVuSans-69" x="516.552734"/>
     <use xlink:href="#DejaVuSans-20" x="544.335938"/>
     <use xlink:href="#DejaVuSans-64" x="576.123047"/>
     <use xlink:href="#DejaVuSans-6f" x="639.599609"/>
     <use xlink:href="#DejaVuSans-64" x="700.78125"/>
     <use xlink:href="#DejaVuSans-61" x="764.257812"/>
     <use xlink:href="#DejaVuSans-74" x="825.537109"/>
     <use xlink:href="#DejaVuSans-6e" x="864.746094"/>
     <use xlink:href="#DejaVuSans-69" x="928.125"/>
     <use xlink:href="#DejaVuSans-65" x="955.908203"/>
     <use xlink:href="#DejaVuSans-3d" x="1017.431641"/>
     <use xlink:href="#DejaVuSans-33" x="1101.220703"/>
     <use xlink:href="#DejaVuSans-2e" x="1164.84375"/>
     <use xlink:href="#DejaVuSans-31" x="1196.630859"/>
     <use xlink:href="#DejaVuSans-36" x="1260.253906"/>
     <use xlink:href="#DejaVuSans-36" x="1323.876953"/>
     <use xlink:href="#DejaVuSans-36" x="1387.5"/>
     <use xlink:href="#DejaVuSans-36" x="1451.123047"/>
     <use xlink:href="#DejaVuSans-36" x="1514.746094"/>
     <use xlink:href="#DejaVuSans-36" x="1578.369141"/>
     <use xlink:href="#DejaVuSans-36" x="1641.992188"/>
     <use xlink:href="#DejaVuSans-36" x="1705.615234"/>
     <use xlink:href="#DejaVuSans-36" x="1769.238281"/>
     <use xlink:href="#DejaVuSans-36" x="1832.861328"/>
     <use xlink:href="#DejaVuSans-36" x="1896.484375"/>
     <use xlink:href="#DejaVuSans-36" x="1960.107422"/>
     <use xlink:href="#DejaVuSans-36" x="2023.730469"/>
     <use xlink:href="#DejaVuSans-36" x="2087.353516"/>
     <use xlink:href="#DejaVuSans-35" x="2150.976562"/>
     <use xlink:href="#DejaVuSans-20" x="2214.599609"/>
    </g>
    <!-- ujemne=12.571428571428571 wynik=-36.0 -->
    <g transform="translate(101.967187 35.472) scale(0.12 -0.12)">
     <defs>
      <path id="DejaVuSans-75" d="M 544 1381 
L 544 3500 
L 1119 3500 
L 1119 1403 
Q 1119 906 1312 657 
Q 1506 409 1894 409 
Q 2359 409 2629 706 
Q 2900 1003 2900 1516 
L 2900 3500 
L 3475 3500 
L 3475 0 
L 2900 0 
L 2900 538 
Q 2691 219 2414 64 
Q 2138 -91 1772 -91 
Q 1169 -91 856 284 
Q 544 659 544 1381 
z
M 1991 3584 
L 1991 3584 
z
" transform="scale(0.015625)"/>
      <path id="DejaVuSans-6a" d="M 603 3500 
L 1178 3500 
L 1178 -63 
Q 1178 -731 923 -1031 
Q 669 -1331 103 -1331 
L -116 -1331 
L -116 -844 
L 38 -844 
Q 366 -844 484 -692 
Q 603 -541 603 -63 
L 603 3500 
z
M 603 4863 
L 1178 4863 
L 1178 4134 
L 603 4134 
L 603 4863 
z
" transform="scale(0.015625)"/>
      <path id="DejaVuSans-6d" d="M 3328 2828 
Q 3544 3216 3844 3400 
Q 4144 3584 4550 3584 
Q 5097 3584 5394 3201 
Q 5691 2819 5691 2113 
L 5691 0 
L 5113 0 
L 5113 2094 
Q 5113 2597 4934 2840 
Q 4756 3084 4391 3084 
Q 3944 3084 3684 2787 
Q 3425 2491 3425 1978 
L 3425 0 
L 2847 0 
L 2847 2094 
Q 2847 2600 2669 2842 
Q 2491 3084 2119 3084 
Q 1678 3084 1418 2786 
Q 1159 2488 1159 1978 
L 1159 0 
L 581 0 
L 581 3500 
L 1159 3500 
L 1159 2956 
Q 1356 3278 1631 3431 
Q 1906 3584 2284 3584 
Q 2666 3584 2933 3390 
Q 3200 3197 3328 2828 
z
" transform="scale(0.015625)"/>
      <path id="DejaVuSans-37" d="M 525 4666 
L 3525 4666 
L 3525 4397 
L 1831 0 
L 1172 0 
L 2766 4134 
L 525 4134 
L 525 4666 
z
" transform="scale(0.015625)"/>
      <path id="DejaVuSans-77" d="M 269 3500 
L 844 3500 
L 1563 769 
L 2278 3500 
L 2956 3500 
L 3675 769 
L 4391 3500 
L 4966 3500 
L 4050 0 
L 3372 0 
L 2619 2869 
L 1863 0 
L 1184 0 
L 269 3500 
z
" transform="scale(0.015625)"/>
      <path id="DejaVuSans-79" d="M 2059 -325 
Q 1816 -950 1584 -1140 
Q 1353 -1331 966 -1331 
L 506 -1331 
L 506 -850 
L 844 -850 
Q 1081 -850 1212 -737 
Q 1344 -625 1503 -206 
L 1606 56 
L 191 3500 
L 800 3500 
L 1894 763 
L 2988 3500 
L 3597 3500 
L 2059 -325 
z
" transform="scale(0.015625)"/>
      <path id="DejaVuSans-6b" d="M 581 4863 
L 1159 4863 
L 1159 1991 
L 2875 3500 
L 3609 3500 
L 1753 1863 
L 3688 0 
L 2938 0 
L 1159 1709 
L 1159 0 
L 581 0 
L 581 4863 
z
" transform="scale(0.015625)"/>
      <path id="DejaVuSans-2d" d="M 313 2009 
L 1997 2009 
L 1997 1497 
L 313 1497 
L 313 2009 
z
" transform="scale(0.015625)"/>
     </defs>
     <use xlink:href="#DejaVuSans-75"/>
     <use xlink:href="#DejaVuSans-6a" x="63.378906"/>
     <use xlink:href="#DejaVuSans-65" x="91.162109"/>
     <use xlink:href="#DejaVuSans-6d" x="152.685547"/>
     <use xlink:href="#DejaVuSans-6e" x="250.097656"/>
     <use xlink:href="#DejaVuSans-65" x="313.476562"/>
     <use xlink:href="#DejaVuSans-3d" x="375"/>
     <use xlink:href="#DejaVuSans-31" x="458.789062"/>
     <use xlink:href="#DejaVuSans-32" x="522.412109"/>
     <use xlink:href="#DejaVuSans-2e" x="586.035156"/>
     <use xlink:href="#DejaVuSans-35" x="617.822266"/>
     <use xlink:href="#DejaVuSans-37" x="681.445312"/>
     <use xlink:href="#DejaVuSans-31" x="745.068359"/>
     <use xlink:href="#DejaVuSans-34" x="808.691406"/>
     <use xlink:href="#DejaVuSans-32" x="872.314453"/>
     <use xlink:href="#DejaVuSans-38" x="935.9375"/>
     <use xlink:href="#DejaVuSans-35" x="999.560547"/>
     <use xlink:href="#DejaVuSans-37" x="1063.183594"/>
     <use xlink:href="#DejaVuSans-31" x="1126.806641"/>
     <use xlink:href="#DejaVuSans-34" x="1190.429688"/>
     <use xlink:href="#DejaVuSans-32" x="1254.052734"/>
     <use xlink:href="#DejaVuSans-38" x="1317.675781"/>
     <use xlink:href="#DejaVuSans-35" x="1381.298828"/>
     <use xlink:href="#DejaVuSans-37" x="1444.921875"/>
     <use xlink:href="#DejaVuSans-31" x="1508.544922"/>
     <use xlink:href="#DejaVuSans-20" x="1572.167969"/>
     <use xlink:href="#DejaVuSans-77" x="1603.955078"/>
     <use xlink:href="#DejaVuSans-79" x="1685.742188"/>
     <use xlink:href="#DejaVuSans-6e" x="1744.921875"/>
     <use xlink:href="#DejaVuSans-69" x="1808.300781"/>
     <use xlink:href="#DejaVuSans-6b" x="1836.083984"/>
     <use xlink:href="#DejaVuSans-3d" x="1893.994141"/>
     <use xlink:href="#DejaVuSans-2d" x="1977.783203"/>
     <use xlink:href="#DejaVuSans-33" x="2013.867188"/>
     <use xlink:href="#DejaVuSans-36" x="2077.490234"/>
     <use xlink:href="#DejaVuSans-2e" x="2141.113281"/>
     <use xlink:href="#DejaVuSans-30" x="2172.900391"/>
    </g>
   </g>
  </g>
 </g>
 <defs>
  <clipPath id="p0e83a25b5e">
   <rect x="57.6" y="41.472" width="357.12" height="266.112"/>
  </clipPath>
 </defs>
</svg>
