<?xml version="1.0" encoding="utf-8" standalone="no"?>
<!DOCTYPE svg PUBLIC "-//W3C//DTD SVG 1.1//EN"
  "http://www.w3.org/Graphics/SVG/1.1/DTD/svg11.dtd">
<svg xmlns:xlink="http://www.w3.org/1999/xlink" width="460.8pt" height="345.6pt" viewBox="0 0 460.8 345.6" xmlns="http://www.w3.org/2000/svg" version="1.1">
 <metadata>
  <rdf:RDF xmlns:dc="http://purl.org/dc/elements/1.1/" xmlns:cc="http://creativecommons.org/ns#" xmlns:rdf="http://www.w3.org/1999/02/22-rdf-syntax-ns#">
   <cc:Work>
    <dc:type rdf:resource="http://purl.org/dc/dcmitype/StillImage"/>
    <dc:date>2023-11-19T21:43:32.043899</dc:date>
    <dc:format>image/svg+xml</dc:format>
    <dc:creator>
     <cc:Agent>
      <dc:title>Matplotlib v3.8.0, https://matplotlib.org/</dc:title>
     </cc:Agent>
    </dc:creator>
   </cc:Work>
  </rdf:RDF>
 </metadata>
 <defs>
  <style type="text/css">*{stroke-linejoin: round; stroke-linecap: butt}</style>
 </defs>
 <g id="figure_1">
  <g id="patch_1">
   <path d="M 0 345.6 
L 460.8 345.6 
L 460.8 0 
L 0 0 
z
" style="fill: #ffffff"/>
  </g>
  <g id="axes_1">
   <g id="patch_2">
    <path d="M 57.6 307.584 
L 414.72 307.584 
L 414.72 41.472 
L 57.6 41.472 
z
" style="fill: #ffffff"/>
   </g>
   <g id="matplotlib.axis_1">
    <g id="xtick_1">
     <g id="line2d_1">
      <path d="M 73.832727 307.584 
L 73.832727 41.472 
" clip-path="url(#p0aaea38fb4)" style="fill: none; stroke: #b0b0b0; stroke-width: 0.8; stroke-linecap: square"/>
     </g>
     <g id="line2d_2">
      <defs>
       <path id="m5862e0f96d" d="M 0 0 
L 0 3.5 
" style="stroke: #000000; stroke-width: 0.8"/>
      </defs>
      <g>
       <use xlink:href="#m5862e0f96d" x="73.832727" y="307.584" style="stroke: #000000; stroke-width: 0.8"/>
      </g>
     </g>
     <g id="text_1">
      <!-- 0 -->
      <g transform="translate(70.651477 322.182437) scale(0.1 -0.1)">
       <defs>
        <path id="DejaVuSans-30" d="M 2034 4250 
Q 1547 4250 1301 3770 
Q 1056 3291 1056 2328 
Q 1056 1369 1301 889 
Q 1547 409 2034 409 
Q 2525 409 2770 889 
Q 3016 1369 3016 2328 
Q 3016 3291 2770 3770 
Q 2525 4250 2034 4250 
z
M 2034 4750 
Q 2819 4750 3233 4129 
Q 3647 3509 3647 2328 
Q 3647 1150 3233 529 
Q 2819 -91 2034 -91 
Q 1250 -91 836 529 
Q 422 1150 422 2328 
Q 422 3509 836 4129 
Q 1250 4750 2034 4750 
z
" transform="scale(0.015625)"/>
       </defs>
       <use xlink:href="#DejaVuSans-30"/>
      </g>
     </g>
    </g>
    <g id="xtick_2">
     <g id="line2d_3">
      <path d="M 144.717999 307.584 
L 144.717999 41.472 
" clip-path="url(#p0aaea38fb4)" style="fill: none; stroke: #b0b0b0; stroke-width: 0.8; stroke-linecap: square"/>
     </g>
     <g id="line2d_4">
      <g>
       <use xlink:href="#m5862e0f96d" x="144.717999" y="307.584" style="stroke: #000000; stroke-width: 0.8"/>
      </g>
     </g>
     <g id="text_2">
      <!-- 50 -->
      <g transform="translate(138.355499 322.182437) scale(0.1 -0.1)">
       <defs>
        <path id="DejaVuSans-35" d="M 691 4666 
L 3169 4666 
L 3169 4134 
L 1269 4134 
L 1269 2991 
Q 1406 3038 1543 3061 
Q 1681 3084 1819 3084 
Q 2600 3084 3056 2656 
Q 3513 2228 3513 1497 
Q 3513 744 3044 326 
Q 2575 -91 1722 -91 
Q 1428 -91 1123 -41 
Q 819 9 494 109 
L 494 744 
Q 775 591 1075 516 
Q 1375 441 1709 441 
Q 2250 441 2565 725 
Q 2881 1009 2881 1497 
Q 2881 1984 2565 2268 
Q 2250 2553 1709 2553 
Q 1456 2553 1204 2497 
Q 953 2441 691 2322 
L 691 4666 
z
" transform="scale(0.015625)"/>
       </defs>
       <use xlink:href="#DejaVuSans-35"/>
       <use xlink:href="#DejaVuSans-30" x="63.623047"/>
      </g>
     </g>
    </g>
    <g id="xtick_3">
     <g id="line2d_5">
      <path d="M 215.603271 307.584 
L 215.603271 41.472 
" clip-path="url(#p0aaea38fb4)" style="fill: none; stroke: #b0b0b0; stroke-width: 0.8; stroke-linecap: square"/>
     </g>
     <g id="line2d_6">
      <g>
       <use xlink:href="#m5862e0f96d" x="215.603271" y="307.584" style="stroke: #000000; stroke-width: 0.8"/>
      </g>
     </g>
     <g id="text_3">
      <!-- 100 -->
      <g transform="translate(206.059521 322.182437) scale(0.1 -0.1)">
       <defs>
        <path id="DejaVuSans-31" d="M 794 531 
L 1825 531 
L 1825 4091 
L 703 3866 
L 703 4441 
L 1819 4666 
L 2450 4666 
L 2450 531 
L 3481 531 
L 3481 0 
L 794 0 
L 794 531 
z
" transform="scale(0.015625)"/>
       </defs>
       <use xlink:href="#DejaVuSans-31"/>
       <use xlink:href="#DejaVuSans-30" x="63.623047"/>
       <use xlink:href="#DejaVuSans-30" x="127.246094"/>
      </g>
     </g>
    </g>
    <g id="xtick_4">
     <g id="line2d_7">
      <path d="M 286.488543 307.584 
L 286.488543 41.472 
" clip-path="url(#p0aaea38fb4)" style="fill: none; stroke: #b0b0b0; stroke-width: 0.8; stroke-linecap: square"/>
     </g>
     <g id="line2d_8">
      <g>
       <use xlink:href="#m5862e0f96d" x="286.488543" y="307.584" style="stroke: #000000; stroke-width: 0.8"/>
      </g>
     </g>
     <g id="text_4">
      <!-- 150 -->
      <g transform="translate(276.944793 322.182437) scale(0.1 -0.1)">
       <use xlink:href="#DejaVuSans-31"/>
       <use xlink:href="#DejaVuSans-35" x="63.623047"/>
       <use xlink:href="#DejaVuSans-30" x="127.246094"/>
      </g>
     </g>
    </g>
    <g id="xtick_5">
     <g id="line2d_9">
      <path d="M 357.373815 307.584 
L 357.373815 41.472 
" clip-path="url(#p0aaea38fb4)" style="fill: none; stroke: #b0b0b0; stroke-width: 0.8; stroke-linecap: square"/>
     </g>
     <g id="line2d_10">
      <g>
       <use xlink:href="#m5862e0f96d" x="357.373815" y="307.584" style="stroke: #000000; stroke-width: 0.8"/>
      </g>
     </g>
     <g id="text_5">
      <!-- 200 -->
      <g transform="translate(347.830065 322.182437) scale(0.1 -0.1)">
       <defs>
        <path id="DejaVuSans-32" d="M 1228 531 
L 3431 531 
L 3431 0 
L 469 0 
L 469 531 
Q 828 903 1448 1529 
Q 2069 2156 2228 2338 
Q 2531 2678 2651 2914 
Q 2772 3150 2772 3378 
Q 2772 3750 2511 3984 
Q 2250 4219 1831 4219 
Q 1534 4219 1204 4116 
Q 875 4013 500 3803 
L 500 4441 
Q 881 4594 1212 4672 
Q 1544 4750 1819 4750 
Q 2544 4750 2975 4387 
Q 3406 4025 3406 3419 
Q 3406 3131 3298 2873 
Q 3191 2616 2906 2266 
Q 2828 2175 2409 1742 
Q 1991 1309 1228 531 
z
" transform="scale(0.015625)"/>
       </defs>
       <use xlink:href="#DejaVuSans-32"/>
       <use xlink:href="#DejaVuSans-30" x="63.623047"/>
       <use xlink:href="#DejaVuSans-30" x="127.246094"/>
      </g>
     </g>
    </g>
   </g>
   <g id="matplotlib.axis_2">
    <g id="ytick_1">
     <g id="line2d_11">
      <path d="M 57.6 289.62179 
L 414.72 289.62179 
" clip-path="url(#p0aaea38fb4)" style="fill: none; stroke: #b0b0b0; stroke-width: 0.8; stroke-linecap: square"/>
     </g>
     <g id="line2d_12">
      <defs>
       <path id="md764447d7e" d="M 0 0 
L -3.5 0 
" style="stroke: #000000; stroke-width: 0.8"/>
      </defs>
      <g>
       <use xlink:href="#md764447d7e" x="57.6" y="289.62179" style="stroke: #000000; stroke-width: 0.8"/>
      </g>
     </g>
     <g id="text_6">
      <!-- −100 -->
      <g transform="translate(23.132812 293.421009) scale(0.1 -0.1)">
       <defs>
        <path id="DejaVuSans-2212" d="M 678 2272 
L 4684 2272 
L 4684 1741 
L 678 1741 
L 678 2272 
z
" transform="scale(0.015625)"/>
       </defs>
       <use xlink:href="#DejaVuSans-2212"/>
       <use xlink:href="#DejaVuSans-31" x="83.789062"/>
       <use xlink:href="#DejaVuSans-30" x="147.412109"/>
       <use xlink:href="#DejaVuSans-30" x="211.035156"/>
      </g>
     </g>
    </g>
    <g id="ytick_2">
     <g id="line2d_13">
      <path d="M 57.6 241.250112 
L 414.72 241.250112 
" clip-path="url(#p0aaea38fb4)" style="fill: none; stroke: #b0b0b0; stroke-width: 0.8; stroke-linecap: square"/>
     </g>
     <g id="line2d_14">
      <g>
       <use xlink:href="#md764447d7e" x="57.6" y="241.250112" style="stroke: #000000; stroke-width: 0.8"/>
      </g>
     </g>
     <g id="text_7">
      <!-- −50 -->
      <g transform="translate(29.495313 245.049331) scale(0.1 -0.1)">
       <use xlink:href="#DejaVuSans-2212"/>
       <use xlink:href="#DejaVuSans-35" x="83.789062"/>
       <use xlink:href="#DejaVuSans-30" x="147.412109"/>
      </g>
     </g>
    </g>
    <g id="ytick_3">
     <g id="line2d_15">
      <path d="M 57.6 192.878434 
L 414.72 192.878434 
" clip-path="url(#p0aaea38fb4)" style="fill: none; stroke: #b0b0b0; stroke-width: 0.8; stroke-linecap: square"/>
     </g>
     <g id="line2d_16">
      <g>
       <use xlink:href="#md764447d7e" x="57.6" y="192.878434" style="stroke: #000000; stroke-width: 0.8"/>
      </g>
     </g>
     <g id="text_8">
      <!-- 0 -->
      <g transform="translate(44.2375 196.677652) scale(0.1 -0.1)">
       <use xlink:href="#DejaVuSans-30"/>
      </g>
     </g>
    </g>
    <g id="ytick_4">
     <g id="line2d_17">
      <path d="M 57.6 144.506755 
L 414.72 144.506755 
" clip-path="url(#p0aaea38fb4)" style="fill: none; stroke: #b0b0b0; stroke-width: 0.8; stroke-linecap: square"/>
     </g>
     <g id="line2d_18">
      <g>
       <use xlink:href="#md764447d7e" x="57.6" y="144.506755" style="stroke: #000000; stroke-width: 0.8"/>
      </g>
     </g>
     <g id="text_9">
      <!-- 50 -->
      <g transform="translate(37.875 148.305974) scale(0.1 -0.1)">
       <use xlink:href="#DejaVuSans-35"/>
       <use xlink:href="#DejaVuSans-30" x="63.623047"/>
      </g>
     </g>
    </g>
    <g id="ytick_5">
     <g id="line2d_19">
      <path d="M 57.6 96.135077 
L 414.72 96.135077 
" clip-path="url(#p0aaea38fb4)" style="fill: none; stroke: #b0b0b0; stroke-width: 0.8; stroke-linecap: square"/>
     </g>
     <g id="line2d_20">
      <g>
       <use xlink:href="#md764447d7e" x="57.6" y="96.135077" style="stroke: #000000; stroke-width: 0.8"/>
      </g>
     </g>
     <g id="text_10">
      <!-- 100 -->
      <g transform="translate(31.5125 99.934296) scale(0.1 -0.1)">
       <use xlink:href="#DejaVuSans-31"/>
       <use xlink:href="#DejaVuSans-30" x="63.623047"/>
       <use xlink:href="#DejaVuSans-30" x="127.246094"/>
      </g>
     </g>
    </g>
    <g id="ytick_6">
     <g id="line2d_21">
      <path d="M 57.6 47.763399 
L 414.72 47.763399 
" clip-path="url(#p0aaea38fb4)" style="fill: none; stroke: #b0b0b0; stroke-width: 0.8; stroke-linecap: square"/>
     </g>
     <g id="line2d_22">
      <g>
       <use xlink:href="#md764447d7e" x="57.6" y="47.763399" style="stroke: #000000; stroke-width: 0.8"/>
      </g>
     </g>
     <g id="text_11">
      <!-- 150 -->
      <g transform="translate(31.5125 51.562617) scale(0.1 -0.1)">
       <use xlink:href="#DejaVuSans-31"/>
       <use xlink:href="#DejaVuSans-35" x="63.623047"/>
       <use xlink:href="#DejaVuSans-30" x="127.246094"/>
      </g>
     </g>
    </g>
   </g>
   <g id="line2d_23">
    <path d="M 73.832727 227.706042 
L 102.186836 227.706042 
L 103.604541 53.568 
L 112.110774 53.568 
L 113.52848 227.706042 
L 147.55341 227.706042 
L 148.971116 53.568 
L 156.059643 53.568 
L 157.477348 227.706042 
L 191.502279 227.706042 
L 192.919984 53.568 
L 200.008511 53.568 
L 201.426217 227.706042 
L 236.868853 227.706042 
L 238.286558 53.568 
L 245.375085 53.568 
L 246.792791 227.706042 
L 280.817721 227.706042 
L 282.235427 53.568 
L 289.323954 53.568 
L 290.741659 227.706042 
L 324.76659 227.706042 
L 326.184295 53.568 
L 334.690528 53.568 
L 336.108233 227.706042 
L 370.133164 227.706042 
L 371.550869 53.568 
L 378.639397 53.568 
L 380.057102 227.706042 
L 398.487273 227.706042 
L 398.487273 227.706042 
" clip-path="url(#p0aaea38fb4)" style="fill: none; stroke: #1f77b4; stroke-width: 1.5; stroke-linecap: square"/>
   </g>
   <g id="line2d_24">
    <path d="M 73.832727 157.096651 
L 78.085844 187.115249 
L 83.756665 227.466041 
L 86.592076 245.96941 
L 89.427487 262.35621 
L 90.845193 269.547707 
L 92.262898 275.97315 
L 93.680603 281.568338 
L 95.098309 286.277366 
L 96.516014 290.053183 
L 97.93372 292.858062 
L 99.351425 294.663977 
L 100.769131 295.452885 
L 102.186836 295.216902 
L 103.604541 293.958388 
L 105.022247 291.689916 
L 106.439952 288.434153 
L 107.857658 284.223628 
L 109.275363 279.100412 
L 110.693069 273.115695 
L 112.110774 266.329274 
L 113.52848 258.808956 
L 116.36389 241.873775 
L 119.199301 222.985304 
L 123.452418 192.651369 
L 127.705534 162.337717 
L 130.540945 143.484556 
L 133.376356 126.600574 
L 134.794061 119.111198 
L 136.211767 112.358881 
L 137.629472 106.411088 
L 139.047177 101.327248 
L 140.464883 97.158157 
L 141.882588 93.945472 
L 143.300294 91.721292 
L 144.717999 90.507841 
L 146.135705 90.317243 
L 147.55341 91.151403 
L 148.971116 93.001985 
L 150.388821 95.8505 
L 151.806526 99.668486 
L 153.224232 104.417795 
L 154.641937 110.050973 
L 156.059643 116.511736 
L 157.477348 123.73553 
L 160.312759 140.176596 
L 163.14817 158.718718 
L 167.401286 188.838645 
L 173.072108 229.085489 
L 175.907519 247.438328 
L 178.74293 263.616036 
L 180.160635 270.683549 
L 181.578341 276.973659 
L 182.996046 282.423517 
L 184.413751 286.97867 
L 185.831457 290.593605 
L 187.249162 293.232202 
L 188.666868 294.868098 
L 190.084573 295.484946 
L 191.502279 295.076584 
L 192.919984 293.647092 
L 194.33769 291.210753 
L 195.755395 287.79191 
L 197.1731 283.424723 
L 198.590806 278.152827 
L 200.008511 272.028898 
L 201.426217 265.114123 
L 202.843922 257.477593 
L 205.679333 240.350924 
L 208.514744 221.331677 
L 214.185566 180.693619 
L 218.438682 151.128522 
L 221.274093 133.338596 
L 222.691798 125.29282 
L 224.109504 117.922336 
L 225.527209 111.30079 
L 226.944915 105.49434 
L 228.36262 100.561003 
L 229.780326 96.550071 
L 231.198031 93.50162 
L 232.615736 91.44611 
L 234.033442 90.404078 
L 235.451147 90.385936 
L 236.868853 91.391865 
L 238.286558 93.411814 
L 239.704264 96.425601 
L 241.121969 100.403112 
L 242.539674 105.304607 
L 243.95738 111.08111 
L 245.375085 117.674905 
L 246.792791 125.020109 
L 249.628202 141.664405 
L 252.463613 160.350443 
L 256.716729 190.563184 
L 260.969845 220.982739 
L 263.805256 240.028816 
L 266.640667 257.195157 
L 268.058372 264.855862 
L 269.476078 271.797392 
L 270.893783 277.950391 
L 272.311489 283.253378 
L 273.729194 287.653369 
L 275.1469 291.1064 
L 276.564605 293.57797 
L 277.98231 295.043383 
L 279.400016 295.487998 
L 280.817721 294.907372 
L 282.235427 293.307306 
L 283.653132 290.703789 
L 285.070838 287.122833 
L 286.488543 282.600218 
L 287.906249 277.181132 
L 289.323954 270.919722 
L 290.741659 263.878549 
L 292.159365 256.127967 
L 294.994776 238.814652 
L 297.830187 219.670005 
L 307.754125 149.558383 
L 310.589536 131.94185 
L 312.007241 124.004174 
L 313.424946 116.754667 
L 314.842652 110.265763 
L 316.260357 104.602297 
L 317.678063 99.820858 
L 319.095768 95.969219 
L 320.513474 93.085865 
L 321.931179 91.199605 
L 323.348884 90.329287 
L 324.76659 90.483606 
L 326.184295 91.66102 
L 327.602001 93.849765 
L 329.019706 97.027971 
L 330.437412 101.163884 
L 331.855117 106.216178 
L 333.272823 112.134373 
L 334.690528 118.859336 
L 336.108233 126.323873 
L 338.943644 143.166694 
L 341.779055 161.991364 
L 346.032171 192.288377 
L 350.285288 222.638097 
L 353.120699 241.554526 
L 355.95611 258.530393 
L 357.373815 266.075338 
L 358.79152 272.888923 
L 360.209226 278.903071 
L 361.626931 284.057688 
L 363.044637 288.301273 
L 364.462342 291.591424 
L 365.880048 293.895267 
L 367.297753 295.189784 
L 368.715459 295.462039 
L 370.133164 294.709313 
L 371.550869 292.939127 
L 372.968575 290.169167 
L 374.38628 286.42711 
L 375.803986 281.750346 
L 377.221691 276.185603 
L 378.639397 269.788482 
L 380.057102 262.622902 
L 382.892513 246.279709 
L 385.727924 227.807576 
L 389.98104 197.734577 
L 395.651862 157.437084 
L 398.487273 139.012306 
L 398.487273 139.012306 
" clip-path="url(#p0aaea38fb4)" style="fill: none; stroke: #ff7f0e; stroke-width: 1.5; stroke-linecap: square"/>
   </g>
   <g id="line2d_25">
    <path d="M 73.832727 165.29864 
L 76.668138 146.212731 
L 79.503549 128.987237 
L 80.921254 121.290418 
L 82.33896 114.308882 
L 83.756665 108.112388 
L 85.174371 102.762848 
L 86.592076 98.313713 
L 88.009782 94.809438 
L 89.427487 92.285035 
L 90.845193 90.765729 
L 92.262898 90.266699 
L 93.680603 90.792931 
L 95.098309 92.339168 
L 96.516014 94.889961 
L 97.93372 98.419821 
L 99.351425 102.893481 
L 100.769131 108.266241 
L 102.186836 114.484418 
L 103.604541 121.485881 
L 105.022247 129.200676 
L 107.857658 146.455566 
L 110.693069 165.561189 
L 120.617007 235.703864 
L 123.452418 253.375703 
L 124.870123 261.347766 
L 126.287829 268.635707 
L 127.705534 275.166705 
L 129.123239 280.875507 
L 130.540945 285.70507 
L 131.95865 289.607141 
L 133.376356 292.542731 
L 134.794061 294.482507 
L 136.211767 295.40709 
L 137.629472 295.30724 
L 139.047177 294.183955 
L 140.464883 292.048459 
L 141.882588 288.922089 
L 143.300294 284.836082 
L 144.717999 279.831265 
L 146.135705 273.957644 
L 147.55341 267.273906 
L 148.971116 259.846834 
L 151.806526 243.066204 
L 154.641937 224.284747 
L 158.895054 194.013427 
L 163.14817 163.640722 
L 165.983581 144.682764 
L 168.818992 127.646216 
L 170.236697 120.064476 
L 171.654403 113.21027 
L 173.072108 107.152082 
L 174.489813 101.950443 
L 175.907519 97.657326 
L 177.325224 94.315627 
L 178.74293 91.958736 
L 180.160635 90.6102 
L 181.578341 90.283495 
L 182.996046 90.981885 
L 184.413751 92.698391 
L 185.831457 95.415863 
L 187.249162 99.107149 
L 188.666868 103.735366 
L 190.084573 109.254272 
L 191.502279 115.608723 
L 192.919984 122.735227 
L 195.755395 139.01257 
L 198.590806 157.437375 
L 202.843922 187.478015 
L 208.514744 227.807867 
L 211.350155 246.279973 
L 214.185566 262.623129 
L 215.603271 269.788687 
L 217.020977 276.185784 
L 218.438682 281.750501 
L 219.856387 286.427237 
L 221.274093 290.169265 
L 222.691798 292.939195 
L 224.109504 294.709351 
L 225.527209 295.462046 
L 226.944915 295.18976 
L 228.36262 293.895213 
L 229.780326 291.591339 
L 231.198031 288.301159 
L 232.615736 284.057546 
L 234.033442 278.902902 
L 235.451147 272.88873 
L 236.868853 266.075121 
L 238.286558 258.530155 
L 241.121969 241.554254 
L 243.95738 222.637801 
L 249.628202 182.047097 
L 253.881318 152.376405 
L 256.716729 134.453147 
L 258.134434 126.323638 
L 259.55214 118.859122 
L 260.969845 112.134182 
L 262.387551 106.216013 
L 263.805256 101.163745 
L 265.222961 97.027861 
L 266.640667 93.849684 
L 268.058372 91.660969 
L 269.476078 90.483586 
L 270.893783 90.329298 
L 272.311489 91.199647 
L 273.729194 93.085937 
L 275.1469 95.969321 
L 276.564605 99.820988 
L 277.98231 104.602455 
L 279.400016 110.265946 
L 280.817721 116.754874 
L 282.235427 124.004403 
L 285.070838 140.488651 
L 287.906249 159.061513 
L 292.159365 189.201692 
L 297.830187 229.425198 
L 300.665597 247.745677 
L 303.501008 263.878773 
L 304.918714 270.919923 
L 306.336419 277.181309 
L 307.754125 282.600368 
L 309.17183 287.122955 
L 310.589536 290.703882 
L 312.007241 293.30737 
L 313.424946 294.907405 
L 314.842652 295.488 
L 316.260357 295.043354 
L 317.678063 293.57791 
L 319.095768 291.106311 
L 320.513474 287.653251 
L 321.931179 283.253232 
L 323.348884 277.950218 
L 324.76659 271.797195 
L 326.184295 264.855641 
L 327.602001 257.194916 
L 330.437412 240.028541 
L 333.272823 220.982441 
L 344.614466 141.664137 
L 347.449877 125.019877 
L 348.867582 117.674695 
L 350.285288 111.080923 
L 351.702993 105.304446 
L 353.120699 100.402978 
L 354.538404 96.425495 
L 355.95611 93.411738 
L 357.373815 91.391819 
L 358.79152 90.385921 
L 360.209226 90.404094 
L 361.626931 91.446157 
L 363.044637 93.501697 
L 364.462342 96.550177 
L 365.880048 100.561138 
L 367.297753 105.494502 
L 368.715459 111.300977 
L 370.133164 117.922548 
L 371.550869 125.293053 
L 374.38628 141.979544 
L 377.221691 160.695213 
L 381.474807 190.926409 
L 385.727924 221.331974 
L 388.563335 240.351198 
L 391.398746 257.477834 
L 392.816451 265.114343 
L 394.234156 272.029094 
L 395.651862 278.152999 
L 397.069567 283.424868 
L 398.487273 287.792028 
L 398.487273 287.792028 
" clip-path="url(#p0aaea38fb4)" style="fill: none; stroke: #2ca02c; stroke-width: 1.5; stroke-linecap: square"/>
   </g>
   <g id="patch_3">
    <path d="M 57.6 307.584 
L 57.6 41.472 
" style="fill: none; stroke: #000000; stroke-width: 0.8; stroke-linejoin: miter; stroke-linecap: square"/>
   </g>
   <g id="patch_4">
    <path d="M 414.72 307.584 
L 414.72 41.472 
" style="fill: none; stroke: #000000; stroke-width: 0.8; stroke-linejoin: miter; stroke-linecap: square"/>
   </g>
   <g id="patch_5">
    <path d="M 57.6 307.584 
L 414.72 307.584 
" style="fill: none; stroke: #000000; stroke-width: 0.8; stroke-linejoin: miter; stroke-linecap: square"/>
   </g>
   <g id="patch_6">
    <path d="M 57.6 41.472 
L 414.72 41.472 
" style="fill: none; stroke: #000000; stroke-width: 0.8; stroke-linejoin: miter; stroke-linecap: square"/>
   </g>
   <g id="text_12">
    <!-- faza=0.8pi wynik=144.0 -->
    <g transform="translate(161.985938 35.472) scale(0.12 -0.12)">
     <defs>
      <path id="DejaVuSans-66" d="M 2375 4863 
L 2375 4384 
L 1825 4384 
Q 1516 4384 1395 4259 
Q 1275 4134 1275 3809 
L 1275 3500 
L 2222 3500 
L 2222 3053 
L 1275 3053 
L 1275 0 
L 697 0 
L 697 3053 
L 147 3053 
L 147 3500 
L 697 3500 
L 697 3744 
Q 697 4328 969 4595 
Q 1241 4863 1831 4863 
L 2375 4863 
z
" transform="scale(0.015625)"/>
      <path id="DejaVuSans-61" d="M 2194 1759 
Q 1497 1759 1228 1600 
Q 959 1441 959 1056 
Q 959 750 1161 570 
Q 1363 391 1709 391 
Q 2188 391 2477 730 
Q 2766 1069 2766 1631 
L 2766 1759 
L 2194 1759 
z
M 3341 1997 
L 3341 0 
L 2766 0 
L 2766 531 
Q 2569 213 2275 61 
Q 1981 -91 1556 -91 
Q 1019 -91 701 211 
Q 384 513 384 1019 
Q 384 1609 779 1909 
Q 1175 2209 1959 2209 
L 2766 2209 
L 2766 2266 
Q 2766 2663 2505 2880 
Q 2244 3097 1772 3097 
Q 1472 3097 1187 3025 
Q 903 2953 641 2809 
L 641 3341 
Q 956 3463 1253 3523 
Q 1550 3584 1831 3584 
Q 2591 3584 2966 3190 
Q 3341 2797 3341 1997 
z
" transform="scale(0.015625)"/>
      <path id="DejaVuSans-7a" d="M 353 3500 
L 3084 3500 
L 3084 2975 
L 922 459 
L 3084 459 
L 3084 0 
L 275 0 
L 275 525 
L 2438 3041 
L 353 3041 
L 353 3500 
z
" transform="scale(0.015625)"/>
      <path id="DejaVuSans-3d" d="M 678 2906 
L 4684 2906 
L 4684 2381 
L 678 2381 
L 678 2906 
z
M 678 1631 
L 4684 1631 
L 4684 1100 
L 678 1100 
L 678 1631 
z
" transform="scale(0.015625)"/>
      <path id="DejaVuSans-2e" d="M 684 794 
L 1344 794 
L 1344 0 
L 684 0 
L 684 794 
z
" transform="scale(0.015625)"/>
      <path id="DejaVuSans-38" d="M 2034 2216 
Q 1584 2216 1326 1975 
Q 1069 1734 1069 1313 
Q 1069 891 1326 650 
Q 1584 409 2034 409 
Q 2484 409 2743 651 
Q 3003 894 3003 1313 
Q 3003 1734 2745 1975 
Q 2488 2216 2034 2216 
z
M 1403 2484 
Q 997 2584 770 2862 
Q 544 3141 544 3541 
Q 544 4100 942 4425 
Q 1341 4750 2034 4750 
Q 2731 4750 3128 4425 
Q 3525 4100 3525 3541 
Q 3525 3141 3298 2862 
Q 3072 2584 2669 2484 
Q 3125 2378 3379 2068 
Q 3634 1759 3634 1313 
Q 3634 634 3220 271 
Q 2806 -91 2034 -91 
Q 1263 -91 848 271 
Q 434 634 434 1313 
Q 434 1759 690 2068 
Q 947 2378 1403 2484 
z
M 1172 3481 
Q 1172 3119 1398 2916 
Q 1625 2713 2034 2713 
Q 2441 2713 2670 2916 
Q 2900 3119 2900 3481 
Q 2900 3844 2670 4047 
Q 2441 4250 2034 4250 
Q 1625 4250 1398 4047 
Q 1172 3844 1172 3481 
z
" transform="scale(0.015625)"/>
      <path id="DejaVuSans-70" d="M 1159 525 
L 1159 -1331 
L 581 -1331 
L 581 3500 
L 1159 3500 
L 1159 2969 
Q 1341 3281 1617 3432 
Q 1894 3584 2278 3584 
Q 2916 3584 3314 3078 
Q 3713 2572 3713 1747 
Q 3713 922 3314 415 
Q 2916 -91 2278 -91 
Q 1894 -91 1617 61 
Q 1341 213 1159 525 
z
M 3116 1747 
Q 3116 2381 2855 2742 
Q 2594 3103 2138 3103 
Q 1681 3103 1420 2742 
Q 1159 2381 1159 1747 
Q 1159 1113 1420 752 
Q 1681 391 2138 391 
Q 2594 391 2855 752 
Q 3116 1113 3116 1747 
z
" transform="scale(0.015625)"/>
      <path id="DejaVuSans-69" d="M 603 3500 
L 1178 3500 
L 1178 0 
L 603 0 
L 603 3500 
z
M 603 4863 
L 1178 4863 
L 1178 4134 
L 603 4134 
L 603 4863 
z
" transform="scale(0.015625)"/>
      <path id="DejaVuSans-20" transform="scale(0.015625)"/>
      <path id="DejaVuSans-77" d="M 269 3500 
L 844 3500 
L 1563 769 
L 2278 3500 
L 2956 3500 
L 3675 769 
L 4391 3500 
L 4966 3500 
L 4050 0 
L 3372 0 
L 2619 2869 
L 1863 0 
L 1184 0 
L 269 3500 
z
" transform="scale(0.015625)"/>
      <path id="DejaVuSans-79" d="M 2059 -325 
Q 1816 -950 1584 -1140 
Q 1353 -1331 966 -1331 
L 506 -1331 
L 506 -850 
L 844 -850 
Q 1081 -850 1212 -737 
Q 1344 -625 1503 -206 
L 1606 56 
L 191 3500 
L 800 3500 
L 1894 763 
L 2988 3500 
L 3597 3500 
L 2059 -325 
z
" transform="scale(0.015625)"/>
      <path id="DejaVuSans-6e" d="M 3513 2113 
L 3513 0 
L 2938 0 
L 2938 2094 
Q 2938 2591 2744 2837 
Q 2550 3084 2163 3084 
Q 1697 3084 1428 2787 
Q 1159 2491 1159 1978 
L 1159 0 
L 581 0 
L 581 3500 
L 1159 3500 
L 1159 2956 
Q 1366 3272 1645 3428 
Q 1925 3584 2291 3584 
Q 2894 3584 3203 3211 
Q 3513 2838 3513 2113 
z
" transform="scale(0.015625)"/>
      <path id="DejaVuSans-6b" d="M 581 4863 
L 1159 4863 
L 1159 1991 
L 2875 3500 
L 3609 3500 
L 1753 1863 
L 3688 0 
L 2938 0 
L 1159 1709 
L 1159 0 
L 581 0 
L 581 4863 
z
" transform="scale(0.015625)"/>
      <path id="DejaVuSans-34" d="M 2419 4116 
L 825 1625 
L 2419 1625 
L 2419 4116 
z
M 2253 4666 
L 3047 4666 
L 3047 1625 
L 3713 1625 
L 3713 1100 
L 3047 1100 
L 3047 0 
L 2419 0 
L 2419 1100 
L 313 1100 
L 313 1709 
L 2253 4666 
z
" transform="scale(0.015625)"/>
     </defs>
     <use xlink:href="#DejaVuSans-66"/>
     <use xlink:href="#DejaVuSans-61" x="35.205078"/>
     <use xlink:href="#DejaVuSans-7a" x="96.484375"/>
     <use xlink:href="#DejaVuSans-61" x="148.974609"/>
     <use xlink:href="#DejaVuSans-3d" x="210.253906"/>
     <use xlink:href="#DejaVuSans-30" x="294.042969"/>
     <use xlink:href="#DejaVuSans-2e" x="357.666016"/>
     <use xlink:href="#DejaVuSans-38" x="389.453125"/>
     <use xlink:href="#DejaVuSans-70" x="453.076172"/>
     <use xlink:href="#DejaVuSans-69" x="516.552734"/>
     <use xlink:href="#DejaVuSans-20" x="544.335938"/>
     <use xlink:href="#DejaVuSans-77" x="576.123047"/>
     <use xlink:href="#DejaVuSans-79" x="657.910156"/>
     <use xlink:href="#DejaVuSans-6e" x="717.089844"/>
     <use xlink:href="#DejaVuSans-69" x="780.46875"/>
     <use xlink:href="#DejaVuSans-6b" x="808.251953"/>
     <use xlink:href="#DejaVuSans-3d" x="866.162109"/>
     <use xlink:href="#DejaVuSans-31" x="949.951172"/>
     <use xlink:href="#DejaVuSans-34" x="1013.574219"/>
     <use xlink:href="#DejaVuSans-34" x="1077.197266"/>
     <use xlink:href="#DejaVuSans-2e" x="1140.820312"/>
     <use xlink:href="#DejaVuSans-30" x="1172.607422"/>
    </g>
   </g>
  </g>
 </g>
 <defs>
  <clipPath id="p0aaea38fb4">
   <rect x="57.6" y="41.472" width="357.12" height="266.112"/>
  </clipPath>
 </defs>
</svg>
