<?xml version="1.0" encoding="utf-8" standalone="no"?>
<!DOCTYPE svg PUBLIC "-//W3C//DTD SVG 1.1//EN"
  "http://www.w3.org/Graphics/SVG/1.1/DTD/svg11.dtd">
<svg xmlns:xlink="http://www.w3.org/1999/xlink" width="460.8pt" height="345.6pt" viewBox="0 0 460.8 345.6" xmlns="http://www.w3.org/2000/svg" version="1.1">
 <metadata>
  <rdf:RDF xmlns:dc="http://purl.org/dc/elements/1.1/" xmlns:cc="http://creativecommons.org/ns#" xmlns:rdf="http://www.w3.org/1999/02/22-rdf-syntax-ns#">
   <cc:Work>
    <dc:type rdf:resource="http://purl.org/dc/dcmitype/StillImage"/>
    <dc:date>2023-11-17T11:11:44.899280</dc:date>
    <dc:format>image/svg+xml</dc:format>
    <dc:creator>
     <cc:Agent>
      <dc:title>Matplotlib v3.8.0, https://matplotlib.org/</dc:title>
     </cc:Agent>
    </dc:creator>
   </cc:Work>
  </rdf:RDF>
 </metadata>
 <defs>
  <style type="text/css">*{stroke-linejoin: round; stroke-linecap: butt}</style>
 </defs>
 <g id="figure_1">
  <g id="patch_1">
   <path d="M 0 345.6 
L 460.8 345.6 
L 460.8 0 
L 0 0 
z
" style="fill: #ffffff"/>
  </g>
  <g id="axes_1">
   <g id="patch_2">
    <path d="M 57.6 307.584 
L 414.72 307.584 
L 414.72 41.472 
L 57.6 41.472 
z
" style="fill: #ffffff"/>
   </g>
   <g id="matplotlib.axis_1">
    <g id="xtick_1">
     <g id="line2d_1">
      <defs>
       <path id="mec57e3747f" d="M 0 0 
L 0 3.5 
" style="stroke: #000000; stroke-width: 0.8"/>
      </defs>
      <g>
       <use xlink:href="#mec57e3747f" x="73.832727" y="307.584" style="stroke: #000000; stroke-width: 0.8"/>
      </g>
     </g>
     <g id="text_1">
      <!-- 0 -->
      <g transform="translate(70.651477 322.182437) scale(0.1 -0.1)">
       <defs>
        <path id="DejaVuSans-30" d="M 2034 4250 
Q 1547 4250 1301 3770 
Q 1056 3291 1056 2328 
Q 1056 1369 1301 889 
Q 1547 409 2034 409 
Q 2525 409 2770 889 
Q 3016 1369 3016 2328 
Q 3016 3291 2770 3770 
Q 2525 4250 2034 4250 
z
M 2034 4750 
Q 2819 4750 3233 4129 
Q 3647 3509 3647 2328 
Q 3647 1150 3233 529 
Q 2819 -91 2034 -91 
Q 1250 -91 836 529 
Q 422 1150 422 2328 
Q 422 3509 836 4129 
Q 1250 4750 2034 4750 
z
" transform="scale(0.015625)"/>
       </defs>
       <use xlink:href="#DejaVuSans-30"/>
      </g>
     </g>
    </g>
    <g id="xtick_2">
     <g id="line2d_2">
      <g>
       <use xlink:href="#mec57e3747f" x="126.196364" y="307.584" style="stroke: #000000; stroke-width: 0.8"/>
      </g>
     </g>
     <g id="text_2">
      <!-- 20 -->
      <g transform="translate(119.833864 322.182437) scale(0.1 -0.1)">
       <defs>
        <path id="DejaVuSans-32" d="M 1228 531 
L 3431 531 
L 3431 0 
L 469 0 
L 469 531 
Q 828 903 1448 1529 
Q 2069 2156 2228 2338 
Q 2531 2678 2651 2914 
Q 2772 3150 2772 3378 
Q 2772 3750 2511 3984 
Q 2250 4219 1831 4219 
Q 1534 4219 1204 4116 
Q 875 4013 500 3803 
L 500 4441 
Q 881 4594 1212 4672 
Q 1544 4750 1819 4750 
Q 2544 4750 2975 4387 
Q 3406 4025 3406 3419 
Q 3406 3131 3298 2873 
Q 3191 2616 2906 2266 
Q 2828 2175 2409 1742 
Q 1991 1309 1228 531 
z
" transform="scale(0.015625)"/>
       </defs>
       <use xlink:href="#DejaVuSans-32"/>
       <use xlink:href="#DejaVuSans-30" x="63.623047"/>
      </g>
     </g>
    </g>
    <g id="xtick_3">
     <g id="line2d_3">
      <g>
       <use xlink:href="#mec57e3747f" x="178.56" y="307.584" style="stroke: #000000; stroke-width: 0.8"/>
      </g>
     </g>
     <g id="text_3">
      <!-- 40 -->
      <g transform="translate(172.1975 322.182437) scale(0.1 -0.1)">
       <defs>
        <path id="DejaVuSans-34" d="M 2419 4116 
L 825 1625 
L 2419 1625 
L 2419 4116 
z
M 2253 4666 
L 3047 4666 
L 3047 1625 
L 3713 1625 
L 3713 1100 
L 3047 1100 
L 3047 0 
L 2419 0 
L 2419 1100 
L 313 1100 
L 313 1709 
L 2253 4666 
z
" transform="scale(0.015625)"/>
       </defs>
       <use xlink:href="#DejaVuSans-34"/>
       <use xlink:href="#DejaVuSans-30" x="63.623047"/>
      </g>
     </g>
    </g>
    <g id="xtick_4">
     <g id="line2d_4">
      <g>
       <use xlink:href="#mec57e3747f" x="230.923636" y="307.584" style="stroke: #000000; stroke-width: 0.8"/>
      </g>
     </g>
     <g id="text_4">
      <!-- 60 -->
      <g transform="translate(224.561136 322.182437) scale(0.1 -0.1)">
       <defs>
        <path id="DejaVuSans-36" d="M 2113 2584 
Q 1688 2584 1439 2293 
Q 1191 2003 1191 1497 
Q 1191 994 1439 701 
Q 1688 409 2113 409 
Q 2538 409 2786 701 
Q 3034 994 3034 1497 
Q 3034 2003 2786 2293 
Q 2538 2584 2113 2584 
z
M 3366 4563 
L 3366 3988 
Q 3128 4100 2886 4159 
Q 2644 4219 2406 4219 
Q 1781 4219 1451 3797 
Q 1122 3375 1075 2522 
Q 1259 2794 1537 2939 
Q 1816 3084 2150 3084 
Q 2853 3084 3261 2657 
Q 3669 2231 3669 1497 
Q 3669 778 3244 343 
Q 2819 -91 2113 -91 
Q 1303 -91 875 529 
Q 447 1150 447 2328 
Q 447 3434 972 4092 
Q 1497 4750 2381 4750 
Q 2619 4750 2861 4703 
Q 3103 4656 3366 4563 
z
" transform="scale(0.015625)"/>
       </defs>
       <use xlink:href="#DejaVuSans-36"/>
       <use xlink:href="#DejaVuSans-30" x="63.623047"/>
      </g>
     </g>
    </g>
    <g id="xtick_5">
     <g id="line2d_5">
      <g>
       <use xlink:href="#mec57e3747f" x="283.287273" y="307.584" style="stroke: #000000; stroke-width: 0.8"/>
      </g>
     </g>
     <g id="text_5">
      <!-- 80 -->
      <g transform="translate(276.924773 322.182437) scale(0.1 -0.1)">
       <defs>
        <path id="DejaVuSans-38" d="M 2034 2216 
Q 1584 2216 1326 1975 
Q 1069 1734 1069 1313 
Q 1069 891 1326 650 
Q 1584 409 2034 409 
Q 2484 409 2743 651 
Q 3003 894 3003 1313 
Q 3003 1734 2745 1975 
Q 2488 2216 2034 2216 
z
M 1403 2484 
Q 997 2584 770 2862 
Q 544 3141 544 3541 
Q 544 4100 942 4425 
Q 1341 4750 2034 4750 
Q 2731 4750 3128 4425 
Q 3525 4100 3525 3541 
Q 3525 3141 3298 2862 
Q 3072 2584 2669 2484 
Q 3125 2378 3379 2068 
Q 3634 1759 3634 1313 
Q 3634 634 3220 271 
Q 2806 -91 2034 -91 
Q 1263 -91 848 271 
Q 434 634 434 1313 
Q 434 1759 690 2068 
Q 947 2378 1403 2484 
z
M 1172 3481 
Q 1172 3119 1398 2916 
Q 1625 2713 2034 2713 
Q 2441 2713 2670 2916 
Q 2900 3119 2900 3481 
Q 2900 3844 2670 4047 
Q 2441 4250 2034 4250 
Q 1625 4250 1398 4047 
Q 1172 3844 1172 3481 
z
" transform="scale(0.015625)"/>
       </defs>
       <use xlink:href="#DejaVuSans-38"/>
       <use xlink:href="#DejaVuSans-30" x="63.623047"/>
      </g>
     </g>
    </g>
    <g id="xtick_6">
     <g id="line2d_6">
      <g>
       <use xlink:href="#mec57e3747f" x="335.650909" y="307.584" style="stroke: #000000; stroke-width: 0.8"/>
      </g>
     </g>
     <g id="text_6">
      <!-- 100 -->
      <g transform="translate(326.107159 322.182437) scale(0.1 -0.1)">
       <defs>
        <path id="DejaVuSans-31" d="M 794 531 
L 1825 531 
L 1825 4091 
L 703 3866 
L 703 4441 
L 1819 4666 
L 2450 4666 
L 2450 531 
L 3481 531 
L 3481 0 
L 794 0 
L 794 531 
z
" transform="scale(0.015625)"/>
       </defs>
       <use xlink:href="#DejaVuSans-31"/>
       <use xlink:href="#DejaVuSans-30" x="63.623047"/>
       <use xlink:href="#DejaVuSans-30" x="127.246094"/>
      </g>
     </g>
    </g>
    <g id="xtick_7">
     <g id="line2d_7">
      <g>
       <use xlink:href="#mec57e3747f" x="388.014545" y="307.584" style="stroke: #000000; stroke-width: 0.8"/>
      </g>
     </g>
     <g id="text_7">
      <!-- 120 -->
      <g transform="translate(378.470795 322.182437) scale(0.1 -0.1)">
       <use xlink:href="#DejaVuSans-31"/>
       <use xlink:href="#DejaVuSans-32" x="63.623047"/>
       <use xlink:href="#DejaVuSans-30" x="127.246094"/>
      </g>
     </g>
    </g>
   </g>
   <g id="matplotlib.axis_2">
    <g id="ytick_1">
     <g id="line2d_8">
      <defs>
       <path id="m02825f5470" d="M 0 0 
L -3.5 0 
" style="stroke: #000000; stroke-width: 0.8"/>
      </defs>
      <g>
       <use xlink:href="#m02825f5470" x="57.6" y="301.292576" style="stroke: #000000; stroke-width: 0.8"/>
      </g>
     </g>
     <g id="text_8">
      <!-- −150 -->
      <g transform="translate(23.132812 305.091795) scale(0.1 -0.1)">
       <defs>
        <path id="DejaVuSans-2212" d="M 678 2272 
L 4684 2272 
L 4684 1741 
L 678 1741 
L 678 2272 
z
" transform="scale(0.015625)"/>
        <path id="DejaVuSans-35" d="M 691 4666 
L 3169 4666 
L 3169 4134 
L 1269 4134 
L 1269 2991 
Q 1406 3038 1543 3061 
Q 1681 3084 1819 3084 
Q 2600 3084 3056 2656 
Q 3513 2228 3513 1497 
Q 3513 744 3044 326 
Q 2575 -91 1722 -91 
Q 1428 -91 1123 -41 
Q 819 9 494 109 
L 494 744 
Q 775 591 1075 516 
Q 1375 441 1709 441 
Q 2250 441 2565 725 
Q 2881 1009 2881 1497 
Q 2881 1984 2565 2268 
Q 2250 2553 1709 2553 
Q 1456 2553 1204 2497 
Q 953 2441 691 2322 
L 691 4666 
z
" transform="scale(0.015625)"/>
       </defs>
       <use xlink:href="#DejaVuSans-2212"/>
       <use xlink:href="#DejaVuSans-31" x="83.789062"/>
       <use xlink:href="#DejaVuSans-35" x="147.412109"/>
       <use xlink:href="#DejaVuSans-30" x="211.035156"/>
      </g>
     </g>
    </g>
    <g id="ytick_2">
     <g id="line2d_9">
      <g>
       <use xlink:href="#m02825f5470" x="57.6" y="252.921107" style="stroke: #000000; stroke-width: 0.8"/>
      </g>
     </g>
     <g id="text_9">
      <!-- −100 -->
      <g transform="translate(23.132812 256.720326) scale(0.1 -0.1)">
       <use xlink:href="#DejaVuSans-2212"/>
       <use xlink:href="#DejaVuSans-31" x="83.789062"/>
       <use xlink:href="#DejaVuSans-30" x="147.412109"/>
       <use xlink:href="#DejaVuSans-30" x="211.035156"/>
      </g>
     </g>
    </g>
    <g id="ytick_3">
     <g id="line2d_10">
      <g>
       <use xlink:href="#m02825f5470" x="57.6" y="204.549637" style="stroke: #000000; stroke-width: 0.8"/>
      </g>
     </g>
     <g id="text_10">
      <!-- −50 -->
      <g transform="translate(29.495313 208.348856) scale(0.1 -0.1)">
       <use xlink:href="#DejaVuSans-2212"/>
       <use xlink:href="#DejaVuSans-35" x="83.789062"/>
       <use xlink:href="#DejaVuSans-30" x="147.412109"/>
      </g>
     </g>
    </g>
    <g id="ytick_4">
     <g id="line2d_11">
      <g>
       <use xlink:href="#m02825f5470" x="57.6" y="156.178168" style="stroke: #000000; stroke-width: 0.8"/>
      </g>
     </g>
     <g id="text_11">
      <!-- 0 -->
      <g transform="translate(44.2375 159.977387) scale(0.1 -0.1)">
       <use xlink:href="#DejaVuSans-30"/>
      </g>
     </g>
    </g>
    <g id="ytick_5">
     <g id="line2d_12">
      <g>
       <use xlink:href="#m02825f5470" x="57.6" y="107.806698" style="stroke: #000000; stroke-width: 0.8"/>
      </g>
     </g>
     <g id="text_12">
      <!-- 50 -->
      <g transform="translate(37.875 111.605917) scale(0.1 -0.1)">
       <use xlink:href="#DejaVuSans-35"/>
       <use xlink:href="#DejaVuSans-30" x="63.623047"/>
      </g>
     </g>
    </g>
    <g id="ytick_6">
     <g id="line2d_13">
      <g>
       <use xlink:href="#m02825f5470" x="57.6" y="59.435229" style="stroke: #000000; stroke-width: 0.8"/>
      </g>
     </g>
     <g id="text_13">
      <!-- 100 -->
      <g transform="translate(31.5125 63.234448) scale(0.1 -0.1)">
       <use xlink:href="#DejaVuSans-31"/>
       <use xlink:href="#DejaVuSans-30" x="63.623047"/>
       <use xlink:href="#DejaVuSans-30" x="127.246094"/>
      </g>
     </g>
    </g>
   </g>
   <g id="line2d_14">
    <path d="M 73.832727 156.178168 
L 76.450909 145.092244 
L 79.069091 134.006319 
L 81.687273 122.920395 
L 84.305455 111.834471 
L 86.923636 100.748547 
L 89.541818 89.662623 
L 92.16 78.576698 
L 94.778182 241.628064 
L 97.396364 230.54214 
L 100.014545 219.456216 
L 102.632727 208.370292 
L 105.250909 197.284368 
L 107.869091 186.198443 
L 110.487273 175.112519 
L 113.105455 164.026595 
L 115.723636 152.940671 
L 118.341818 141.854747 
L 120.96 130.768822 
L 123.578182 119.682898 
L 126.196364 108.596974 
L 128.814545 97.51105 
L 131.432727 86.425126 
L 134.050909 75.339201 
L 136.669091 238.390567 
L 139.287273 227.304643 
L 141.905455 216.218719 
L 144.523636 205.132795 
L 147.141818 194.046871 
L 149.76 182.960946 
L 152.378182 171.875022 
L 154.996364 160.789098 
L 157.614545 149.703174 
L 160.232727 138.617249 
L 162.850909 127.531325 
L 165.469091 116.445401 
L 168.087273 105.359477 
L 170.705455 94.273553 
L 173.323636 83.187628 
L 175.941818 72.101704 
L 178.56 235.15307 
L 181.178182 224.067146 
L 183.796364 212.981222 
L 186.414545 201.895298 
L 189.032727 190.809373 
L 191.650909 179.723449 
L 194.269091 168.637525 
L 196.887273 157.551601 
L 199.505455 146.465677 
L 202.123636 135.379752 
L 204.741818 124.293828 
L 207.36 113.207904 
L 209.978182 102.12198 
L 212.596364 91.036056 
L 215.214545 79.950131 
L 217.832727 243.001497 
L 220.450909 231.915573 
L 223.069091 220.829649 
L 225.687273 209.743725 
L 228.305455 198.657801 
L 230.923636 187.571876 
L 233.541818 176.485952 
L 236.16 165.400028 
L 238.778182 154.314104 
L 241.396364 143.22818 
L 244.014545 132.142255 
L 246.632727 121.056331 
L 249.250909 109.970407 
L 251.869091 98.884483 
L 254.487273 87.798559 
L 257.105455 76.712634 
L 259.723636 239.764 
L 262.341818 228.678076 
L 264.96 217.592152 
L 267.578182 206.506228 
L 270.196364 195.420303 
L 272.814545 184.334379 
L 275.432727 173.248455 
L 278.050909 162.162531 
L 280.669091 151.076607 
L 283.287273 139.990682 
L 285.905455 128.904758 
L 288.523636 117.818834 
L 291.141818 106.73291 
L 293.76 95.646986 
L 296.378182 84.561061 
L 298.996364 73.475137 
L 301.614545 236.526503 
L 304.232727 225.440579 
L 306.850909 214.354655 
L 309.469091 203.268731 
L 312.087273 192.182806 
L 314.705455 181.096882 
L 317.323636 170.010958 
L 319.941818 158.925034 
L 322.56 147.83911 
L 325.178182 136.753185 
L 327.796364 125.667261 
L 330.414545 114.581337 
L 333.032727 103.495413 
L 335.650909 92.409489 
L 338.269091 81.323564 
L 340.887273 70.23764 
L 343.505455 233.289006 
L 346.123636 222.203082 
L 348.741818 211.117158 
L 351.36 200.031234 
L 353.978182 188.945309 
L 356.596364 177.859385 
L 359.214545 166.773461 
L 361.832727 155.687537 
L 364.450909 144.601613 
L 367.069091 133.515688 
L 369.687273 122.429764 
L 372.305455 111.34384 
L 374.923636 100.257916 
L 377.541818 89.171991 
L 380.16 78.086067 
L 382.778182 241.137433 
L 385.396364 230.051509 
L 388.014545 218.965585 
L 390.632727 207.879661 
L 393.250909 196.793736 
L 395.869091 185.707812 
L 398.487273 174.621888 
" clip-path="url(#pbbf607bd5a)" style="fill: none; stroke: #1f77b4; stroke-width: 1.5; stroke-linecap: square"/>
   </g>
   <g id="line2d_15">
    <path d="M 73.832727 121.35071 
L 76.450909 121.35071 
L 79.069091 121.35071 
L 81.687273 121.35071 
L 84.305455 121.35071 
L 86.923636 121.35071 
L 89.541818 121.35071 
L 92.16 121.35071 
L 94.778182 295.488 
L 97.396364 295.488 
L 100.014545 295.488 
L 102.632727 121.35071 
L 105.250909 121.35071 
L 107.869091 121.35071 
L 110.487273 121.35071 
L 113.105455 121.35071 
L 115.723636 121.35071 
L 118.341818 121.35071 
L 120.96 121.35071 
L 123.578182 121.35071 
L 126.196364 121.35071 
L 128.814545 121.35071 
L 131.432727 121.35071 
L 134.050909 121.35071 
L 136.669091 295.488 
L 139.287273 295.488 
L 141.905455 295.488 
L 144.523636 121.35071 
L 147.141818 121.35071 
L 149.76 121.35071 
L 152.378182 121.35071 
L 154.996364 121.35071 
L 157.614545 121.35071 
L 160.232727 121.35071 
L 162.850909 121.35071 
L 165.469091 121.35071 
L 168.087273 121.35071 
L 170.705455 121.35071 
L 173.323636 121.35071 
L 175.941818 121.35071 
L 178.56 295.488 
L 181.178182 295.488 
L 183.796364 295.488 
L 186.414545 121.35071 
L 189.032727 121.35071 
L 191.650909 121.35071 
L 194.269091 121.35071 
L 196.887273 121.35071 
L 199.505455 121.35071 
L 202.123636 121.35071 
L 204.741818 121.35071 
L 207.36 121.35071 
L 209.978182 121.35071 
L 212.596364 121.35071 
L 215.214545 121.35071 
L 217.832727 295.488 
L 220.450909 295.488 
L 223.069091 295.488 
L 225.687273 295.488 
L 228.305455 121.35071 
L 230.923636 121.35071 
L 233.541818 121.35071 
L 236.16 121.35071 
L 238.778182 121.35071 
L 241.396364 121.35071 
L 244.014545 121.35071 
L 246.632727 121.35071 
L 249.250909 121.35071 
L 251.869091 121.35071 
L 254.487273 121.35071 
L 257.105455 121.35071 
L 259.723636 295.488 
L 262.341818 295.488 
L 264.96 295.488 
L 267.578182 121.35071 
L 270.196364 121.35071 
L 272.814545 121.35071 
L 275.432727 121.35071 
L 278.050909 121.35071 
L 280.669091 121.35071 
L 283.287273 121.35071 
L 285.905455 121.35071 
L 288.523636 121.35071 
L 291.141818 121.35071 
L 293.76 121.35071 
L 296.378182 121.35071 
L 298.996364 121.35071 
L 301.614545 295.488 
L 304.232727 295.488 
L 306.850909 295.488 
L 309.469091 121.35071 
L 312.087273 121.35071 
L 314.705455 121.35071 
L 317.323636 121.35071 
L 319.941818 121.35071 
L 322.56 121.35071 
L 325.178182 121.35071 
L 327.796364 121.35071 
L 330.414545 121.35071 
L 333.032727 121.35071 
L 335.650909 121.35071 
L 338.269091 121.35071 
L 340.887273 121.35071 
L 343.505455 295.488 
L 346.123636 295.488 
L 348.741818 295.488 
L 351.36 121.35071 
L 353.978182 121.35071 
L 356.596364 121.35071 
L 359.214545 121.35071 
L 361.832727 121.35071 
L 364.450909 121.35071 
L 367.069091 121.35071 
L 369.687273 121.35071 
L 372.305455 121.35071 
L 374.923636 121.35071 
L 377.541818 121.35071 
L 380.16 121.35071 
L 382.778182 295.488 
L 385.396364 295.488 
L 388.014545 295.488 
L 390.632727 121.35071 
L 393.250909 121.35071 
L 395.869091 121.35071 
L 398.487273 121.35071 
" clip-path="url(#pbbf607bd5a)" style="fill: none; stroke: #ff7f0e; stroke-width: 1.5; stroke-linecap: square"/>
   </g>
   <g id="line2d_16">
    <path d="M 73.832727 172.230125 
L 76.450909 192.044907 
L 79.069091 210.429795 
L 81.687273 226.651842 
L 84.305455 240.064326 
L 86.923636 250.132534 
L 89.541818 256.455078 
L 92.16 258.779897 
L 94.778182 257.01431 
L 97.396364 251.228704 
L 100.014545 241.653732 
L 102.632727 228.67112 
L 105.250909 212.798443 
L 107.869091 194.668494 
L 110.487273 175.004057 
L 113.105455 154.589091 
L 115.723636 134.237477 
L 118.341818 114.760569 
L 120.96 96.93485 
L 123.578182 81.470975 
L 126.196364 68.98544 
L 128.814545 59.976004 
L 131.432727 54.801844 
L 134.050909 53.669239 
L 136.669091 56.623341 
L 139.287273 63.54638 
L 141.905455 74.162356 
L 144.523636 88.048044 
L 147.141818 104.649865 
L 149.76 123.305956 
L 152.378182 143.272559 
L 154.996364 163.753668 
L 157.614545 183.932766 
L 160.232727 203.005375 
L 162.850909 220.211131 
L 165.469091 234.864095 
L 168.087273 246.3801 
L 170.705455 254.300038 
L 173.323636 258.308167 
L 175.941818 258.244695 
L 178.56 254.112152 
L 181.178182 246.075291 
L 183.796364 234.454515 
L 186.414545 219.713109 
L 189.032727 202.438764 
L 191.650909 183.320156 
L 194.269091 163.119482 
L 196.887273 142.64208 
L 199.505455 122.704319 
L 202.123636 104.101055 
L 204.741818 87.573941 
L 207.36 73.781861 
L 209.978182 63.274661 
L 212.596364 56.471232 
L 215.214545 53.642803 
L 217.832727 54.902136 
L 220.450909 60.199024 
L 223.069091 69.322298 
L 225.687273 81.908242 
L 228.305455 97.455093 
L 230.923636 115.343048 
L 233.541818 134.85897 
L 236.16 155.224821 
L 238.778182 175.628679 
L 241.396364 195.257107 
L 244.014545 213.327581 
L 246.632727 229.119688 
L 249.250909 242.003847 
L 251.869091 251.466406 
L 254.487273 257.130125 
L 257.105455 258.769207 
L 259.723636 256.318309 
L 262.341818 249.875139 
L 264.96 239.696566 
L 267.578182 226.188379 
L 270.196364 209.889105 
L 272.814545 191.448546 
L 275.432727 171.601868 
L 278.050909 151.140296 
L 280.669091 130.879568 
L 283.287273 111.627415 
L 285.905455 94.15136 
L 288.523636 79.148118 
L 291.141818 67.215822 
L 293.76 58.830173 
L 296.378182 54.325481 
L 298.996364 53.881335 
L 301.614545 57.515441 
L 304.232727 65.082918 
L 306.850909 76.282076 
L 309.469091 90.666438 
L 312.087273 107.662546 
L 314.705455 126.59282 
L 317.323636 146.702567 
L 319.941818 167.190077 
L 322.56 187.238577 
L 325.178182 206.048796 
L 327.796364 222.870831 
L 330.414545 237.03404 
L 333.032727 247.97378 
L 335.650909 255.253919 
L 338.269091 258.58422 
L 340.887273 257.831915 
L 343.505455 253.026997 
L 346.123636 244.36102 
L 348.741818 232.179472 
L 351.36 216.967992 
L 353.978182 199.333013 
L 356.596364 179.977587 
L 359.214545 159.673353 
L 361.832727 139.229777 
L 364.450909 119.46188 
L 367.069091 101.157745 
L 369.687273 85.047101 
L 372.305455 71.772228 
L 374.923636 61.862354 
L 377.541818 55.712553 
L 380.16 53.568 
L 382.778182 55.51419 
L 385.396364 61.473535 
L 388.014545 71.208455 
L 390.632727 84.33085 
L 393.250909 100.31757 
L 395.869091 118.531276 
L 398.487273 138.245845 
" clip-path="url(#pbbf607bd5a)" style="fill: none; stroke: #2ca02c; stroke-width: 1.5; stroke-linecap: square"/>
   </g>
   <g id="line2d_17">
    <path d="M 73.832727 83.620964 
L 76.450909 70.652386 
L 79.069091 61.093451 
L 81.687273 55.325244 
L 84.305455 53.577724 
L 86.923636 55.920561 
L 89.541818 62.260352 
L 92.16 72.34435 
L 94.778182 85.770537 
L 97.396364 102.003655 
L 100.014545 120.39654 
L 102.632727 140.215925 
L 105.250909 160.671674 
L 107.869091 180.948282 
L 110.487273 200.237383 
L 113.105455 217.769982 
L 115.723636 232.84711 
L 118.341818 244.86769 
L 120.96 253.352498 
L 123.578182 257.963272 
L 126.196364 258.516195 
L 128.814545 254.989224 
L 131.432727 247.522968 
L 134.050909 236.415083 
L 136.669091 222.108405 
L 139.287273 205.173297 
L 141.905455 186.284908 
L 144.523636 166.196258 
L 147.141818 145.708218 
L 149.76 125.637583 
L 152.378182 106.784504 
L 154.996364 89.900594 
L 157.614545 75.658962 
L 160.232727 64.627377 
L 162.850909 57.245633 
L 165.469091 53.808017 
L 168.087273 54.451576 
L 170.705455 59.150653 
L 173.323636 67.717911 
L 175.941818 79.8118 
L 178.56 94.950175 
L 181.178182 112.529517 
L 183.796364 131.848993 
L 186.414545 152.138397 
L 189.032727 172.588853 
L 191.650909 192.385067 
L 194.269091 210.737827 
L 196.887273 226.915464 
L 199.505455 240.27303 
L 202.123636 250.277998 
L 204.741818 256.531503 
L 207.36 258.784237 
L 209.978182 256.946391 
L 212.596364 251.091234 
L 215.214545 241.452193 
L 217.832727 228.413545 
L 220.450909 212.495101 
L 223.069091 194.331478 
L 225.687273 174.646804 
L 228.305455 154.225843 
L 230.923636 133.882715 
L 233.541818 114.428436 
L 236.16 96.638588 
L 238.778182 81.222394 
L 241.396364 68.794451 
L 244.014545 59.850221 
L 246.632727 54.746282 
L 249.250909 53.686112 
L 251.869091 56.711977 
L 254.487273 63.703246 
L 257.105455 74.381197 
L 259.723636 88.320136 
L 262.341818 104.96436 
L 264.96 123.650317 
L 267.578182 143.633057 
L 270.196364 164.115931 
L 272.814545 184.282352 
L 275.432727 203.328347 
L 278.050909 220.494613 
L 280.669091 235.096786 
L 283.287273 246.552722 
L 285.905455 254.40571 
L 288.523636 258.342676 
L 291.141818 258.206666 
L 293.76 254.003101 
L 296.378182 245.899565 
L 298.996364 234.219119 
L 301.614545 219.427428 
L 304.232727 202.114188 
L 306.850909 182.969624 
L 309.469091 162.756969 
L 312.087273 142.282038 
L 314.705455 122.361102 
L 317.323636 103.788345 
L 319.941818 87.304206 
L 322.56 73.565854 
L 325.178182 63.120994 
L 327.796364 56.38603 
L 330.414545 53.629464 
L 333.032727 54.961191 
L 335.650909 60.328119 
L 338.269091 69.516287 
L 340.887273 82.15939 
L 343.505455 97.753388 
L 346.123636 115.676598 
L 348.741818 135.214478 
L 351.36 155.588113 
L 353.978182 175.985273 
L 356.596364 195.592785 
L 359.214545 213.628962 
L 361.832727 229.374756 
L 364.450909 242.202433 
L 367.069091 251.600595 
L 369.687273 257.194565 
L 372.305455 258.76133 
L 374.923636 256.238429 
L 377.541818 249.72644 
L 380.16 239.484977 
L 382.778182 225.922335 
L 385.396364 209.579213 
L 388.014545 191.107159 
L 390.632727 171.242597 
L 393.250909 150.777464 
L 395.869091 130.527639 
L 398.487273 111.300421 
" clip-path="url(#pbbf607bd5a)" style="fill: none; stroke: #d62728; stroke-width: 1.5; stroke-linecap: square"/>
   </g>
   <g id="line2d_18">
    <path d="M 73.832727 191.005626 
L 76.450909 179.919702 
L 79.069091 168.833777 
L 81.687273 157.747853 
L 84.305455 146.661929 
L 86.923636 135.576005 
L 89.541818 124.490081 
L 92.16 113.404156 
L 94.778182 102.318232 
L 97.396364 91.232308 
L 100.014545 80.146384 
L 102.632727 243.19775 
L 105.250909 232.111826 
L 107.869091 221.025901 
L 110.487273 209.939977 
L 113.105455 198.854053 
L 115.723636 187.768129 
L 118.341818 176.682205 
L 120.96 165.59628 
L 123.578182 154.510356 
L 126.196364 143.424432 
L 128.814545 132.338508 
L 131.432727 121.252584 
L 134.050909 110.166659 
L 136.669091 99.080735 
L 139.287273 87.994811 
L 141.905455 76.908887 
L 144.523636 239.960253 
L 147.141818 228.874329 
L 149.76 217.788404 
L 152.378182 206.70248 
L 154.996364 195.616556 
L 157.614545 184.530632 
L 160.232727 173.444708 
L 162.850909 162.358783 
L 165.469091 151.272859 
L 168.087273 140.186935 
L 170.705455 129.101011 
L 173.323636 118.015087 
L 175.941818 106.929162 
L 178.56 95.843238 
L 181.178182 84.757314 
L 183.796364 73.67139 
L 186.414545 236.722756 
L 189.032727 225.636831 
L 191.650909 214.550907 
L 194.269091 203.464983 
L 196.887273 192.379059 
L 199.505455 181.293135 
L 202.123636 170.20721 
L 204.741818 159.121286 
L 207.36 148.035362 
L 209.978182 136.949438 
L 212.596364 125.863514 
L 215.214545 114.777589 
L 217.832727 103.691665 
L 220.450909 92.605741 
L 223.069091 81.519817 
L 225.687273 70.433893 
L 228.305455 233.485259 
L 230.923636 222.399334 
L 233.541818 211.31341 
L 236.16 200.227486 
L 238.778182 189.141562 
L 241.396364 178.055638 
L 244.014545 166.969713 
L 246.632727 155.883789 
L 249.250909 144.797865 
L 251.869091 133.711941 
L 254.487273 122.626017 
L 257.105455 111.540092 
L 259.723636 100.454168 
L 262.341818 89.368244 
L 264.96 78.28232 
L 267.578182 241.333686 
L 270.196364 230.247762 
L 272.814545 219.161837 
L 275.432727 208.075913 
L 278.050909 196.989989 
L 280.669091 185.904065 
L 283.287273 174.818141 
L 285.905455 163.732216 
L 288.523636 152.646292 
L 291.141818 141.560368 
L 293.76 130.474444 
L 296.378182 119.388519 
L 298.996364 108.302595 
L 301.614545 97.216671 
L 304.232727 86.130747 
L 306.850909 75.044823 
L 309.469091 238.096189 
L 312.087273 227.010264 
L 314.705455 215.92434 
L 317.323636 204.838416 
L 319.941818 193.752492 
L 322.56 182.666568 
L 325.178182 171.580643 
L 327.796364 160.494719 
L 330.414545 149.408795 
L 333.032727 138.322871 
L 335.650909 127.236947 
L 338.269091 116.151022 
L 340.887273 105.065098 
L 343.505455 93.979174 
L 346.123636 82.89325 
L 348.741818 71.807326 
L 351.36 234.858692 
L 353.978182 223.772767 
L 356.596364 212.686843 
L 359.214545 201.600919 
L 361.832727 190.514995 
L 364.450909 179.429071 
L 367.069091 168.343146 
L 369.687273 157.257222 
L 372.305455 146.171298 
L 374.923636 135.085374 
L 377.541818 123.99945 
L 380.16 112.913525 
L 382.778182 101.827601 
L 385.396364 90.741677 
L 388.014545 79.655753 
L 390.632727 242.707119 
L 393.250909 231.621194 
L 395.869091 220.53527 
L 398.487273 209.449346 
" clip-path="url(#pbbf607bd5a)" style="fill: none; stroke: #9467bd; stroke-width: 1.5; stroke-linecap: square"/>
   </g>
   <g id="patch_3">
    <path d="M 57.6 307.584 
L 57.6 41.472 
" style="fill: none; stroke: #000000; stroke-width: 0.8; stroke-linejoin: miter; stroke-linecap: square"/>
   </g>
   <g id="patch_4">
    <path d="M 414.72 307.584 
L 414.72 41.472 
" style="fill: none; stroke: #000000; stroke-width: 0.8; stroke-linejoin: miter; stroke-linecap: square"/>
   </g>
   <g id="patch_5">
    <path d="M 57.6 307.584 
L 414.72 307.584 
" style="fill: none; stroke: #000000; stroke-width: 0.8; stroke-linejoin: miter; stroke-linecap: square"/>
   </g>
   <g id="patch_6">
    <path d="M 57.6 41.472 
L 414.72 41.472 
" style="fill: none; stroke: #000000; stroke-width: 0.8; stroke-linejoin: miter; stroke-linecap: square"/>
   </g>
   <g id="text_14">
    <!-- faza=1.2pi dodatnie=12.666666666666666  -->
    <g transform="translate(101.37375 22.034625) scale(0.12 -0.12)">
     <defs>
      <path id="DejaVuSans-66" d="M 2375 4863 
L 2375 4384 
L 1825 4384 
Q 1516 4384 1395 4259 
Q 1275 4134 1275 3809 
L 1275 3500 
L 2222 3500 
L 2222 3053 
L 1275 3053 
L 1275 0 
L 697 0 
L 697 3053 
L 147 3053 
L 147 3500 
L 697 3500 
L 697 3744 
Q 697 4328 969 4595 
Q 1241 4863 1831 4863 
L 2375 4863 
z
" transform="scale(0.015625)"/>
      <path id="DejaVuSans-61" d="M 2194 1759 
Q 1497 1759 1228 1600 
Q 959 1441 959 1056 
Q 959 750 1161 570 
Q 1363 391 1709 391 
Q 2188 391 2477 730 
Q 2766 1069 2766 1631 
L 2766 1759 
L 2194 1759 
z
M 3341 1997 
L 3341 0 
L 2766 0 
L 2766 531 
Q 2569 213 2275 61 
Q 1981 -91 1556 -91 
Q 1019 -91 701 211 
Q 384 513 384 1019 
Q 384 1609 779 1909 
Q 1175 2209 1959 2209 
L 2766 2209 
L 2766 2266 
Q 2766 2663 2505 2880 
Q 2244 3097 1772 3097 
Q 1472 3097 1187 3025 
Q 903 2953 641 2809 
L 641 3341 
Q 956 3463 1253 3523 
Q 1550 3584 1831 3584 
Q 2591 3584 2966 3190 
Q 3341 2797 3341 1997 
z
" transform="scale(0.015625)"/>
      <path id="DejaVuSans-7a" d="M 353 3500 
L 3084 3500 
L 3084 2975 
L 922 459 
L 3084 459 
L 3084 0 
L 275 0 
L 275 525 
L 2438 3041 
L 353 3041 
L 353 3500 
z
" transform="scale(0.015625)"/>
      <path id="DejaVuSans-3d" d="M 678 2906 
L 4684 2906 
L 4684 2381 
L 678 2381 
L 678 2906 
z
M 678 1631 
L 4684 1631 
L 4684 1100 
L 678 1100 
L 678 1631 
z
" transform="scale(0.015625)"/>
      <path id="DejaVuSans-2e" d="M 684 794 
L 1344 794 
L 1344 0 
L 684 0 
L 684 794 
z
" transform="scale(0.015625)"/>
      <path id="DejaVuSans-70" d="M 1159 525 
L 1159 -1331 
L 581 -1331 
L 581 3500 
L 1159 3500 
L 1159 2969 
Q 1341 3281 1617 3432 
Q 1894 3584 2278 3584 
Q 2916 3584 3314 3078 
Q 3713 2572 3713 1747 
Q 3713 922 3314 415 
Q 2916 -91 2278 -91 
Q 1894 -91 1617 61 
Q 1341 213 1159 525 
z
M 3116 1747 
Q 3116 2381 2855 2742 
Q 2594 3103 2138 3103 
Q 1681 3103 1420 2742 
Q 1159 2381 1159 1747 
Q 1159 1113 1420 752 
Q 1681 391 2138 391 
Q 2594 391 2855 752 
Q 3116 1113 3116 1747 
z
" transform="scale(0.015625)"/>
      <path id="DejaVuSans-69" d="M 603 3500 
L 1178 3500 
L 1178 0 
L 603 0 
L 603 3500 
z
M 603 4863 
L 1178 4863 
L 1178 4134 
L 603 4134 
L 603 4863 
z
" transform="scale(0.015625)"/>
      <path id="DejaVuSans-20" transform="scale(0.015625)"/>
      <path id="DejaVuSans-64" d="M 2906 2969 
L 2906 4863 
L 3481 4863 
L 3481 0 
L 2906 0 
L 2906 525 
Q 2725 213 2448 61 
Q 2172 -91 1784 -91 
Q 1150 -91 751 415 
Q 353 922 353 1747 
Q 353 2572 751 3078 
Q 1150 3584 1784 3584 
Q 2172 3584 2448 3432 
Q 2725 3281 2906 2969 
z
M 947 1747 
Q 947 1113 1208 752 
Q 1469 391 1925 391 
Q 2381 391 2643 752 
Q 2906 1113 2906 1747 
Q 2906 2381 2643 2742 
Q 2381 3103 1925 3103 
Q 1469 3103 1208 2742 
Q 947 2381 947 1747 
z
" transform="scale(0.015625)"/>
      <path id="DejaVuSans-6f" d="M 1959 3097 
Q 1497 3097 1228 2736 
Q 959 2375 959 1747 
Q 959 1119 1226 758 
Q 1494 397 1959 397 
Q 2419 397 2687 759 
Q 2956 1122 2956 1747 
Q 2956 2369 2687 2733 
Q 2419 3097 1959 3097 
z
M 1959 3584 
Q 2709 3584 3137 3096 
Q 3566 2609 3566 1747 
Q 3566 888 3137 398 
Q 2709 -91 1959 -91 
Q 1206 -91 779 398 
Q 353 888 353 1747 
Q 353 2609 779 3096 
Q 1206 3584 1959 3584 
z
" transform="scale(0.015625)"/>
      <path id="DejaVuSans-74" d="M 1172 4494 
L 1172 3500 
L 2356 3500 
L 2356 3053 
L 1172 3053 
L 1172 1153 
Q 1172 725 1289 603 
Q 1406 481 1766 481 
L 2356 481 
L 2356 0 
L 1766 0 
Q 1100 0 847 248 
Q 594 497 594 1153 
L 594 3053 
L 172 3053 
L 172 3500 
L 594 3500 
L 594 4494 
L 1172 4494 
z
" transform="scale(0.015625)"/>
      <path id="DejaVuSans-6e" d="M 3513 2113 
L 3513 0 
L 2938 0 
L 2938 2094 
Q 2938 2591 2744 2837 
Q 2550 3084 2163 3084 
Q 1697 3084 1428 2787 
Q 1159 2491 1159 1978 
L 1159 0 
L 581 0 
L 581 3500 
L 1159 3500 
L 1159 2956 
Q 1366 3272 1645 3428 
Q 1925 3584 2291 3584 
Q 2894 3584 3203 3211 
Q 3513 2838 3513 2113 
z
" transform="scale(0.015625)"/>
      <path id="DejaVuSans-65" d="M 3597 1894 
L 3597 1613 
L 953 1613 
Q 991 1019 1311 708 
Q 1631 397 2203 397 
Q 2534 397 2845 478 
Q 3156 559 3463 722 
L 3463 178 
Q 3153 47 2828 -22 
Q 2503 -91 2169 -91 
Q 1331 -91 842 396 
Q 353 884 353 1716 
Q 353 2575 817 3079 
Q 1281 3584 2069 3584 
Q 2775 3584 3186 3129 
Q 3597 2675 3597 1894 
z
M 3022 2063 
Q 3016 2534 2758 2815 
Q 2500 3097 2075 3097 
Q 1594 3097 1305 2825 
Q 1016 2553 972 2059 
L 3022 2063 
z
" transform="scale(0.015625)"/>
     </defs>
     <use xlink:href="#DejaVuSans-66"/>
     <use xlink:href="#DejaVuSans-61" x="35.205078"/>
     <use xlink:href="#DejaVuSans-7a" x="96.484375"/>
     <use xlink:href="#DejaVuSans-61" x="148.974609"/>
     <use xlink:href="#DejaVuSans-3d" x="210.253906"/>
     <use xlink:href="#DejaVuSans-31" x="294.042969"/>
     <use xlink:href="#DejaVuSans-2e" x="357.666016"/>
     <use xlink:href="#DejaVuSans-32" x="389.453125"/>
     <use xlink:href="#DejaVuSans-70" x="453.076172"/>
     <use xlink:href="#DejaVuSans-69" x="516.552734"/>
     <use xlink:href="#DejaVuSans-20" x="544.335938"/>
     <use xlink:href="#DejaVuSans-64" x="576.123047"/>
     <use xlink:href="#DejaVuSans-6f" x="639.599609"/>
     <use xlink:href="#DejaVuSans-64" x="700.78125"/>
     <use xlink:href="#DejaVuSans-61" x="764.257812"/>
     <use xlink:href="#DejaVuSans-74" x="825.537109"/>
     <use xlink:href="#DejaVuSans-6e" x="864.746094"/>
     <use xlink:href="#DejaVuSans-69" x="928.125"/>
     <use xlink:href="#DejaVuSans-65" x="955.908203"/>
     <use xlink:href="#DejaVuSans-3d" x="1017.431641"/>
     <use xlink:href="#DejaVuSans-31" x="1101.220703"/>
     <use xlink:href="#DejaVuSans-32" x="1164.84375"/>
     <use xlink:href="#DejaVuSans-2e" x="1228.466797"/>
     <use xlink:href="#DejaVuSans-36" x="1260.253906"/>
     <use xlink:href="#DejaVuSans-36" x="1323.876953"/>
     <use xlink:href="#DejaVuSans-36" x="1387.5"/>
     <use xlink:href="#DejaVuSans-36" x="1451.123047"/>
     <use xlink:href="#DejaVuSans-36" x="1514.746094"/>
     <use xlink:href="#DejaVuSans-36" x="1578.369141"/>
     <use xlink:href="#DejaVuSans-36" x="1641.992188"/>
     <use xlink:href="#DejaVuSans-36" x="1705.615234"/>
     <use xlink:href="#DejaVuSans-36" x="1769.238281"/>
     <use xlink:href="#DejaVuSans-36" x="1832.861328"/>
     <use xlink:href="#DejaVuSans-36" x="1896.484375"/>
     <use xlink:href="#DejaVuSans-36" x="1960.107422"/>
     <use xlink:href="#DejaVuSans-36" x="2023.730469"/>
     <use xlink:href="#DejaVuSans-36" x="2087.353516"/>
     <use xlink:href="#DejaVuSans-36" x="2150.976562"/>
     <use xlink:href="#DejaVuSans-20" x="2214.599609"/>
    </g>
    <!-- ujemne=3.142857142857143 wynik=36.0 -->
    <g transform="translate(107.949375 35.472) scale(0.12 -0.12)">
     <defs>
      <path id="DejaVuSans-75" d="M 544 1381 
L 544 3500 
L 1119 3500 
L 1119 1403 
Q 1119 906 1312 657 
Q 1506 409 1894 409 
Q 2359 409 2629 706 
Q 2900 1003 2900 1516 
L 2900 3500 
L 3475 3500 
L 3475 0 
L 2900 0 
L 2900 538 
Q 2691 219 2414 64 
Q 2138 -91 1772 -91 
Q 1169 -91 856 284 
Q 544 659 544 1381 
z
M 1991 3584 
L 1991 3584 
z
" transform="scale(0.015625)"/>
      <path id="DejaVuSans-6a" d="M 603 3500 
L 1178 3500 
L 1178 -63 
Q 1178 -731 923 -1031 
Q 669 -1331 103 -1331 
L -116 -1331 
L -116 -844 
L 38 -844 
Q 366 -844 484 -692 
Q 603 -541 603 -63 
L 603 3500 
z
M 603 4863 
L 1178 4863 
L 1178 4134 
L 603 4134 
L 603 4863 
z
" transform="scale(0.015625)"/>
      <path id="DejaVuSans-6d" d="M 3328 2828 
Q 3544 3216 3844 3400 
Q 4144 3584 4550 3584 
Q 5097 3584 5394 3201 
Q 5691 2819 5691 2113 
L 5691 0 
L 5113 0 
L 5113 2094 
Q 5113 2597 4934 2840 
Q 4756 3084 4391 3084 
Q 3944 3084 3684 2787 
Q 3425 2491 3425 1978 
L 3425 0 
L 2847 0 
L 2847 2094 
Q 2847 2600 2669 2842 
Q 2491 3084 2119 3084 
Q 1678 3084 1418 2786 
Q 1159 2488 1159 1978 
L 1159 0 
L 581 0 
L 581 3500 
L 1159 3500 
L 1159 2956 
Q 1356 3278 1631 3431 
Q 1906 3584 2284 3584 
Q 2666 3584 2933 3390 
Q 3200 3197 3328 2828 
z
" transform="scale(0.015625)"/>
      <path id="DejaVuSans-33" d="M 2597 2516 
Q 3050 2419 3304 2112 
Q 3559 1806 3559 1356 
Q 3559 666 3084 287 
Q 2609 -91 1734 -91 
Q 1441 -91 1130 -33 
Q 819 25 488 141 
L 488 750 
Q 750 597 1062 519 
Q 1375 441 1716 441 
Q 2309 441 2620 675 
Q 2931 909 2931 1356 
Q 2931 1769 2642 2001 
Q 2353 2234 1838 2234 
L 1294 2234 
L 1294 2753 
L 1863 2753 
Q 2328 2753 2575 2939 
Q 2822 3125 2822 3475 
Q 2822 3834 2567 4026 
Q 2313 4219 1838 4219 
Q 1578 4219 1281 4162 
Q 984 4106 628 3988 
L 628 4550 
Q 988 4650 1302 4700 
Q 1616 4750 1894 4750 
Q 2613 4750 3031 4423 
Q 3450 4097 3450 3541 
Q 3450 3153 3228 2886 
Q 3006 2619 2597 2516 
z
" transform="scale(0.015625)"/>
      <path id="DejaVuSans-37" d="M 525 4666 
L 3525 4666 
L 3525 4397 
L 1831 0 
L 1172 0 
L 2766 4134 
L 525 4134 
L 525 4666 
z
" transform="scale(0.015625)"/>
      <path id="DejaVuSans-77" d="M 269 3500 
L 844 3500 
L 1563 769 
L 2278 3500 
L 2956 3500 
L 3675 769 
L 4391 3500 
L 4966 3500 
L 4050 0 
L 3372 0 
L 2619 2869 
L 1863 0 
L 1184 0 
L 269 3500 
z
" transform="scale(0.015625)"/>
      <path id="DejaVuSans-79" d="M 2059 -325 
Q 1816 -950 1584 -1140 
Q 1353 -1331 966 -1331 
L 506 -1331 
L 506 -850 
L 844 -850 
Q 1081 -850 1212 -737 
Q 1344 -625 1503 -206 
L 1606 56 
L 191 3500 
L 800 3500 
L 1894 763 
L 2988 3500 
L 3597 3500 
L 2059 -325 
z
" transform="scale(0.015625)"/>
      <path id="DejaVuSans-6b" d="M 581 4863 
L 1159 4863 
L 1159 1991 
L 2875 3500 
L 3609 3500 
L 1753 1863 
L 3688 0 
L 2938 0 
L 1159 1709 
L 1159 0 
L 581 0 
L 581 4863 
z
" transform="scale(0.015625)"/>
     </defs>
     <use xlink:href="#DejaVuSans-75"/>
     <use xlink:href="#DejaVuSans-6a" x="63.378906"/>
     <use xlink:href="#DejaVuSans-65" x="91.162109"/>
     <use xlink:href="#DejaVuSans-6d" x="152.685547"/>
     <use xlink:href="#DejaVuSans-6e" x="250.097656"/>
     <use xlink:href="#DejaVuSans-65" x="313.476562"/>
     <use xlink:href="#DejaVuSans-3d" x="375"/>
     <use xlink:href="#DejaVuSans-33" x="458.789062"/>
     <use xlink:href="#DejaVuSans-2e" x="522.412109"/>
     <use xlink:href="#DejaVuSans-31" x="554.199219"/>
     <use xlink:href="#DejaVuSans-34" x="617.822266"/>
     <use xlink:href="#DejaVuSans-32" x="681.445312"/>
     <use xlink:href="#DejaVuSans-38" x="745.068359"/>
     <use xlink:href="#DejaVuSans-35" x="808.691406"/>
     <use xlink:href="#DejaVuSans-37" x="872.314453"/>
     <use xlink:href="#DejaVuSans-31" x="935.9375"/>
     <use xlink:href="#DejaVuSans-34" x="999.560547"/>
     <use xlink:href="#DejaVuSans-32" x="1063.183594"/>
     <use xlink:href="#DejaVuSans-38" x="1126.806641"/>
     <use xlink:href="#DejaVuSans-35" x="1190.429688"/>
     <use xlink:href="#DejaVuSans-37" x="1254.052734"/>
     <use xlink:href="#DejaVuSans-31" x="1317.675781"/>
     <use xlink:href="#DejaVuSans-34" x="1381.298828"/>
     <use xlink:href="#DejaVuSans-33" x="1444.921875"/>
     <use xlink:href="#DejaVuSans-20" x="1508.544922"/>
     <use xlink:href="#DejaVuSans-77" x="1540.332031"/>
     <use xlink:href="#DejaVuSans-79" x="1622.119141"/>
     <use xlink:href="#DejaVuSans-6e" x="1681.298828"/>
     <use xlink:href="#DejaVuSans-69" x="1744.677734"/>
     <use xlink:href="#DejaVuSans-6b" x="1772.460938"/>
     <use xlink:href="#DejaVuSans-3d" x="1830.371094"/>
     <use xlink:href="#DejaVuSans-33" x="1914.160156"/>
     <use xlink:href="#DejaVuSans-36" x="1977.783203"/>
     <use xlink:href="#DejaVuSans-2e" x="2041.40625"/>
     <use xlink:href="#DejaVuSans-30" x="2073.193359"/>
    </g>
   </g>
  </g>
 </g>
 <defs>
  <clipPath id="pbbf607bd5a">
   <rect x="57.6" y="41.472" width="357.12" height="266.112"/>
  </clipPath>
 </defs>
</svg>
