<?xml version="1.0" encoding="utf-8" standalone="no"?>
<!DOCTYPE svg PUBLIC "-//W3C//DTD SVG 1.1//EN"
  "http://www.w3.org/Graphics/SVG/1.1/DTD/svg11.dtd">
<svg xmlns:xlink="http://www.w3.org/1999/xlink" width="460.8pt" height="345.6pt" viewBox="0 0 460.8 345.6" xmlns="http://www.w3.org/2000/svg" version="1.1">
 <metadata>
  <rdf:RDF xmlns:dc="http://purl.org/dc/elements/1.1/" xmlns:cc="http://creativecommons.org/ns#" xmlns:rdf="http://www.w3.org/1999/02/22-rdf-syntax-ns#">
   <cc:Work>
    <dc:type rdf:resource="http://purl.org/dc/dcmitype/StillImage"/>
    <dc:date>2023-11-19T21:43:53.956410</dc:date>
    <dc:format>image/svg+xml</dc:format>
    <dc:creator>
     <cc:Agent>
      <dc:title>Matplotlib v3.8.0, https://matplotlib.org/</dc:title>
     </cc:Agent>
    </dc:creator>
   </cc:Work>
  </rdf:RDF>
 </metadata>
 <defs>
  <style type="text/css">*{stroke-linejoin: round; stroke-linecap: butt}</style>
 </defs>
 <g id="figure_1">
  <g id="patch_1">
   <path d="M 0 345.6 
L 460.8 345.6 
L 460.8 0 
L 0 0 
z
" style="fill: #ffffff"/>
  </g>
  <g id="axes_1">
   <g id="patch_2">
    <path d="M 57.6 307.584 
L 414.72 307.584 
L 414.72 41.472 
L 57.6 41.472 
z
" style="fill: #ffffff"/>
   </g>
   <g id="matplotlib.axis_1">
    <g id="xtick_1">
     <g id="line2d_1">
      <path d="M 73.832727 307.584 
L 73.832727 41.472 
" clip-path="url(#pd6ff88c788)" style="fill: none; stroke: #b0b0b0; stroke-width: 0.8; stroke-linecap: square"/>
     </g>
     <g id="line2d_2">
      <defs>
       <path id="m61145b894c" d="M 0 0 
L 0 3.5 
" style="stroke: #000000; stroke-width: 0.8"/>
      </defs>
      <g>
       <use xlink:href="#m61145b894c" x="73.832727" y="307.584" style="stroke: #000000; stroke-width: 0.8"/>
      </g>
     </g>
     <g id="text_1">
      <!-- 0 -->
      <g transform="translate(70.651477 322.182437) scale(0.1 -0.1)">
       <defs>
        <path id="DejaVuSans-30" d="M 2034 4250 
Q 1547 4250 1301 3770 
Q 1056 3291 1056 2328 
Q 1056 1369 1301 889 
Q 1547 409 2034 409 
Q 2525 409 2770 889 
Q 3016 1369 3016 2328 
Q 3016 3291 2770 3770 
Q 2525 4250 2034 4250 
z
M 2034 4750 
Q 2819 4750 3233 4129 
Q 3647 3509 3647 2328 
Q 3647 1150 3233 529 
Q 2819 -91 2034 -91 
Q 1250 -91 836 529 
Q 422 1150 422 2328 
Q 422 3509 836 4129 
Q 1250 4750 2034 4750 
z
" transform="scale(0.015625)"/>
       </defs>
       <use xlink:href="#DejaVuSans-30"/>
      </g>
     </g>
    </g>
    <g id="xtick_2">
     <g id="line2d_3">
      <path d="M 146.95312 307.584 
L 146.95312 41.472 
" clip-path="url(#pd6ff88c788)" style="fill: none; stroke: #b0b0b0; stroke-width: 0.8; stroke-linecap: square"/>
     </g>
     <g id="line2d_4">
      <g>
       <use xlink:href="#m61145b894c" x="146.95312" y="307.584" style="stroke: #000000; stroke-width: 0.8"/>
      </g>
     </g>
     <g id="text_2">
      <!-- 50 -->
      <g transform="translate(140.59062 322.182437) scale(0.1 -0.1)">
       <defs>
        <path id="DejaVuSans-35" d="M 691 4666 
L 3169 4666 
L 3169 4134 
L 1269 4134 
L 1269 2991 
Q 1406 3038 1543 3061 
Q 1681 3084 1819 3084 
Q 2600 3084 3056 2656 
Q 3513 2228 3513 1497 
Q 3513 744 3044 326 
Q 2575 -91 1722 -91 
Q 1428 -91 1123 -41 
Q 819 9 494 109 
L 494 744 
Q 775 591 1075 516 
Q 1375 441 1709 441 
Q 2250 441 2565 725 
Q 2881 1009 2881 1497 
Q 2881 1984 2565 2268 
Q 2250 2553 1709 2553 
Q 1456 2553 1204 2497 
Q 953 2441 691 2322 
L 691 4666 
z
" transform="scale(0.015625)"/>
       </defs>
       <use xlink:href="#DejaVuSans-35"/>
       <use xlink:href="#DejaVuSans-30" x="63.623047"/>
      </g>
     </g>
    </g>
    <g id="xtick_3">
     <g id="line2d_5">
      <path d="M 220.073514 307.584 
L 220.073514 41.472 
" clip-path="url(#pd6ff88c788)" style="fill: none; stroke: #b0b0b0; stroke-width: 0.8; stroke-linecap: square"/>
     </g>
     <g id="line2d_6">
      <g>
       <use xlink:href="#m61145b894c" x="220.073514" y="307.584" style="stroke: #000000; stroke-width: 0.8"/>
      </g>
     </g>
     <g id="text_3">
      <!-- 100 -->
      <g transform="translate(210.529764 322.182437) scale(0.1 -0.1)">
       <defs>
        <path id="DejaVuSans-31" d="M 794 531 
L 1825 531 
L 1825 4091 
L 703 3866 
L 703 4441 
L 1819 4666 
L 2450 4666 
L 2450 531 
L 3481 531 
L 3481 0 
L 794 0 
L 794 531 
z
" transform="scale(0.015625)"/>
       </defs>
       <use xlink:href="#DejaVuSans-31"/>
       <use xlink:href="#DejaVuSans-30" x="63.623047"/>
       <use xlink:href="#DejaVuSans-30" x="127.246094"/>
      </g>
     </g>
    </g>
    <g id="xtick_4">
     <g id="line2d_7">
      <path d="M 293.193907 307.584 
L 293.193907 41.472 
" clip-path="url(#pd6ff88c788)" style="fill: none; stroke: #b0b0b0; stroke-width: 0.8; stroke-linecap: square"/>
     </g>
     <g id="line2d_8">
      <g>
       <use xlink:href="#m61145b894c" x="293.193907" y="307.584" style="stroke: #000000; stroke-width: 0.8"/>
      </g>
     </g>
     <g id="text_4">
      <!-- 150 -->
      <g transform="translate(283.650157 322.182437) scale(0.1 -0.1)">
       <use xlink:href="#DejaVuSans-31"/>
       <use xlink:href="#DejaVuSans-35" x="63.623047"/>
       <use xlink:href="#DejaVuSans-30" x="127.246094"/>
      </g>
     </g>
    </g>
    <g id="xtick_5">
     <g id="line2d_9">
      <path d="M 366.3143 307.584 
L 366.3143 41.472 
" clip-path="url(#pd6ff88c788)" style="fill: none; stroke: #b0b0b0; stroke-width: 0.8; stroke-linecap: square"/>
     </g>
     <g id="line2d_10">
      <g>
       <use xlink:href="#m61145b894c" x="366.3143" y="307.584" style="stroke: #000000; stroke-width: 0.8"/>
      </g>
     </g>
     <g id="text_5">
      <!-- 200 -->
      <g transform="translate(356.77055 322.182437) scale(0.1 -0.1)">
       <defs>
        <path id="DejaVuSans-32" d="M 1228 531 
L 3431 531 
L 3431 0 
L 469 0 
L 469 531 
Q 828 903 1448 1529 
Q 2069 2156 2228 2338 
Q 2531 2678 2651 2914 
Q 2772 3150 2772 3378 
Q 2772 3750 2511 3984 
Q 2250 4219 1831 4219 
Q 1534 4219 1204 4116 
Q 875 4013 500 3803 
L 500 4441 
Q 881 4594 1212 4672 
Q 1544 4750 1819 4750 
Q 2544 4750 2975 4387 
Q 3406 4025 3406 3419 
Q 3406 3131 3298 2873 
Q 3191 2616 2906 2266 
Q 2828 2175 2409 1742 
Q 1991 1309 1228 531 
z
" transform="scale(0.015625)"/>
       </defs>
       <use xlink:href="#DejaVuSans-32"/>
       <use xlink:href="#DejaVuSans-30" x="63.623047"/>
       <use xlink:href="#DejaVuSans-30" x="127.246094"/>
      </g>
     </g>
    </g>
   </g>
   <g id="matplotlib.axis_2">
    <g id="ytick_1">
     <g id="line2d_11">
      <path d="M 57.6 301.292576 
L 414.72 301.292576 
" clip-path="url(#pd6ff88c788)" style="fill: none; stroke: #b0b0b0; stroke-width: 0.8; stroke-linecap: square"/>
     </g>
     <g id="line2d_12">
      <defs>
       <path id="m2291bb8169" d="M 0 0 
L -3.5 0 
" style="stroke: #000000; stroke-width: 0.8"/>
      </defs>
      <g>
       <use xlink:href="#m2291bb8169" x="57.6" y="301.292576" style="stroke: #000000; stroke-width: 0.8"/>
      </g>
     </g>
     <g id="text_6">
      <!-- −150 -->
      <g transform="translate(23.132812 305.091795) scale(0.1 -0.1)">
       <defs>
        <path id="DejaVuSans-2212" d="M 678 2272 
L 4684 2272 
L 4684 1741 
L 678 1741 
L 678 2272 
z
" transform="scale(0.015625)"/>
       </defs>
       <use xlink:href="#DejaVuSans-2212"/>
       <use xlink:href="#DejaVuSans-31" x="83.789062"/>
       <use xlink:href="#DejaVuSans-35" x="147.412109"/>
       <use xlink:href="#DejaVuSans-30" x="211.035156"/>
      </g>
     </g>
    </g>
    <g id="ytick_2">
     <g id="line2d_13">
      <path d="M 57.6 252.921107 
L 414.72 252.921107 
" clip-path="url(#pd6ff88c788)" style="fill: none; stroke: #b0b0b0; stroke-width: 0.8; stroke-linecap: square"/>
     </g>
     <g id="line2d_14">
      <g>
       <use xlink:href="#m2291bb8169" x="57.6" y="252.921107" style="stroke: #000000; stroke-width: 0.8"/>
      </g>
     </g>
     <g id="text_7">
      <!-- −100 -->
      <g transform="translate(23.132812 256.720326) scale(0.1 -0.1)">
       <use xlink:href="#DejaVuSans-2212"/>
       <use xlink:href="#DejaVuSans-31" x="83.789062"/>
       <use xlink:href="#DejaVuSans-30" x="147.412109"/>
       <use xlink:href="#DejaVuSans-30" x="211.035156"/>
      </g>
     </g>
    </g>
    <g id="ytick_3">
     <g id="line2d_15">
      <path d="M 57.6 204.549637 
L 414.72 204.549637 
" clip-path="url(#pd6ff88c788)" style="fill: none; stroke: #b0b0b0; stroke-width: 0.8; stroke-linecap: square"/>
     </g>
     <g id="line2d_16">
      <g>
       <use xlink:href="#m2291bb8169" x="57.6" y="204.549637" style="stroke: #000000; stroke-width: 0.8"/>
      </g>
     </g>
     <g id="text_8">
      <!-- −50 -->
      <g transform="translate(29.495313 208.348856) scale(0.1 -0.1)">
       <use xlink:href="#DejaVuSans-2212"/>
       <use xlink:href="#DejaVuSans-35" x="83.789062"/>
       <use xlink:href="#DejaVuSans-30" x="147.412109"/>
      </g>
     </g>
    </g>
    <g id="ytick_4">
     <g id="line2d_17">
      <path d="M 57.6 156.178168 
L 414.72 156.178168 
" clip-path="url(#pd6ff88c788)" style="fill: none; stroke: #b0b0b0; stroke-width: 0.8; stroke-linecap: square"/>
     </g>
     <g id="line2d_18">
      <g>
       <use xlink:href="#m2291bb8169" x="57.6" y="156.178168" style="stroke: #000000; stroke-width: 0.8"/>
      </g>
     </g>
     <g id="text_9">
      <!-- 0 -->
      <g transform="translate(44.2375 159.977387) scale(0.1 -0.1)">
       <use xlink:href="#DejaVuSans-30"/>
      </g>
     </g>
    </g>
    <g id="ytick_5">
     <g id="line2d_19">
      <path d="M 57.6 107.806698 
L 414.72 107.806698 
" clip-path="url(#pd6ff88c788)" style="fill: none; stroke: #b0b0b0; stroke-width: 0.8; stroke-linecap: square"/>
     </g>
     <g id="line2d_20">
      <g>
       <use xlink:href="#m2291bb8169" x="57.6" y="107.806698" style="stroke: #000000; stroke-width: 0.8"/>
      </g>
     </g>
     <g id="text_10">
      <!-- 50 -->
      <g transform="translate(37.875 111.605917) scale(0.1 -0.1)">
       <use xlink:href="#DejaVuSans-35"/>
       <use xlink:href="#DejaVuSans-30" x="63.623047"/>
      </g>
     </g>
    </g>
    <g id="ytick_6">
     <g id="line2d_21">
      <path d="M 57.6 59.435229 
L 414.72 59.435229 
" clip-path="url(#pd6ff88c788)" style="fill: none; stroke: #b0b0b0; stroke-width: 0.8; stroke-linecap: square"/>
     </g>
     <g id="line2d_22">
      <g>
       <use xlink:href="#m2291bb8169" x="57.6" y="59.435229" style="stroke: #000000; stroke-width: 0.8"/>
      </g>
     </g>
     <g id="text_11">
      <!-- 100 -->
      <g transform="translate(31.5125 63.234448) scale(0.1 -0.1)">
       <use xlink:href="#DejaVuSans-31"/>
       <use xlink:href="#DejaVuSans-30" x="63.623047"/>
       <use xlink:href="#DejaVuSans-30" x="127.246094"/>
      </g>
     </g>
    </g>
   </g>
   <g id="line2d_23">
    <path d="M 73.832727 121.35071 
L 103.080885 121.35071 
L 104.543292 295.488 
L 111.855332 295.488 
L 113.31774 121.35071 
L 148.415528 121.35071 
L 149.877936 295.488 
L 157.189975 295.488 
L 158.652383 121.35071 
L 193.750172 121.35071 
L 195.21258 295.488 
L 203.987027 295.488 
L 205.449435 121.35071 
L 240.547224 121.35071 
L 242.009631 295.488 
L 249.321671 295.488 
L 250.784079 121.35071 
L 285.881867 121.35071 
L 287.344275 295.488 
L 296.118722 295.488 
L 297.58113 121.35071 
L 332.678919 121.35071 
L 334.141327 295.488 
L 341.453366 295.488 
L 342.915774 121.35071 
L 378.013563 121.35071 
L 379.475971 295.488 
L 386.78801 295.488 
L 388.250418 121.35071 
L 398.487273 121.35071 
L 398.487273 121.35071 
" clip-path="url(#pd6ff88c788)" style="fill: none; stroke: #1f77b4; stroke-width: 1.5; stroke-linecap: square"/>
   </g>
   <g id="line2d_24">
    <path d="M 73.832727 190.765626 
L 76.757543 209.268915 
L 79.682359 225.655644 
L 81.144767 232.84711 
L 82.607174 239.272526 
L 84.069582 244.86769 
L 85.53199 249.576697 
L 86.994398 253.352498 
L 88.456806 256.157364 
L 89.919214 257.963272 
L 91.381622 258.752176 
L 92.844029 258.516195 
L 94.306437 257.257686 
L 95.768845 254.989224 
L 97.231253 251.733474 
L 98.693661 247.522968 
L 100.156069 242.399774 
L 101.618477 236.415083 
L 103.080885 229.628691 
L 104.543292 222.108405 
L 107.468108 205.173297 
L 110.392924 186.284908 
L 114.780147 155.951104 
L 119.167371 125.637583 
L 122.092187 106.784504 
L 125.017002 89.900594 
L 126.47941 82.411251 
L 127.941818 75.658962 
L 129.404226 69.711195 
L 130.866634 64.627377 
L 132.329042 60.458305 
L 133.79145 57.245633 
L 135.253857 55.021463 
L 136.716265 53.808017 
L 138.178673 53.61742 
L 139.641081 54.451576 
L 141.103489 56.30215 
L 142.565897 59.150653 
L 144.028305 62.968622 
L 145.490713 67.717911 
L 146.95312 73.351065 
L 148.415528 79.8118 
L 149.877936 87.035563 
L 151.340344 94.950175 
L 154.26516 112.529517 
L 157.189975 131.848993 
L 167.42683 201.789313 
L 170.351646 219.141198 
L 171.814054 226.915464 
L 173.276462 233.982947 
L 174.73887 240.27303 
L 176.201278 245.722864 
L 177.663686 250.277998 
L 179.126093 253.892917 
L 180.588501 256.531503 
L 182.050909 258.167391 
L 183.513317 258.784237 
L 184.975725 258.375877 
L 186.438133 256.946391 
L 187.900541 254.510063 
L 189.362948 251.091234 
L 190.825356 246.724066 
L 192.287764 241.452193 
L 193.750172 235.32829 
L 195.21258 228.413545 
L 196.674988 220.777048 
L 199.599803 203.650453 
L 202.524619 184.631288 
L 208.374251 143.993406 
L 212.761474 114.428436 
L 215.68629 96.638588 
L 217.148698 88.592846 
L 218.611106 81.222394 
L 220.073514 74.600876 
L 221.535921 68.794451 
L 222.998329 63.861135 
L 224.460737 59.850221 
L 225.923145 56.801783 
L 227.385553 54.746282 
L 228.847961 53.704254 
L 230.310369 53.686112 
L 231.772776 54.692037 
L 233.235184 56.711977 
L 234.697592 59.725751 
L 236.16 63.703246 
L 237.622408 68.604719 
L 239.084816 74.381197 
L 240.547224 80.974964 
L 242.009631 88.320136 
L 244.934447 104.96436 
L 247.859263 123.650317 
L 252.246486 153.862928 
L 256.63371 184.282352 
L 259.558526 203.328347 
L 262.483342 220.494613 
L 263.945749 228.155285 
L 265.408157 235.096786 
L 266.870565 241.249758 
L 268.332973 246.552722 
L 269.795381 250.952694 
L 271.257789 254.40571 
L 272.720197 256.877269 
L 274.182604 258.342676 
L 275.645012 258.787289 
L 277.10742 258.206666 
L 278.569828 256.606607 
L 280.032236 254.003101 
L 281.494644 250.42216 
L 282.957052 245.899565 
L 284.419459 240.480503 
L 285.881867 234.219119 
L 287.344275 227.177977 
L 288.806683 219.427428 
L 291.731499 202.114188 
L 294.656314 182.969624 
L 304.89317 112.858304 
L 307.817985 95.241848 
L 309.280393 87.304206 
L 310.742801 80.054729 
L 312.205209 73.565854 
L 313.667617 67.902413 
L 315.130025 63.120994 
L 316.592432 59.269372 
L 318.05484 56.38603 
L 319.517248 54.499779 
L 320.979656 53.629464 
L 322.442064 53.783782 
L 323.904472 54.961191 
L 325.36688 57.149926 
L 326.829287 60.328119 
L 328.291695 64.464014 
L 329.754103 69.516287 
L 331.216511 75.434456 
L 332.678919 82.15939 
L 334.141327 89.623895 
L 337.066143 106.466642 
L 339.990958 125.291232 
L 344.378182 155.588113 
L 348.765405 185.937703 
L 351.690221 204.85405 
L 354.615037 221.829844 
L 356.077445 229.374756 
L 357.539853 236.188312 
L 359.00226 242.202433 
L 360.464668 247.357029 
L 361.927076 251.600595 
L 363.389484 254.890732 
L 364.851892 257.194565 
L 366.3143 258.489076 
L 367.776708 258.76133 
L 369.239115 258.008608 
L 370.701523 256.238429 
L 372.163931 253.468481 
L 373.626339 249.72644 
L 375.088747 245.049696 
L 376.551155 239.484977 
L 378.013563 233.087884 
L 379.475971 225.922335 
L 380.938378 218.059925 
L 383.863194 200.564935 
L 386.78801 181.300385 
L 397.024865 111.300421 
L 398.487273 102.312273 
L 398.487273 102.312273 
" clip-path="url(#pd6ff88c788)" style="fill: none; stroke: #ff7f0e; stroke-width: 1.5; stroke-linecap: square"/>
   </g>
   <g id="line2d_25">
    <path d="M 73.832727 184.980165 
L 79.682359 144.354213 
L 84.069582 114.760569 
L 86.994398 96.93485 
L 88.456806 88.866635 
L 89.919214 81.470975 
L 91.381622 74.821764 
L 92.844029 68.98544 
L 94.306437 64.020316 
L 95.768845 59.976004 
L 97.231253 56.892911 
L 98.693661 54.801844 
L 100.156069 53.723696 
L 101.618477 53.669239 
L 103.080885 54.639017 
L 104.543292 56.623341 
L 106.0057 59.602384 
L 107.468108 63.54638 
L 108.930516 68.415923 
L 110.392924 74.162356 
L 111.855332 80.728265 
L 113.31774 88.048044 
L 116.242555 104.649865 
L 119.167371 123.305956 
L 123.554595 153.499733 
L 127.941818 183.932766 
L 130.866634 203.005375 
L 133.79145 220.211131 
L 135.253857 227.895903 
L 136.716265 234.864095 
L 138.178673 241.046084 
L 139.641081 246.3801 
L 141.103489 250.812848 
L 142.565897 254.300038 
L 144.028305 256.806826 
L 145.490713 258.308167 
L 146.95312 258.789058 
L 148.415528 258.244695 
L 149.877936 256.680517 
L 151.340344 254.112152 
L 152.802752 250.565264 
L 154.26516 246.075291 
L 155.727568 240.687096 
L 157.189975 234.454515 
L 158.652383 227.439823 
L 160.114791 219.713109 
L 163.039607 202.438764 
L 165.964423 183.320156 
L 176.201278 113.187915 
L 179.126093 95.534532 
L 180.588501 87.573941 
L 182.050909 80.29882 
L 183.513317 73.781861 
L 184.975725 68.088178 
L 186.438133 63.274661 
L 187.900541 59.389406 
L 189.362948 56.471232 
L 190.825356 54.549296 
L 192.287764 53.642803 
L 193.750172 53.760809 
L 195.21258 54.902136 
L 196.674988 57.055379 
L 198.137396 60.199024 
L 199.599803 64.301661 
L 201.062211 69.322298 
L 202.524619 75.21077 
L 203.987027 81.908242 
L 205.449435 89.347794 
L 208.374251 106.149133 
L 211.299066 124.944973 
L 215.68629 155.224821 
L 220.073514 185.589829 
L 222.998329 204.533921 
L 225.923145 221.550222 
L 227.385553 229.119688 
L 228.847961 235.960346 
L 230.310369 242.003847 
L 231.772776 247.189806 
L 233.235184 251.466406 
L 234.697592 254.790919 
L 236.16 257.130125 
L 237.622408 258.460652 
L 239.084816 258.769207 
L 240.547224 258.052706 
L 242.009631 256.318309 
L 243.472039 253.583344 
L 244.934447 249.875139 
L 246.396855 245.230745 
L 247.859263 239.696566 
L 249.321671 233.3279 
L 250.784079 226.188379 
L 252.246486 218.349339 
L 255.171302 200.89221 
L 258.096118 181.652472 
L 268.332973 111.627415 
L 271.257789 94.15136 
L 272.720197 86.300643 
L 274.182604 79.148118 
L 275.645012 72.765253 
L 277.10742 67.215822 
L 278.569828 62.555273 
L 280.032236 58.830173 
L 281.494644 56.077742 
L 282.957052 54.325481 
L 284.419459 53.590899 
L 285.881867 53.881335 
L 287.344275 55.193887 
L 288.806683 57.515441 
L 290.269091 60.8228 
L 291.731499 65.082918 
L 293.193907 70.25323 
L 294.656314 76.282076 
L 296.118722 83.109216 
L 297.58113 90.666438 
L 300.505946 107.662546 
L 303.430762 126.59282 
L 307.817985 156.950179 
L 312.205209 187.238577 
L 315.130025 206.048796 
L 318.05484 222.870831 
L 319.517248 230.32285 
L 320.979656 237.03404 
L 322.442064 242.937344 
L 323.904472 247.97378 
L 325.36688 252.093024 
L 326.829287 255.253919 
L 328.291695 257.424881 
L 329.754103 258.58422 
L 331.216511 258.720352 
L 332.678919 257.831915 
L 334.141327 255.927789 
L 335.603735 253.026997 
L 337.066143 249.158523 
L 338.52855 244.36102 
L 339.990958 238.682424 
L 341.453366 232.179472 
L 342.915774 224.917141 
L 345.84059 208.411451 
L 348.765405 189.823386 
L 353.152629 159.673353 
L 357.539853 129.211105 
L 360.464668 110.079511 
L 363.389484 92.785725 
L 364.851892 85.047101 
L 366.3143 78.019195 
L 367.776708 71.772228 
L 369.239115 66.368617 
L 370.701523 61.862354 
L 372.163931 58.298463 
L 373.626339 55.712553 
L 375.088747 54.130463 
L 376.551155 53.568 
L 378.013563 54.030784 
L 379.475971 55.51419 
L 380.938378 58.003398 
L 382.400786 61.473535 
L 383.863194 65.88993 
L 385.325602 71.208455 
L 386.78801 77.37597 
L 388.250418 84.33085 
L 389.712826 92.003604 
L 392.637641 109.189676 
L 395.562457 128.249031 
L 398.487273 148.421832 
L 398.487273 148.421832 
" clip-path="url(#pd6ff88c788)" style="fill: none; stroke: #2ca02c; stroke-width: 1.5; stroke-linecap: square"/>
   </g>
   <g id="patch_3">
    <path d="M 57.6 307.584 
L 57.6 41.472 
" style="fill: none; stroke: #000000; stroke-width: 0.8; stroke-linejoin: miter; stroke-linecap: square"/>
   </g>
   <g id="patch_4">
    <path d="M 414.72 307.584 
L 414.72 41.472 
" style="fill: none; stroke: #000000; stroke-width: 0.8; stroke-linejoin: miter; stroke-linecap: square"/>
   </g>
   <g id="patch_5">
    <path d="M 57.6 307.584 
L 414.72 307.584 
" style="fill: none; stroke: #000000; stroke-width: 0.8; stroke-linejoin: miter; stroke-linecap: square"/>
   </g>
   <g id="patch_6">
    <path d="M 57.6 41.472 
L 414.72 41.472 
" style="fill: none; stroke: #000000; stroke-width: 0.8; stroke-linejoin: miter; stroke-linecap: square"/>
   </g>
   <g id="text_12">
    <!-- faza=1.2pi wynik=-144.0 -->
    <g transform="translate(159.82125 35.472) scale(0.12 -0.12)">
     <defs>
      <path id="DejaVuSans-66" d="M 2375 4863 
L 2375 4384 
L 1825 4384 
Q 1516 4384 1395 4259 
Q 1275 4134 1275 3809 
L 1275 3500 
L 2222 3500 
L 2222 3053 
L 1275 3053 
L 1275 0 
L 697 0 
L 697 3053 
L 147 3053 
L 147 3500 
L 697 3500 
L 697 3744 
Q 697 4328 969 4595 
Q 1241 4863 1831 4863 
L 2375 4863 
z
" transform="scale(0.015625)"/>
      <path id="DejaVuSans-61" d="M 2194 1759 
Q 1497 1759 1228 1600 
Q 959 1441 959 1056 
Q 959 750 1161 570 
Q 1363 391 1709 391 
Q 2188 391 2477 730 
Q 2766 1069 2766 1631 
L 2766 1759 
L 2194 1759 
z
M 3341 1997 
L 3341 0 
L 2766 0 
L 2766 531 
Q 2569 213 2275 61 
Q 1981 -91 1556 -91 
Q 1019 -91 701 211 
Q 384 513 384 1019 
Q 384 1609 779 1909 
Q 1175 2209 1959 2209 
L 2766 2209 
L 2766 2266 
Q 2766 2663 2505 2880 
Q 2244 3097 1772 3097 
Q 1472 3097 1187 3025 
Q 903 2953 641 2809 
L 641 3341 
Q 956 3463 1253 3523 
Q 1550 3584 1831 3584 
Q 2591 3584 2966 3190 
Q 3341 2797 3341 1997 
z
" transform="scale(0.015625)"/>
      <path id="DejaVuSans-7a" d="M 353 3500 
L 3084 3500 
L 3084 2975 
L 922 459 
L 3084 459 
L 3084 0 
L 275 0 
L 275 525 
L 2438 3041 
L 353 3041 
L 353 3500 
z
" transform="scale(0.015625)"/>
      <path id="DejaVuSans-3d" d="M 678 2906 
L 4684 2906 
L 4684 2381 
L 678 2381 
L 678 2906 
z
M 678 1631 
L 4684 1631 
L 4684 1100 
L 678 1100 
L 678 1631 
z
" transform="scale(0.015625)"/>
      <path id="DejaVuSans-2e" d="M 684 794 
L 1344 794 
L 1344 0 
L 684 0 
L 684 794 
z
" transform="scale(0.015625)"/>
      <path id="DejaVuSans-70" d="M 1159 525 
L 1159 -1331 
L 581 -1331 
L 581 3500 
L 1159 3500 
L 1159 2969 
Q 1341 3281 1617 3432 
Q 1894 3584 2278 3584 
Q 2916 3584 3314 3078 
Q 3713 2572 3713 1747 
Q 3713 922 3314 415 
Q 2916 -91 2278 -91 
Q 1894 -91 1617 61 
Q 1341 213 1159 525 
z
M 3116 1747 
Q 3116 2381 2855 2742 
Q 2594 3103 2138 3103 
Q 1681 3103 1420 2742 
Q 1159 2381 1159 1747 
Q 1159 1113 1420 752 
Q 1681 391 2138 391 
Q 2594 391 2855 752 
Q 3116 1113 3116 1747 
z
" transform="scale(0.015625)"/>
      <path id="DejaVuSans-69" d="M 603 3500 
L 1178 3500 
L 1178 0 
L 603 0 
L 603 3500 
z
M 603 4863 
L 1178 4863 
L 1178 4134 
L 603 4134 
L 603 4863 
z
" transform="scale(0.015625)"/>
      <path id="DejaVuSans-20" transform="scale(0.015625)"/>
      <path id="DejaVuSans-77" d="M 269 3500 
L 844 3500 
L 1563 769 
L 2278 3500 
L 2956 3500 
L 3675 769 
L 4391 3500 
L 4966 3500 
L 4050 0 
L 3372 0 
L 2619 2869 
L 1863 0 
L 1184 0 
L 269 3500 
z
" transform="scale(0.015625)"/>
      <path id="DejaVuSans-79" d="M 2059 -325 
Q 1816 -950 1584 -1140 
Q 1353 -1331 966 -1331 
L 506 -1331 
L 506 -850 
L 844 -850 
Q 1081 -850 1212 -737 
Q 1344 -625 1503 -206 
L 1606 56 
L 191 3500 
L 800 3500 
L 1894 763 
L 2988 3500 
L 3597 3500 
L 2059 -325 
z
" transform="scale(0.015625)"/>
      <path id="DejaVuSans-6e" d="M 3513 2113 
L 3513 0 
L 2938 0 
L 2938 2094 
Q 2938 2591 2744 2837 
Q 2550 3084 2163 3084 
Q 1697 3084 1428 2787 
Q 1159 2491 1159 1978 
L 1159 0 
L 581 0 
L 581 3500 
L 1159 3500 
L 1159 2956 
Q 1366 3272 1645 3428 
Q 1925 3584 2291 3584 
Q 2894 3584 3203 3211 
Q 3513 2838 3513 2113 
z
" transform="scale(0.015625)"/>
      <path id="DejaVuSans-6b" d="M 581 4863 
L 1159 4863 
L 1159 1991 
L 2875 3500 
L 3609 3500 
L 1753 1863 
L 3688 0 
L 2938 0 
L 1159 1709 
L 1159 0 
L 581 0 
L 581 4863 
z
" transform="scale(0.015625)"/>
      <path id="DejaVuSans-2d" d="M 313 2009 
L 1997 2009 
L 1997 1497 
L 313 1497 
L 313 2009 
z
" transform="scale(0.015625)"/>
      <path id="DejaVuSans-34" d="M 2419 4116 
L 825 1625 
L 2419 1625 
L 2419 4116 
z
M 2253 4666 
L 3047 4666 
L 3047 1625 
L 3713 1625 
L 3713 1100 
L 3047 1100 
L 3047 0 
L 2419 0 
L 2419 1100 
L 313 1100 
L 313 1709 
L 2253 4666 
z
" transform="scale(0.015625)"/>
     </defs>
     <use xlink:href="#DejaVuSans-66"/>
     <use xlink:href="#DejaVuSans-61" x="35.205078"/>
     <use xlink:href="#DejaVuSans-7a" x="96.484375"/>
     <use xlink:href="#DejaVuSans-61" x="148.974609"/>
     <use xlink:href="#DejaVuSans-3d" x="210.253906"/>
     <use xlink:href="#DejaVuSans-31" x="294.042969"/>
     <use xlink:href="#DejaVuSans-2e" x="357.666016"/>
     <use xlink:href="#DejaVuSans-32" x="389.453125"/>
     <use xlink:href="#DejaVuSans-70" x="453.076172"/>
     <use xlink:href="#DejaVuSans-69" x="516.552734"/>
     <use xlink:href="#DejaVuSans-20" x="544.335938"/>
     <use xlink:href="#DejaVuSans-77" x="576.123047"/>
     <use xlink:href="#DejaVuSans-79" x="657.910156"/>
     <use xlink:href="#DejaVuSans-6e" x="717.089844"/>
     <use xlink:href="#DejaVuSans-69" x="780.46875"/>
     <use xlink:href="#DejaVuSans-6b" x="808.251953"/>
     <use xlink:href="#DejaVuSans-3d" x="866.162109"/>
     <use xlink:href="#DejaVuSans-2d" x="949.951172"/>
     <use xlink:href="#DejaVuSans-31" x="986.035156"/>
     <use xlink:href="#DejaVuSans-34" x="1049.658203"/>
     <use xlink:href="#DejaVuSans-34" x="1113.28125"/>
     <use xlink:href="#DejaVuSans-2e" x="1176.904297"/>
     <use xlink:href="#DejaVuSans-30" x="1208.691406"/>
    </g>
   </g>
  </g>
 </g>
 <defs>
  <clipPath id="pd6ff88c788">
   <rect x="57.6" y="41.472" width="357.12" height="266.112"/>
  </clipPath>
 </defs>
</svg>
