<?xml version="1.0" encoding="utf-8" standalone="no"?>
<!DOCTYPE svg PUBLIC "-//W3C//DTD SVG 1.1//EN"
  "http://www.w3.org/Graphics/SVG/1.1/DTD/svg11.dtd">
<svg xmlns:xlink="http://www.w3.org/1999/xlink" width="460.8pt" height="345.6pt" viewBox="0 0 460.8 345.6" xmlns="http://www.w3.org/2000/svg" version="1.1">
 <metadata>
  <rdf:RDF xmlns:dc="http://purl.org/dc/elements/1.1/" xmlns:cc="http://creativecommons.org/ns#" xmlns:rdf="http://www.w3.org/1999/02/22-rdf-syntax-ns#">
   <cc:Work>
    <dc:type rdf:resource="http://purl.org/dc/dcmitype/StillImage"/>
    <dc:date>2023-11-19T21:44:15.335687</dc:date>
    <dc:format>image/svg+xml</dc:format>
    <dc:creator>
     <cc:Agent>
      <dc:title>Matplotlib v3.8.0, https://matplotlib.org/</dc:title>
     </cc:Agent>
    </dc:creator>
   </cc:Work>
  </rdf:RDF>
 </metadata>
 <defs>
  <style type="text/css">*{stroke-linejoin: round; stroke-linecap: butt}</style>
 </defs>
 <g id="figure_1">
  <g id="patch_1">
   <path d="M 0 345.6 
L 460.8 345.6 
L 460.8 0 
L 0 0 
z
" style="fill: #ffffff"/>
  </g>
  <g id="axes_1">
   <g id="patch_2">
    <path d="M 57.6 307.584 
L 414.72 307.584 
L 414.72 41.472 
L 57.6 41.472 
z
" style="fill: #ffffff"/>
   </g>
   <g id="matplotlib.axis_1">
    <g id="xtick_1">
     <g id="line2d_1">
      <path d="M 73.832727 307.584 
L 73.832727 41.472 
" clip-path="url(#p57aec03c18)" style="fill: none; stroke: #b0b0b0; stroke-width: 0.8; stroke-linecap: square"/>
     </g>
     <g id="line2d_2">
      <defs>
       <path id="mfd7921b076" d="M 0 0 
L 0 3.5 
" style="stroke: #000000; stroke-width: 0.8"/>
      </defs>
      <g>
       <use xlink:href="#mfd7921b076" x="73.832727" y="307.584" style="stroke: #000000; stroke-width: 0.8"/>
      </g>
     </g>
     <g id="text_1">
      <!-- 0 -->
      <g transform="translate(70.651477 322.182437) scale(0.1 -0.1)">
       <defs>
        <path id="DejaVuSans-30" d="M 2034 4250 
Q 1547 4250 1301 3770 
Q 1056 3291 1056 2328 
Q 1056 1369 1301 889 
Q 1547 409 2034 409 
Q 2525 409 2770 889 
Q 3016 1369 3016 2328 
Q 3016 3291 2770 3770 
Q 2525 4250 2034 4250 
z
M 2034 4750 
Q 2819 4750 3233 4129 
Q 3647 3509 3647 2328 
Q 3647 1150 3233 529 
Q 2819 -91 2034 -91 
Q 1250 -91 836 529 
Q 422 1150 422 2328 
Q 422 3509 836 4129 
Q 1250 4750 2034 4750 
z
" transform="scale(0.015625)"/>
       </defs>
       <use xlink:href="#DejaVuSans-30"/>
      </g>
     </g>
    </g>
    <g id="xtick_2">
     <g id="line2d_3">
      <path d="M 147.617851 307.584 
L 147.617851 41.472 
" clip-path="url(#p57aec03c18)" style="fill: none; stroke: #b0b0b0; stroke-width: 0.8; stroke-linecap: square"/>
     </g>
     <g id="line2d_4">
      <g>
       <use xlink:href="#mfd7921b076" x="147.617851" y="307.584" style="stroke: #000000; stroke-width: 0.8"/>
      </g>
     </g>
     <g id="text_2">
      <!-- 50 -->
      <g transform="translate(141.255351 322.182437) scale(0.1 -0.1)">
       <defs>
        <path id="DejaVuSans-35" d="M 691 4666 
L 3169 4666 
L 3169 4134 
L 1269 4134 
L 1269 2991 
Q 1406 3038 1543 3061 
Q 1681 3084 1819 3084 
Q 2600 3084 3056 2656 
Q 3513 2228 3513 1497 
Q 3513 744 3044 326 
Q 2575 -91 1722 -91 
Q 1428 -91 1123 -41 
Q 819 9 494 109 
L 494 744 
Q 775 591 1075 516 
Q 1375 441 1709 441 
Q 2250 441 2565 725 
Q 2881 1009 2881 1497 
Q 2881 1984 2565 2268 
Q 2250 2553 1709 2553 
Q 1456 2553 1204 2497 
Q 953 2441 691 2322 
L 691 4666 
z
" transform="scale(0.015625)"/>
       </defs>
       <use xlink:href="#DejaVuSans-35"/>
       <use xlink:href="#DejaVuSans-30" x="63.623047"/>
      </g>
     </g>
    </g>
    <g id="xtick_3">
     <g id="line2d_5">
      <path d="M 221.402975 307.584 
L 221.402975 41.472 
" clip-path="url(#p57aec03c18)" style="fill: none; stroke: #b0b0b0; stroke-width: 0.8; stroke-linecap: square"/>
     </g>
     <g id="line2d_6">
      <g>
       <use xlink:href="#mfd7921b076" x="221.402975" y="307.584" style="stroke: #000000; stroke-width: 0.8"/>
      </g>
     </g>
     <g id="text_3">
      <!-- 100 -->
      <g transform="translate(211.859225 322.182437) scale(0.1 -0.1)">
       <defs>
        <path id="DejaVuSans-31" d="M 794 531 
L 1825 531 
L 1825 4091 
L 703 3866 
L 703 4441 
L 1819 4666 
L 2450 4666 
L 2450 531 
L 3481 531 
L 3481 0 
L 794 0 
L 794 531 
z
" transform="scale(0.015625)"/>
       </defs>
       <use xlink:href="#DejaVuSans-31"/>
       <use xlink:href="#DejaVuSans-30" x="63.623047"/>
       <use xlink:href="#DejaVuSans-30" x="127.246094"/>
      </g>
     </g>
    </g>
    <g id="xtick_4">
     <g id="line2d_7">
      <path d="M 295.188099 307.584 
L 295.188099 41.472 
" clip-path="url(#p57aec03c18)" style="fill: none; stroke: #b0b0b0; stroke-width: 0.8; stroke-linecap: square"/>
     </g>
     <g id="line2d_8">
      <g>
       <use xlink:href="#mfd7921b076" x="295.188099" y="307.584" style="stroke: #000000; stroke-width: 0.8"/>
      </g>
     </g>
     <g id="text_4">
      <!-- 150 -->
      <g transform="translate(285.644349 322.182437) scale(0.1 -0.1)">
       <use xlink:href="#DejaVuSans-31"/>
       <use xlink:href="#DejaVuSans-35" x="63.623047"/>
       <use xlink:href="#DejaVuSans-30" x="127.246094"/>
      </g>
     </g>
    </g>
    <g id="xtick_5">
     <g id="line2d_9">
      <path d="M 368.973223 307.584 
L 368.973223 41.472 
" clip-path="url(#p57aec03c18)" style="fill: none; stroke: #b0b0b0; stroke-width: 0.8; stroke-linecap: square"/>
     </g>
     <g id="line2d_10">
      <g>
       <use xlink:href="#mfd7921b076" x="368.973223" y="307.584" style="stroke: #000000; stroke-width: 0.8"/>
      </g>
     </g>
     <g id="text_5">
      <!-- 200 -->
      <g transform="translate(359.429473 322.182437) scale(0.1 -0.1)">
       <defs>
        <path id="DejaVuSans-32" d="M 1228 531 
L 3431 531 
L 3431 0 
L 469 0 
L 469 531 
Q 828 903 1448 1529 
Q 2069 2156 2228 2338 
Q 2531 2678 2651 2914 
Q 2772 3150 2772 3378 
Q 2772 3750 2511 3984 
Q 2250 4219 1831 4219 
Q 1534 4219 1204 4116 
Q 875 4013 500 3803 
L 500 4441 
Q 881 4594 1212 4672 
Q 1544 4750 1819 4750 
Q 2544 4750 2975 4387 
Q 3406 4025 3406 3419 
Q 3406 3131 3298 2873 
Q 3191 2616 2906 2266 
Q 2828 2175 2409 1742 
Q 1991 1309 1228 531 
z
" transform="scale(0.015625)"/>
       </defs>
       <use xlink:href="#DejaVuSans-32"/>
       <use xlink:href="#DejaVuSans-30" x="63.623047"/>
       <use xlink:href="#DejaVuSans-30" x="127.246094"/>
      </g>
     </g>
    </g>
   </g>
   <g id="matplotlib.axis_2">
    <g id="ytick_1">
     <g id="line2d_11">
      <path d="M 57.6 286.44645 
L 414.72 286.44645 
" clip-path="url(#p57aec03c18)" style="fill: none; stroke: #b0b0b0; stroke-width: 0.8; stroke-linecap: square"/>
     </g>
     <g id="line2d_12">
      <defs>
       <path id="md6202add1d" d="M 0 0 
L -3.5 0 
" style="stroke: #000000; stroke-width: 0.8"/>
      </defs>
      <g>
       <use xlink:href="#md6202add1d" x="57.6" y="286.44645" style="stroke: #000000; stroke-width: 0.8"/>
      </g>
     </g>
     <g id="text_6">
      <!-- −100 -->
      <g transform="translate(23.132812 290.245669) scale(0.1 -0.1)">
       <defs>
        <path id="DejaVuSans-2212" d="M 678 2272 
L 4684 2272 
L 4684 1741 
L 678 1741 
L 678 2272 
z
" transform="scale(0.015625)"/>
       </defs>
       <use xlink:href="#DejaVuSans-2212"/>
       <use xlink:href="#DejaVuSans-31" x="83.789062"/>
       <use xlink:href="#DejaVuSans-30" x="147.412109"/>
       <use xlink:href="#DejaVuSans-30" x="211.035156"/>
      </g>
     </g>
    </g>
    <g id="ytick_2">
     <g id="line2d_13">
      <path d="M 57.6 229.936765 
L 414.72 229.936765 
" clip-path="url(#p57aec03c18)" style="fill: none; stroke: #b0b0b0; stroke-width: 0.8; stroke-linecap: square"/>
     </g>
     <g id="line2d_14">
      <g>
       <use xlink:href="#md6202add1d" x="57.6" y="229.936765" style="stroke: #000000; stroke-width: 0.8"/>
      </g>
     </g>
     <g id="text_7">
      <!-- −50 -->
      <g transform="translate(29.495313 233.735984) scale(0.1 -0.1)">
       <use xlink:href="#DejaVuSans-2212"/>
       <use xlink:href="#DejaVuSans-35" x="83.789062"/>
       <use xlink:href="#DejaVuSans-30" x="147.412109"/>
      </g>
     </g>
    </g>
    <g id="ytick_3">
     <g id="line2d_15">
      <path d="M 57.6 173.42708 
L 414.72 173.42708 
" clip-path="url(#p57aec03c18)" style="fill: none; stroke: #b0b0b0; stroke-width: 0.8; stroke-linecap: square"/>
     </g>
     <g id="line2d_16">
      <g>
       <use xlink:href="#md6202add1d" x="57.6" y="173.42708" style="stroke: #000000; stroke-width: 0.8"/>
      </g>
     </g>
     <g id="text_8">
      <!-- 0 -->
      <g transform="translate(44.2375 177.226298) scale(0.1 -0.1)">
       <use xlink:href="#DejaVuSans-30"/>
      </g>
     </g>
    </g>
    <g id="ytick_4">
     <g id="line2d_17">
      <path d="M 57.6 116.917394 
L 414.72 116.917394 
" clip-path="url(#p57aec03c18)" style="fill: none; stroke: #b0b0b0; stroke-width: 0.8; stroke-linecap: square"/>
     </g>
     <g id="line2d_18">
      <g>
       <use xlink:href="#md6202add1d" x="57.6" y="116.917394" style="stroke: #000000; stroke-width: 0.8"/>
      </g>
     </g>
     <g id="text_9">
      <!-- 50 -->
      <g transform="translate(37.875 120.716613) scale(0.1 -0.1)">
       <use xlink:href="#DejaVuSans-35"/>
       <use xlink:href="#DejaVuSans-30" x="63.623047"/>
      </g>
     </g>
    </g>
    <g id="ytick_5">
     <g id="line2d_19">
      <path d="M 57.6 60.407709 
L 414.72 60.407709 
" clip-path="url(#p57aec03c18)" style="fill: none; stroke: #b0b0b0; stroke-width: 0.8; stroke-linecap: square"/>
     </g>
     <g id="line2d_20">
      <g>
       <use xlink:href="#md6202add1d" x="57.6" y="60.407709" style="stroke: #000000; stroke-width: 0.8"/>
      </g>
     </g>
     <g id="text_10">
      <!-- 100 -->
      <g transform="translate(31.5125 64.206928) scale(0.1 -0.1)">
       <use xlink:href="#DejaVuSans-31"/>
       <use xlink:href="#DejaVuSans-30" x="63.623047"/>
       <use xlink:href="#DejaVuSans-30" x="127.246094"/>
      </g>
     </g>
    </g>
   </g>
   <g id="line2d_21">
    <path d="M 73.832727 92.053133 
L 100.395372 92.053133 
L 101.871074 295.488 
L 118.103802 295.488 
L 119.579504 92.053133 
L 146.142149 92.053133 
L 147.617851 295.488 
L 165.326281 295.488 
L 166.801983 92.053133 
L 191.888926 92.053133 
L 193.364628 295.488 
L 211.073058 295.488 
L 212.54876 92.053133 
L 239.111405 92.053133 
L 240.587107 295.488 
L 256.819835 295.488 
L 258.295537 92.053133 
L 284.858182 92.053133 
L 286.333884 295.488 
L 304.042314 295.488 
L 305.518017 92.053133 
L 332.080661 92.053133 
L 333.556364 295.488 
L 349.789091 295.488 
L 351.264793 92.053133 
L 377.827438 92.053133 
L 379.30314 295.488 
L 397.01157 295.488 
L 398.487273 92.053133 
L 398.487273 92.053133 
" clip-path="url(#p57aec03c18)" style="fill: none; stroke: #1f77b4; stroke-width: 1.5; stroke-linecap: square"/>
   </g>
   <g id="line2d_22">
    <path d="M 73.832727 235.450034 
L 76.784132 254.593734 
L 78.259835 262.995122 
L 79.735537 270.501576 
L 81.21124 277.038093 
L 82.686942 282.539363 
L 84.162645 286.95042 
L 85.638347 290.227189 
L 87.11405 292.33693 
L 88.589752 293.258563 
L 90.065455 292.982879 
L 91.541157 291.512633 
L 93.01686 288.862516 
L 94.492562 285.059006 
L 95.968264 280.140106 
L 97.443967 274.154965 
L 98.919669 267.163385 
L 100.395372 259.235222 
L 101.871074 250.449692 
L 104.822479 230.665352 
L 107.773884 208.599102 
L 112.200992 173.161813 
L 116.628099 137.74822 
L 119.579504 115.723221 
L 122.530909 95.998693 
L 124.006612 87.249312 
L 125.482314 79.36099 
L 126.958017 72.412546 
L 128.433719 66.473406 
L 129.909421 61.602911 
L 131.385124 57.849727 
L 132.860826 55.251353 
L 134.336529 53.833752 
L 135.812231 53.611088 
L 137.287934 54.585586 
L 138.763636 56.747508 
L 140.239339 60.075255 
L 141.715041 64.535575 
L 143.190744 70.083903 
L 144.666446 76.664802 
L 146.142149 84.212518 
L 147.617851 92.651637 
L 149.093554 101.897836 
L 152.044959 122.4348 
L 154.996364 145.004664 
L 165.326281 226.712032 
L 168.277686 246.983271 
L 169.753388 256.065511 
L 171.229091 264.322056 
L 172.704793 271.670408 
L 174.180496 278.037146 
L 175.656198 283.358654 
L 177.131901 287.581762 
L 178.607603 290.664274 
L 180.083306 292.575392 
L 181.559008 293.296018 
L 183.034711 292.818954 
L 184.510413 291.148965 
L 185.986116 288.302739 
L 187.461818 284.308713 
L 188.937521 279.206794 
L 190.413223 273.047959 
L 191.888926 265.893745 
L 193.364628 257.815635 
L 194.840331 248.894343 
L 197.791736 228.886298 
L 200.74314 206.66727 
L 206.64595 159.192302 
L 211.073058 124.6532 
L 214.024463 103.870314 
L 215.500165 94.470924 
L 216.975868 85.860437 
L 218.45157 78.124887 
L 219.927273 71.341565 
L 221.402975 65.578248 
L 222.878678 60.892521 
L 224.35438 57.331202 
L 225.830083 54.929874 
L 227.305785 53.712532 
L 228.781488 53.691337 
L 230.25719 54.866503 
L 231.732893 57.226286 
L 233.208595 60.74711 
L 234.684298 65.393794 
L 236.16 71.119912 
L 237.635702 77.868249 
L 239.111405 85.571378 
L 240.587107 94.152332 
L 243.538512 113.596849 
L 246.489917 135.426609 
L 250.917025 170.722314 
L 255.344132 206.259627 
L 258.295537 228.509999 
L 261.246942 248.564389 
L 262.722645 257.513925 
L 264.198347 265.623292 
L 265.67405 272.811465 
L 267.149752 279.006622 
L 268.625455 284.146864 
L 270.101157 288.18083 
L 271.57686 291.068214 
L 273.052562 292.780167 
L 274.528264 293.299583 
L 276.003967 292.621273 
L 277.479669 290.752014 
L 278.955372 287.710483 
L 280.431074 283.52707 
L 281.906777 278.243575 
L 283.382479 271.912787 
L 284.858182 264.597963 
L 286.333884 256.37219 
L 287.809587 247.317656 
L 290.760992 227.091565 
L 293.712397 204.726041 
L 304.042314 122.818903 
L 306.993719 102.238581 
L 308.469421 92.965477 
L 309.945124 84.496319 
L 311.420826 76.915728 
L 312.896529 70.299447 
L 314.372231 64.713582 
L 315.847934 60.213947 
L 317.323636 56.8455 
L 318.799339 54.641898 
L 320.275041 53.625158 
L 321.750744 53.805439 
L 323.226446 55.18094 
L 324.702149 57.737918 
L 326.177851 61.450823 
L 327.653554 66.282558 
L 329.129256 72.184845 
L 330.604959 79.098712 
L 332.080661 86.955077 
L 333.556364 95.675441 
L 336.507769 115.351882 
L 339.459174 137.343598 
L 343.886281 172.737752 
L 348.313388 208.193482 
L 351.264793 230.292393 
L 354.216198 250.124265 
L 355.691901 258.938564 
L 357.167603 266.898461 
L 358.643306 273.924423 
L 360.119008 279.946249 
L 361.594711 284.90377 
L 363.070413 288.747453 
L 364.546116 291.438893 
L 366.021818 292.951198 
L 367.497521 293.269257 
L 368.973223 292.389893 
L 370.448926 290.321892 
L 371.924628 287.085917 
L 373.400331 282.7143 
L 374.876033 277.250721 
L 376.351736 270.749771 
L 377.827438 263.276405 
L 379.30314 254.905294 
L 380.778843 245.720079 
L 383.730248 225.28166 
L 386.681653 202.775962 
L 397.01157 120.998915 
L 398.487273 110.498564 
L 398.487273 110.498564 
" clip-path="url(#p57aec03c18)" style="fill: none; stroke: #ff7f0e; stroke-width: 1.5; stroke-linecap: square"/>
   </g>
   <g id="line2d_23">
    <path d="M 73.832727 251.822847 
L 76.784132 232.243401 
L 79.735537 210.319134 
L 84.162645 174.965221 
L 88.589752 139.473911 
L 91.541157 117.310451 
L 94.492562 97.384184 
L 95.968264 88.512627 
L 97.443967 80.489507 
L 98.919669 73.394989 
L 100.395372 67.299958 
L 101.871074 62.265314 
L 103.346777 58.341362 
L 104.822479 55.567309 
L 106.298182 53.970871 
L 107.773884 53.568 
L 109.249587 54.362722 
L 110.725289 56.347095 
L 112.200992 59.501292 
L 113.676694 63.793799 
L 115.152397 69.181725 
L 116.628099 75.611236 
L 118.103802 83.018091 
L 119.579504 91.328282 
L 121.055207 100.458778 
L 124.006612 120.808481 
L 126.958017 143.255921 
L 137.287934 225.090573 
L 140.239339 245.550974 
L 141.715041 254.749774 
L 143.190744 263.136023 
L 144.666446 270.625931 
L 146.142149 277.14466 
L 147.617851 282.627077 
L 149.093554 287.018404 
L 150.569256 290.274764 
L 152.044959 292.36362 
L 153.520661 293.264102 
L 154.996364 292.967212 
L 156.472066 291.475916 
L 157.947769 288.805116 
L 159.423471 284.981496 
L 160.899174 280.043261 
L 162.374876 274.039753 
L 163.850579 267.030956 
L 165.326281 259.086901 
L 166.801983 250.28696 
L 169.753388 230.478803 
L 172.704793 208.396174 
L 177.131901 172.949601 
L 181.559008 137.54568 
L 184.510413 115.537303 
L 187.461818 95.836808 
L 188.937521 87.101934 
L 190.413223 79.229592 
L 191.888926 72.298441 
L 193.364628 66.377733 
L 194.840331 61.526627 
L 196.316033 57.793594 
L 197.791736 55.215932 
L 199.267438 53.819396 
L 200.74314 53.617941 
L 202.218843 54.61358 
L 203.694545 56.796364 
L 205.170248 60.144483 
L 206.64595 64.624484 
L 208.121653 70.191605 
L 209.597355 76.790221 
L 211.073058 84.3544 
L 212.54876 92.808565 
L 214.024463 102.068242 
L 216.975868 122.626936 
L 219.927273 145.21087 
L 230.25719 226.902044 
L 233.208595 247.150721 
L 234.684298 256.219111 
L 236.16 264.46027 
L 237.635702 271.791855 
L 239.111405 278.140612 
L 240.587107 283.443106 
L 242.06281 287.646356 
L 243.538512 290.708365 
L 245.014215 292.598538 
L 246.489917 293.29799 
L 247.96562 292.799731 
L 249.441322 291.108739 
L 250.917025 288.241912 
L 252.392727 284.227892 
L 253.86843 279.106788 
L 255.344132 272.929767 
L 256.819835 265.758548 
L 258.295537 257.664783 
L 259.77124 248.729343 
L 262.722645 228.698075 
L 265.67405 206.463327 
L 271.57686 158.981613 
L 274.528264 135.627594 
L 277.479669 113.780521 
L 280.431074 94.311368 
L 281.906777 85.715647 
L 283.382479 77.996309 
L 284.858182 71.230484 
L 286.333884 65.485774 
L 287.809587 60.819577 
L 289.285289 57.278518 
L 290.760992 54.897976 
L 292.236694 53.701738 
L 293.712397 53.701756 
L 295.188099 54.89803 
L 296.663802 57.278607 
L 298.139504 60.819701 
L 299.615207 65.485931 
L 301.090909 71.230673 
L 302.566612 77.996528 
L 304.042314 85.715893 
L 305.518017 94.31164 
L 308.469421 113.780835 
L 311.420826 135.627937 
L 315.847934 170.934477 
L 320.275041 206.463674 
L 323.226446 228.698396 
L 326.177851 248.729624 
L 327.653554 257.66504 
L 329.129256 265.758778 
L 330.604959 272.929968 
L 332.080661 279.106959 
L 333.556364 284.22803 
L 335.032066 288.242016 
L 336.507769 291.108808 
L 337.983471 292.799764 
L 339.459174 293.297987 
L 340.934876 292.598499 
L 342.410579 290.70829 
L 343.886281 287.646247 
L 345.361983 283.442962 
L 346.837686 278.140436 
L 348.313388 271.791648 
L 349.789091 264.460034 
L 351.264793 256.218849 
L 352.740496 247.150436 
L 355.691901 226.90172 
L 358.643306 204.521139 
L 368.973223 122.626608 
L 371.924628 102.067952 
L 373.400331 92.808297 
L 374.876033 84.354159 
L 376.351736 76.790007 
L 377.827438 70.191422 
L 379.30314 64.624333 
L 380.778843 60.144365 
L 382.254545 56.79628 
L 383.730248 54.613532 
L 385.20595 53.617929 
L 386.681653 53.81942 
L 388.157355 55.215992 
L 389.633058 57.793689 
L 391.10876 61.526757 
L 392.584463 66.377896 
L 394.060165 72.298635 
L 395.535868 79.229816 
L 397.01157 87.102184 
L 398.487273 95.837083 
L 398.487273 95.837083 
" clip-path="url(#p57aec03c18)" style="fill: none; stroke: #2ca02c; stroke-width: 1.5; stroke-linecap: square"/>
   </g>
   <g id="patch_3">
    <path d="M 57.6 307.584 
L 57.6 41.472 
" style="fill: none; stroke: #000000; stroke-width: 0.8; stroke-linejoin: miter; stroke-linecap: square"/>
   </g>
   <g id="patch_4">
    <path d="M 414.72 307.584 
L 414.72 41.472 
" style="fill: none; stroke: #000000; stroke-width: 0.8; stroke-linejoin: miter; stroke-linecap: square"/>
   </g>
   <g id="patch_5">
    <path d="M 57.6 307.584 
L 414.72 307.584 
" style="fill: none; stroke: #000000; stroke-width: 0.8; stroke-linejoin: miter; stroke-linecap: square"/>
   </g>
   <g id="patch_6">
    <path d="M 57.6 41.472 
L 414.72 41.472 
" style="fill: none; stroke: #000000; stroke-width: 0.8; stroke-linejoin: miter; stroke-linecap: square"/>
   </g>
   <g id="text_11">
    <!-- faza=1.4pi wynik=-108.0 -->
    <g transform="translate(159.82125 35.472) scale(0.12 -0.12)">
     <defs>
      <path id="DejaVuSans-66" d="M 2375 4863 
L 2375 4384 
L 1825 4384 
Q 1516 4384 1395 4259 
Q 1275 4134 1275 3809 
L 1275 3500 
L 2222 3500 
L 2222 3053 
L 1275 3053 
L 1275 0 
L 697 0 
L 697 3053 
L 147 3053 
L 147 3500 
L 697 3500 
L 697 3744 
Q 697 4328 969 4595 
Q 1241 4863 1831 4863 
L 2375 4863 
z
" transform="scale(0.015625)"/>
      <path id="DejaVuSans-61" d="M 2194 1759 
Q 1497 1759 1228 1600 
Q 959 1441 959 1056 
Q 959 750 1161 570 
Q 1363 391 1709 391 
Q 2188 391 2477 730 
Q 2766 1069 2766 1631 
L 2766 1759 
L 2194 1759 
z
M 3341 1997 
L 3341 0 
L 2766 0 
L 2766 531 
Q 2569 213 2275 61 
Q 1981 -91 1556 -91 
Q 1019 -91 701 211 
Q 384 513 384 1019 
Q 384 1609 779 1909 
Q 1175 2209 1959 2209 
L 2766 2209 
L 2766 2266 
Q 2766 2663 2505 2880 
Q 2244 3097 1772 3097 
Q 1472 3097 1187 3025 
Q 903 2953 641 2809 
L 641 3341 
Q 956 3463 1253 3523 
Q 1550 3584 1831 3584 
Q 2591 3584 2966 3190 
Q 3341 2797 3341 1997 
z
" transform="scale(0.015625)"/>
      <path id="DejaVuSans-7a" d="M 353 3500 
L 3084 3500 
L 3084 2975 
L 922 459 
L 3084 459 
L 3084 0 
L 275 0 
L 275 525 
L 2438 3041 
L 353 3041 
L 353 3500 
z
" transform="scale(0.015625)"/>
      <path id="DejaVuSans-3d" d="M 678 2906 
L 4684 2906 
L 4684 2381 
L 678 2381 
L 678 2906 
z
M 678 1631 
L 4684 1631 
L 4684 1100 
L 678 1100 
L 678 1631 
z
" transform="scale(0.015625)"/>
      <path id="DejaVuSans-2e" d="M 684 794 
L 1344 794 
L 1344 0 
L 684 0 
L 684 794 
z
" transform="scale(0.015625)"/>
      <path id="DejaVuSans-34" d="M 2419 4116 
L 825 1625 
L 2419 1625 
L 2419 4116 
z
M 2253 4666 
L 3047 4666 
L 3047 1625 
L 3713 1625 
L 3713 1100 
L 3047 1100 
L 3047 0 
L 2419 0 
L 2419 1100 
L 313 1100 
L 313 1709 
L 2253 4666 
z
" transform="scale(0.015625)"/>
      <path id="DejaVuSans-70" d="M 1159 525 
L 1159 -1331 
L 581 -1331 
L 581 3500 
L 1159 3500 
L 1159 2969 
Q 1341 3281 1617 3432 
Q 1894 3584 2278 3584 
Q 2916 3584 3314 3078 
Q 3713 2572 3713 1747 
Q 3713 922 3314 415 
Q 2916 -91 2278 -91 
Q 1894 -91 1617 61 
Q 1341 213 1159 525 
z
M 3116 1747 
Q 3116 2381 2855 2742 
Q 2594 3103 2138 3103 
Q 1681 3103 1420 2742 
Q 1159 2381 1159 1747 
Q 1159 1113 1420 752 
Q 1681 391 2138 391 
Q 2594 391 2855 752 
Q 3116 1113 3116 1747 
z
" transform="scale(0.015625)"/>
      <path id="DejaVuSans-69" d="M 603 3500 
L 1178 3500 
L 1178 0 
L 603 0 
L 603 3500 
z
M 603 4863 
L 1178 4863 
L 1178 4134 
L 603 4134 
L 603 4863 
z
" transform="scale(0.015625)"/>
      <path id="DejaVuSans-20" transform="scale(0.015625)"/>
      <path id="DejaVuSans-77" d="M 269 3500 
L 844 3500 
L 1563 769 
L 2278 3500 
L 2956 3500 
L 3675 769 
L 4391 3500 
L 4966 3500 
L 4050 0 
L 3372 0 
L 2619 2869 
L 1863 0 
L 1184 0 
L 269 3500 
z
" transform="scale(0.015625)"/>
      <path id="DejaVuSans-79" d="M 2059 -325 
Q 1816 -950 1584 -1140 
Q 1353 -1331 966 -1331 
L 506 -1331 
L 506 -850 
L 844 -850 
Q 1081 -850 1212 -737 
Q 1344 -625 1503 -206 
L 1606 56 
L 191 3500 
L 800 3500 
L 1894 763 
L 2988 3500 
L 3597 3500 
L 2059 -325 
z
" transform="scale(0.015625)"/>
      <path id="DejaVuSans-6e" d="M 3513 2113 
L 3513 0 
L 2938 0 
L 2938 2094 
Q 2938 2591 2744 2837 
Q 2550 3084 2163 3084 
Q 1697 3084 1428 2787 
Q 1159 2491 1159 1978 
L 1159 0 
L 581 0 
L 581 3500 
L 1159 3500 
L 1159 2956 
Q 1366 3272 1645 3428 
Q 1925 3584 2291 3584 
Q 2894 3584 3203 3211 
Q 3513 2838 3513 2113 
z
" transform="scale(0.015625)"/>
      <path id="DejaVuSans-6b" d="M 581 4863 
L 1159 4863 
L 1159 1991 
L 2875 3500 
L 3609 3500 
L 1753 1863 
L 3688 0 
L 2938 0 
L 1159 1709 
L 1159 0 
L 581 0 
L 581 4863 
z
" transform="scale(0.015625)"/>
      <path id="DejaVuSans-2d" d="M 313 2009 
L 1997 2009 
L 1997 1497 
L 313 1497 
L 313 2009 
z
" transform="scale(0.015625)"/>
      <path id="DejaVuSans-38" d="M 2034 2216 
Q 1584 2216 1326 1975 
Q 1069 1734 1069 1313 
Q 1069 891 1326 650 
Q 1584 409 2034 409 
Q 2484 409 2743 651 
Q 3003 894 3003 1313 
Q 3003 1734 2745 1975 
Q 2488 2216 2034 2216 
z
M 1403 2484 
Q 997 2584 770 2862 
Q 544 3141 544 3541 
Q 544 4100 942 4425 
Q 1341 4750 2034 4750 
Q 2731 4750 3128 4425 
Q 3525 4100 3525 3541 
Q 3525 3141 3298 2862 
Q 3072 2584 2669 2484 
Q 3125 2378 3379 2068 
Q 3634 1759 3634 1313 
Q 3634 634 3220 271 
Q 2806 -91 2034 -91 
Q 1263 -91 848 271 
Q 434 634 434 1313 
Q 434 1759 690 2068 
Q 947 2378 1403 2484 
z
M 1172 3481 
Q 1172 3119 1398 2916 
Q 1625 2713 2034 2713 
Q 2441 2713 2670 2916 
Q 2900 3119 2900 3481 
Q 2900 3844 2670 4047 
Q 2441 4250 2034 4250 
Q 1625 4250 1398 4047 
Q 1172 3844 1172 3481 
z
" transform="scale(0.015625)"/>
     </defs>
     <use xlink:href="#DejaVuSans-66"/>
     <use xlink:href="#DejaVuSans-61" x="35.205078"/>
     <use xlink:href="#DejaVuSans-7a" x="96.484375"/>
     <use xlink:href="#DejaVuSans-61" x="148.974609"/>
     <use xlink:href="#DejaVuSans-3d" x="210.253906"/>
     <use xlink:href="#DejaVuSans-31" x="294.042969"/>
     <use xlink:href="#DejaVuSans-2e" x="357.666016"/>
     <use xlink:href="#DejaVuSans-34" x="389.453125"/>
     <use xlink:href="#DejaVuSans-70" x="453.076172"/>
     <use xlink:href="#DejaVuSans-69" x="516.552734"/>
     <use xlink:href="#DejaVuSans-20" x="544.335938"/>
     <use xlink:href="#DejaVuSans-77" x="576.123047"/>
     <use xlink:href="#DejaVuSans-79" x="657.910156"/>
     <use xlink:href="#DejaVuSans-6e" x="717.089844"/>
     <use xlink:href="#DejaVuSans-69" x="780.46875"/>
     <use xlink:href="#DejaVuSans-6b" x="808.251953"/>
     <use xlink:href="#DejaVuSans-3d" x="866.162109"/>
     <use xlink:href="#DejaVuSans-2d" x="949.951172"/>
     <use xlink:href="#DejaVuSans-31" x="986.035156"/>
     <use xlink:href="#DejaVuSans-30" x="1049.658203"/>
     <use xlink:href="#DejaVuSans-38" x="1113.28125"/>
     <use xlink:href="#DejaVuSans-2e" x="1176.904297"/>
     <use xlink:href="#DejaVuSans-30" x="1208.691406"/>
    </g>
   </g>
  </g>
 </g>
 <defs>
  <clipPath id="p57aec03c18">
   <rect x="57.6" y="41.472" width="357.12" height="266.112"/>
  </clipPath>
 </defs>
</svg>
