<?xml version="1.0" encoding="utf-8" standalone="no"?>
<!DOCTYPE svg PUBLIC "-//W3C//DTD SVG 1.1//EN"
  "http://www.w3.org/Graphics/SVG/1.1/DTD/svg11.dtd">
<svg xmlns:xlink="http://www.w3.org/1999/xlink" width="460.8pt" height="345.6pt" viewBox="0 0 460.8 345.6" xmlns="http://www.w3.org/2000/svg" version="1.1">
 <metadata>
  <rdf:RDF xmlns:dc="http://purl.org/dc/elements/1.1/" xmlns:cc="http://creativecommons.org/ns#" xmlns:rdf="http://www.w3.org/1999/02/22-rdf-syntax-ns#">
   <cc:Work>
    <dc:type rdf:resource="http://purl.org/dc/dcmitype/StillImage"/>
    <dc:date>2023-11-17T11:18:04.181033</dc:date>
    <dc:format>image/svg+xml</dc:format>
    <dc:creator>
     <cc:Agent>
      <dc:title>Matplotlib v3.8.0, https://matplotlib.org/</dc:title>
     </cc:Agent>
    </dc:creator>
   </cc:Work>
  </rdf:RDF>
 </metadata>
 <defs>
  <style type="text/css">*{stroke-linejoin: round; stroke-linecap: butt}</style>
 </defs>
 <g id="figure_1">
  <g id="patch_1">
   <path d="M 0 345.6 
L 460.8 345.6 
L 460.8 0 
L 0 0 
z
" style="fill: #ffffff"/>
  </g>
  <g id="axes_1">
   <g id="patch_2">
    <path d="M 57.6 307.584 
L 414.72 307.584 
L 414.72 41.472 
L 57.6 41.472 
z
" style="fill: #ffffff"/>
   </g>
   <g id="matplotlib.axis_1">
    <g id="xtick_1">
     <g id="line2d_1">
      <defs>
       <path id="m915bfc459c" d="M 0 0 
L 0 3.5 
" style="stroke: #000000; stroke-width: 0.8"/>
      </defs>
      <g>
       <use xlink:href="#m915bfc459c" x="73.832727" y="307.584" style="stroke: #000000; stroke-width: 0.8"/>
      </g>
     </g>
     <g id="text_1">
      <!-- 0 -->
      <g transform="translate(70.651477 322.182437) scale(0.1 -0.1)">
       <defs>
        <path id="DejaVuSans-30" d="M 2034 4250 
Q 1547 4250 1301 3770 
Q 1056 3291 1056 2328 
Q 1056 1369 1301 889 
Q 1547 409 2034 409 
Q 2525 409 2770 889 
Q 3016 1369 3016 2328 
Q 3016 3291 2770 3770 
Q 2525 4250 2034 4250 
z
M 2034 4750 
Q 2819 4750 3233 4129 
Q 3647 3509 3647 2328 
Q 3647 1150 3233 529 
Q 2819 -91 2034 -91 
Q 1250 -91 836 529 
Q 422 1150 422 2328 
Q 422 3509 836 4129 
Q 1250 4750 2034 4750 
z
" transform="scale(0.015625)"/>
       </defs>
       <use xlink:href="#DejaVuSans-30"/>
      </g>
     </g>
    </g>
    <g id="xtick_2">
     <g id="line2d_2">
      <g>
       <use xlink:href="#m915bfc459c" x="126.196364" y="307.584" style="stroke: #000000; stroke-width: 0.8"/>
      </g>
     </g>
     <g id="text_2">
      <!-- 20 -->
      <g transform="translate(119.833864 322.182437) scale(0.1 -0.1)">
       <defs>
        <path id="DejaVuSans-32" d="M 1228 531 
L 3431 531 
L 3431 0 
L 469 0 
L 469 531 
Q 828 903 1448 1529 
Q 2069 2156 2228 2338 
Q 2531 2678 2651 2914 
Q 2772 3150 2772 3378 
Q 2772 3750 2511 3984 
Q 2250 4219 1831 4219 
Q 1534 4219 1204 4116 
Q 875 4013 500 3803 
L 500 4441 
Q 881 4594 1212 4672 
Q 1544 4750 1819 4750 
Q 2544 4750 2975 4387 
Q 3406 4025 3406 3419 
Q 3406 3131 3298 2873 
Q 3191 2616 2906 2266 
Q 2828 2175 2409 1742 
Q 1991 1309 1228 531 
z
" transform="scale(0.015625)"/>
       </defs>
       <use xlink:href="#DejaVuSans-32"/>
       <use xlink:href="#DejaVuSans-30" x="63.623047"/>
      </g>
     </g>
    </g>
    <g id="xtick_3">
     <g id="line2d_3">
      <g>
       <use xlink:href="#m915bfc459c" x="178.56" y="307.584" style="stroke: #000000; stroke-width: 0.8"/>
      </g>
     </g>
     <g id="text_3">
      <!-- 40 -->
      <g transform="translate(172.1975 322.182437) scale(0.1 -0.1)">
       <defs>
        <path id="DejaVuSans-34" d="M 2419 4116 
L 825 1625 
L 2419 1625 
L 2419 4116 
z
M 2253 4666 
L 3047 4666 
L 3047 1625 
L 3713 1625 
L 3713 1100 
L 3047 1100 
L 3047 0 
L 2419 0 
L 2419 1100 
L 313 1100 
L 313 1709 
L 2253 4666 
z
" transform="scale(0.015625)"/>
       </defs>
       <use xlink:href="#DejaVuSans-34"/>
       <use xlink:href="#DejaVuSans-30" x="63.623047"/>
      </g>
     </g>
    </g>
    <g id="xtick_4">
     <g id="line2d_4">
      <g>
       <use xlink:href="#m915bfc459c" x="230.923636" y="307.584" style="stroke: #000000; stroke-width: 0.8"/>
      </g>
     </g>
     <g id="text_4">
      <!-- 60 -->
      <g transform="translate(224.561136 322.182437) scale(0.1 -0.1)">
       <defs>
        <path id="DejaVuSans-36" d="M 2113 2584 
Q 1688 2584 1439 2293 
Q 1191 2003 1191 1497 
Q 1191 994 1439 701 
Q 1688 409 2113 409 
Q 2538 409 2786 701 
Q 3034 994 3034 1497 
Q 3034 2003 2786 2293 
Q 2538 2584 2113 2584 
z
M 3366 4563 
L 3366 3988 
Q 3128 4100 2886 4159 
Q 2644 4219 2406 4219 
Q 1781 4219 1451 3797 
Q 1122 3375 1075 2522 
Q 1259 2794 1537 2939 
Q 1816 3084 2150 3084 
Q 2853 3084 3261 2657 
Q 3669 2231 3669 1497 
Q 3669 778 3244 343 
Q 2819 -91 2113 -91 
Q 1303 -91 875 529 
Q 447 1150 447 2328 
Q 447 3434 972 4092 
Q 1497 4750 2381 4750 
Q 2619 4750 2861 4703 
Q 3103 4656 3366 4563 
z
" transform="scale(0.015625)"/>
       </defs>
       <use xlink:href="#DejaVuSans-36"/>
       <use xlink:href="#DejaVuSans-30" x="63.623047"/>
      </g>
     </g>
    </g>
    <g id="xtick_5">
     <g id="line2d_5">
      <g>
       <use xlink:href="#m915bfc459c" x="283.287273" y="307.584" style="stroke: #000000; stroke-width: 0.8"/>
      </g>
     </g>
     <g id="text_5">
      <!-- 80 -->
      <g transform="translate(276.924773 322.182437) scale(0.1 -0.1)">
       <defs>
        <path id="DejaVuSans-38" d="M 2034 2216 
Q 1584 2216 1326 1975 
Q 1069 1734 1069 1313 
Q 1069 891 1326 650 
Q 1584 409 2034 409 
Q 2484 409 2743 651 
Q 3003 894 3003 1313 
Q 3003 1734 2745 1975 
Q 2488 2216 2034 2216 
z
M 1403 2484 
Q 997 2584 770 2862 
Q 544 3141 544 3541 
Q 544 4100 942 4425 
Q 1341 4750 2034 4750 
Q 2731 4750 3128 4425 
Q 3525 4100 3525 3541 
Q 3525 3141 3298 2862 
Q 3072 2584 2669 2484 
Q 3125 2378 3379 2068 
Q 3634 1759 3634 1313 
Q 3634 634 3220 271 
Q 2806 -91 2034 -91 
Q 1263 -91 848 271 
Q 434 634 434 1313 
Q 434 1759 690 2068 
Q 947 2378 1403 2484 
z
M 1172 3481 
Q 1172 3119 1398 2916 
Q 1625 2713 2034 2713 
Q 2441 2713 2670 2916 
Q 2900 3119 2900 3481 
Q 2900 3844 2670 4047 
Q 2441 4250 2034 4250 
Q 1625 4250 1398 4047 
Q 1172 3844 1172 3481 
z
" transform="scale(0.015625)"/>
       </defs>
       <use xlink:href="#DejaVuSans-38"/>
       <use xlink:href="#DejaVuSans-30" x="63.623047"/>
      </g>
     </g>
    </g>
    <g id="xtick_6">
     <g id="line2d_6">
      <g>
       <use xlink:href="#m915bfc459c" x="335.650909" y="307.584" style="stroke: #000000; stroke-width: 0.8"/>
      </g>
     </g>
     <g id="text_6">
      <!-- 100 -->
      <g transform="translate(326.107159 322.182437) scale(0.1 -0.1)">
       <defs>
        <path id="DejaVuSans-31" d="M 794 531 
L 1825 531 
L 1825 4091 
L 703 3866 
L 703 4441 
L 1819 4666 
L 2450 4666 
L 2450 531 
L 3481 531 
L 3481 0 
L 794 0 
L 794 531 
z
" transform="scale(0.015625)"/>
       </defs>
       <use xlink:href="#DejaVuSans-31"/>
       <use xlink:href="#DejaVuSans-30" x="63.623047"/>
       <use xlink:href="#DejaVuSans-30" x="127.246094"/>
      </g>
     </g>
    </g>
    <g id="xtick_7">
     <g id="line2d_7">
      <g>
       <use xlink:href="#m915bfc459c" x="388.014545" y="307.584" style="stroke: #000000; stroke-width: 0.8"/>
      </g>
     </g>
     <g id="text_7">
      <!-- 120 -->
      <g transform="translate(378.470795 322.182437) scale(0.1 -0.1)">
       <use xlink:href="#DejaVuSans-31"/>
       <use xlink:href="#DejaVuSans-32" x="63.623047"/>
       <use xlink:href="#DejaVuSans-30" x="127.246094"/>
      </g>
     </g>
    </g>
   </g>
   <g id="matplotlib.axis_2">
    <g id="ytick_1">
     <g id="line2d_8">
      <defs>
       <path id="m97054bbf18" d="M 0 0 
L -3.5 0 
" style="stroke: #000000; stroke-width: 0.8"/>
      </defs>
      <g>
       <use xlink:href="#m97054bbf18" x="57.6" y="288.638711" style="stroke: #000000; stroke-width: 0.8"/>
      </g>
     </g>
     <g id="text_8">
      <!-- −100 -->
      <g transform="translate(23.132812 292.43793) scale(0.1 -0.1)">
       <defs>
        <path id="DejaVuSans-2212" d="M 678 2272 
L 4684 2272 
L 4684 1741 
L 678 1741 
L 678 2272 
z
" transform="scale(0.015625)"/>
       </defs>
       <use xlink:href="#DejaVuSans-2212"/>
       <use xlink:href="#DejaVuSans-31" x="83.789062"/>
       <use xlink:href="#DejaVuSans-30" x="147.412109"/>
       <use xlink:href="#DejaVuSans-30" x="211.035156"/>
      </g>
     </g>
    </g>
    <g id="ytick_2">
     <g id="line2d_9">
      <g>
       <use xlink:href="#m97054bbf18" x="57.6" y="232.131329" style="stroke: #000000; stroke-width: 0.8"/>
      </g>
     </g>
     <g id="text_9">
      <!-- −50 -->
      <g transform="translate(29.495313 235.930548) scale(0.1 -0.1)">
       <defs>
        <path id="DejaVuSans-35" d="M 691 4666 
L 3169 4666 
L 3169 4134 
L 1269 4134 
L 1269 2991 
Q 1406 3038 1543 3061 
Q 1681 3084 1819 3084 
Q 2600 3084 3056 2656 
Q 3513 2228 3513 1497 
Q 3513 744 3044 326 
Q 2575 -91 1722 -91 
Q 1428 -91 1123 -41 
Q 819 9 494 109 
L 494 744 
Q 775 591 1075 516 
Q 1375 441 1709 441 
Q 2250 441 2565 725 
Q 2881 1009 2881 1497 
Q 2881 1984 2565 2268 
Q 2250 2553 1709 2553 
Q 1456 2553 1204 2497 
Q 953 2441 691 2322 
L 691 4666 
z
" transform="scale(0.015625)"/>
       </defs>
       <use xlink:href="#DejaVuSans-2212"/>
       <use xlink:href="#DejaVuSans-35" x="83.789062"/>
       <use xlink:href="#DejaVuSans-30" x="147.412109"/>
      </g>
     </g>
    </g>
    <g id="ytick_3">
     <g id="line2d_10">
      <g>
       <use xlink:href="#m97054bbf18" x="57.6" y="175.623946" style="stroke: #000000; stroke-width: 0.8"/>
      </g>
     </g>
     <g id="text_10">
      <!-- 0 -->
      <g transform="translate(44.2375 179.423165) scale(0.1 -0.1)">
       <use xlink:href="#DejaVuSans-30"/>
      </g>
     </g>
    </g>
    <g id="ytick_4">
     <g id="line2d_11">
      <g>
       <use xlink:href="#m97054bbf18" x="57.6" y="119.116564" style="stroke: #000000; stroke-width: 0.8"/>
      </g>
     </g>
     <g id="text_11">
      <!-- 50 -->
      <g transform="translate(37.875 122.915782) scale(0.1 -0.1)">
       <use xlink:href="#DejaVuSans-35"/>
       <use xlink:href="#DejaVuSans-30" x="63.623047"/>
      </g>
     </g>
    </g>
    <g id="ytick_5">
     <g id="line2d_12">
      <g>
       <use xlink:href="#m97054bbf18" x="57.6" y="62.609181" style="stroke: #000000; stroke-width: 0.8"/>
      </g>
     </g>
     <g id="text_12">
      <!-- 100 -->
      <g transform="translate(31.5125 66.4084) scale(0.1 -0.1)">
       <use xlink:href="#DejaVuSans-31"/>
       <use xlink:href="#DejaVuSans-30" x="63.623047"/>
       <use xlink:href="#DejaVuSans-30" x="127.246094"/>
      </g>
     </g>
    </g>
   </g>
   <g id="line2d_13">
    <path d="M 73.832727 175.623946 
L 76.450909 162.673408 
L 79.069091 149.72287 
L 81.687273 136.772332 
L 84.305455 123.821794 
L 86.923636 110.871256 
L 89.541818 97.920718 
L 92.16 84.970179 
L 94.778182 275.446218 
L 97.396364 262.49568 
L 100.014545 249.545142 
L 102.632727 236.594604 
L 105.250909 223.644066 
L 107.869091 210.693528 
L 110.487273 197.74299 
L 113.105455 184.792452 
L 115.723636 171.841913 
L 118.341818 158.891375 
L 120.96 145.940837 
L 123.578182 132.990299 
L 126.196364 120.039761 
L 128.814545 107.089223 
L 131.432727 94.138685 
L 134.050909 81.188147 
L 136.669091 271.664186 
L 139.287273 258.713647 
L 141.905455 245.763109 
L 144.523636 232.812571 
L 147.141818 219.862033 
L 149.76 206.911495 
L 152.378182 193.960957 
L 154.996364 181.010419 
L 157.614545 168.059881 
L 160.232727 155.109343 
L 162.850909 142.158804 
L 165.469091 129.208266 
L 168.087273 116.257728 
L 170.705455 103.30719 
L 173.323636 90.356652 
L 175.941818 77.406114 
L 178.56 267.882153 
L 181.178182 254.931615 
L 183.796364 241.981077 
L 186.414545 229.030538 
L 189.032727 216.08 
L 191.650909 203.129462 
L 194.269091 190.178924 
L 196.887273 177.228386 
L 199.505455 164.277848 
L 202.123636 151.32731 
L 204.741818 138.376772 
L 207.36 125.426233 
L 209.978182 112.475695 
L 212.596364 99.525157 
L 215.214545 86.574619 
L 217.832727 277.050658 
L 220.450909 264.10012 
L 223.069091 251.149582 
L 225.687273 238.199044 
L 228.305455 225.248506 
L 230.923636 212.297967 
L 233.541818 199.347429 
L 236.16 186.396891 
L 238.778182 173.446353 
L 241.396364 160.495815 
L 244.014545 147.545277 
L 246.632727 134.594739 
L 249.250909 121.644201 
L 251.869091 108.693662 
L 254.487273 95.743124 
L 257.105455 82.792586 
L 259.723636 273.268625 
L 262.341818 260.318087 
L 264.96 247.367549 
L 267.578182 234.417011 
L 270.196364 221.466473 
L 272.814545 208.515935 
L 275.432727 195.565397 
L 278.050909 182.614858 
L 280.669091 169.66432 
L 283.287273 156.713782 
L 285.905455 143.763244 
L 288.523636 130.812706 
L 291.141818 117.862168 
L 293.76 104.91163 
L 296.378182 91.961092 
L 298.996364 79.010553 
L 301.614545 269.486592 
L 304.232727 256.536054 
L 306.850909 243.585516 
L 309.469091 230.634978 
L 312.087273 217.68444 
L 314.705455 204.733902 
L 317.323636 191.783364 
L 319.941818 178.832826 
L 322.56 165.882287 
L 325.178182 152.931749 
L 327.796364 139.981211 
L 330.414545 127.030673 
L 333.032727 114.080135 
L 335.650909 101.129597 
L 338.269091 88.179059 
L 340.887273 75.228521 
L 343.505455 265.70456 
L 346.123636 252.754021 
L 348.741818 239.803483 
L 351.36 226.852945 
L 353.978182 213.902407 
L 356.596364 200.951869 
L 359.214545 188.001331 
L 361.832727 175.050793 
L 364.450909 162.100255 
L 367.069091 149.149716 
L 369.687273 136.199178 
L 372.305455 123.24864 
L 374.923636 110.298102 
L 377.541818 97.347564 
L 380.16 84.397026 
L 382.778182 274.873065 
L 385.396364 261.922527 
L 388.014545 248.971989 
L 390.632727 236.021451 
L 393.250909 223.070912 
L 395.869091 210.120374 
L 398.487273 197.169836 
" clip-path="url(#pc8d02f8804)" style="fill: none; stroke: #1f77b4; stroke-width: 1.5; stroke-linecap: square"/>
   </g>
   <g id="line2d_14">
    <path d="M 73.832727 256.994577 
L 76.450909 256.994577 
L 79.069091 53.568 
L 81.687273 53.568 
L 84.305455 53.568 
L 86.923636 53.568 
L 89.541818 53.568 
L 92.16 53.568 
L 94.778182 256.994577 
L 97.396364 256.994577 
L 100.014545 256.994577 
L 102.632727 256.994577 
L 105.250909 256.994577 
L 107.869091 256.994577 
L 110.487273 256.994577 
L 113.105455 256.994577 
L 115.723636 256.994577 
L 118.341818 256.994577 
L 120.96 53.568 
L 123.578182 53.568 
L 126.196364 53.568 
L 128.814545 53.568 
L 131.432727 53.568 
L 134.050909 53.568 
L 136.669091 256.994577 
L 139.287273 256.994577 
L 141.905455 256.994577 
L 144.523636 256.994577 
L 147.141818 256.994577 
L 149.76 256.994577 
L 152.378182 256.994577 
L 154.996364 256.994577 
L 157.614545 256.994577 
L 160.232727 53.568 
L 162.850909 53.568 
L 165.469091 53.568 
L 168.087273 53.568 
L 170.705455 53.568 
L 173.323636 53.568 
L 175.941818 53.568 
L 178.56 256.994577 
L 181.178182 256.994577 
L 183.796364 256.994577 
L 186.414545 256.994577 
L 189.032727 256.994577 
L 191.650909 256.994577 
L 194.269091 256.994577 
L 196.887273 256.994577 
L 199.505455 256.994577 
L 202.123636 53.568 
L 204.741818 53.568 
L 207.36 53.568 
L 209.978182 53.568 
L 212.596364 53.568 
L 215.214545 53.568 
L 217.832727 256.994577 
L 220.450909 256.994577 
L 223.069091 256.994577 
L 225.687273 256.994577 
L 228.305455 256.994577 
L 230.923636 256.994577 
L 233.541818 256.994577 
L 236.16 256.994577 
L 238.778182 256.994577 
L 241.396364 256.994577 
L 244.014545 53.568 
L 246.632727 53.568 
L 249.250909 53.568 
L 251.869091 53.568 
L 254.487273 53.568 
L 257.105455 53.568 
L 259.723636 256.994577 
L 262.341818 256.994577 
L 264.96 256.994577 
L 267.578182 256.994577 
L 270.196364 256.994577 
L 272.814545 256.994577 
L 275.432727 256.994577 
L 278.050909 256.994577 
L 280.669091 256.994577 
L 283.287273 256.994577 
L 285.905455 53.568 
L 288.523636 53.568 
L 291.141818 53.568 
L 293.76 53.568 
L 296.378182 53.568 
L 298.996364 53.568 
L 301.614545 256.994577 
L 304.232727 256.994577 
L 306.850909 256.994577 
L 309.469091 256.994577 
L 312.087273 256.994577 
L 314.705455 256.994577 
L 317.323636 256.994577 
L 319.941818 256.994577 
L 322.56 256.994577 
L 325.178182 53.568 
L 327.796364 53.568 
L 330.414545 53.568 
L 333.032727 53.568 
L 335.650909 53.568 
L 338.269091 53.568 
L 340.887273 53.568 
L 343.505455 256.994577 
L 346.123636 256.994577 
L 348.741818 256.994577 
L 351.36 256.994577 
L 353.978182 256.994577 
L 356.596364 256.994577 
L 359.214545 256.994577 
L 361.832727 256.994577 
L 364.450909 256.994577 
L 367.069091 53.568 
L 369.687273 53.568 
L 372.305455 53.568 
L 374.923636 53.568 
L 377.541818 53.568 
L 380.16 53.568 
L 382.778182 256.994577 
L 385.396364 256.994577 
L 388.014545 256.994577 
L 390.632727 256.994577 
L 393.250909 256.994577 
L 395.869091 256.994577 
L 398.487273 256.994577 
" clip-path="url(#pc8d02f8804)" style="fill: none; stroke: #ff7f0e; stroke-width: 1.5; stroke-linecap: square"/>
   </g>
   <g id="line2d_15">
    <path d="M 73.832727 68.818762 
L 76.450909 81.759332 
L 79.069091 98.441988 
L 81.687273 118.201645 
L 84.305455 140.250547 
L 86.923636 163.709676 
L 89.541818 187.643789 
L 92.16 211.098709 
L 94.778182 233.139361 
L 97.396364 252.887056 
L 100.014545 269.554515 
L 102.632727 282.477258 
L 105.250909 291.140096 
L 107.869091 295.197671 
L 110.487273 294.488218 
L 113.105455 289.040022 
L 115.723636 279.070285 
L 118.341818 264.976469 
L 120.96 247.320449 
L 123.578182 226.806117 
L 126.196364 204.251312 
L 128.814545 180.555225 
L 131.432727 156.662544 
L 134.050909 133.525794 
L 136.669091 112.067364 
L 139.287273 93.142734 
L 141.905455 77.506371 
L 144.523636 65.781645 
L 147.141818 58.435985 
L 149.76 55.76224 
L 152.378182 57.867002 
L 154.996364 64.666362 
L 157.614545 75.889251 
L 160.232727 91.088248 
L 162.850909 109.657416 
L 165.469091 130.856461 
L 168.087273 153.840245 
L 170.705455 177.692476 
L 173.323636 201.462242 
L 175.941818 224.201916 
L 178.56 245.00494 
L 181.178182 263.041962 
L 183.796364 277.593904 
L 186.414545 288.080626 
L 189.032727 294.084055 
L 191.650909 295.364853 
L 194.269091 291.871959 
L 196.887273 283.744623 
L 199.505455 271.306857 
L 202.123636 255.054516 
L 204.741818 235.635528 
L 207.36 213.824069 
L 209.978182 190.48969 
L 212.596364 166.562662 
L 215.214545 142.996878 
L 217.832727 120.731832 
L 220.450909 100.655162 
L 223.069091 83.567261 
L 225.687273 70.149369 
L 228.305455 60.936416 
L 230.923636 56.295693 
L 233.541818 56.41221 
L 236.16 61.281324 
L 238.778182 70.708917 
L 241.396364 84.319141 
L 244.014545 101.569399 
L 246.632727 121.771979 
L 249.250909 144.121466 
L 251.869091 167.726858 
L 254.487273 191.647082 
L 257.105455 214.928515 
L 259.723636 236.642998 
L 262.341818 255.924844 
L 264.96 272.005346 
L 267.578182 284.243427 
L 270.196364 292.151191 
L 272.814545 295.413382 
L 275.432727 293.899946 
L 278.050909 287.67122 
L 280.669091 276.975522 
L 283.287273 262.239256 
L 285.905455 244.049912 
L 288.523636 223.13264 
L 291.141818 200.321347 
L 293.76 176.525446 
L 296.378182 152.693605 
L 298.996364 129.775924 
L 301.614545 108.68606 
L 304.232727 90.264798 
L 306.850909 75.246535 
L 309.469091 64.230003 
L 312.087273 57.654397 
L 314.705455 55.781864 
L 317.323636 58.687056 
L 319.941818 66.254154 
L 322.56 78.181479 
L 325.178182 93.993529 
L 327.796364 113.059926 
L 330.414545 134.620552 
L 333.032727 157.815855 
L 335.650909 181.72111 
L 338.269091 205.38329 
L 340.887273 227.85906 
L 343.505455 248.25238 
L 346.123636 265.750233 
L 348.741818 279.655036 
L 351.36 289.412448 
L 353.978182 294.633471 
L 356.596364 295.10996 
L 359.214545 290.822919 
L 361.832727 281.943258 
L 364.450909 268.824982 
L 367.069091 251.991075 
L 369.687273 232.112651 
L 372.305455 209.9822 
L 374.923636 186.481995 
L 377.541818 162.548913 
L 380.16 139.137092 
L 382.778182 117.179887 
L 385.396364 97.552661 
L 388.014545 81.037892 
L 390.632727 68.29397 
L 393.250909 59.828955 
L 395.869091 55.980322 
L 398.487273 56.901502 
" clip-path="url(#pc8d02f8804)" style="fill: none; stroke: #2ca02c; stroke-width: 1.5; stroke-linecap: square"/>
   </g>
   <g id="line2d_16">
    <path d="M 73.832727 90.862872 
L 76.450909 75.713025 
L 79.069091 64.546311 
L 81.687273 57.807911 
L 84.305455 55.766465 
L 86.923636 58.503358 
L 89.541818 65.90948 
L 92.16 77.689571 
L 94.778182 93.373997 
L 97.396364 112.337469 
L 100.014545 133.823973 
L 102.632727 156.97691 
L 105.250909 180.873245 
L 107.869091 204.560307 
L 110.487273 227.093768 
L 113.105455 247.57529 
L 115.723636 265.188339 
L 118.341818 279.230737 
L 120.96 289.142661 
L 123.578182 294.528951 
L 126.196364 295.174874 
L 128.814545 291.054678 
L 131.432727 282.332624 
L 134.050909 269.356431 
L 136.669091 252.64342 
L 139.287273 232.859886 
L 141.905455 210.794535 
L 144.523636 187.327044 
L 147.141818 163.392988 
L 149.76 139.946541 
L 152.378182 117.922439 
L 154.996364 98.198715 
L 157.614545 81.56169 
L 160.232727 68.674631 
L 162.850909 60.051303 
L 165.469091 56.035492 
L 168.087273 56.787295 
L 170.705455 62.276741 
L 173.323636 72.284981 
L 175.941818 86.413021 
L 178.56 104.097618 
L 181.178182 124.633744 
L 183.796364 147.202689 
L 186.414545 170.9047 
L 189.032727 194.794852 
L 191.650909 217.92072 
L 194.269091 239.36035 
L 196.887273 258.25901 
L 199.505455 273.863271 
L 202.123636 285.551041 
L 204.741818 292.856364 
L 207.36 295.488 
L 209.978182 293.341035 
L 212.596364 286.501061 
L 215.214545 275.240766 
L 217.832727 260.009063 
L 220.450909 241.413192 
L 223.069091 220.194511 
L 225.687273 197.198942 
L 228.305455 173.343247 
L 230.923636 149.578475 
L 233.541818 126.852055 
L 236.16 106.070016 
L 238.778182 88.060872 
L 241.396364 73.542592 
L 244.014545 63.093973 
L 246.632727 57.13157 
L 249.250909 55.893083 
L 251.869091 59.427888 
L 254.487273 67.595064 
L 257.105455 80.06901 
L 259.723636 96.352429 
L 262.341818 115.796154 
L 264.96 137.625025 
L 267.578182 160.968792 
L 270.196364 184.896814 
L 272.814545 208.455156 
L 275.432727 230.704621 
L 278.050909 250.758194 
L 280.669091 267.816401 
L 283.287273 281.199186 
L 285.905455 290.37302 
L 288.523636 294.97217 
L 291.141818 294.813283 
L 293.76 289.902693 
L 296.378182 280.43617 
L 298.996364 266.791115 
L 301.614545 249.511512 
L 304.232727 229.286245 
L 306.850909 206.921632 
L 309.469091 183.309278 
L 312.087273 159.390535 
L 314.705455 136.118967 
L 317.323636 114.422337 
L 319.941818 95.165623 
L 322.56 79.116528 
L 325.178182 66.914879 
L 327.796364 59.047118 
L 330.414545 55.826907 
L 333.032727 57.382626 
L 335.650909 63.652253 
L 338.269091 74.385838 
L 340.887273 89.155467 
L 343.505455 107.372322 
L 346.123636 128.310153 
L 348.741818 151.134236 
L 351.36 174.934647 
L 353.978182 198.762537 
L 356.596364 221.667966 
L 359.214545 242.737764 
L 361.832727 261.131946 
L 364.450909 276.117194 
L 367.069091 287.096094 
L 369.687273 293.63095 
L 372.305455 295.46124 
L 374.923636 292.513995 
L 377.541818 284.906713 
L 380.16 272.942672 
L 382.778182 257.09884 
L 385.396364 238.006861 
L 388.014545 216.427873 
L 390.632727 193.22216 
L 393.250909 169.314862 
L 395.869091 145.659088 
L 398.487273 123.197918 
" clip-path="url(#pc8d02f8804)" style="fill: none; stroke: #d62728; stroke-width: 1.5; stroke-linecap: square"/>
   </g>
   <g id="line2d_17">
    <path d="M 73.832727 94.253315 
L 76.450909 81.302777 
L 79.069091 271.778816 
L 81.687273 258.828278 
L 84.305455 245.87774 
L 86.923636 232.927202 
L 89.541818 219.976664 
L 92.16 207.026126 
L 94.778182 194.075588 
L 97.396364 181.125049 
L 100.014545 168.174511 
L 102.632727 155.223973 
L 105.250909 142.273435 
L 107.869091 129.322897 
L 110.487273 116.372359 
L 113.105455 103.421821 
L 115.723636 90.471283 
L 118.341818 77.520744 
L 120.96 267.996784 
L 123.578182 255.046245 
L 126.196364 242.095707 
L 128.814545 229.145169 
L 131.432727 216.194631 
L 134.050909 203.244093 
L 136.669091 190.293555 
L 139.287273 177.343017 
L 141.905455 164.392479 
L 144.523636 151.44194 
L 147.141818 138.491402 
L 149.76 125.540864 
L 152.378182 112.590326 
L 154.996364 99.639788 
L 157.614545 86.68925 
L 160.232727 277.165289 
L 162.850909 264.214751 
L 165.469091 251.264213 
L 168.087273 238.313674 
L 170.705455 225.363136 
L 173.323636 212.412598 
L 175.941818 199.46206 
L 178.56 186.511522 
L 181.178182 173.560984 
L 183.796364 160.610446 
L 186.414545 147.659908 
L 189.032727 134.709369 
L 191.650909 121.758831 
L 194.269091 108.808293 
L 196.887273 95.857755 
L 199.505455 82.907217 
L 202.123636 273.383256 
L 204.741818 260.432718 
L 207.36 247.48218 
L 209.978182 234.531642 
L 212.596364 221.581103 
L 215.214545 208.630565 
L 217.832727 195.680027 
L 220.450909 182.729489 
L 223.069091 169.778951 
L 225.687273 156.828413 
L 228.305455 143.877875 
L 230.923636 130.927337 
L 233.541818 117.976798 
L 236.16 105.02626 
L 238.778182 92.075722 
L 241.396364 79.125184 
L 244.014545 269.601223 
L 246.632727 256.650685 
L 249.250909 243.700147 
L 251.869091 230.749609 
L 254.487273 217.799071 
L 257.105455 204.848533 
L 259.723636 191.897994 
L 262.341818 178.947456 
L 264.96 165.996918 
L 267.578182 153.04638 
L 270.196364 140.095842 
L 272.814545 127.145304 
L 275.432727 114.194766 
L 278.050909 101.244228 
L 280.669091 88.293689 
L 283.287273 75.343151 
L 285.905455 265.81919 
L 288.523636 252.868652 
L 291.141818 239.918114 
L 293.76 226.967576 
L 296.378182 214.017038 
L 298.996364 201.0665 
L 301.614545 188.115962 
L 304.232727 175.165423 
L 306.850909 162.214885 
L 309.469091 149.264347 
L 312.087273 136.313809 
L 314.705455 123.363271 
L 317.323636 110.412733 
L 319.941818 97.462195 
L 322.56 84.511657 
L 325.178182 274.987696 
L 327.796364 262.037157 
L 330.414545 249.086619 
L 333.032727 236.136081 
L 335.650909 223.185543 
L 338.269091 210.235005 
L 340.887273 197.284467 
L 343.505455 184.333929 
L 346.123636 171.383391 
L 348.741818 158.432852 
L 351.36 145.482314 
L 353.978182 132.531776 
L 356.596364 119.581238 
L 359.214545 106.6307 
L 361.832727 93.680162 
L 364.450909 80.729624 
L 367.069091 271.205663 
L 369.687273 258.255125 
L 372.305455 245.304587 
L 374.923636 232.354048 
L 377.541818 219.40351 
L 380.16 206.452972 
L 382.778182 193.502434 
L 385.396364 180.551896 
L 388.014545 167.601358 
L 390.632727 154.65082 
L 393.250909 141.700282 
L 395.869091 128.749743 
L 398.487273 115.799205 
" clip-path="url(#pc8d02f8804)" style="fill: none; stroke: #9467bd; stroke-width: 1.5; stroke-linecap: square"/>
   </g>
   <g id="patch_3">
    <path d="M 57.6 307.584 
L 57.6 41.472 
" style="fill: none; stroke: #000000; stroke-width: 0.8; stroke-linejoin: miter; stroke-linecap: square"/>
   </g>
   <g id="patch_4">
    <path d="M 414.72 307.584 
L 414.72 41.472 
" style="fill: none; stroke: #000000; stroke-width: 0.8; stroke-linejoin: miter; stroke-linecap: square"/>
   </g>
   <g id="patch_5">
    <path d="M 57.6 307.584 
L 414.72 307.584 
" style="fill: none; stroke: #000000; stroke-width: 0.8; stroke-linejoin: miter; stroke-linecap: square"/>
   </g>
   <g id="patch_6">
    <path d="M 57.6 41.472 
L 414.72 41.472 
" style="fill: none; stroke: #000000; stroke-width: 0.8; stroke-linejoin: miter; stroke-linecap: square"/>
   </g>
   <g id="text_13">
    <!-- faza=1.6pi dodatnie=6.333333333333333  -->
    <g transform="translate(105.19125 22.034625) scale(0.12 -0.12)">
     <defs>
      <path id="DejaVuSans-66" d="M 2375 4863 
L 2375 4384 
L 1825 4384 
Q 1516 4384 1395 4259 
Q 1275 4134 1275 3809 
L 1275 3500 
L 2222 3500 
L 2222 3053 
L 1275 3053 
L 1275 0 
L 697 0 
L 697 3053 
L 147 3053 
L 147 3500 
L 697 3500 
L 697 3744 
Q 697 4328 969 4595 
Q 1241 4863 1831 4863 
L 2375 4863 
z
" transform="scale(0.015625)"/>
      <path id="DejaVuSans-61" d="M 2194 1759 
Q 1497 1759 1228 1600 
Q 959 1441 959 1056 
Q 959 750 1161 570 
Q 1363 391 1709 391 
Q 2188 391 2477 730 
Q 2766 1069 2766 1631 
L 2766 1759 
L 2194 1759 
z
M 3341 1997 
L 3341 0 
L 2766 0 
L 2766 531 
Q 2569 213 2275 61 
Q 1981 -91 1556 -91 
Q 1019 -91 701 211 
Q 384 513 384 1019 
Q 384 1609 779 1909 
Q 1175 2209 1959 2209 
L 2766 2209 
L 2766 2266 
Q 2766 2663 2505 2880 
Q 2244 3097 1772 3097 
Q 1472 3097 1187 3025 
Q 903 2953 641 2809 
L 641 3341 
Q 956 3463 1253 3523 
Q 1550 3584 1831 3584 
Q 2591 3584 2966 3190 
Q 3341 2797 3341 1997 
z
" transform="scale(0.015625)"/>
      <path id="DejaVuSans-7a" d="M 353 3500 
L 3084 3500 
L 3084 2975 
L 922 459 
L 3084 459 
L 3084 0 
L 275 0 
L 275 525 
L 2438 3041 
L 353 3041 
L 353 3500 
z
" transform="scale(0.015625)"/>
      <path id="DejaVuSans-3d" d="M 678 2906 
L 4684 2906 
L 4684 2381 
L 678 2381 
L 678 2906 
z
M 678 1631 
L 4684 1631 
L 4684 1100 
L 678 1100 
L 678 1631 
z
" transform="scale(0.015625)"/>
      <path id="DejaVuSans-2e" d="M 684 794 
L 1344 794 
L 1344 0 
L 684 0 
L 684 794 
z
" transform="scale(0.015625)"/>
      <path id="DejaVuSans-70" d="M 1159 525 
L 1159 -1331 
L 581 -1331 
L 581 3500 
L 1159 3500 
L 1159 2969 
Q 1341 3281 1617 3432 
Q 1894 3584 2278 3584 
Q 2916 3584 3314 3078 
Q 3713 2572 3713 1747 
Q 3713 922 3314 415 
Q 2916 -91 2278 -91 
Q 1894 -91 1617 61 
Q 1341 213 1159 525 
z
M 3116 1747 
Q 3116 2381 2855 2742 
Q 2594 3103 2138 3103 
Q 1681 3103 1420 2742 
Q 1159 2381 1159 1747 
Q 1159 1113 1420 752 
Q 1681 391 2138 391 
Q 2594 391 2855 752 
Q 3116 1113 3116 1747 
z
" transform="scale(0.015625)"/>
      <path id="DejaVuSans-69" d="M 603 3500 
L 1178 3500 
L 1178 0 
L 603 0 
L 603 3500 
z
M 603 4863 
L 1178 4863 
L 1178 4134 
L 603 4134 
L 603 4863 
z
" transform="scale(0.015625)"/>
      <path id="DejaVuSans-20" transform="scale(0.015625)"/>
      <path id="DejaVuSans-64" d="M 2906 2969 
L 2906 4863 
L 3481 4863 
L 3481 0 
L 2906 0 
L 2906 525 
Q 2725 213 2448 61 
Q 2172 -91 1784 -91 
Q 1150 -91 751 415 
Q 353 922 353 1747 
Q 353 2572 751 3078 
Q 1150 3584 1784 3584 
Q 2172 3584 2448 3432 
Q 2725 3281 2906 2969 
z
M 947 1747 
Q 947 1113 1208 752 
Q 1469 391 1925 391 
Q 2381 391 2643 752 
Q 2906 1113 2906 1747 
Q 2906 2381 2643 2742 
Q 2381 3103 1925 3103 
Q 1469 3103 1208 2742 
Q 947 2381 947 1747 
z
" transform="scale(0.015625)"/>
      <path id="DejaVuSans-6f" d="M 1959 3097 
Q 1497 3097 1228 2736 
Q 959 2375 959 1747 
Q 959 1119 1226 758 
Q 1494 397 1959 397 
Q 2419 397 2687 759 
Q 2956 1122 2956 1747 
Q 2956 2369 2687 2733 
Q 2419 3097 1959 3097 
z
M 1959 3584 
Q 2709 3584 3137 3096 
Q 3566 2609 3566 1747 
Q 3566 888 3137 398 
Q 2709 -91 1959 -91 
Q 1206 -91 779 398 
Q 353 888 353 1747 
Q 353 2609 779 3096 
Q 1206 3584 1959 3584 
z
" transform="scale(0.015625)"/>
      <path id="DejaVuSans-74" d="M 1172 4494 
L 1172 3500 
L 2356 3500 
L 2356 3053 
L 1172 3053 
L 1172 1153 
Q 1172 725 1289 603 
Q 1406 481 1766 481 
L 2356 481 
L 2356 0 
L 1766 0 
Q 1100 0 847 248 
Q 594 497 594 1153 
L 594 3053 
L 172 3053 
L 172 3500 
L 594 3500 
L 594 4494 
L 1172 4494 
z
" transform="scale(0.015625)"/>
      <path id="DejaVuSans-6e" d="M 3513 2113 
L 3513 0 
L 2938 0 
L 2938 2094 
Q 2938 2591 2744 2837 
Q 2550 3084 2163 3084 
Q 1697 3084 1428 2787 
Q 1159 2491 1159 1978 
L 1159 0 
L 581 0 
L 581 3500 
L 1159 3500 
L 1159 2956 
Q 1366 3272 1645 3428 
Q 1925 3584 2291 3584 
Q 2894 3584 3203 3211 
Q 3513 2838 3513 2113 
z
" transform="scale(0.015625)"/>
      <path id="DejaVuSans-65" d="M 3597 1894 
L 3597 1613 
L 953 1613 
Q 991 1019 1311 708 
Q 1631 397 2203 397 
Q 2534 397 2845 478 
Q 3156 559 3463 722 
L 3463 178 
Q 3153 47 2828 -22 
Q 2503 -91 2169 -91 
Q 1331 -91 842 396 
Q 353 884 353 1716 
Q 353 2575 817 3079 
Q 1281 3584 2069 3584 
Q 2775 3584 3186 3129 
Q 3597 2675 3597 1894 
z
M 3022 2063 
Q 3016 2534 2758 2815 
Q 2500 3097 2075 3097 
Q 1594 3097 1305 2825 
Q 1016 2553 972 2059 
L 3022 2063 
z
" transform="scale(0.015625)"/>
      <path id="DejaVuSans-33" d="M 2597 2516 
Q 3050 2419 3304 2112 
Q 3559 1806 3559 1356 
Q 3559 666 3084 287 
Q 2609 -91 1734 -91 
Q 1441 -91 1130 -33 
Q 819 25 488 141 
L 488 750 
Q 750 597 1062 519 
Q 1375 441 1716 441 
Q 2309 441 2620 675 
Q 2931 909 2931 1356 
Q 2931 1769 2642 2001 
Q 2353 2234 1838 2234 
L 1294 2234 
L 1294 2753 
L 1863 2753 
Q 2328 2753 2575 2939 
Q 2822 3125 2822 3475 
Q 2822 3834 2567 4026 
Q 2313 4219 1838 4219 
Q 1578 4219 1281 4162 
Q 984 4106 628 3988 
L 628 4550 
Q 988 4650 1302 4700 
Q 1616 4750 1894 4750 
Q 2613 4750 3031 4423 
Q 3450 4097 3450 3541 
Q 3450 3153 3228 2886 
Q 3006 2619 2597 2516 
z
" transform="scale(0.015625)"/>
     </defs>
     <use xlink:href="#DejaVuSans-66"/>
     <use xlink:href="#DejaVuSans-61" x="35.205078"/>
     <use xlink:href="#DejaVuSans-7a" x="96.484375"/>
     <use xlink:href="#DejaVuSans-61" x="148.974609"/>
     <use xlink:href="#DejaVuSans-3d" x="210.253906"/>
     <use xlink:href="#DejaVuSans-31" x="294.042969"/>
     <use xlink:href="#DejaVuSans-2e" x="357.666016"/>
     <use xlink:href="#DejaVuSans-36" x="389.453125"/>
     <use xlink:href="#DejaVuSans-70" x="453.076172"/>
     <use xlink:href="#DejaVuSans-69" x="516.552734"/>
     <use xlink:href="#DejaVuSans-20" x="544.335938"/>
     <use xlink:href="#DejaVuSans-64" x="576.123047"/>
     <use xlink:href="#DejaVuSans-6f" x="639.599609"/>
     <use xlink:href="#DejaVuSans-64" x="700.78125"/>
     <use xlink:href="#DejaVuSans-61" x="764.257812"/>
     <use xlink:href="#DejaVuSans-74" x="825.537109"/>
     <use xlink:href="#DejaVuSans-6e" x="864.746094"/>
     <use xlink:href="#DejaVuSans-69" x="928.125"/>
     <use xlink:href="#DejaVuSans-65" x="955.908203"/>
     <use xlink:href="#DejaVuSans-3d" x="1017.431641"/>
     <use xlink:href="#DejaVuSans-36" x="1101.220703"/>
     <use xlink:href="#DejaVuSans-2e" x="1164.84375"/>
     <use xlink:href="#DejaVuSans-33" x="1196.630859"/>
     <use xlink:href="#DejaVuSans-33" x="1260.253906"/>
     <use xlink:href="#DejaVuSans-33" x="1323.876953"/>
     <use xlink:href="#DejaVuSans-33" x="1387.5"/>
     <use xlink:href="#DejaVuSans-33" x="1451.123047"/>
     <use xlink:href="#DejaVuSans-33" x="1514.746094"/>
     <use xlink:href="#DejaVuSans-33" x="1578.369141"/>
     <use xlink:href="#DejaVuSans-33" x="1641.992188"/>
     <use xlink:href="#DejaVuSans-33" x="1705.615234"/>
     <use xlink:href="#DejaVuSans-33" x="1769.238281"/>
     <use xlink:href="#DejaVuSans-33" x="1832.861328"/>
     <use xlink:href="#DejaVuSans-33" x="1896.484375"/>
     <use xlink:href="#DejaVuSans-33" x="1960.107422"/>
     <use xlink:href="#DejaVuSans-33" x="2023.730469"/>
     <use xlink:href="#DejaVuSans-33" x="2087.353516"/>
     <use xlink:href="#DejaVuSans-20" x="2150.976562"/>
    </g>
    <!-- ujemne=9.428571428571429 wynik=-72.0 -->
    <g transform="translate(105.784687 35.472) scale(0.12 -0.12)">
     <defs>
      <path id="DejaVuSans-75" d="M 544 1381 
L 544 3500 
L 1119 3500 
L 1119 1403 
Q 1119 906 1312 657 
Q 1506 409 1894 409 
Q 2359 409 2629 706 
Q 2900 1003 2900 1516 
L 2900 3500 
L 3475 3500 
L 3475 0 
L 2900 0 
L 2900 538 
Q 2691 219 2414 64 
Q 2138 -91 1772 -91 
Q 1169 -91 856 284 
Q 544 659 544 1381 
z
M 1991 3584 
L 1991 3584 
z
" transform="scale(0.015625)"/>
      <path id="DejaVuSans-6a" d="M 603 3500 
L 1178 3500 
L 1178 -63 
Q 1178 -731 923 -1031 
Q 669 -1331 103 -1331 
L -116 -1331 
L -116 -844 
L 38 -844 
Q 366 -844 484 -692 
Q 603 -541 603 -63 
L 603 3500 
z
M 603 4863 
L 1178 4863 
L 1178 4134 
L 603 4134 
L 603 4863 
z
" transform="scale(0.015625)"/>
      <path id="DejaVuSans-6d" d="M 3328 2828 
Q 3544 3216 3844 3400 
Q 4144 3584 4550 3584 
Q 5097 3584 5394 3201 
Q 5691 2819 5691 2113 
L 5691 0 
L 5113 0 
L 5113 2094 
Q 5113 2597 4934 2840 
Q 4756 3084 4391 3084 
Q 3944 3084 3684 2787 
Q 3425 2491 3425 1978 
L 3425 0 
L 2847 0 
L 2847 2094 
Q 2847 2600 2669 2842 
Q 2491 3084 2119 3084 
Q 1678 3084 1418 2786 
Q 1159 2488 1159 1978 
L 1159 0 
L 581 0 
L 581 3500 
L 1159 3500 
L 1159 2956 
Q 1356 3278 1631 3431 
Q 1906 3584 2284 3584 
Q 2666 3584 2933 3390 
Q 3200 3197 3328 2828 
z
" transform="scale(0.015625)"/>
      <path id="DejaVuSans-39" d="M 703 97 
L 703 672 
Q 941 559 1184 500 
Q 1428 441 1663 441 
Q 2288 441 2617 861 
Q 2947 1281 2994 2138 
Q 2813 1869 2534 1725 
Q 2256 1581 1919 1581 
Q 1219 1581 811 2004 
Q 403 2428 403 3163 
Q 403 3881 828 4315 
Q 1253 4750 1959 4750 
Q 2769 4750 3195 4129 
Q 3622 3509 3622 2328 
Q 3622 1225 3098 567 
Q 2575 -91 1691 -91 
Q 1453 -91 1209 -44 
Q 966 3 703 97 
z
M 1959 2075 
Q 2384 2075 2632 2365 
Q 2881 2656 2881 3163 
Q 2881 3666 2632 3958 
Q 2384 4250 1959 4250 
Q 1534 4250 1286 3958 
Q 1038 3666 1038 3163 
Q 1038 2656 1286 2365 
Q 1534 2075 1959 2075 
z
" transform="scale(0.015625)"/>
      <path id="DejaVuSans-37" d="M 525 4666 
L 3525 4666 
L 3525 4397 
L 1831 0 
L 1172 0 
L 2766 4134 
L 525 4134 
L 525 4666 
z
" transform="scale(0.015625)"/>
      <path id="DejaVuSans-77" d="M 269 3500 
L 844 3500 
L 1563 769 
L 2278 3500 
L 2956 3500 
L 3675 769 
L 4391 3500 
L 4966 3500 
L 4050 0 
L 3372 0 
L 2619 2869 
L 1863 0 
L 1184 0 
L 269 3500 
z
" transform="scale(0.015625)"/>
      <path id="DejaVuSans-79" d="M 2059 -325 
Q 1816 -950 1584 -1140 
Q 1353 -1331 966 -1331 
L 506 -1331 
L 506 -850 
L 844 -850 
Q 1081 -850 1212 -737 
Q 1344 -625 1503 -206 
L 1606 56 
L 191 3500 
L 800 3500 
L 1894 763 
L 2988 3500 
L 3597 3500 
L 2059 -325 
z
" transform="scale(0.015625)"/>
      <path id="DejaVuSans-6b" d="M 581 4863 
L 1159 4863 
L 1159 1991 
L 2875 3500 
L 3609 3500 
L 1753 1863 
L 3688 0 
L 2938 0 
L 1159 1709 
L 1159 0 
L 581 0 
L 581 4863 
z
" transform="scale(0.015625)"/>
      <path id="DejaVuSans-2d" d="M 313 2009 
L 1997 2009 
L 1997 1497 
L 313 1497 
L 313 2009 
z
" transform="scale(0.015625)"/>
     </defs>
     <use xlink:href="#DejaVuSans-75"/>
     <use xlink:href="#DejaVuSans-6a" x="63.378906"/>
     <use xlink:href="#DejaVuSans-65" x="91.162109"/>
     <use xlink:href="#DejaVuSans-6d" x="152.685547"/>
     <use xlink:href="#DejaVuSans-6e" x="250.097656"/>
     <use xlink:href="#DejaVuSans-65" x="313.476562"/>
     <use xlink:href="#DejaVuSans-3d" x="375"/>
     <use xlink:href="#DejaVuSans-39" x="458.789062"/>
     <use xlink:href="#DejaVuSans-2e" x="522.412109"/>
     <use xlink:href="#DejaVuSans-34" x="554.199219"/>
     <use xlink:href="#DejaVuSans-32" x="617.822266"/>
     <use xlink:href="#DejaVuSans-38" x="681.445312"/>
     <use xlink:href="#DejaVuSans-35" x="745.068359"/>
     <use xlink:href="#DejaVuSans-37" x="808.691406"/>
     <use xlink:href="#DejaVuSans-31" x="872.314453"/>
     <use xlink:href="#DejaVuSans-34" x="935.9375"/>
     <use xlink:href="#DejaVuSans-32" x="999.560547"/>
     <use xlink:href="#DejaVuSans-38" x="1063.183594"/>
     <use xlink:href="#DejaVuSans-35" x="1126.806641"/>
     <use xlink:href="#DejaVuSans-37" x="1190.429688"/>
     <use xlink:href="#DejaVuSans-31" x="1254.052734"/>
     <use xlink:href="#DejaVuSans-34" x="1317.675781"/>
     <use xlink:href="#DejaVuSans-32" x="1381.298828"/>
     <use xlink:href="#DejaVuSans-39" x="1444.921875"/>
     <use xlink:href="#DejaVuSans-20" x="1508.544922"/>
     <use xlink:href="#DejaVuSans-77" x="1540.332031"/>
     <use xlink:href="#DejaVuSans-79" x="1622.119141"/>
     <use xlink:href="#DejaVuSans-6e" x="1681.298828"/>
     <use xlink:href="#DejaVuSans-69" x="1744.677734"/>
     <use xlink:href="#DejaVuSans-6b" x="1772.460938"/>
     <use xlink:href="#DejaVuSans-3d" x="1830.371094"/>
     <use xlink:href="#DejaVuSans-2d" x="1914.160156"/>
     <use xlink:href="#DejaVuSans-37" x="1950.244141"/>
     <use xlink:href="#DejaVuSans-32" x="2013.867188"/>
     <use xlink:href="#DejaVuSans-2e" x="2077.490234"/>
     <use xlink:href="#DejaVuSans-30" x="2109.277344"/>
    </g>
   </g>
  </g>
 </g>
 <defs>
  <clipPath id="pc8d02f8804">
   <rect x="57.6" y="41.472" width="357.12" height="266.112"/>
  </clipPath>
 </defs>
</svg>
