<?xml version="1.0" encoding="utf-8" standalone="no"?>
<!DOCTYPE svg PUBLIC "-//W3C//DTD SVG 1.1//EN"
  "http://www.w3.org/Graphics/SVG/1.1/DTD/svg11.dtd">
<svg xmlns:xlink="http://www.w3.org/1999/xlink" width="460.8pt" height="345.6pt" viewBox="0 0 460.8 345.6" xmlns="http://www.w3.org/2000/svg" version="1.1">
 <metadata>
  <rdf:RDF xmlns:dc="http://purl.org/dc/elements/1.1/" xmlns:cc="http://creativecommons.org/ns#" xmlns:rdf="http://www.w3.org/1999/02/22-rdf-syntax-ns#">
   <cc:Work>
    <dc:type rdf:resource="http://purl.org/dc/dcmitype/StillImage"/>
    <dc:date>2023-11-19T21:44:40.831380</dc:date>
    <dc:format>image/svg+xml</dc:format>
    <dc:creator>
     <cc:Agent>
      <dc:title>Matplotlib v3.8.0, https://matplotlib.org/</dc:title>
     </cc:Agent>
    </dc:creator>
   </cc:Work>
  </rdf:RDF>
 </metadata>
 <defs>
  <style type="text/css">*{stroke-linejoin: round; stroke-linecap: butt}</style>
 </defs>
 <g id="figure_1">
  <g id="patch_1">
   <path d="M 0 345.6 
L 460.8 345.6 
L 460.8 0 
L 0 0 
z
" style="fill: #ffffff"/>
  </g>
  <g id="axes_1">
   <g id="patch_2">
    <path d="M 57.6 307.584 
L 414.72 307.584 
L 414.72 41.472 
L 57.6 41.472 
z
" style="fill: #ffffff"/>
   </g>
   <g id="matplotlib.axis_1">
    <g id="xtick_1">
     <g id="line2d_1">
      <path d="M 73.832727 307.584 
L 73.832727 41.472 
" clip-path="url(#p018b2e4c55)" style="fill: none; stroke: #b0b0b0; stroke-width: 0.8; stroke-linecap: square"/>
     </g>
     <g id="line2d_2">
      <defs>
       <path id="ma092f1e210" d="M 0 0 
L 0 3.5 
" style="stroke: #000000; stroke-width: 0.8"/>
      </defs>
      <g>
       <use xlink:href="#ma092f1e210" x="73.832727" y="307.584" style="stroke: #000000; stroke-width: 0.8"/>
      </g>
     </g>
     <g id="text_1">
      <!-- 0 -->
      <g transform="translate(70.651477 322.182437) scale(0.1 -0.1)">
       <defs>
        <path id="DejaVuSans-30" d="M 2034 4250 
Q 1547 4250 1301 3770 
Q 1056 3291 1056 2328 
Q 1056 1369 1301 889 
Q 1547 409 2034 409 
Q 2525 409 2770 889 
Q 3016 1369 3016 2328 
Q 3016 3291 2770 3770 
Q 2525 4250 2034 4250 
z
M 2034 4750 
Q 2819 4750 3233 4129 
Q 3647 3509 3647 2328 
Q 3647 1150 3233 529 
Q 2819 -91 2034 -91 
Q 1250 -91 836 529 
Q 422 1150 422 2328 
Q 422 3509 836 4129 
Q 1250 4750 2034 4750 
z
" transform="scale(0.015625)"/>
       </defs>
       <use xlink:href="#DejaVuSans-30"/>
      </g>
     </g>
    </g>
    <g id="xtick_2">
     <g id="line2d_3">
      <path d="M 139.552271 307.584 
L 139.552271 41.472 
" clip-path="url(#p018b2e4c55)" style="fill: none; stroke: #b0b0b0; stroke-width: 0.8; stroke-linecap: square"/>
     </g>
     <g id="line2d_4">
      <g>
       <use xlink:href="#ma092f1e210" x="139.552271" y="307.584" style="stroke: #000000; stroke-width: 0.8"/>
      </g>
     </g>
     <g id="text_2">
      <!-- 50 -->
      <g transform="translate(133.189771 322.182437) scale(0.1 -0.1)">
       <defs>
        <path id="DejaVuSans-35" d="M 691 4666 
L 3169 4666 
L 3169 4134 
L 1269 4134 
L 1269 2991 
Q 1406 3038 1543 3061 
Q 1681 3084 1819 3084 
Q 2600 3084 3056 2656 
Q 3513 2228 3513 1497 
Q 3513 744 3044 326 
Q 2575 -91 1722 -91 
Q 1428 -91 1123 -41 
Q 819 9 494 109 
L 494 744 
Q 775 591 1075 516 
Q 1375 441 1709 441 
Q 2250 441 2565 725 
Q 2881 1009 2881 1497 
Q 2881 1984 2565 2268 
Q 2250 2553 1709 2553 
Q 1456 2553 1204 2497 
Q 953 2441 691 2322 
L 691 4666 
z
" transform="scale(0.015625)"/>
       </defs>
       <use xlink:href="#DejaVuSans-35"/>
       <use xlink:href="#DejaVuSans-30" x="63.623047"/>
      </g>
     </g>
    </g>
    <g id="xtick_3">
     <g id="line2d_5">
      <path d="M 205.271815 307.584 
L 205.271815 41.472 
" clip-path="url(#p018b2e4c55)" style="fill: none; stroke: #b0b0b0; stroke-width: 0.8; stroke-linecap: square"/>
     </g>
     <g id="line2d_6">
      <g>
       <use xlink:href="#ma092f1e210" x="205.271815" y="307.584" style="stroke: #000000; stroke-width: 0.8"/>
      </g>
     </g>
     <g id="text_3">
      <!-- 100 -->
      <g transform="translate(195.728065 322.182437) scale(0.1 -0.1)">
       <defs>
        <path id="DejaVuSans-31" d="M 794 531 
L 1825 531 
L 1825 4091 
L 703 3866 
L 703 4441 
L 1819 4666 
L 2450 4666 
L 2450 531 
L 3481 531 
L 3481 0 
L 794 0 
L 794 531 
z
" transform="scale(0.015625)"/>
       </defs>
       <use xlink:href="#DejaVuSans-31"/>
       <use xlink:href="#DejaVuSans-30" x="63.623047"/>
       <use xlink:href="#DejaVuSans-30" x="127.246094"/>
      </g>
     </g>
    </g>
    <g id="xtick_4">
     <g id="line2d_7">
      <path d="M 270.991358 307.584 
L 270.991358 41.472 
" clip-path="url(#p018b2e4c55)" style="fill: none; stroke: #b0b0b0; stroke-width: 0.8; stroke-linecap: square"/>
     </g>
     <g id="line2d_8">
      <g>
       <use xlink:href="#ma092f1e210" x="270.991358" y="307.584" style="stroke: #000000; stroke-width: 0.8"/>
      </g>
     </g>
     <g id="text_4">
      <!-- 150 -->
      <g transform="translate(261.447608 322.182437) scale(0.1 -0.1)">
       <use xlink:href="#DejaVuSans-31"/>
       <use xlink:href="#DejaVuSans-35" x="63.623047"/>
       <use xlink:href="#DejaVuSans-30" x="127.246094"/>
      </g>
     </g>
    </g>
    <g id="xtick_5">
     <g id="line2d_9">
      <path d="M 336.710902 307.584 
L 336.710902 41.472 
" clip-path="url(#p018b2e4c55)" style="fill: none; stroke: #b0b0b0; stroke-width: 0.8; stroke-linecap: square"/>
     </g>
     <g id="line2d_10">
      <g>
       <use xlink:href="#ma092f1e210" x="336.710902" y="307.584" style="stroke: #000000; stroke-width: 0.8"/>
      </g>
     </g>
     <g id="text_5">
      <!-- 200 -->
      <g transform="translate(327.167152 322.182437) scale(0.1 -0.1)">
       <defs>
        <path id="DejaVuSans-32" d="M 1228 531 
L 3431 531 
L 3431 0 
L 469 0 
L 469 531 
Q 828 903 1448 1529 
Q 2069 2156 2228 2338 
Q 2531 2678 2651 2914 
Q 2772 3150 2772 3378 
Q 2772 3750 2511 3984 
Q 2250 4219 1831 4219 
Q 1534 4219 1204 4116 
Q 875 4013 500 3803 
L 500 4441 
Q 881 4594 1212 4672 
Q 1544 4750 1819 4750 
Q 2544 4750 2975 4387 
Q 3406 4025 3406 3419 
Q 3406 3131 3298 2873 
Q 3191 2616 2906 2266 
Q 2828 2175 2409 1742 
Q 1991 1309 1228 531 
z
" transform="scale(0.015625)"/>
       </defs>
       <use xlink:href="#DejaVuSans-32"/>
       <use xlink:href="#DejaVuSans-30" x="63.623047"/>
       <use xlink:href="#DejaVuSans-30" x="127.246094"/>
      </g>
     </g>
    </g>
    <g id="xtick_6">
     <g id="line2d_11">
      <path d="M 402.430445 307.584 
L 402.430445 41.472 
" clip-path="url(#p018b2e4c55)" style="fill: none; stroke: #b0b0b0; stroke-width: 0.8; stroke-linecap: square"/>
     </g>
     <g id="line2d_12">
      <g>
       <use xlink:href="#ma092f1e210" x="402.430445" y="307.584" style="stroke: #000000; stroke-width: 0.8"/>
      </g>
     </g>
     <g id="text_6">
      <!-- 250 -->
      <g transform="translate(392.886695 322.182437) scale(0.1 -0.1)">
       <use xlink:href="#DejaVuSans-32"/>
       <use xlink:href="#DejaVuSans-35" x="63.623047"/>
       <use xlink:href="#DejaVuSans-30" x="127.246094"/>
      </g>
     </g>
    </g>
   </g>
   <g id="matplotlib.axis_2">
    <g id="ytick_1">
     <g id="line2d_13">
      <path d="M 57.6 288.635247 
L 414.72 288.635247 
" clip-path="url(#p018b2e4c55)" style="fill: none; stroke: #b0b0b0; stroke-width: 0.8; stroke-linecap: square"/>
     </g>
     <g id="line2d_14">
      <defs>
       <path id="ma9e503c553" d="M 0 0 
L -3.5 0 
" style="stroke: #000000; stroke-width: 0.8"/>
      </defs>
      <g>
       <use xlink:href="#ma9e503c553" x="57.6" y="288.635247" style="stroke: #000000; stroke-width: 0.8"/>
      </g>
     </g>
     <g id="text_7">
      <!-- −100 -->
      <g transform="translate(23.132812 292.434466) scale(0.1 -0.1)">
       <defs>
        <path id="DejaVuSans-2212" d="M 678 2272 
L 4684 2272 
L 4684 1741 
L 678 1741 
L 678 2272 
z
" transform="scale(0.015625)"/>
       </defs>
       <use xlink:href="#DejaVuSans-2212"/>
       <use xlink:href="#DejaVuSans-31" x="83.789062"/>
       <use xlink:href="#DejaVuSans-30" x="147.412109"/>
       <use xlink:href="#DejaVuSans-30" x="211.035156"/>
      </g>
     </g>
    </g>
    <g id="ytick_2">
     <g id="line2d_15">
      <path d="M 57.6 232.128697 
L 414.72 232.128697 
" clip-path="url(#p018b2e4c55)" style="fill: none; stroke: #b0b0b0; stroke-width: 0.8; stroke-linecap: square"/>
     </g>
     <g id="line2d_16">
      <g>
       <use xlink:href="#ma9e503c553" x="57.6" y="232.128697" style="stroke: #000000; stroke-width: 0.8"/>
      </g>
     </g>
     <g id="text_8">
      <!-- −50 -->
      <g transform="translate(29.495313 235.927916) scale(0.1 -0.1)">
       <use xlink:href="#DejaVuSans-2212"/>
       <use xlink:href="#DejaVuSans-35" x="83.789062"/>
       <use xlink:href="#DejaVuSans-30" x="147.412109"/>
      </g>
     </g>
    </g>
    <g id="ytick_3">
     <g id="line2d_17">
      <path d="M 57.6 175.622148 
L 414.72 175.622148 
" clip-path="url(#p018b2e4c55)" style="fill: none; stroke: #b0b0b0; stroke-width: 0.8; stroke-linecap: square"/>
     </g>
     <g id="line2d_18">
      <g>
       <use xlink:href="#ma9e503c553" x="57.6" y="175.622148" style="stroke: #000000; stroke-width: 0.8"/>
      </g>
     </g>
     <g id="text_9">
      <!-- 0 -->
      <g transform="translate(44.2375 179.421366) scale(0.1 -0.1)">
       <use xlink:href="#DejaVuSans-30"/>
      </g>
     </g>
    </g>
    <g id="ytick_4">
     <g id="line2d_19">
      <path d="M 57.6 119.115598 
L 414.72 119.115598 
" clip-path="url(#p018b2e4c55)" style="fill: none; stroke: #b0b0b0; stroke-width: 0.8; stroke-linecap: square"/>
     </g>
     <g id="line2d_20">
      <g>
       <use xlink:href="#ma9e503c553" x="57.6" y="119.115598" style="stroke: #000000; stroke-width: 0.8"/>
      </g>
     </g>
     <g id="text_10">
      <!-- 50 -->
      <g transform="translate(37.875 122.914817) scale(0.1 -0.1)">
       <use xlink:href="#DejaVuSans-35"/>
       <use xlink:href="#DejaVuSans-30" x="63.623047"/>
      </g>
     </g>
    </g>
    <g id="ytick_5">
     <g id="line2d_21">
      <path d="M 57.6 62.609048 
L 414.72 62.609048 
" clip-path="url(#p018b2e4c55)" style="fill: none; stroke: #b0b0b0; stroke-width: 0.8; stroke-linecap: square"/>
     </g>
     <g id="line2d_22">
      <g>
       <use xlink:href="#ma9e503c553" x="57.6" y="62.609048" style="stroke: #000000; stroke-width: 0.8"/>
      </g>
     </g>
     <g id="text_11">
      <!-- 100 -->
      <g transform="translate(31.5125 66.408267) scale(0.1 -0.1)">
       <use xlink:href="#DejaVuSans-31"/>
       <use xlink:href="#DejaVuSans-30" x="63.623047"/>
       <use xlink:href="#DejaVuSans-30" x="127.246094"/>
      </g>
     </g>
    </g>
   </g>
   <g id="line2d_23">
    <path d="M 73.832727 256.991579 
L 75.147118 256.991579 
L 76.461509 53.568 
L 90.919809 53.568 
L 92.234199 256.991579 
L 115.893235 256.991579 
L 117.207626 53.568 
L 132.980317 53.568 
L 134.294707 256.991579 
L 156.639352 256.991579 
L 157.953743 53.568 
L 173.726434 53.568 
L 175.040824 256.991579 
L 198.69986 256.991579 
L 200.014251 53.568 
L 214.472551 53.568 
L 215.786941 256.991579 
L 239.445977 256.991579 
L 240.760368 53.568 
L 256.533059 53.568 
L 257.847449 256.991579 
L 281.506485 256.991579 
L 282.820876 53.568 
L 297.279176 53.568 
L 298.593566 256.991579 
L 322.252602 256.991579 
L 323.566993 53.568 
L 339.339683 53.568 
L 340.654074 256.991579 
L 364.31311 256.991579 
L 365.627501 53.568 
L 380.085801 53.568 
L 381.400191 256.991579 
L 398.487273 256.991579 
L 398.487273 256.991579 
" clip-path="url(#p018b2e4c55)" style="fill: none; stroke: #1f77b4; stroke-width: 1.5; stroke-linecap: square"/>
   </g>
   <g id="line2d_24">
    <path d="M 73.832727 75.712699 
L 75.147118 69.599753 
L 76.461509 64.546149 
L 77.7759 60.602379 
L 79.090291 57.807848 
L 80.404682 56.19048 
L 81.719073 55.766433 
L 83.033463 56.539944 
L 84.347854 58.503286 
L 85.662245 61.63684 
L 86.976636 65.909298 
L 88.291027 71.277971 
L 89.605418 77.689216 
L 90.919809 85.078975 
L 92.234199 93.373411 
L 94.862981 112.336603 
L 97.491763 133.82279 
L 101.434936 168.889743 
L 106.692499 216.0265 
L 109.321281 237.64166 
L 111.950063 256.784298 
L 113.264453 265.18522 
L 114.578844 272.691257 
L 115.893235 279.227412 
L 117.207626 284.728377 
L 118.522017 289.139189 
L 119.836408 292.415776 
L 121.150799 294.5254 
L 122.46519 295.446982 
L 123.77958 295.171313 
L 125.093971 293.701149 
L 126.408362 291.051179 
L 127.722753 287.247879 
L 129.037144 282.329253 
L 130.351535 276.344444 
L 131.665926 269.353251 
L 132.980317 261.425529 
L 134.294707 252.640487 
L 136.923489 232.857244 
L 139.552271 210.792218 
L 144.809834 163.391369 
L 148.753007 128.698959 
L 151.381789 107.720549 
L 154.01057 89.449162 
L 155.324961 81.561278 
L 156.639352 74.613219 
L 157.953743 68.674408 
L 159.268134 63.804184 
L 160.582525 60.051208 
L 161.896916 57.452978 
L 163.211307 56.035456 
L 164.525697 55.812804 
L 165.840088 56.787248 
L 167.154479 58.949051 
L 168.46887 62.276612 
L 169.783261 66.736685 
L 171.097652 72.284706 
L 172.412043 78.86524 
L 173.726434 86.412537 
L 175.040824 94.851187 
L 177.669606 114.057217 
L 180.298388 135.717647 
L 184.241561 170.902971 
L 189.499124 217.918298 
L 192.127906 239.357612 
L 194.756688 258.255994 
L 196.071078 266.512081 
L 197.385469 273.860025 
L 198.69986 280.226409 
L 200.014251 285.547622 
L 201.328642 289.770496 
L 202.643033 292.852837 
L 203.957424 294.763848 
L 205.271815 295.484435 
L 206.586205 295.007397 
L 207.900596 293.337501 
L 209.214987 290.491433 
L 210.529378 286.497628 
L 211.843769 281.395992 
L 213.15816 275.237499 
L 214.472551 268.083683 
L 215.786941 260.006021 
L 218.415723 241.410424 
L 221.044505 220.192055 
L 224.987678 185.31759 
L 230.245241 138.026194 
L 232.874023 116.163061 
L 235.502805 96.670373 
L 236.817195 88.060364 
L 238.131586 80.325243 
L 239.445977 73.542298 
L 240.760368 67.7793 
L 242.074759 63.093833 
L 243.38915 59.532712 
L 244.703541 57.131517 
L 246.017932 55.914242 
L 247.332322 55.893049 
L 248.646713 57.068149 
L 249.961104 59.427802 
L 251.275495 62.94843 
L 252.589886 67.594857 
L 253.904277 73.320657 
L 255.218668 80.068619 
L 256.533059 87.771321 
L 257.847449 96.351799 
L 260.476231 115.795237 
L 263.105013 137.623786 
L 267.048185 172.917532 
L 270.991358 208.452874 
L 273.62014 230.702011 
L 276.248922 250.755288 
L 277.563312 259.704327 
L 278.877703 267.813244 
L 280.192094 275.001019 
L 281.506485 281.195832 
L 282.820876 286.335788 
L 284.135267 290.36953 
L 285.449658 293.256754 
L 286.764049 294.968612 
L 288.078439 295.488 
L 289.39283 294.809728 
L 290.707221 292.940572 
L 292.021612 289.89921 
L 293.336003 285.716029 
L 294.650394 280.432827 
L 295.964785 274.102391 
L 297.279176 266.787973 
L 298.593566 258.562656 
L 301.222348 239.716344 
L 303.85113 218.314799 
L 307.794303 183.307367 
L 313.051866 136.11775 
L 315.680648 114.421441 
L 318.30943 95.16501 
L 319.62382 86.696322 
L 320.938211 79.116151 
L 322.252602 72.500237 
L 323.566993 66.914682 
L 324.881384 62.415297 
L 326.195775 59.047037 
L 327.510166 56.843557 
L 328.824556 55.826873 
L 330.138947 56.007145 
L 331.453338 57.382569 
L 332.767729 59.939405 
L 334.08212 63.652104 
L 335.396511 68.483571 
L 336.710902 74.385531 
L 338.025293 81.299014 
L 339.339683 89.154943 
L 340.654074 97.874823 
L 343.282856 117.550172 
L 345.911638 139.540668 
L 349.85481 174.932858 
L 353.797983 210.386621 
L 356.426765 232.484306 
L 359.055547 252.315077 
L 360.369937 261.128887 
L 361.684328 269.088343 
L 362.998719 276.113915 
L 364.31311 282.135406 
L 365.627501 287.092652 
L 366.941892 290.936122 
L 368.256283 293.627413 
L 369.570674 295.139634 
L 370.885064 295.457676 
L 372.199455 294.578361 
L 373.513846 292.510474 
L 374.828237 289.274678 
L 376.142628 284.903304 
L 377.457019 279.440028 
L 378.77141 272.939439 
L 380.085801 265.466487 
L 381.400191 257.095841 
L 384.028973 238.004143 
L 386.657755 216.425473 
L 390.600927 181.29497 
L 395.858491 134.220475 
L 398.487273 112.697124 
L 398.487273 112.697124 
" clip-path="url(#p018b2e4c55)" style="fill: none; stroke: #ff7f0e; stroke-width: 1.5; stroke-linecap: square"/>
   </g>
   <g id="line2d_25">
    <path d="M 73.832727 81.758917 
L 75.147118 89.670723 
L 76.461509 98.441327 
L 79.090291 118.200692 
L 81.719073 140.24927 
L 86.976636 187.641813 
L 90.919809 222.349996 
L 93.54859 243.348768 
L 96.177372 261.647494 
L 97.491763 269.551332 
L 98.806154 276.51666 
L 100.120545 282.473884 
L 101.434936 287.363481 
L 102.749326 291.136596 
L 104.063717 293.755528 
L 105.378108 295.19411 
L 106.692499 295.437969 
L 108.00689 294.484668 
L 109.321281 292.343732 
L 110.635672 289.036552 
L 111.950063 284.596173 
L 113.264453 279.066962 
L 114.578844 272.504164 
L 115.893235 264.973353 
L 117.207626 256.549775 
L 119.836408 237.369056 
L 122.46519 215.726683 
L 126.408362 180.553354 
L 131.665926 133.524615 
L 134.294707 112.066502 
L 136.923489 93.142151 
L 138.23788 84.870705 
L 139.552271 77.506018 
L 140.866662 71.121674 
L 142.181053 65.781465 
L 143.495444 61.538747 
L 144.809834 58.435914 
L 146.124225 56.503966 
L 147.438616 55.762207 
L 148.753007 56.21805 
L 150.067398 57.866939 
L 151.381789 60.692399 
L 152.69618 64.666199 
L 154.01057 69.748634 
L 155.324961 75.888922 
L 156.639352 83.025712 
L 157.953743 91.087695 
L 160.582525 109.656589 
L 163.211307 130.855322 
L 167.154479 165.715214 
L 172.412043 213.016548 
L 175.040824 234.896887 
L 177.669606 254.414129 
L 178.983997 263.038875 
L 180.298388 270.790183 
L 181.612779 277.590603 
L 182.92717 283.372188 
L 184.241561 288.07717 
L 185.555951 291.658539 
L 186.870342 294.08051 
L 188.184733 295.318885 
L 189.499124 295.361289 
L 190.813515 294.2073 
L 192.127906 291.868447 
L 193.442297 288.368099 
L 194.756688 283.741231 
L 196.071078 278.034073 
L 197.385469 271.303649 
L 198.69986 263.617207 
L 200.014251 255.051547 
L 202.643033 235.632845 
L 205.271815 213.821707 
L 209.214987 178.538906 
L 214.472551 131.643491 
L 217.101332 110.36665 
L 219.730114 91.691339 
L 221.044505 83.566819 
L 222.358896 76.362085 
L 223.673287 70.149125 
L 224.987678 64.990016 
L 226.302068 60.936307 
L 227.616459 58.028502 
L 228.93085 56.295653 
L 230.245241 55.755074 
L 231.559632 56.412168 
L 232.874023 58.260369 
L 234.188414 61.28121 
L 235.502805 65.444508 
L 236.817195 70.708664 
L 238.131586 77.021081 
L 239.445977 84.318687 
L 240.760368 92.528568 
L 243.38915 111.348733 
L 246.017932 132.731277 
L 249.961104 167.725176 
L 255.218668 214.926137 
L 257.847449 236.6403 
L 260.476231 255.921862 
L 261.790622 264.405542 
L 263.105013 272.002127 
L 264.419404 278.635716 
L 265.733795 284.240027 
L 267.048185 288.759065 
L 268.362576 292.147675 
L 269.676967 294.372002 
L 270.991358 295.409818 
L 272.305749 295.250756 
L 273.62014 293.896405 
L 274.934531 291.360296 
L 276.248922 287.66777 
L 277.563312 282.855721 
L 278.877703 276.97223 
L 280.192094 270.076082 
L 281.506485 262.236181 
L 282.820876 253.530862 
L 285.449658 233.879668 
L 288.078439 211.90593 
L 292.021612 176.523634 
L 295.964785 141.06081 
L 298.593566 118.946884 
L 301.222348 99.092422 
L 302.536739 90.264257 
L 303.85113 82.288959 
L 305.165521 75.246216 
L 306.479912 69.206396 
L 307.794303 64.229846 
L 309.108693 60.366292 
L 310.423084 57.654336 
L 311.737475 56.121076 
L 313.051866 55.781831 
L 314.366257 56.639991 
L 315.680648 58.686981 
L 316.995039 61.902348 
L 318.30943 66.253967 
L 319.62382 71.698356 
L 320.938211 78.181117 
L 322.252602 85.637476 
L 323.566993 93.992933 
L 326.195775 113.059049 
L 328.824556 134.619358 
L 332.767729 169.737371 
L 338.025293 216.824613 
L 340.654074 238.366461 
L 343.282856 257.406892 
L 344.597247 265.747107 
L 345.911638 273.186823 
L 347.226029 279.651705 
L 348.54042 285.077158 
L 349.85481 289.408973 
L 351.169201 292.603867 
L 352.483592 294.629919 
L 353.797983 295.466884 
L 355.112374 295.106401 
L 356.426765 293.55207 
L 357.741156 290.819423 
L 359.055547 286.935762 
L 360.369937 281.939893 
L 361.684328 275.881732 
L 362.998719 268.82181 
L 364.31311 260.830668 
L 365.627501 251.988151 
L 368.256283 232.11002 
L 370.885064 209.979895 
L 376.142628 162.547307 
L 380.085801 127.919074 
L 382.714582 107.02277 
L 385.343364 88.861307 
L 386.657755 81.037487 
L 387.972146 74.158725 
L 389.286537 68.293753 
L 390.600927 63.50117 
L 391.915318 59.828863 
L 393.229709 57.313524 
L 394.5441 55.980286 
L 395.858491 55.84247 
L 397.172882 56.901452 
L 398.487273 59.146653 
L 398.487273 59.146653 
" clip-path="url(#p018b2e4c55)" style="fill: none; stroke: #2ca02c; stroke-width: 1.5; stroke-linecap: square"/>
   </g>
   <g id="patch_3">
    <path d="M 57.6 307.584 
L 57.6 41.472 
" style="fill: none; stroke: #000000; stroke-width: 0.8; stroke-linejoin: miter; stroke-linecap: square"/>
   </g>
   <g id="patch_4">
    <path d="M 414.72 307.584 
L 414.72 41.472 
" style="fill: none; stroke: #000000; stroke-width: 0.8; stroke-linejoin: miter; stroke-linecap: square"/>
   </g>
   <g id="patch_5">
    <path d="M 57.6 307.584 
L 414.72 307.584 
" style="fill: none; stroke: #000000; stroke-width: 0.8; stroke-linejoin: miter; stroke-linecap: square"/>
   </g>
   <g id="patch_6">
    <path d="M 57.6 41.472 
L 414.72 41.472 
" style="fill: none; stroke: #000000; stroke-width: 0.8; stroke-linejoin: miter; stroke-linecap: square"/>
   </g>
   <g id="text_12">
    <!-- faza=1.6pi wynik=-72.0 -->
    <g transform="translate(163.63875 35.472) scale(0.12 -0.12)">
     <defs>
      <path id="DejaVuSans-66" d="M 2375 4863 
L 2375 4384 
L 1825 4384 
Q 1516 4384 1395 4259 
Q 1275 4134 1275 3809 
L 1275 3500 
L 2222 3500 
L 2222 3053 
L 1275 3053 
L 1275 0 
L 697 0 
L 697 3053 
L 147 3053 
L 147 3500 
L 697 3500 
L 697 3744 
Q 697 4328 969 4595 
Q 1241 4863 1831 4863 
L 2375 4863 
z
" transform="scale(0.015625)"/>
      <path id="DejaVuSans-61" d="M 2194 1759 
Q 1497 1759 1228 1600 
Q 959 1441 959 1056 
Q 959 750 1161 570 
Q 1363 391 1709 391 
Q 2188 391 2477 730 
Q 2766 1069 2766 1631 
L 2766 1759 
L 2194 1759 
z
M 3341 1997 
L 3341 0 
L 2766 0 
L 2766 531 
Q 2569 213 2275 61 
Q 1981 -91 1556 -91 
Q 1019 -91 701 211 
Q 384 513 384 1019 
Q 384 1609 779 1909 
Q 1175 2209 1959 2209 
L 2766 2209 
L 2766 2266 
Q 2766 2663 2505 2880 
Q 2244 3097 1772 3097 
Q 1472 3097 1187 3025 
Q 903 2953 641 2809 
L 641 3341 
Q 956 3463 1253 3523 
Q 1550 3584 1831 3584 
Q 2591 3584 2966 3190 
Q 3341 2797 3341 1997 
z
" transform="scale(0.015625)"/>
      <path id="DejaVuSans-7a" d="M 353 3500 
L 3084 3500 
L 3084 2975 
L 922 459 
L 3084 459 
L 3084 0 
L 275 0 
L 275 525 
L 2438 3041 
L 353 3041 
L 353 3500 
z
" transform="scale(0.015625)"/>
      <path id="DejaVuSans-3d" d="M 678 2906 
L 4684 2906 
L 4684 2381 
L 678 2381 
L 678 2906 
z
M 678 1631 
L 4684 1631 
L 4684 1100 
L 678 1100 
L 678 1631 
z
" transform="scale(0.015625)"/>
      <path id="DejaVuSans-2e" d="M 684 794 
L 1344 794 
L 1344 0 
L 684 0 
L 684 794 
z
" transform="scale(0.015625)"/>
      <path id="DejaVuSans-36" d="M 2113 2584 
Q 1688 2584 1439 2293 
Q 1191 2003 1191 1497 
Q 1191 994 1439 701 
Q 1688 409 2113 409 
Q 2538 409 2786 701 
Q 3034 994 3034 1497 
Q 3034 2003 2786 2293 
Q 2538 2584 2113 2584 
z
M 3366 4563 
L 3366 3988 
Q 3128 4100 2886 4159 
Q 2644 4219 2406 4219 
Q 1781 4219 1451 3797 
Q 1122 3375 1075 2522 
Q 1259 2794 1537 2939 
Q 1816 3084 2150 3084 
Q 2853 3084 3261 2657 
Q 3669 2231 3669 1497 
Q 3669 778 3244 343 
Q 2819 -91 2113 -91 
Q 1303 -91 875 529 
Q 447 1150 447 2328 
Q 447 3434 972 4092 
Q 1497 4750 2381 4750 
Q 2619 4750 2861 4703 
Q 3103 4656 3366 4563 
z
" transform="scale(0.015625)"/>
      <path id="DejaVuSans-70" d="M 1159 525 
L 1159 -1331 
L 581 -1331 
L 581 3500 
L 1159 3500 
L 1159 2969 
Q 1341 3281 1617 3432 
Q 1894 3584 2278 3584 
Q 2916 3584 3314 3078 
Q 3713 2572 3713 1747 
Q 3713 922 3314 415 
Q 2916 -91 2278 -91 
Q 1894 -91 1617 61 
Q 1341 213 1159 525 
z
M 3116 1747 
Q 3116 2381 2855 2742 
Q 2594 3103 2138 3103 
Q 1681 3103 1420 2742 
Q 1159 2381 1159 1747 
Q 1159 1113 1420 752 
Q 1681 391 2138 391 
Q 2594 391 2855 752 
Q 3116 1113 3116 1747 
z
" transform="scale(0.015625)"/>
      <path id="DejaVuSans-69" d="M 603 3500 
L 1178 3500 
L 1178 0 
L 603 0 
L 603 3500 
z
M 603 4863 
L 1178 4863 
L 1178 4134 
L 603 4134 
L 603 4863 
z
" transform="scale(0.015625)"/>
      <path id="DejaVuSans-20" transform="scale(0.015625)"/>
      <path id="DejaVuSans-77" d="M 269 3500 
L 844 3500 
L 1563 769 
L 2278 3500 
L 2956 3500 
L 3675 769 
L 4391 3500 
L 4966 3500 
L 4050 0 
L 3372 0 
L 2619 2869 
L 1863 0 
L 1184 0 
L 269 3500 
z
" transform="scale(0.015625)"/>
      <path id="DejaVuSans-79" d="M 2059 -325 
Q 1816 -950 1584 -1140 
Q 1353 -1331 966 -1331 
L 506 -1331 
L 506 -850 
L 844 -850 
Q 1081 -850 1212 -737 
Q 1344 -625 1503 -206 
L 1606 56 
L 191 3500 
L 800 3500 
L 1894 763 
L 2988 3500 
L 3597 3500 
L 2059 -325 
z
" transform="scale(0.015625)"/>
      <path id="DejaVuSans-6e" d="M 3513 2113 
L 3513 0 
L 2938 0 
L 2938 2094 
Q 2938 2591 2744 2837 
Q 2550 3084 2163 3084 
Q 1697 3084 1428 2787 
Q 1159 2491 1159 1978 
L 1159 0 
L 581 0 
L 581 3500 
L 1159 3500 
L 1159 2956 
Q 1366 3272 1645 3428 
Q 1925 3584 2291 3584 
Q 2894 3584 3203 3211 
Q 3513 2838 3513 2113 
z
" transform="scale(0.015625)"/>
      <path id="DejaVuSans-6b" d="M 581 4863 
L 1159 4863 
L 1159 1991 
L 2875 3500 
L 3609 3500 
L 1753 1863 
L 3688 0 
L 2938 0 
L 1159 1709 
L 1159 0 
L 581 0 
L 581 4863 
z
" transform="scale(0.015625)"/>
      <path id="DejaVuSans-2d" d="M 313 2009 
L 1997 2009 
L 1997 1497 
L 313 1497 
L 313 2009 
z
" transform="scale(0.015625)"/>
      <path id="DejaVuSans-37" d="M 525 4666 
L 3525 4666 
L 3525 4397 
L 1831 0 
L 1172 0 
L 2766 4134 
L 525 4134 
L 525 4666 
z
" transform="scale(0.015625)"/>
     </defs>
     <use xlink:href="#DejaVuSans-66"/>
     <use xlink:href="#DejaVuSans-61" x="35.205078"/>
     <use xlink:href="#DejaVuSans-7a" x="96.484375"/>
     <use xlink:href="#DejaVuSans-61" x="148.974609"/>
     <use xlink:href="#DejaVuSans-3d" x="210.253906"/>
     <use xlink:href="#DejaVuSans-31" x="294.042969"/>
     <use xlink:href="#DejaVuSans-2e" x="357.666016"/>
     <use xlink:href="#DejaVuSans-36" x="389.453125"/>
     <use xlink:href="#DejaVuSans-70" x="453.076172"/>
     <use xlink:href="#DejaVuSans-69" x="516.552734"/>
     <use xlink:href="#DejaVuSans-20" x="544.335938"/>
     <use xlink:href="#DejaVuSans-77" x="576.123047"/>
     <use xlink:href="#DejaVuSans-79" x="657.910156"/>
     <use xlink:href="#DejaVuSans-6e" x="717.089844"/>
     <use xlink:href="#DejaVuSans-69" x="780.46875"/>
     <use xlink:href="#DejaVuSans-6b" x="808.251953"/>
     <use xlink:href="#DejaVuSans-3d" x="866.162109"/>
     <use xlink:href="#DejaVuSans-2d" x="949.951172"/>
     <use xlink:href="#DejaVuSans-37" x="986.035156"/>
     <use xlink:href="#DejaVuSans-32" x="1049.658203"/>
     <use xlink:href="#DejaVuSans-2e" x="1113.28125"/>
     <use xlink:href="#DejaVuSans-30" x="1145.068359"/>
    </g>
   </g>
  </g>
 </g>
 <defs>
  <clipPath id="p018b2e4c55">
   <rect x="57.6" y="41.472" width="357.12" height="266.112"/>
  </clipPath>
 </defs>
</svg>
