<?xml version="1.0" encoding="utf-8" standalone="no"?>
<!DOCTYPE svg PUBLIC "-//W3C//DTD SVG 1.1//EN"
  "http://www.w3.org/Graphics/SVG/1.1/DTD/svg11.dtd">
<svg xmlns:xlink="http://www.w3.org/1999/xlink" width="460.8pt" height="345.6pt" viewBox="0 0 460.8 345.6" xmlns="http://www.w3.org/2000/svg" version="1.1">
 <metadata>
  <rdf:RDF xmlns:dc="http://purl.org/dc/elements/1.1/" xmlns:cc="http://creativecommons.org/ns#" xmlns:rdf="http://www.w3.org/1999/02/22-rdf-syntax-ns#">
   <cc:Work>
    <dc:type rdf:resource="http://purl.org/dc/dcmitype/StillImage"/>
    <dc:date>2023-11-19T21:45:05.714979</dc:date>
    <dc:format>image/svg+xml</dc:format>
    <dc:creator>
     <cc:Agent>
      <dc:title>Matplotlib v3.8.0, https://matplotlib.org/</dc:title>
     </cc:Agent>
    </dc:creator>
   </cc:Work>
  </rdf:RDF>
 </metadata>
 <defs>
  <style type="text/css">*{stroke-linejoin: round; stroke-linecap: butt}</style>
 </defs>
 <g id="figure_1">
  <g id="patch_1">
   <path d="M 0 345.6 
L 460.8 345.6 
L 460.8 0 
L 0 0 
z
" style="fill: #ffffff"/>
  </g>
  <g id="axes_1">
   <g id="patch_2">
    <path d="M 57.6 307.584 
L 414.72 307.584 
L 414.72 41.472 
L 57.6 41.472 
z
" style="fill: #ffffff"/>
   </g>
   <g id="matplotlib.axis_1">
    <g id="xtick_1">
     <g id="line2d_1">
      <path d="M 73.832727 307.584 
L 73.832727 41.472 
" clip-path="url(#pe5c78175eb)" style="fill: none; stroke: #b0b0b0; stroke-width: 0.8; stroke-linecap: square"/>
     </g>
     <g id="line2d_2">
      <defs>
       <path id="me26eeee2d8" d="M 0 0 
L 0 3.5 
" style="stroke: #000000; stroke-width: 0.8"/>
      </defs>
      <g>
       <use xlink:href="#me26eeee2d8" x="73.832727" y="307.584" style="stroke: #000000; stroke-width: 0.8"/>
      </g>
     </g>
     <g id="text_1">
      <!-- 0 -->
      <g transform="translate(70.651477 322.182437) scale(0.1 -0.1)">
       <defs>
        <path id="DejaVuSans-30" d="M 2034 4250 
Q 1547 4250 1301 3770 
Q 1056 3291 1056 2328 
Q 1056 1369 1301 889 
Q 1547 409 2034 409 
Q 2525 409 2770 889 
Q 3016 1369 3016 2328 
Q 3016 3291 2770 3770 
Q 2525 4250 2034 4250 
z
M 2034 4750 
Q 2819 4750 3233 4129 
Q 3647 3509 3647 2328 
Q 3647 1150 3233 529 
Q 2819 -91 2034 -91 
Q 1250 -91 836 529 
Q 422 1150 422 2328 
Q 422 3509 836 4129 
Q 1250 4750 2034 4750 
z
" transform="scale(0.015625)"/>
       </defs>
       <use xlink:href="#DejaVuSans-30"/>
      </g>
     </g>
    </g>
    <g id="xtick_2">
     <g id="line2d_3">
      <path d="M 140.360298 307.584 
L 140.360298 41.472 
" clip-path="url(#pe5c78175eb)" style="fill: none; stroke: #b0b0b0; stroke-width: 0.8; stroke-linecap: square"/>
     </g>
     <g id="line2d_4">
      <g>
       <use xlink:href="#me26eeee2d8" x="140.360298" y="307.584" style="stroke: #000000; stroke-width: 0.8"/>
      </g>
     </g>
     <g id="text_2">
      <!-- 50 -->
      <g transform="translate(133.997798 322.182437) scale(0.1 -0.1)">
       <defs>
        <path id="DejaVuSans-35" d="M 691 4666 
L 3169 4666 
L 3169 4134 
L 1269 4134 
L 1269 2991 
Q 1406 3038 1543 3061 
Q 1681 3084 1819 3084 
Q 2600 3084 3056 2656 
Q 3513 2228 3513 1497 
Q 3513 744 3044 326 
Q 2575 -91 1722 -91 
Q 1428 -91 1123 -41 
Q 819 9 494 109 
L 494 744 
Q 775 591 1075 516 
Q 1375 441 1709 441 
Q 2250 441 2565 725 
Q 2881 1009 2881 1497 
Q 2881 1984 2565 2268 
Q 2250 2553 1709 2553 
Q 1456 2553 1204 2497 
Q 953 2441 691 2322 
L 691 4666 
z
" transform="scale(0.015625)"/>
       </defs>
       <use xlink:href="#DejaVuSans-35"/>
       <use xlink:href="#DejaVuSans-30" x="63.623047"/>
      </g>
     </g>
    </g>
    <g id="xtick_3">
     <g id="line2d_5">
      <path d="M 206.887869 307.584 
L 206.887869 41.472 
" clip-path="url(#pe5c78175eb)" style="fill: none; stroke: #b0b0b0; stroke-width: 0.8; stroke-linecap: square"/>
     </g>
     <g id="line2d_6">
      <g>
       <use xlink:href="#me26eeee2d8" x="206.887869" y="307.584" style="stroke: #000000; stroke-width: 0.8"/>
      </g>
     </g>
     <g id="text_3">
      <!-- 100 -->
      <g transform="translate(197.344119 322.182437) scale(0.1 -0.1)">
       <defs>
        <path id="DejaVuSans-31" d="M 794 531 
L 1825 531 
L 1825 4091 
L 703 3866 
L 703 4441 
L 1819 4666 
L 2450 4666 
L 2450 531 
L 3481 531 
L 3481 0 
L 794 0 
L 794 531 
z
" transform="scale(0.015625)"/>
       </defs>
       <use xlink:href="#DejaVuSans-31"/>
       <use xlink:href="#DejaVuSans-30" x="63.623047"/>
       <use xlink:href="#DejaVuSans-30" x="127.246094"/>
      </g>
     </g>
    </g>
    <g id="xtick_4">
     <g id="line2d_7">
      <path d="M 273.41544 307.584 
L 273.41544 41.472 
" clip-path="url(#pe5c78175eb)" style="fill: none; stroke: #b0b0b0; stroke-width: 0.8; stroke-linecap: square"/>
     </g>
     <g id="line2d_8">
      <g>
       <use xlink:href="#me26eeee2d8" x="273.41544" y="307.584" style="stroke: #000000; stroke-width: 0.8"/>
      </g>
     </g>
     <g id="text_4">
      <!-- 150 -->
      <g transform="translate(263.87169 322.182437) scale(0.1 -0.1)">
       <use xlink:href="#DejaVuSans-31"/>
       <use xlink:href="#DejaVuSans-35" x="63.623047"/>
       <use xlink:href="#DejaVuSans-30" x="127.246094"/>
      </g>
     </g>
    </g>
    <g id="xtick_5">
     <g id="line2d_9">
      <path d="M 339.94301 307.584 
L 339.94301 41.472 
" clip-path="url(#pe5c78175eb)" style="fill: none; stroke: #b0b0b0; stroke-width: 0.8; stroke-linecap: square"/>
     </g>
     <g id="line2d_10">
      <g>
       <use xlink:href="#me26eeee2d8" x="339.94301" y="307.584" style="stroke: #000000; stroke-width: 0.8"/>
      </g>
     </g>
     <g id="text_5">
      <!-- 200 -->
      <g transform="translate(330.39926 322.182437) scale(0.1 -0.1)">
       <defs>
        <path id="DejaVuSans-32" d="M 1228 531 
L 3431 531 
L 3431 0 
L 469 0 
L 469 531 
Q 828 903 1448 1529 
Q 2069 2156 2228 2338 
Q 2531 2678 2651 2914 
Q 2772 3150 2772 3378 
Q 2772 3750 2511 3984 
Q 2250 4219 1831 4219 
Q 1534 4219 1204 4116 
Q 875 4013 500 3803 
L 500 4441 
Q 881 4594 1212 4672 
Q 1544 4750 1819 4750 
Q 2544 4750 2975 4387 
Q 3406 4025 3406 3419 
Q 3406 3131 3298 2873 
Q 3191 2616 2906 2266 
Q 2828 2175 2409 1742 
Q 1991 1309 1228 531 
z
" transform="scale(0.015625)"/>
       </defs>
       <use xlink:href="#DejaVuSans-32"/>
       <use xlink:href="#DejaVuSans-30" x="63.623047"/>
       <use xlink:href="#DejaVuSans-30" x="127.246094"/>
      </g>
     </g>
    </g>
    <g id="xtick_6">
     <g id="line2d_11">
      <path d="M 406.470581 307.584 
L 406.470581 41.472 
" clip-path="url(#pe5c78175eb)" style="fill: none; stroke: #b0b0b0; stroke-width: 0.8; stroke-linecap: square"/>
     </g>
     <g id="line2d_12">
      <g>
       <use xlink:href="#me26eeee2d8" x="406.470581" y="307.584" style="stroke: #000000; stroke-width: 0.8"/>
      </g>
     </g>
     <g id="text_6">
      <!-- 250 -->
      <g transform="translate(396.926831 322.182437) scale(0.1 -0.1)">
       <use xlink:href="#DejaVuSans-32"/>
       <use xlink:href="#DejaVuSans-35" x="63.623047"/>
       <use xlink:href="#DejaVuSans-30" x="127.246094"/>
      </g>
     </g>
    </g>
   </g>
   <g id="matplotlib.axis_2">
    <g id="ytick_1">
     <g id="line2d_13">
      <path d="M 57.6 289.619674 
L 414.72 289.619674 
" clip-path="url(#pe5c78175eb)" style="fill: none; stroke: #b0b0b0; stroke-width: 0.8; stroke-linecap: square"/>
     </g>
     <g id="line2d_14">
      <defs>
       <path id="m71f640c5da" d="M 0 0 
L -3.5 0 
" style="stroke: #000000; stroke-width: 0.8"/>
      </defs>
      <g>
       <use xlink:href="#m71f640c5da" x="57.6" y="289.619674" style="stroke: #000000; stroke-width: 0.8"/>
      </g>
     </g>
     <g id="text_7">
      <!-- −100 -->
      <g transform="translate(23.132812 293.418893) scale(0.1 -0.1)">
       <defs>
        <path id="DejaVuSans-2212" d="M 678 2272 
L 4684 2272 
L 4684 1741 
L 678 1741 
L 678 2272 
z
" transform="scale(0.015625)"/>
       </defs>
       <use xlink:href="#DejaVuSans-2212"/>
       <use xlink:href="#DejaVuSans-31" x="83.789062"/>
       <use xlink:href="#DejaVuSans-30" x="147.412109"/>
       <use xlink:href="#DejaVuSans-30" x="211.035156"/>
      </g>
     </g>
    </g>
    <g id="ytick_2">
     <g id="line2d_15">
      <path d="M 57.6 241.24843 
L 414.72 241.24843 
" clip-path="url(#pe5c78175eb)" style="fill: none; stroke: #b0b0b0; stroke-width: 0.8; stroke-linecap: square"/>
     </g>
     <g id="line2d_16">
      <g>
       <use xlink:href="#m71f640c5da" x="57.6" y="241.24843" style="stroke: #000000; stroke-width: 0.8"/>
      </g>
     </g>
     <g id="text_8">
      <!-- −50 -->
      <g transform="translate(29.495313 245.047648) scale(0.1 -0.1)">
       <use xlink:href="#DejaVuSans-2212"/>
       <use xlink:href="#DejaVuSans-35" x="83.789062"/>
       <use xlink:href="#DejaVuSans-30" x="147.412109"/>
      </g>
     </g>
    </g>
    <g id="ytick_3">
     <g id="line2d_17">
      <path d="M 57.6 192.877185 
L 414.72 192.877185 
" clip-path="url(#pe5c78175eb)" style="fill: none; stroke: #b0b0b0; stroke-width: 0.8; stroke-linecap: square"/>
     </g>
     <g id="line2d_18">
      <g>
       <use xlink:href="#m71f640c5da" x="57.6" y="192.877185" style="stroke: #000000; stroke-width: 0.8"/>
      </g>
     </g>
     <g id="text_9">
      <!-- 0 -->
      <g transform="translate(44.2375 196.676404) scale(0.1 -0.1)">
       <use xlink:href="#DejaVuSans-30"/>
      </g>
     </g>
    </g>
    <g id="ytick_4">
     <g id="line2d_19">
      <path d="M 57.6 144.50594 
L 414.72 144.50594 
" clip-path="url(#pe5c78175eb)" style="fill: none; stroke: #b0b0b0; stroke-width: 0.8; stroke-linecap: square"/>
     </g>
     <g id="line2d_20">
      <g>
       <use xlink:href="#m71f640c5da" x="57.6" y="144.50594" style="stroke: #000000; stroke-width: 0.8"/>
      </g>
     </g>
     <g id="text_10">
      <!-- 50 -->
      <g transform="translate(37.875 148.305159) scale(0.1 -0.1)">
       <use xlink:href="#DejaVuSans-35"/>
       <use xlink:href="#DejaVuSans-30" x="63.623047"/>
      </g>
     </g>
    </g>
    <g id="ytick_5">
     <g id="line2d_21">
      <path d="M 57.6 96.134695 
L 414.72 96.134695 
" clip-path="url(#pe5c78175eb)" style="fill: none; stroke: #b0b0b0; stroke-width: 0.8; stroke-linecap: square"/>
     </g>
     <g id="line2d_22">
      <g>
       <use xlink:href="#m71f640c5da" x="57.6" y="96.134695" style="stroke: #000000; stroke-width: 0.8"/>
      </g>
     </g>
     <g id="text_11">
      <!-- 100 -->
      <g transform="translate(31.5125 99.933914) scale(0.1 -0.1)">
       <use xlink:href="#DejaVuSans-31"/>
       <use xlink:href="#DejaVuSans-30" x="63.623047"/>
       <use xlink:href="#DejaVuSans-30" x="127.246094"/>
      </g>
     </g>
    </g>
    <g id="ytick_6">
     <g id="line2d_23">
      <path d="M 57.6 47.763451 
L 414.72 47.763451 
" clip-path="url(#pe5c78175eb)" style="fill: none; stroke: #b0b0b0; stroke-width: 0.8; stroke-linecap: square"/>
     </g>
     <g id="line2d_24">
      <g>
       <use xlink:href="#m71f640c5da" x="57.6" y="47.763451" style="stroke: #000000; stroke-width: 0.8"/>
      </g>
     </g>
     <g id="text_12">
      <!-- 150 -->
      <g transform="translate(31.5125 51.562669) scale(0.1 -0.1)">
       <use xlink:href="#DejaVuSans-31"/>
       <use xlink:href="#DejaVuSans-35" x="63.623047"/>
       <use xlink:href="#DejaVuSans-30" x="127.246094"/>
      </g>
     </g>
    </g>
   </g>
   <g id="line2d_25">
    <path d="M 73.832727 227.704481 
L 79.154933 227.704481 
L 80.485484 53.568 
L 87.138241 53.568 
L 88.468793 227.704481 
L 120.402027 227.704481 
L 121.732578 53.568 
L 129.715887 53.568 
L 131.046438 227.704481 
L 162.979672 227.704481 
L 164.310224 53.568 
L 170.962981 53.568 
L 172.293532 227.704481 
L 204.226766 227.704481 
L 205.557317 53.568 
L 212.210075 53.568 
L 213.540626 227.704481 
L 246.804411 227.704481 
L 248.134963 53.568 
L 254.78772 53.568 
L 256.118271 227.704481 
L 288.051505 227.704481 
L 289.382057 53.568 
L 296.034814 53.568 
L 297.365365 227.704481 
L 329.298599 227.704481 
L 330.629151 53.568 
L 338.612459 53.568 
L 339.94301 227.704481 
L 371.876244 227.704481 
L 373.206796 53.568 
L 379.859553 53.568 
L 381.190104 227.704481 
L 398.487273 227.704481 
L 398.487273 227.704481 
" clip-path="url(#pe5c78175eb)" style="fill: none; stroke: #1f77b4; stroke-width: 1.5; stroke-linecap: square"/>
   </g>
   <g id="line2d_26">
    <path d="M 73.832727 94.416928 
L 75.163279 92.024729 
L 76.49383 90.640215 
L 77.824382 90.277218 
L 79.154933 90.939367 
L 80.485484 92.620044 
L 81.816036 95.302457 
L 83.146587 98.959805 
L 84.477139 103.555545 
L 85.80769 109.043756 
L 87.138241 115.369604 
L 88.468793 122.469882 
L 91.129896 138.702924 
L 93.790999 157.095723 
L 97.782653 187.114052 
L 103.104858 227.464482 
L 105.765961 245.967686 
L 108.427064 262.354339 
L 109.757615 269.545771 
L 111.088167 275.971157 
L 112.418718 281.566295 
L 113.74927 286.27528 
L 115.079821 290.051063 
L 116.410373 292.855917 
L 117.740924 294.661816 
L 119.071475 295.450716 
L 120.402027 295.214736 
L 121.732578 293.956233 
L 123.06313 291.687782 
L 124.393681 288.432047 
L 125.724232 284.22156 
L 127.054784 279.098391 
L 128.385335 273.113727 
L 129.715887 266.327366 
L 131.046438 258.807116 
L 133.707541 241.872087 
L 136.368644 222.983785 
L 141.690849 182.407284 
L 145.682504 152.709575 
L 148.343607 134.751448 
L 151.004709 119.110611 
L 152.335261 112.358354 
L 153.665812 106.410614 
L 154.996364 101.32682 
L 156.326915 97.157766 
L 157.657466 93.94511 
L 158.988018 91.72095 
L 160.318569 90.50751 
L 161.649121 90.316914 
L 162.979672 91.151066 
L 164.310224 93.001631 
L 165.640775 95.850121 
L 166.971326 99.668073 
L 168.301878 104.417339 
L 169.632429 110.050467 
L 170.962981 116.511172 
L 172.293532 123.734901 
L 174.954635 140.17582 
L 177.615738 158.717775 
L 181.607392 188.837433 
L 186.929598 229.083916 
L 189.5907 247.43659 
L 192.251803 263.614153 
L 193.582355 270.681602 
L 194.912906 276.971656 
L 196.243458 282.421465 
L 197.574009 286.976578 
L 198.90456 290.59148 
L 200.235112 293.230054 
L 201.565663 294.865935 
L 202.896215 295.482778 
L 204.226766 295.074419 
L 205.557317 293.64494 
L 206.887869 291.208623 
L 208.21842 287.78981 
L 209.548972 283.422662 
L 210.879523 278.150814 
L 212.210075 272.026939 
L 213.540626 265.112227 
L 216.201729 249.193856 
L 218.862832 231.030318 
L 222.854486 201.176765 
L 228.176692 160.693959 
L 230.837794 141.978483 
L 233.498897 125.292177 
L 234.829449 117.921759 
L 236.16 111.300272 
L 237.490551 105.493874 
L 238.821103 100.560581 
L 240.151654 96.549685 
L 241.482206 93.501262 
L 242.812757 91.44577 
L 244.143308 90.403748 
L 245.47386 90.385606 
L 246.804411 91.391526 
L 248.134963 93.411457 
L 249.465514 96.425216 
L 250.796066 100.402692 
L 252.126617 105.304143 
L 253.457168 111.080594 
L 254.78772 117.67433 
L 256.118271 125.019468 
L 258.779374 141.663615 
L 261.440477 160.349486 
L 265.432131 190.561956 
L 269.423785 220.981238 
L 272.084888 240.027145 
L 274.745991 257.193331 
L 276.076542 264.853968 
L 277.407094 271.795436 
L 278.737645 277.948379 
L 280.068197 283.251319 
L 281.398748 287.651271 
L 282.7293 291.104271 
L 284.059851 293.575818 
L 285.390402 295.041219 
L 286.720954 295.485829 
L 288.051505 294.905209 
L 289.382057 293.305157 
L 290.712608 290.701663 
L 292.043159 287.120739 
L 293.373711 282.598165 
L 294.704262 277.179128 
L 296.034814 270.917774 
L 297.365365 263.876664 
L 300.026468 247.743675 
L 302.687571 229.423332 
L 306.679225 199.455955 
L 312.001431 159.060276 
L 314.662534 140.487606 
L 317.323636 124.003543 
L 318.654188 116.7541 
L 319.984739 110.265254 
L 321.315291 104.60184 
L 322.645842 99.820443 
L 323.976393 95.968839 
L 325.306945 93.085511 
L 326.637496 91.199268 
L 327.968048 90.328957 
L 329.298599 90.483275 
L 330.629151 91.660678 
L 331.959702 93.849404 
L 333.290253 97.027582 
L 334.620805 101.163457 
L 335.951356 106.215706 
L 337.281908 112.133848 
L 338.612459 118.858751 
L 339.94301 126.323221 
L 342.604113 143.165891 
L 345.265216 161.990392 
L 349.25687 192.287133 
L 353.248525 222.636582 
L 355.909627 241.552841 
L 358.57073 258.528556 
L 359.901282 266.073433 
L 361.231833 272.886957 
L 362.562385 278.901051 
L 363.892936 284.055622 
L 365.223487 288.299168 
L 366.554039 291.58929 
L 367.88459 293.893113 
L 369.215142 295.187618 
L 370.545693 295.459871 
L 371.876244 294.707152 
L 373.206796 292.936981 
L 374.537347 290.167046 
L 375.867899 286.425023 
L 377.19845 281.748301 
L 378.529001 276.183607 
L 379.859553 269.786544 
L 381.190104 262.621028 
L 383.851207 246.277982 
L 386.51231 227.806014 
L 390.503964 197.733285 
L 395.82617 157.436153 
L 398.487273 139.01154 
L 398.487273 139.01154 
" clip-path="url(#pe5c78175eb)" style="fill: none; stroke: #ff7f0e; stroke-width: 1.5; stroke-linecap: square"/>
   </g>
   <g id="line2d_27">
    <path d="M 73.832727 96.240621 
L 75.163279 100.167831 
L 76.49383 105.021362 
L 77.824382 110.75272 
L 79.154933 117.304638 
L 80.485484 124.611653 
L 83.146587 141.192116 
L 85.80769 159.833101 
L 89.799344 190.017178 
L 95.12155 230.185988 
L 97.782653 248.432685 
L 100.443756 264.464559 
L 101.774307 271.446032 
L 103.104858 277.642471 
L 104.43541 282.991963 
L 105.765961 287.441058 
L 107.096513 290.945302 
L 108.427064 293.469682 
L 109.757615 294.988974 
L 111.088167 295.488 
L 112.418718 294.961772 
L 113.74927 293.415549 
L 115.079821 290.86478 
L 116.410373 287.334951 
L 117.740924 282.861331 
L 119.071475 277.488619 
L 120.402027 271.270498 
L 121.732578 264.269097 
L 124.393681 248.203405 
L 127.054784 229.93203 
L 131.046438 199.99969 
L 136.368644 159.575257 
L 139.029747 140.956913 
L 141.690849 124.408466 
L 143.021401 117.120591 
L 144.351952 110.589651 
L 145.682504 104.880901 
L 147.013055 100.05138 
L 148.343607 96.149344 
L 149.674158 93.213781 
L 151.004709 91.274022 
L 152.335261 90.349448 
L 153.665812 90.449297 
L 154.996364 91.572572 
L 156.326915 93.708049 
L 157.657466 96.834391 
L 158.988018 100.920361 
L 160.318569 105.925133 
L 161.649121 111.798701 
L 162.979672 118.482379 
L 164.310224 125.909385 
L 166.971326 142.689864 
L 169.632429 161.471153 
L 173.624083 191.742201 
L 177.615738 222.114635 
L 180.276841 241.072422 
L 182.937943 258.108818 
L 184.268495 265.690489 
L 185.599046 272.544634 
L 186.929598 278.602768 
L 188.260149 283.804361 
L 189.5907 288.097439 
L 190.921252 291.439108 
L 192.251803 293.795978 
L 193.582355 295.144502 
L 194.912906 295.471204 
L 196.243458 294.772821 
L 197.574009 293.05633 
L 198.90456 290.338882 
L 200.235112 286.647629 
L 201.565663 282.019453 
L 202.896215 276.500597 
L 204.226766 270.146203 
L 205.557317 263.019763 
L 208.21842 246.742566 
L 210.879523 228.317926 
L 214.871177 198.277555 
L 220.193383 157.948065 
L 222.854486 139.476124 
L 225.515589 123.133115 
L 226.84614 115.967621 
L 228.176692 109.570582 
L 229.507243 104.005915 
L 230.837794 99.32922 
L 232.168346 95.587226 
L 233.498897 92.81732 
L 234.829449 91.04718 
L 236.16 90.294492 
L 237.490551 90.566776 
L 238.821103 91.861311 
L 240.151654 94.165164 
L 241.482206 97.455315 
L 242.812757 101.69889 
L 244.143308 106.853488 
L 245.47386 112.867606 
L 246.804411 119.681154 
L 248.134963 127.226052 
L 250.796066 144.201801 
L 253.457168 163.118084 
L 258.779374 203.708424 
L 262.771028 233.378851 
L 265.432131 251.301947 
L 268.093234 266.895833 
L 269.423785 273.620712 
L 270.754337 279.538829 
L 272.084888 284.591051 
L 273.41544 288.726899 
L 274.745991 291.905047 
L 276.076542 294.093742 
L 277.407094 295.271115 
L 278.737645 295.425402 
L 280.068197 294.55506 
L 281.398748 292.668787 
L 282.7293 289.785429 
L 284.059851 285.933796 
L 285.390402 281.152372 
L 286.720954 275.488932 
L 288.051505 269.000062 
L 289.382057 261.750598 
L 292.043159 245.266498 
L 294.704262 226.693802 
L 298.695917 196.553893 
L 304.018122 156.330748 
L 306.679225 138.010433 
L 309.340328 121.877482 
L 310.670879 114.836395 
L 312.001431 108.575066 
L 313.331982 103.156055 
L 314.662534 98.633508 
L 315.993085 95.052613 
L 317.323636 92.449149 
L 318.654188 90.849128 
L 319.984739 90.268538 
L 321.315291 90.71318 
L 322.645842 92.178611 
L 323.976393 94.650188 
L 325.306945 98.103218 
L 326.637496 102.503197 
L 327.968048 107.806163 
L 329.298599 113.959131 
L 330.629151 120.900622 
L 333.290253 136.86456 
L 335.951356 155.061544 
L 339.94301 184.939767 
L 345.265216 225.405178 
L 347.926319 244.091023 
L 350.587422 260.735133 
L 351.917973 268.08025 
L 353.248525 274.673962 
L 354.579076 280.450388 
L 355.909627 285.351811 
L 357.240179 289.329259 
L 358.57073 292.342989 
L 359.901282 294.36289 
L 361.231833 295.368779 
L 362.562385 295.350606 
L 363.892936 294.308553 
L 365.223487 292.253031 
L 366.554039 289.204578 
L 367.88459 285.193653 
L 369.215142 280.260334 
L 370.545693 274.45391 
L 371.876244 267.832399 
L 373.206796 260.46196 
L 375.867899 243.775619 
L 378.529001 225.060117 
L 382.520656 194.829192 
L 386.51231 164.4239 
L 389.173413 145.404846 
L 391.834516 128.278364 
L 393.165067 120.641923 
L 394.495618 113.727234 
L 395.82617 107.603384 
L 397.156721 102.331562 
L 398.487273 97.964442 
L 398.487273 97.964442 
" clip-path="url(#pe5c78175eb)" style="fill: none; stroke: #2ca02c; stroke-width: 1.5; stroke-linecap: square"/>
   </g>
   <g id="patch_3">
    <path d="M 57.6 307.584 
L 57.6 41.472 
" style="fill: none; stroke: #000000; stroke-width: 0.8; stroke-linejoin: miter; stroke-linecap: square"/>
   </g>
   <g id="patch_4">
    <path d="M 414.72 307.584 
L 414.72 41.472 
" style="fill: none; stroke: #000000; stroke-width: 0.8; stroke-linejoin: miter; stroke-linecap: square"/>
   </g>
   <g id="patch_5">
    <path d="M 57.6 307.584 
L 414.72 307.584 
" style="fill: none; stroke: #000000; stroke-width: 0.8; stroke-linejoin: miter; stroke-linecap: square"/>
   </g>
   <g id="patch_6">
    <path d="M 57.6 41.472 
L 414.72 41.472 
" style="fill: none; stroke: #000000; stroke-width: 0.8; stroke-linejoin: miter; stroke-linecap: square"/>
   </g>
   <g id="text_13">
    <!-- faza=1.8pi wynik=-36.00000000000001 -->
    <g transform="translate(114.01125 35.472) scale(0.12 -0.12)">
     <defs>
      <path id="DejaVuSans-66" d="M 2375 4863 
L 2375 4384 
L 1825 4384 
Q 1516 4384 1395 4259 
Q 1275 4134 1275 3809 
L 1275 3500 
L 2222 3500 
L 2222 3053 
L 1275 3053 
L 1275 0 
L 697 0 
L 697 3053 
L 147 3053 
L 147 3500 
L 697 3500 
L 697 3744 
Q 697 4328 969 4595 
Q 1241 4863 1831 4863 
L 2375 4863 
z
" transform="scale(0.015625)"/>
      <path id="DejaVuSans-61" d="M 2194 1759 
Q 1497 1759 1228 1600 
Q 959 1441 959 1056 
Q 959 750 1161 570 
Q 1363 391 1709 391 
Q 2188 391 2477 730 
Q 2766 1069 2766 1631 
L 2766 1759 
L 2194 1759 
z
M 3341 1997 
L 3341 0 
L 2766 0 
L 2766 531 
Q 2569 213 2275 61 
Q 1981 -91 1556 -91 
Q 1019 -91 701 211 
Q 384 513 384 1019 
Q 384 1609 779 1909 
Q 1175 2209 1959 2209 
L 2766 2209 
L 2766 2266 
Q 2766 2663 2505 2880 
Q 2244 3097 1772 3097 
Q 1472 3097 1187 3025 
Q 903 2953 641 2809 
L 641 3341 
Q 956 3463 1253 3523 
Q 1550 3584 1831 3584 
Q 2591 3584 2966 3190 
Q 3341 2797 3341 1997 
z
" transform="scale(0.015625)"/>
      <path id="DejaVuSans-7a" d="M 353 3500 
L 3084 3500 
L 3084 2975 
L 922 459 
L 3084 459 
L 3084 0 
L 275 0 
L 275 525 
L 2438 3041 
L 353 3041 
L 353 3500 
z
" transform="scale(0.015625)"/>
      <path id="DejaVuSans-3d" d="M 678 2906 
L 4684 2906 
L 4684 2381 
L 678 2381 
L 678 2906 
z
M 678 1631 
L 4684 1631 
L 4684 1100 
L 678 1100 
L 678 1631 
z
" transform="scale(0.015625)"/>
      <path id="DejaVuSans-2e" d="M 684 794 
L 1344 794 
L 1344 0 
L 684 0 
L 684 794 
z
" transform="scale(0.015625)"/>
      <path id="DejaVuSans-38" d="M 2034 2216 
Q 1584 2216 1326 1975 
Q 1069 1734 1069 1313 
Q 1069 891 1326 650 
Q 1584 409 2034 409 
Q 2484 409 2743 651 
Q 3003 894 3003 1313 
Q 3003 1734 2745 1975 
Q 2488 2216 2034 2216 
z
M 1403 2484 
Q 997 2584 770 2862 
Q 544 3141 544 3541 
Q 544 4100 942 4425 
Q 1341 4750 2034 4750 
Q 2731 4750 3128 4425 
Q 3525 4100 3525 3541 
Q 3525 3141 3298 2862 
Q 3072 2584 2669 2484 
Q 3125 2378 3379 2068 
Q 3634 1759 3634 1313 
Q 3634 634 3220 271 
Q 2806 -91 2034 -91 
Q 1263 -91 848 271 
Q 434 634 434 1313 
Q 434 1759 690 2068 
Q 947 2378 1403 2484 
z
M 1172 3481 
Q 1172 3119 1398 2916 
Q 1625 2713 2034 2713 
Q 2441 2713 2670 2916 
Q 2900 3119 2900 3481 
Q 2900 3844 2670 4047 
Q 2441 4250 2034 4250 
Q 1625 4250 1398 4047 
Q 1172 3844 1172 3481 
z
" transform="scale(0.015625)"/>
      <path id="DejaVuSans-70" d="M 1159 525 
L 1159 -1331 
L 581 -1331 
L 581 3500 
L 1159 3500 
L 1159 2969 
Q 1341 3281 1617 3432 
Q 1894 3584 2278 3584 
Q 2916 3584 3314 3078 
Q 3713 2572 3713 1747 
Q 3713 922 3314 415 
Q 2916 -91 2278 -91 
Q 1894 -91 1617 61 
Q 1341 213 1159 525 
z
M 3116 1747 
Q 3116 2381 2855 2742 
Q 2594 3103 2138 3103 
Q 1681 3103 1420 2742 
Q 1159 2381 1159 1747 
Q 1159 1113 1420 752 
Q 1681 391 2138 391 
Q 2594 391 2855 752 
Q 3116 1113 3116 1747 
z
" transform="scale(0.015625)"/>
      <path id="DejaVuSans-69" d="M 603 3500 
L 1178 3500 
L 1178 0 
L 603 0 
L 603 3500 
z
M 603 4863 
L 1178 4863 
L 1178 4134 
L 603 4134 
L 603 4863 
z
" transform="scale(0.015625)"/>
      <path id="DejaVuSans-20" transform="scale(0.015625)"/>
      <path id="DejaVuSans-77" d="M 269 3500 
L 844 3500 
L 1563 769 
L 2278 3500 
L 2956 3500 
L 3675 769 
L 4391 3500 
L 4966 3500 
L 4050 0 
L 3372 0 
L 2619 2869 
L 1863 0 
L 1184 0 
L 269 3500 
z
" transform="scale(0.015625)"/>
      <path id="DejaVuSans-79" d="M 2059 -325 
Q 1816 -950 1584 -1140 
Q 1353 -1331 966 -1331 
L 506 -1331 
L 506 -850 
L 844 -850 
Q 1081 -850 1212 -737 
Q 1344 -625 1503 -206 
L 1606 56 
L 191 3500 
L 800 3500 
L 1894 763 
L 2988 3500 
L 3597 3500 
L 2059 -325 
z
" transform="scale(0.015625)"/>
      <path id="DejaVuSans-6e" d="M 3513 2113 
L 3513 0 
L 2938 0 
L 2938 2094 
Q 2938 2591 2744 2837 
Q 2550 3084 2163 3084 
Q 1697 3084 1428 2787 
Q 1159 2491 1159 1978 
L 1159 0 
L 581 0 
L 581 3500 
L 1159 3500 
L 1159 2956 
Q 1366 3272 1645 3428 
Q 1925 3584 2291 3584 
Q 2894 3584 3203 3211 
Q 3513 2838 3513 2113 
z
" transform="scale(0.015625)"/>
      <path id="DejaVuSans-6b" d="M 581 4863 
L 1159 4863 
L 1159 1991 
L 2875 3500 
L 3609 3500 
L 1753 1863 
L 3688 0 
L 2938 0 
L 1159 1709 
L 1159 0 
L 581 0 
L 581 4863 
z
" transform="scale(0.015625)"/>
      <path id="DejaVuSans-2d" d="M 313 2009 
L 1997 2009 
L 1997 1497 
L 313 1497 
L 313 2009 
z
" transform="scale(0.015625)"/>
      <path id="DejaVuSans-33" d="M 2597 2516 
Q 3050 2419 3304 2112 
Q 3559 1806 3559 1356 
Q 3559 666 3084 287 
Q 2609 -91 1734 -91 
Q 1441 -91 1130 -33 
Q 819 25 488 141 
L 488 750 
Q 750 597 1062 519 
Q 1375 441 1716 441 
Q 2309 441 2620 675 
Q 2931 909 2931 1356 
Q 2931 1769 2642 2001 
Q 2353 2234 1838 2234 
L 1294 2234 
L 1294 2753 
L 1863 2753 
Q 2328 2753 2575 2939 
Q 2822 3125 2822 3475 
Q 2822 3834 2567 4026 
Q 2313 4219 1838 4219 
Q 1578 4219 1281 4162 
Q 984 4106 628 3988 
L 628 4550 
Q 988 4650 1302 4700 
Q 1616 4750 1894 4750 
Q 2613 4750 3031 4423 
Q 3450 4097 3450 3541 
Q 3450 3153 3228 2886 
Q 3006 2619 2597 2516 
z
" transform="scale(0.015625)"/>
      <path id="DejaVuSans-36" d="M 2113 2584 
Q 1688 2584 1439 2293 
Q 1191 2003 1191 1497 
Q 1191 994 1439 701 
Q 1688 409 2113 409 
Q 2538 409 2786 701 
Q 3034 994 3034 1497 
Q 3034 2003 2786 2293 
Q 2538 2584 2113 2584 
z
M 3366 4563 
L 3366 3988 
Q 3128 4100 2886 4159 
Q 2644 4219 2406 4219 
Q 1781 4219 1451 3797 
Q 1122 3375 1075 2522 
Q 1259 2794 1537 2939 
Q 1816 3084 2150 3084 
Q 2853 3084 3261 2657 
Q 3669 2231 3669 1497 
Q 3669 778 3244 343 
Q 2819 -91 2113 -91 
Q 1303 -91 875 529 
Q 447 1150 447 2328 
Q 447 3434 972 4092 
Q 1497 4750 2381 4750 
Q 2619 4750 2861 4703 
Q 3103 4656 3366 4563 
z
" transform="scale(0.015625)"/>
     </defs>
     <use xlink:href="#DejaVuSans-66"/>
     <use xlink:href="#DejaVuSans-61" x="35.205078"/>
     <use xlink:href="#DejaVuSans-7a" x="96.484375"/>
     <use xlink:href="#DejaVuSans-61" x="148.974609"/>
     <use xlink:href="#DejaVuSans-3d" x="210.253906"/>
     <use xlink:href="#DejaVuSans-31" x="294.042969"/>
     <use xlink:href="#DejaVuSans-2e" x="357.666016"/>
     <use xlink:href="#DejaVuSans-38" x="389.453125"/>
     <use xlink:href="#DejaVuSans-70" x="453.076172"/>
     <use xlink:href="#DejaVuSans-69" x="516.552734"/>
     <use xlink:href="#DejaVuSans-20" x="544.335938"/>
     <use xlink:href="#DejaVuSans-77" x="576.123047"/>
     <use xlink:href="#DejaVuSans-79" x="657.910156"/>
     <use xlink:href="#DejaVuSans-6e" x="717.089844"/>
     <use xlink:href="#DejaVuSans-69" x="780.46875"/>
     <use xlink:href="#DejaVuSans-6b" x="808.251953"/>
     <use xlink:href="#DejaVuSans-3d" x="866.162109"/>
     <use xlink:href="#DejaVuSans-2d" x="949.951172"/>
     <use xlink:href="#DejaVuSans-33" x="986.035156"/>
     <use xlink:href="#DejaVuSans-36" x="1049.658203"/>
     <use xlink:href="#DejaVuSans-2e" x="1113.28125"/>
     <use xlink:href="#DejaVuSans-30" x="1145.068359"/>
     <use xlink:href="#DejaVuSans-30" x="1208.691406"/>
     <use xlink:href="#DejaVuSans-30" x="1272.314453"/>
     <use xlink:href="#DejaVuSans-30" x="1335.9375"/>
     <use xlink:href="#DejaVuSans-30" x="1399.560547"/>
     <use xlink:href="#DejaVuSans-30" x="1463.183594"/>
     <use xlink:href="#DejaVuSans-30" x="1526.806641"/>
     <use xlink:href="#DejaVuSans-30" x="1590.429688"/>
     <use xlink:href="#DejaVuSans-30" x="1654.052734"/>
     <use xlink:href="#DejaVuSans-30" x="1717.675781"/>
     <use xlink:href="#DejaVuSans-30" x="1781.298828"/>
     <use xlink:href="#DejaVuSans-30" x="1844.921875"/>
     <use xlink:href="#DejaVuSans-30" x="1908.544922"/>
     <use xlink:href="#DejaVuSans-31" x="1972.167969"/>
    </g>
   </g>
  </g>
 </g>
 <defs>
  <clipPath id="pe5c78175eb">
   <rect x="57.6" y="41.472" width="357.12" height="266.112"/>
  </clipPath>
 </defs>
</svg>
